<?xml version="1.0" encoding="utf-8"?>
<!-- Generator: Adobe Illustrator 25.3.1, SVG Export Plug-In . SVG Version: 6.00 Build 0)  -->
<svg version="1.1" id="Layer_1" xmlns="http://www.w3.org/2000/svg" xmlns:xlink="http://www.w3.org/1999/xlink" x="0px" y="0px"
	 viewBox="0 0 497.3 497.3" style="enable-background:new 0 0 497.3 497.3;" xml:space="preserve">
<style type="text/css">
	.st0{fill:url(#SVGID_1_);}
	.st1{fill:none;stroke:url(#SVGID_2_);stroke-width:3;stroke-miterlimit:10;}
	.st2{fill:none;stroke:url(#SVGID_3_);stroke-width:3;stroke-miterlimit:10;}
</style>
<linearGradient id="SVGID_1_" gradientUnits="userSpaceOnUse" x1="367.2351" y1="460.0493" x2="124.4772" y2="39.5804">
	<stop  offset="0" style="stop-color:#FAEE5A"/>
	<stop  offset="1" style="stop-color:#FFFFFF;stop-opacity:0.2"/>
</linearGradient>
<circle class="st0" cx="245.9" cy="249.8" r="243.1"/>
<linearGradient id="SVGID_2_" gradientUnits="userSpaceOnUse" x1="491.8837" y1="397.2127" x2="419.3809" y2="357.4348" gradientTransform="matrix(1 0 0 1 -4.4038 1.8241)">
	<stop  offset="0" style="stop-color:#FAEE5A"/>
	<stop  offset="1" style="stop-color:#FFFFFF;stop-opacity:0.2"/>
</linearGradient>
<path class="st1" d="M440,417.7l-27.4-27.4c-6.2-6.2-6.2-16.2,0-22.4l27.4-27.4c6.2-6.2,16.2-6.2,22.4,0l27.4,27.4
	c6.2,6.2,6.2,16.2,0,22.4l-27.4,27.4C456.2,423.9,446.2,423.9,440,417.7z"/>
<linearGradient id="SVGID_3_" gradientUnits="userSpaceOnUse" x1="1134.8573" y1="-9659.0693" x2="1086.5034" y2="-9685.5977" gradientTransform="matrix(-1 0 0 -1 1167.8575 -9569.5801)">
	<stop  offset="0" style="stop-color:#FAEE5A"/>
	<stop  offset="1" style="stop-color:#FFFFFF;stop-opacity:0.2"/>
</linearGradient>
<path class="st2" d="M65.2,77.9L82,94.7c4.4,4.4,4.4,11.6,0,16l-16.8,16.8c-4.4,4.4-11.6,4.4-16,0l-16.8-16.8
	c-4.4-4.4-4.4-11.6,0-16l16.8-16.8C53.6,73.5,60.8,73.5,65.2,77.9z"/>
</svg>
