<svg id="Layer_2" data-name="Layer 2" xmlns="http://www.w3.org/2000/svg" viewBox="0 0 1080 1080"><defs><style>.cls-1,.cls-2,.cls-3{fill:none;stroke:#000;stroke-linecap:round;stroke-linejoin:round;}.cls-1{stroke-width:10px;}.cls-2{stroke-width:5px;}.cls-3{stroke-width:7px;}</style></defs><line class="cls-1" x1="931.87" y1="850.49" x2="889.06" y2="850.49"/><path class="cls-1" d="M735.6,850.49H16.75A8.76,8.76,0,0,1,8,841.73V179.16a8.76,8.76,0,0,1,8.75-8.76h983.59a8.76,8.76,0,0,1,8.75,8.76V574.62"/><path class="cls-1" d="M1009.09,782.9v58.83a8.76,8.76,0,0,1-8.75,8.76h-38.2"/><path class="cls-1" d="M853.08,851.53H795"/><g id="palette"><path class="cls-1" d="M789.66,587.68c64.74-46,154.41-53.78,213.83-16.86,4.25,2.65,77.34,49.63,69.07,121.55-4.83,42-36.63,86.07-74.59,93.92-29.18,6.05-51.57-11.5-77.84.19"/><path class="cls-1" d="M769.89,603.69a189.39,189.39,0,0,0-28.84,33.44c-49.43,73.25-33.81,163.86-2.76,218.24,9.49,16.61,43.81,76.71,93.93,74.57,23.36-1,52.76-15.6,60.77-38.66,9-26-15.08-45.24-2.76-74.59a54.36,54.36,0,0,1,9.58-15.07"/><circle class="cls-2" cx="823.93" cy="858.12" r="33.15"/><circle class="cls-2" cx="750.72" cy="726.9" r="20.72"/><circle class="cls-2" cx="775.58" cy="663.37" r="20.72"/><path class="cls-2" d="M822.1,637.11a3.24,3.24,0,0,0,.44,0,20.73,20.73,0,1,0-19.18-28.56"/><circle class="cls-2" cx="886.09" cy="591.54" r="20.72"/><g id="Brush"><path class="cls-1" d="M944.25,869.33,712,515.41a12.66,12.66,0,0,1,3.64-17.52,12.49,12.49,0,0,1,6.92-2.07,12.65,12.65,0,0,1,10.6,5.71L965.94,856.28"/><path class="cls-1" d="M1069.13,884.6c-4.76,7.95-16,24-36.65,33.32-21.16,9.52-52.08,11.91-73.31-5-2.32-1.85-23.54-18.75-18.33-36.66,3.62-12.42,18.91-21.77,31.66-20,19.23,2.69,20.31,29,41.65,38.32C1025,899.33,1041.9,900.07,1069.13,884.6Z"/><path d="M1072.92,887.86a72.59,72.59,0,0,1-12.54,10A69.32,69.32,0,0,1,1031,908.07a68.53,68.53,0,0,1-15.22,0,.11.11,0,0,1,0-.22,67.6,67.6,0,0,0,14.72-2.36,65.84,65.84,0,0,0,13.57-5.46,63.52,63.52,0,0,0,21.24-18.66,5,5,0,1,1,8.14,5.87,4.77,4.77,0,0,1-.51.6Z"/></g></g><g id="image"><path d="M529.25,437.76V663.1H121.16V437.76H529.25m0-7H121.16a7,7,0,0,0-7,7V663.1a7,7,0,0,0,7,7H529.25a7,7,0,0,0,7-7V437.76a7,7,0,0,0-7-7Z"/><path d="M115.28,411.36v20.52H94.76V411.36h20.52m0-7H94.76a7,7,0,0,0-7,7v20.52a7,7,0,0,0,7,7h20.52a7,7,0,0,0,7-7V411.36a7,7,0,0,0-7-7Z"/><path d="M116.44,669.83v20.51H95.92V669.83h20.52m0-7H95.92a7,7,0,0,0-7,7v20.51a7,7,0,0,0,7,7h20.52a7,7,0,0,0,7-7V669.83a7,7,0,0,0-7-7Z"/><path d="M554.48,669.35v20.51H534V669.35h20.51m0-7H534a7,7,0,0,0-7,7v20.51a7,7,0,0,0,7,7h20.51a7,7,0,0,0,7-7V669.35a7,7,0,0,0-7-7Z"/><path d="M555.65,411.36v20.52H535.13V411.36h20.52m0-7H535.13a7,7,0,0,0-7,7v20.52a7,7,0,0,0,7,7h20.52a7,7,0,0,0,7-7V411.36a7,7,0,0,0-7-7Z"/><circle class="cls-3" cx="464.27" cy="518.7" r="23.94"/><path class="cls-3" d="M121.16,663.47q70.67-79.8,141.35-159.59,49,60.42,98,120.83l59.28-41L527,663.47"/></g><g id="Text"><line class="cls-3" x1="630" y1="457.18" x2="942.42" y2="457.18"/><line class="cls-3" x1="630" y1="498.06" x2="942.42" y2="498.06"/><line class="cls-3" x1="942.42" y1="536.01" x2="755.75" y2="536.01"/><line class="cls-3" x1="725.48" y1="536.01" x2="630" y2="536.01"/><polyline class="cls-3" points="825.62 568.13 823.3 568.13 776.83 568.13"/><line class="cls-3" x1="746.56" y1="568.14" x2="630" y2="568.14"/><path class="cls-3" d="M736.61,644.05H632.35A2.35,2.35,0,0,1,630,641.7V608.43a2.35,2.35,0,0,1,2.35-2.34H753.21a2.34,2.34,0,0,1,2.34,2.34v9.93"/></g><g id="nav"><line class="cls-3" x1="767.03" y1="256.05" x2="804.8" y2="256.05"/><line class="cls-3" x1="839.88" y1="256.05" x2="877.66" y2="256.05"/><line class="cls-3" x1="910.04" y1="256.05" x2="947.82" y2="256.05"/><rect class="cls-3" x="81.64" y="236.36" width="39.38" height="39.38"/><line class="cls-3" x1="121.02" y1="236.36" x2="81.64" y2="275.74"/><line class="cls-3" x1="81.64" y1="236.36" x2="121.02" y2="275.74"/></g></svg>