<svg xmlns="http://www.w3.org/2000/svg" viewBox="0 0 1080 1080"><defs><style>.cls-1{fill:none;stroke:#2a21ed;stroke-linecap:round;stroke-linejoin:round;stroke-width:60px;}</style></defs><g id="Layer_2" data-name="Layer 2"><path class="cls-1" d="M231,645.6a309.89,309.89,0,0,1,14.44-80.86A311.68,311.68,0,0,1,546.74,348.15a309.62,309.62,0,0,1,92.41,15.4c17.9,5.91,81.85,28.9,136.7,91.45a318.37,318.37,0,0,1,43.32,63.53"/><path class="cls-1" d="M849,653.7c.38,19.39.7,145.7-101.08,237.38-82.47,74.28-178.81,77.95-206,78-23.1,0-111-2.48-192.53-66.42A309.37,309.37,0,0,1,231,645.6"/><path class="cls-1" d="M390,654.07H550.89l296.19-1"/><line class="cls-1" x1="292.21" y1="1049" x2="540.03" y2="37"/><line class="cls-1" x1="787.84" y1="1049" x2="540.03" y2="37"/></g></svg>