<?xml version="1.0" encoding="utf-8"?>
<!-- Generator: Adobe Illustrator 25.4.1, SVG Export Plug-In . SVG Version: 6.00 Build 0)  -->
<svg version="1.1" id="Layer_1" xmlns="http://www.w3.org/2000/svg" xmlns:xlink="http://www.w3.org/1999/xlink" x="0px" y="0px"
	 viewBox="0 0 1080 1080" style="enable-background:new 0 0 1080 1080;" xml:space="preserve">
<style type="text/css">
	.st0{fill:#0E1F2B;}
	.st1{fill:none;stroke:#1A3749;stroke-width:3;stroke-miterlimit:10;}
	.st2{fill:none;stroke:#1A3749;stroke-width:3;stroke-linecap:round;stroke-miterlimit:10;}
	.st3{fill:#1A3749;}
	.st4{fill:none;stroke:#CC6699;stroke-width:3;stroke-linecap:round;stroke-miterlimit:10;}
	.st5{fill:none;stroke:#6699CC;stroke-width:3;stroke-linecap:round;stroke-miterlimit:10;}
	.st6{fill:none;stroke:#CCCC33;stroke-width:3;stroke-linecap:round;stroke-miterlimit:10;}
	.st7{fill:none;stroke:#006600;stroke-width:2;stroke-linecap:round;stroke-miterlimit:10;}
	.st8{fill:#5B3D2F;}
	.st9{fill:none;stroke:#000000;stroke-width:2;stroke-linecap:round;stroke-linejoin:round;stroke-miterlimit:10;}
	.st10{fill:#212121;}
	.st11{fill:#4D4D4D;}
	.st12{fill:#1F5673;}
	.st13{display:none;fill:#8A6239;}
	.st14{display:none;fill:#BF272D;}
	.st15{display:none;fill:none;stroke:#000000;stroke-width:2;stroke-linecap:round;stroke-linejoin:round;stroke-miterlimit:10;}
	.st16{fill:#BF272D;}
	.st17{fill:#8A6239;}
	.st18{fill:#1A1A1A;}
	.st19{fill:#B48868;}
	.st20{fill:#190A07;}
	.st21{fill:none;stroke:#000000;stroke-width:30;stroke-linecap:round;stroke-linejoin:round;stroke-miterlimit:10;}
	.st22{opacity:0.5;}
</style>
<g id="Monitor">
	<rect x="240.8" y="34.1" width="596.9" height="323.2"/>
	<path class="st0" d="M815.5,342.5H263c-3.2,0-5.8-2.6-5.8-5.8V54.7c0-3.2,2.6-5.8,5.8-5.8h552.5c3.2,0,5.8,2.6,5.8,5.8v281.9
		C821.3,339.9,818.7,342.5,815.5,342.5z"/>
	<line class="st1" x1="256.7" y1="81.2" x2="821.5" y2="81.2"/>
	<line class="st1" x1="343.1" y1="276.8" x2="821.5" y2="276.8"/>
	<line class="st1" x1="343.1" y1="342.1" x2="343.1" y2="79.8"/>
	<line class="st2" x1="660.4" y1="64.6" x2="418.7" y2="64.6"/>
	<g>
		<circle class="st3" cx="797.8" cy="64.6" r="5.8"/>
		<circle class="st3" cx="765.6" cy="64.6" r="5.8"/>
		<circle class="st3" cx="732.5" cy="64.6" r="5.8"/>
	</g>
	<g>
		<circle class="st3" cx="811" cy="291.4" r="2.5"/>
		<circle class="st3" cx="797.1" cy="291.4" r="2.5"/>
		<circle class="st3" cx="782.9" cy="291.4" r="2.5"/>
	</g>
	<g>
		<line class="st2" x1="275.9" y1="104" x2="324.3" y2="104"/>
		<line class="st2" x1="275.9" y1="136.2" x2="324.3" y2="136.2"/>
		<line class="st2" x1="275.9" y1="114.8" x2="312.6" y2="114.8"/>
		<line class="st2" x1="275.9" y1="147" x2="312.6" y2="147"/>
		<line class="st2" x1="275.9" y1="125.5" x2="319.8" y2="125.5"/>
	</g>
	<g>
		<line class="st4" x1="378.9" y1="117.4" x2="435.3" y2="117.4"/>
		<line class="st4" x1="732.5" y1="117.4" x2="761.1" y2="117.4"/>
		<line class="st2" x1="643.8" y1="117.4" x2="726.2" y2="117.4"/>
		<line class="st2" x1="651.9" y1="157.4" x2="771.4" y2="157.4"/>
		<line class="st5" x1="378.9" y1="157.4" x2="430.8" y2="157.4"/>
		<line class="st2" x1="378.9" y1="130.8" x2="676.9" y2="130.8"/>
		<line class="st2" x1="378.9" y1="170.7" x2="438" y2="170.7"/>
		<line class="st5" x1="643.8" y1="171.2" x2="779.9" y2="171.2"/>
		<line class="st5" x1="685" y1="130.9" x2="770.9" y2="130.9"/>
		<line class="st6" x1="378.9" y1="144.1" x2="429.9" y2="144.1"/>
		<line class="st6" x1="700.2" y1="144.3" x2="779.9" y2="144.3"/>
		<line class="st2" x1="651" y1="144.3" x2="691.3" y2="144.3"/>
	</g>
	<g>
		<line class="st2" x1="621.5" y1="185.5" x2="771.4" y2="185.5"/>
		<line class="st4" x1="378" y1="185.5" x2="458.5" y2="185.5"/>
		<line class="st2" x1="577.6" y1="225.4" x2="671.6" y2="225.4"/>
		<line class="st5" x1="681.4" y1="225.8" x2="775.4" y2="225.8"/>
		<line class="st4" x1="378.9" y1="225.4" x2="502.4" y2="225.4"/>
		<line class="st2" x1="378.9" y1="198.8" x2="470.2" y2="198.8"/>
		<line class="st4" x1="609.8" y1="198.9" x2="779.9" y2="198.9"/>
		<line class="st6" x1="576.7" y1="238.7" x2="676.9" y2="238.7"/>
		<line class="st2" x1="378.9" y1="238.7" x2="501.4" y2="238.7"/>
		<line class="st2" x1="591.9" y1="212.1" x2="735.1" y2="212.1"/>
		<line class="st5" x1="378.9" y1="212.1" x2="489" y2="212.1"/>
	</g>
	<g>
		<line class="st2" x1="275.9" y1="158.6" x2="324.3" y2="158.6"/>
		<line class="st2" x1="275.9" y1="190.8" x2="324.3" y2="190.8"/>
		<line class="st2" x1="275.9" y1="169.4" x2="312.6" y2="169.4"/>
		<line class="st2" x1="275.9" y1="201.6" x2="312.6" y2="201.6"/>
		<line class="st2" x1="275.9" y1="180.1" x2="319.8" y2="180.1"/>
	</g>
	<polyline class="st7" points="359.6,290.7 364.1,292.9 359.6,295.1 	"/>
	<line class="st7" x1="369" y1="296.5" x2="386" y2="296.5"/>
</g>
<g id="table">
	<path class="st8" d="M1014.2,598.6H66.7c-3.9,0-7-3.1-7-7v-21c0-3.9,3.1-7,7-7h947.4c3.9,0,7,3.1,7,7v21
		C1021.1,595.5,1018,598.6,1014.2,598.6z"/>
	<path class="st9" d="M1014.2,598.6H66.7c-3.9,0-7-3.1-7-7v-21c0-3.9,3.1-7,7-7h947.4c3.9,0,7,3.1,7,7v21
		C1021.1,595.5,1018,598.6,1014.2,598.6z"/>
	<g>
		
			<rect x="-105.7" y="826.7" transform="matrix(-1.836970e-16 1 -1 -1.836970e-16 972.3465 705.149)" class="st10" width="478.5" height="24.2"/>
		
			<rect x="-105.7" y="826.7" transform="matrix(-1.836970e-16 1 -1 -1.836970e-16 972.3465 705.149)" class="st9" width="478.5" height="24.2"/>
	</g>
	<g>
		
			<rect x="706.2" y="826.7" transform="matrix(-1.836970e-16 1 -1 -1.836970e-16 1784.25 -106.7546)" class="st10" width="478.5" height="24.2"/>
		
			<rect x="706.2" y="826.7" transform="matrix(-1.836970e-16 1 -1 -1.836970e-16 1784.25 -106.7546)" class="st9" width="478.5" height="24.2"/>
	</g>
	<path class="st11" d="M870.2,563.7c-10.5,0-21.1,0-31.6,0c0.2-1.6,1-6.8,5.3-10.5c5.8-5,15.3-5,21.1,0
		C869.2,556.9,870,562,870.2,563.7z"/>
	<path class="st9" d="M870.2,563.7c-10.5,0-21.1,0-31.6,0c0.2-1.6,1-6.8,5.3-10.5c5.8-5,15.3-5,21.1,0
		C869.2,556.9,870,562,870.2,563.7z"/>
	<rect x="312.2" y="550.3" class="st11" width="453.8" height="13.4"/>
	<rect x="312.2" y="550.3" class="st9" width="453.8" height="13.4"/>
	<path d="M370.3,585.6c-1.1,5.5-20,6.1-31.3,6.1c-11.3,0.1-30.2-0.6-31.3-6.1c-1.1-5.4,15-15.7,31.3-15.7S371.4,580.2,370.3,585.6z"
		/>
	<path d="M770.4,585.6c-1.1,5.5-20,6.1-31.3,6.1c-11.3,0.1-30.2-0.6-31.3-6.1c-1.1-5.4,15-15.7,31.3-15.7S771.5,580.2,770.4,585.6z"
		/>
</g>
<g id="Me_00000122722471934404117430000003778388899435921543_">
	<path class="st12" d="M760.8,844.6c-0.1,0.3-0.1,0.6-0.2,0.9c0,0,0,0.1,0,0.1c-6.3,35.6-28.5,128.3-36.3,152.7
		c-0.3,1-0.6,1.9-0.9,2.7h-63.5c0-0.2,16.3-144.5,21.7-178.8c1.1-7.1,2.2-13.9,3-20.7v0c0.3-2.8,0.6-5.6,0.8-8.4
		c0.3-3.9,0.5-7.8,0.6-11.6c0-0.3,0-0.7,0-1c0-14.5-2.3-28.7-9.2-43.2c-0.6-1.3-1.3-2.7-2.1-4.2c-19-32.5-71.4-36.7-106.4-35.7
		c-10.2,0.3-18.9,1-24.9,1.7v0.6c-0.7-0.1-1.6-0.2-2.6-0.3c-1,0.1-1.8,0.2-2.6,0.3v-0.6c-5.3-0.6-12.8-1.2-21.5-1.5
		c-34.9-1.4-90.2,2-109.8,35.6c-0.8,1.4-1.5,2.8-2.1,4.2c-6.8,14.1-9.2,28-9.4,41.8c0,0.4,0,0.8,0,1.2c0,2.8,0,5.6,0.2,8.4
		c0.9,16.7,3.6,31.8,3.6,31.8c3.1,17.2,6.1,49,12.1,112.6c0.7,7,2.1,22.2,4.4,46.7c0.9,9,1.6,16.4,2,21.3c-5.9,0-11.8,0-17.7,0
		h-41.5c-0.2-0.5-29.7-113.6-37.3-150.3c-0.2-0.9-0.3-1.7-0.5-2.5c-0.3-1.3-0.5-2.5-0.7-3.6c-11.5-56.9-12.7-121.4,12.6-161.6
		c0.5-0.8,1-1.5,1.5-2.3c3.4-5,7.1-9.6,11.1-13.7c19.6-20,46.1-29.5,71.7-37.4c3.3-1,6.6-2,9.8-3c34.6-10.4,66-11.9,90.1-10.5
		c9.1,0.5,17.2,1.4,24,2.4c7.7-1.1,16.9-2.1,27.4-2.6c23.6-1,53.7,0.8,86.7,10.7c4.5,1.4,9.1,2.7,13.8,4.2
		c27.1,8.5,54.7,19.4,73.8,42.9c1.8,2.2,3.5,4.5,5.1,6.9c0.5,0.7,0.9,1.4,1.4,2.2C772.3,719.9,772.1,779.7,760.8,844.6z"/>
	<path class="st9" d="M762.8,833.9c-0.6,3.3-1.3,7.2-2.2,11.6c0,0,0,0.1,0,0.1c0,0.1-11.6,71.6-36.3,152.7c-0.2,0.7-0.6,1.9-1,3.3
		c-21.1,0-42.3-0.1-63.4-0.1c6-59,13.2-118.8,21.8-179.4c1-6.9,2-13.8,3-20.7v0c0.3-2.8,0.6-5.6,0.8-8.4c0.3-3.9,0.5-7.8,0.6-11.6
		c0-0.3,0-0.7,0-1c0-14.5-2.3-28.7-9.2-43.2c-0.6-1.3-1.3-2.7-2.1-4.2c-19-32.5-71.4-36.7-106.4-35.7c-10.2,0.3-18.9,1-24.9,1.7v0.6
		c-0.7-0.1-1.6-0.2-2.6-0.3c-1,0.1-1.8,0.2-2.6,0.3v-0.6c-5.3-0.6-12.8-1.2-21.5-1.5c-34.9-1.4-90.2,2-109.8,35.6
		c-0.8,1.4-1.5,2.8-2.1,4.2c-6.8,14.1-9.2,28-9.4,41.8c0,0.4,0,0.8,0,1.2c0,2.8,0,5.6,0.2,8.4c0.9,16.8,3.6,31.8,3.6,31.8
		c2,10.8,7.1,54.5,19.5,181.6c-20.3-0.1-40.5-0.2-60.8-0.3c-25.5-104.4-36-147.8-36.7-151.2c0,0-0.2-1.1-0.5-2.5
		c-0.7-3.1-1.2-6-1.8-8.5C307.6,782.8,307.4,723,332.7,683c0.5-0.8,1-1.5,1.5-2.3c3.4-5,7.1-9.6,11.1-13.7
		c19.6-20,46.1-29.5,71.7-37.4c3.3-1,6.6-2,9.8-3c34.6-10.4,66-11.9,90.1-10.5c9.1,0.5,17.2,1.4,24,2.4c7.7-1.1,16.9-2.1,27.4-2.6
		c23.6-1,53.7,0.8,86.7,10.7c4.5,1.4,9.1,2.7,13.8,4.2c27.1,8.5,54.7,19.4,73.8,42.9c1.8,2.2,3.5,4.5,5.1,6.9
		c0.5,0.7,0.9,1.4,1.4,2.2C772.4,719.5,774.1,769,762.8,833.9z"/>
	<g>
		<path class="st13" d="M436.3,1063.7c-1.7,2.5-7.1,2.4-8.5,2.6c-9.3,1.4-16.4,0.3-26.1,0.3c-10.4,0-34.6-2-51.4-2.8
			c0,0-55.8-1.4-60.4-5.5c-0.7-0.7-1.4-1.4-1.4-1.4c-1.8-1.9-2.8-3.9-3.5-5.3c25.5,0.7,51,1.5,76.6,2.2c25,0.7,50,1.4,74.9,2
			C437,1057.4,438.1,1061.2,436.3,1063.7z"/>
		<path class="st14" d="M436.5,1055.9c-50.5-1.4-101-2.8-151.5-4.2c-0.6-1.1-4.7-9-1.5-17.1c2.2-5.5,6.7-8.2,8.2-9.2
			c2.3-1.4,5.3-2.5,7.8-2.9c0.1,0,0.1,0,0.3,0c2.3-0.3,4.4-0.7,6.3-1.2c0.1,0,0.1,0,0.2,0c0.1,0,0.2,0,0.3-0.1
			c23.8-7.2,29.9-9,35.1-10.6c0.2-0.1,1.4-0.4,3-0.9c4-1.4,7.1-2.5,9.7-5.1c0.8-0.8,2-2.1,3.1-4.2c0.7-0.7,1.6-1.5,2.7-1.4
			c2.4,0.3,2.9,5.1,5.3,8.8c2.6,4.2,6.7,5.6,11.4,7.4c9.6,3.5,18,1.5,34.9-2.5c1.5-0.4,4-1,7-2.6c1.3-0.7,3.5-1.8,5.9-4
			c2.3-2.1,2.2-2.7,3-2.9c3.6-0.6,5.1,7.2,7.9,19c1.2,5,2.4,10.3,2.5,17.7C438.3,1046.4,437.4,1051.9,436.5,1055.9z"/>
		<path class="st15" d="M436.5,1055.9c-50.5-1.4-101-2.8-151.5-4.2c-0.6-1.1-4.7-9-1.5-17.1c2.2-5.5,6.7-8.2,8.2-9.2
			c2.3-1.4,5.3-2.5,7.8-2.9c0.1,0,0.1,0,0.3,0c2.3-0.3,4.4-0.7,6.3-1.2c0.1,0,0.1,0,0.2,0c0.1,0,0.2,0,0.3-0.1
			c23.8-7.2,29.9-9,35.1-10.6c0.2-0.1,1.4-0.4,3-0.9c4-1.4,7.1-2.5,9.7-5.1c0.8-0.8,2-2.1,3.1-4.2c0.7-0.7,1.6-1.5,2.7-1.4
			c2.4,0.3,2.9,5.1,5.3,8.8c2.6,4.2,6.7,5.6,11.4,7.4c9.6,3.5,18,1.5,34.9-2.5c1.5-0.4,4-1,7-2.6c1.3-0.7,3.5-1.8,5.9-4
			c2.3-2.1,2.2-2.7,3-2.9c3.6-0.6,5.1,7.2,7.9,19c1.2,5,2.4,10.3,2.5,17.7C438.3,1046.4,437.4,1051.9,436.5,1055.9z"/>
		<path class="st15" d="M436.3,1063.7c-1.7,2.5-7.1,2.4-8.5,2.6c-9.3,1.4-16.4,0.3-26.1,0.3c-10.4,0-34.6-2-51.4-2.8
			c0,0-55.8-1.4-60.4-5.5c-0.7-0.7-1.4-1.4-1.4-1.4c-1.8-1.9-2.8-3.9-3.5-5.3c25.5,0.7,51,1.5,76.6,2.2c25,0.7,50,1.4,74.9,2
			C437,1057.4,438.1,1061.2,436.3,1063.7z"/>
	</g>
	<g>
		<path class="st16" d="M423.2,1030.1c0.4-18.5,2.7-38.3-1.7-39.1c-0.9-0.2-1.8,0.6-4.8,0.5c-1.4,0-2.8-0.2-4.3-0.5
			c-4.9-1.1-5.7-2.5-9.1-3.4c-4.1-1-7.8-0.2-9.8,0.3c-4.2,0.9-4.2,2.1-9,3.8c-2.8,1-9.5,2.4-12.8,2.1c-10.8-0.9-15-22.6-21.8-21.6
			c-1.6,0.2-1.1,1.4-7.9,7.3c-2.9,2.5-4.5,3.9-7,5.2c-2.9,1.5-5.4,2.2-9.4,2.9c-9.8,1.9-11.4,1.6-16.6,2.4
			c-2.1,0.3-10.2,1.9-15.4,6.7c-4.2,3.8-5,8.9-6.5,18.8c-0.9,5.7-1.1,10.5-1.1,13.9c2.1,1,5.4,2.5,9.5,3.9c3.2,1.1,8.1,2.6,22.8,5.1
			c5.1,0.9,9.2,1.5,12.6,2c6.8,1,16.5,2.6,26.5,3.7c4.2,0.5,8,0.9,11.5,1.3c2.8,0.4,5.9,0.7,9.2,1c9.1,0.9,14.6,1.1,17.4,0.3
			c11-0.5,20.4-2,27.6-3.7C423.2,1040,423.1,1035.5,423.2,1030.1z"/>
		<path class="st17" d="M423.1,1055.5c-0.9,2.3-16.1,5.7-30.5,5.7h0c-42-3.3-73.1-8.8-85.8-13.4c-4.6-1.7-13.7-4.9-18.3-12.5
			c-1.4-2.3-2-4.4-2.3-5.8c11.9,7.1,48.1,11.7,80.9,15.9c6.3,0.8,13.9,1.7,23.5,1.6c14.1-0.1,25.5-2.2,32.9-3.9
			C423.2,1047.8,423.1,1055.4,423.1,1055.5z"/>
		<path class="st9" d="M423.2,1030.1c0.4-18.5,2.7-38.3-1.7-39.1c-0.9-0.2-1.8,0.6-4.8,0.5c-1.4,0-2.8-0.2-4.3-0.5
			c-4.9-1.1-5.7-2.5-9.1-3.4c-4.1-1-7.8-0.2-9.8,0.3c-4.2,0.9-4.2,2.1-9,3.8c-2.8,1-9.5,2.4-12.8,2.1c-10.8-0.9-15-22.6-21.8-21.6
			c-1.6,0.2-1.1,1.4-7.9,7.3c-2.9,2.5-4.5,3.9-7,5.2c-2.9,1.5-5.4,2.2-9.4,2.9c-9.8,1.9-11.4,1.6-16.6,2.4
			c-2.1,0.3-10.2,1.9-15.4,6.7c-4.2,3.8-5,8.9-6.5,18.8c-0.9,5.7-1.1,10.5-1.1,13.9c2.1,1,5.4,2.5,9.5,3.9c3.2,1.1,8.1,2.6,22.8,5.1
			c5.1,0.9,9.2,1.5,12.6,2c6.8,1,16.5,2.6,26.5,3.7c4.2,0.5,8,0.9,11.5,1.3c2.8,0.4,5.9,0.7,9.2,1c9.1,0.9,14.6,1.1,17.4,0.3
			c11-0.5,20.4-2,27.6-3.7C423.2,1040,423.1,1035.5,423.2,1030.1z"/>
		<path class="st9" d="M423.1,1055.5c-0.9,2.3-16.1,5.7-30.5,5.7h0c-42-3.3-73.1-8.8-85.8-13.4c-4.6-1.7-13.7-4.9-18.3-12.5
			c-1.4-2.3-2-4.4-2.3-5.8c11.9,7.1,48.1,11.7,80.9,15.9c6.3,0.8,13.9,1.7,23.5,1.6c14.1-0.1,25.5-2.2,32.9-3.9
			C423.2,1047.8,423.1,1055.4,423.1,1055.5z"/>
	</g>
	<g>
		<path class="st16" d="M660.3,1030.1c-0.4-18.5-2.7-38.3,1.7-39.1c0.9-0.2,1.8,0.6,4.8,0.5c1.4,0,2.8-0.2,4.3-0.5
			c4.9-1.1,5.7-2.5,9.1-3.4c4.1-1,7.8-0.2,9.8,0.3c4.2,0.9,4.2,2.1,9,3.8c2.8,1,9.5,2.4,12.8,2.1c10.8-0.9,15-22.6,21.8-21.6
			c1.6,0.2,1.1,1.4,7.9,7.3c2.9,2.5,4.5,3.9,7,5.2c2.9,1.5,5.4,2.2,9.4,2.9c9.8,1.9,11.4,1.6,16.6,2.4c2.1,0.3,10.2,1.9,15.4,6.7
			c4.2,3.8,5,8.9,6.5,18.8c0.9,5.7,1.1,10.5,1.1,13.9c-2.1,1-5.4,2.5-9.5,3.9c-3.2,1.1-8.1,2.6-22.8,5.1c-5.1,0.9-9.2,1.5-12.6,2
			c-6.8,1-16.5,2.6-26.5,3.7c-4.2,0.5-8,0.9-11.5,1.3c-2.8,0.4-5.9,0.7-9.2,1c-9.1,0.9-14.6,1.1-17.4,0.3c-11-0.5-20.4-2-27.6-3.7
			C660.4,1040,660.4,1035.5,660.3,1030.1z"/>
		<path class="st17" d="M660.5,1055.5c0.9,2.3,16.1,5.7,30.5,5.7h0c42-3.3,73.1-8.8,85.8-13.4c4.6-1.7,13.7-4.9,18.3-12.5
			c1.4-2.3,2-4.4,2.3-5.8c-11.9,7.1-48.1,11.7-80.9,15.9c-6.3,0.8-13.9,1.7-23.5,1.6c-14.1-0.1-25.5-2.2-32.9-3.9
			C660.4,1047.8,660.5,1055.4,660.5,1055.5z"/>
		<path class="st9" d="M660.3,1030.1c-0.4-18.5-2.7-38.3,1.7-39.1c0.9-0.2,1.8,0.6,4.8,0.5c1.4,0,2.8-0.2,4.3-0.5
			c4.9-1.1,5.7-2.5,9.1-3.4c4.1-1,7.8-0.2,9.8,0.3c4.2,0.9,4.2,2.1,9,3.8c2.8,1,9.5,2.4,12.8,2.1c10.8-0.9,15-22.6,21.8-21.6
			c1.6,0.2,1.1,1.4,7.9,7.3c2.9,2.5,4.5,3.9,7,5.2c2.9,1.5,5.4,2.2,9.4,2.9c9.8,1.9,11.4,1.6,16.6,2.4c2.1,0.3,10.2,1.9,15.4,6.7
			c4.2,3.8,5,8.9,6.5,18.8c0.9,5.7,1.1,10.5,1.1,13.9c-2.1,1-5.4,2.5-9.5,3.9c-3.2,1.1-8.1,2.6-22.8,5.1c-5.1,0.9-9.2,1.5-12.6,2
			c-6.8,1-16.5,2.6-26.5,3.7c-4.2,0.5-8,0.9-11.5,1.3c-2.8,0.4-5.9,0.7-9.2,1c-9.1,0.9-14.6,1.1-17.4,0.3c-11-0.5-20.4-2-27.6-3.7
			C660.4,1040,660.4,1035.5,660.3,1030.1z"/>
		<path class="st9" d="M660.5,1055.5c0.9,2.3,16.1,5.7,30.5,5.7h0c42-3.3,73.1-8.8,85.8-13.4c4.6-1.7,13.7-4.9,18.3-12.5
			c1.4-2.3,2-4.4,2.3-5.8c-11.9,7.1-48.1,11.7-80.9,15.9c-6.3,0.8-13.9,1.7-23.5,1.6c-14.1-0.1-25.5-2.2-32.9-3.9
			C660.4,1047.8,660.5,1055.4,660.5,1055.5z"/>
	</g>
	<path class="st18" d="M764,480.4c-2.8-9.8-6.7-21.9-12-35.8c-38.1-86.6-47.1-125.5-82.9-159.3c-6.8-6.5-15.5-14.5-29-20.6
		c-24-10.9-47.9-9.6-60.4-8.1c-5,2.9-12.7,6.7-23,9c-5.7,1.2-10.9,1.7-15.2,1.8c-5.3,0-12.6-0.5-21-2.7c-9.3-2.5-16.4-6.1-21-9
		c-13.8-1.5-37.9-2.2-61.9,9c-13.2,6.1-21.9,13.9-29,20.6c-35.8,33.9-44.8,72.8-82.9,159.3c-5.3,13.9-9.2,26-12,35.8
		c-4.3,15-10.6,40.2-2.7,56c0.3,0.5,0.5,1,0.7,1.3c6.3,10.8,16.2,16.4,22,19.7c14.4,8.1,30.3,10.8,64.9,9.8
		c20.8-0.6,48.8-2.5,81.9-8.1c-0.7-13.4-1.3-26.9-2-40.3c-23.5-4.8-42.7-6.9-55.9-8.1c-23.8-2-37.9-1.4-44-9.8
		c-5.2-7.2-1.5-16.9,1-23.3c13.7-34.7,28-66.9,36.9-86.4c9.3,38.6,18.7,77.3,28,115.9c15.6,2.4,31.3,4.8,46.9,7.2
		c15.2,14.2,30.5,28.4,45.7,42.6l0,3c0.5-0.5,1.1-1,1.6-1.5c0.5,0.5,1.1,1,1.6,1.5l0-3c15.2-14.2,30.5-28.4,45.7-42.6
		c15.6-2.4,31.3-4.8,46.9-7.2c9.3-38.6,18.7-77.3,28-115.9c14.4,34.5,26.1,62,36.9,86.4c3.2,7.1,8.3,18.5,2.5,26
		c-6.3,8.2-21.3,6-45.4,7.2c-13.5,0.7-32.7,2.6-55.9,8.1c-0.7,13.4-1.3,26.9-2,40.3c33.1,5.6,61.1,7.5,81.9,8.1
		c34.6,0.9,50.6-1.8,64.9-9.8c5.8-3.3,15.7-8.8,22-19.7c0.2-0.4,0.5-0.8,0.7-1.3C774.6,520.6,768.4,495.4,764,480.4z"/>
	<path class="st9" d="M764,480.4c-2.8-9.8-6.7-21.9-12-35.8c-38.1-86.6-47.1-125.5-82.9-159.3c-6.8-6.5-15.5-14.5-29-20.6
		c-24-10.9-47.9-9.6-60.4-8.1c-5,2.9-12.7,6.7-23,9c-5.7,1.2-10.9,1.7-15.2,1.8c-5.3,0-12.6-0.5-21-2.7c-9.3-2.5-16.4-6.1-21-9
		c-13.8-1.5-37.9-2.2-61.9,9c-13.2,6.1-21.9,13.9-29,20.6c-35.8,33.9-44.8,72.8-82.9,159.3c-5.3,13.9-9.2,26-12,35.8
		c-4.3,15-10.6,40.2-2.7,56c0.3,0.5,0.5,1,0.7,1.3c6.3,10.8,16.2,16.4,22,19.7c14.4,8.1,30.3,10.8,64.9,9.8
		c20.8-0.6,48.8-2.5,81.9-8.1c-0.7-13.4-1.3-26.9-2-40.3c-23.5-4.8-42.7-6.9-55.9-8.1c-23.8-2-37.9-1.4-44-9.8
		c-5.2-7.2-1.5-16.9,1-23.3c13.7-34.7,28-66.9,36.9-86.4c9.3,38.6,18.7,77.3,28,115.9c15.6,2.4,31.3,4.8,46.9,7.2
		c15.2,14.2,30.5,28.4,45.7,42.6l0,3c0.5-0.5,1.1-1,1.6-1.5c0.5,0.5,1.1,1,1.6,1.5l0-3c15.2-14.2,30.5-28.4,45.7-42.6
		c15.6-2.4,31.3-4.8,46.9-7.2c9.3-38.6,18.7-77.3,28-115.9c14.4,34.5,26.1,62,36.9,86.4c3.2,7.1,8.3,18.5,2.5,26
		c-6.3,8.2-21.3,6-45.4,7.2c-13.5,0.7-32.7,2.6-55.9,8.1c-0.7,13.4-1.3,26.9-2,40.3c33.1,5.6,61.1,7.5,81.9,8.1
		c34.6,0.9,50.6-1.8,64.9-9.8c5.8-3.3,15.7-8.8,22-19.7c0.2-0.4,0.5-0.8,0.7-1.3C774.6,520.6,768.4,495.4,764,480.4z"/>
	<g id="Head_00000029738706691038895610000011810125546407984774_">
		<path class="st19" d="M439.4,133.5c-21.6,8.7-6.4,53.8,16.1,46.3c-0.4-0.8-0.9-1.5-1.3-2.3c-1.5-3.1-3-6.6-4.2-10.5
			c-2.5-7.7-3.6-14.7-4-20.4C443.8,142.2,441.6,137.9,439.4,133.5z"/>
		<path class="st19" d="M501.7,218c0.1,12.7,0.3,25.4,0.4,38.1c5.3,3.4,18.7,11,37.4,11.2c18.6,0.3,32.2-6.9,37.6-10.2
			c0-7.8-0.2-33.8-0.3-39c-8.4,2.8-21.1,6.1-36.8,6.2C523.5,224.5,510.3,221,501.7,218z"/>
		<path class="st19" d="M633.5,147.6c-1.2-5.9-3.4-13.3-7.3-21.4c-2.7-5.5-5.6-10.1-8.4-13.8c-3.1-1.2-10.4-4.5-16.3-12.2
			c-6.7-8.8-7.3-18-7.4-21.3c-14.8,2.2-31.9,3.8-50.9,3.9c-22.2,0.1-41.9-1.9-58.5-4.5c0.2,3.2,0.1,10.8-4.4,18.7
			c-6.2,10.8-16.5,14.4-19.1,15.3c-3.4,5.1-7.1,11.7-10.2,19.7c-2.1,5.5-3.6,10.6-4.6,15.2c0.4,7.3,2.1,21.5,11,36.2
			c9.8,16.1,22.9,23.9,29.9,28c22.7,13.2,44.6,13.2,52.7,13.1c10.1-0.1,53.1-0.7,77.9-34.3C629.9,174,632.7,156.9,633.5,147.6z"/>
		<path class="st20" d="M634.2,147.1c-13.3,41-51.8,68.7-94.6,68.3c-41.9-0.4-79.3-27.8-92.6-67.9c-3.4-5-13.9-22.1-12-45.8
			c1.7-22,13.1-36.5,17.2-41.2c-4.1-3.5-10.2-16.8-9.6-24c5.6,2.3,36.2-1.5,39.5-5.9c-0.2-0.6-16.1,7.5-26.7,0.9
			c-10.5-6.9-9.6-20.2-6.8-25.6c8.9,9.1,17,11.3,22,11.9c4.5,0.5,9.6-0.5,19.5-2.7c21.3-4.5,22.5-4.9,24.9-5.3
			c25.8-7.4,100.2,2.5,102,49.4c4.7,3.5,19,15.2,24.6,36.3C648.7,122,636.6,143.1,634.2,147.1z"/>
	</g>
	<path class="st19" d="M640.7,133.5c21.6,8.7,6.4,53.8-16.1,46.3c0.4-0.8,0.9-1.5,1.3-2.3c1.5-3.1,3-6.6,4.2-10.5
		c2.5-7.7,3.6-14.7,4-20.4C636.3,142.2,638.5,137.9,640.7,133.5z"/>
	<g id="Outline_00000003078417467054470800000006822188691533100727_">
		<g id="Head_00000121977679411892110190000003834310328214901422_">
			<path class="st9" d="M446.3,147.1c6.6,102.7,180.6,103.2,187.1,0.5"/>
			<g>
				<path d="M634.7,147.5c-0.4,1.2-1,2.4-1.4,3.6c-0.5,1.2-0.9,2.4-1.3,3.6c-1,2.4-2.1,4.8-3.2,7.1c-1.2,2.3-2.5,4.6-3.7,6.9
					c-1.3,2.2-2.9,4.4-4.3,6.6c-6,8.5-13.5,16-21.9,22.2c-8.4,6.2-17.8,11.1-27.7,14.4c-9.9,3.3-20.3,5-30.8,5
					c-10.4,0-20.9-1.6-30.8-4.9c-9.9-3.2-19.3-8.1-27.8-14.2c-8.4-6.1-15.9-13.6-22-22.1c-6.1-8.5-10.9-17.9-14.1-27.8l0.1,0.2
					c-4.4-6.6-7.7-13.9-9.8-21.5c-1-3.8-1.8-7.7-2.2-11.7c-0.1-1-0.2-2-0.2-3c-0.1-1-0.1-2-0.1-3l0-3l0.1-3
					c0.2-3.9,0.8-7.9,1.7-11.7c0.9-3.9,2.1-7.7,3.6-11.3c3-7.3,7.2-14.2,12.3-20.2l0.1,1.4c-1.8-1.7-3-3.6-4.1-5.5
					c-1.1-2-2.1-4-2.9-6c-0.8-2.1-1.6-4.2-2.1-6.4c-0.5-2.2-0.9-4.4-0.8-6.8c0-0.5,0.5-1,1-0.9c0.1,0,0.2,0,0.3,0.1l0,0
					c0.6,0.2,1.4,0.4,2.2,0.5c0.8,0.1,1.6,0.1,2.4,0.2c1.7,0,3.3,0,5-0.1c3.3-0.2,6.7-0.5,10-1c3.3-0.5,6.6-1,9.9-1.8
					c1.6-0.4,3.2-0.8,4.8-1.3c0.8-0.3,1.5-0.5,2.2-0.9c0.7-0.3,1.4-0.8,1.7-1.1l-0.2,0.9c0,0.2,0.2,0.4,0.4,0.5
					c0.1,0.1,0.1,0.1,0.2,0.1c0.2,0,0.2,0,0.2,0c0.1,0,0,0,0,0l-0.1,0l-0.4,0.1l-0.8,0.3l-1.7,0.6c-1.1,0.4-2.3,0.7-3.4,1
					c-2.3,0.6-4.7,1.1-7.1,1.3c-2.4,0.2-4.9,0.2-7.3-0.2c-2.4-0.4-4.8-1.3-6.8-2.8c-4.1-2.8-6.9-7.3-8-12c-0.6-2.4-0.7-4.9-0.5-7.3
					c0.2-2.4,0.7-4.9,1.9-7.1c0.2-0.5,0.8-0.7,1.3-0.4c0.1,0,0.2,0.1,0.3,0.2l0,0c4.1,4.1,8.8,7.6,14.1,9.7c2.6,1.1,5.5,1.7,8.3,1.9
					c2.8,0.2,5.7-0.3,8.6-0.8c5.8-1.1,11.5-2.4,17.3-3.6l17.3-3.7l-0.1,0c5.2-1.4,10.6-2,15.9-2.2c5.3-0.2,10.6,0,15.9,0.5
					c10.6,1,21.1,3.2,31.1,6.8c5,1.8,9.9,4,14.5,6.7c4.6,2.7,9,5.8,12.8,9.6c3.8,3.8,7.1,8.2,9.3,13.1c2.3,4.9,3.5,10.3,3.7,15.7
					l-0.4-0.8c6.6,5,12.3,11.2,16.8,18.2c2.2,3.5,4.1,7.2,5.7,11.1c1.5,3.9,2.7,7.9,3.5,11.9c0.2,1,0.3,2,0.5,3.1
					c0.1,1,0.3,2,0.4,3.1c0.1,2.1,0.3,4.1,0.3,6.2c0.1,2.1-0.1,4.1-0.3,6.2c-0.3,2.1-0.5,4.1-0.9,6.2c-0.8,4.1-1.9,8.1-3.3,12
					l-1.1,2.9c-0.4,0.9-0.8,1.9-1.3,2.8c-0.4,0.9-0.9,1.9-1.4,2.8C635.7,145.8,635.2,146.8,634.7,147.5z M632.9,146.7
					c0.6-1,1.1-1.8,1.5-2.7c0.5-0.9,0.9-1.8,1.3-2.7c0.4-0.9,0.8-1.8,1.2-2.8l1.1-2.8c1.4-3.8,2.5-7.7,3.2-11.6c0.4-2,0.6-4,0.9-6
					c0.1-2,0.3-4,0.3-6c0.1-2-0.1-4-0.3-6c0-1-0.3-2-0.4-3c-0.2-1-0.2-2-0.5-3c-0.8-3.9-1.9-7.8-3.4-11.6c-1.5-3.7-3.4-7.3-5.5-10.7
					c-4.3-6.8-9.9-12.8-16.3-17.7c-0.2-0.2-0.4-0.5-0.4-0.8c-0.2-5.2-1.4-10.3-3.5-14.9c-2.1-4.7-5.2-8.9-8.9-12.5
					c-7.4-7.3-16.8-12.3-26.6-15.8c-9.8-3.6-20.2-5.7-30.6-6.7c-5.2-0.5-10.5-0.7-15.7-0.5c-5.2,0.2-10.4,0.8-15.4,2.1
					c0,0-0.1,0-0.1,0l-17.3,3.7c-5.8,1.2-11.5,2.5-17.4,3.6c-2.9,0.5-5.9,1-9,0.8c-3.1-0.2-6.1-1-8.9-2.1
					c-5.7-2.2-10.6-5.9-14.8-10.2l1.6-0.2c-1,1.9-1.5,4.2-1.7,6.4c-0.2,2.2-0.1,4.5,0.4,6.7c1,4.4,3.5,8.4,7.2,10.9
					c1.8,1.3,3.9,2,6.1,2.4c2.2,0.4,4.5,0.4,6.8,0.2c2.3-0.2,4.5-0.7,6.8-1.3c1.1-0.3,2.2-0.6,3.3-1l1.7-0.6l0.9-0.3l0.5-0.1
					c0.1,0,0.2,0,0.3-0.1c0.1,0,0.1,0,0.3,0c0.1,0,0.1,0,0.3,0c0.1,0,0.1,0,0.3,0.1c0.2,0.1,0.4,0.4,0.4,0.6l0,0.1
					c0.1,0.3,0,0.6-0.2,0.8c-0.8,0.9-1.6,1.3-2.4,1.7c-0.8,0.4-1.6,0.7-2.5,1c-1.7,0.6-3.3,1-5,1.4c-3.3,0.8-6.7,1.4-10.1,1.8
					c-3.4,0.5-6.8,0.8-10.2,1c-1.7,0.1-3.4,0.1-5.2,0.1c-0.9,0-1.7-0.1-2.6-0.2c-0.9-0.1-1.8-0.2-2.8-0.6l1.4-0.8
					c-0.1,2,0.2,4.1,0.7,6.2c0.5,2.1,1.2,4.1,2,6.1c0.8,2,1.8,3.9,2.8,5.8c1.1,1.8,2.3,3.7,3.7,5l0,0c0.4,0.4,0.4,1,0.1,1.4
					c-5,5.8-9,12.5-12,19.6c-1.5,3.6-2.6,7.3-3.5,11c-0.9,3.7-1.4,7.6-1.6,11.4l-0.1,2.9l0,2.9c0,1,0,1.9,0.1,2.9
					c0.1,1,0.1,1.9,0.2,2.9c0.4,3.8,1.2,7.6,2.2,11.3c2,7.4,5.3,14.5,9.5,20.9c0.1,0.1,0.1,0.2,0.1,0.3c3.1,9.7,7.8,19,13.8,27.3
					c6,8.3,13.3,15.6,21.6,21.6c8.3,6,17.5,10.8,27.2,13.9c9.7,3.2,19.9,4.8,30.2,4.8c10.2,0,20.4-1.7,30.1-4.9
					c9.7-3.2,18.9-8,27.1-14.1c8.2-6.1,15.5-13.5,21.5-21.7c1.4-2.1,2.9-4.2,4.3-6.4c1.2-2.2,2.6-4.4,3.7-6.7c1.1-2.3,2.2-4.6,3.2-7
					c0.4-1.2,0.9-2.4,1.3-3.7C632.1,149.2,632.4,147.9,632.9,146.7z"/>
			</g>
			<path class="st9" d="M577.3,219.1c-0.1,6.1-0.1,12.4,0,18.7c0.1,6.6,0.2,13.1,0.3,19.4c-5.8,3.4-19.1,10-37.1,10.2
				c-18.7,0.1-32.5-6.8-38.3-10.2c0-13.1,0-26.1,0-39.2"/>
			<path class="st9" d="M439.4,133.5c-21.6,8.7-6.4,53.8,16.1,46.3"/>
			<path class="st9" d="M625,179.8c22.6,7.5,37.7-37.6,16.1-46.3"/>
		</g>
	</g>
</g>
<g id="Chair">
	<path class="st10" d="M601.4,661.3H477.9c-54.9,0-99.4-47.3-99.4-105.7V301.2c0-10,3.8-19.1,10-25.7c8.1-8.6,18.8-10.1,24.2-10.6
		c36.4-3.8,88.8,6.4,127,6.4c37.2,0,96.7-9.7,127-6.4c5.5,0.6,16.3,2.3,24.2,10.6c6.2,6.6,10,15.7,10,25.7v254.3
		C700.8,613.9,656.3,661.3,601.4,661.3z"/>
	<path class="st10" d="M720.5,743.2L720.5,743.2c-0.5-7-2.6-19.6-12-28.9c-9.8-9.8-22.8-11.3-28.9-12
		c-101.7-10.6-139.9-10.6-139.9-10.6c0,0-40.3,0-139.9,10.6c-5.6,0.6-19.2,2.2-28.9,12c-7,7-10,16.2-10.1,16.8
		c-1.2,3.8-1.8,7.9-1.8,12.2v0c0,1,0.7,1.8,1.6,2.1h-1.6v4.3c0,21.4,17.4,38.8,38.8,38.8h284.1c21.4,0,38.8-17.4,38.8-38.8v-4.3
		h-1.6C719.4,744.5,719.9,743.8,720.5,743.2z"/>
	<path class="st21" d="M337.7,588.7c-3.1,21.1-6.3,50.5-5.4,80.6c0.7,22.8,3.7,46.1,11,66.4c6.9,19.4,17.7,36.1,33.8,47.2
		c2.6,1.8,5.1,3.3,7.7,4.5c7,3.5,14.1,5.1,23.1,5.6c19.7,1.2,48.3-2.8,103.5-4.3c8.6-0.2,17.8-0.4,27.7-0.5c9.2-0.1,17.9-0.1,26,0
		c47.2,0.4,75.8,3.1,95.9,3.2c11,0.1,19.4-0.6,26.9-2.8c4.3-1.3,8.4-3.1,12.4-5.5c0,0,0.1,0,0.1-0.1c1.5-0.9,2.9-1.8,4.4-2.9
		c0.1-0.1,0.3-0.2,0.4-0.3c10-7.3,17.8-16.8,23.8-27.7c11.9-21.6,16.8-48.7,17.9-75.9c1.4-32.4-2.6-64.8-6.3-87.7"/>
	<path class="st9" d="M601.4,661.3H477.9c-54.9,0-99.4-47.3-99.4-105.7V301.2c0-10,3.8-19.1,10-25.7c8.1-8.6,18.8-10.1,24.2-10.6
		c36.4-3.8,88.8,6.4,127,6.4c37.2,0,96.7-9.7,127-6.4c5.5,0.6,16.3,2.3,24.2,10.6c6.2,6.6,10,15.7,10,25.7v254.3
		C700.8,613.9,656.3,661.3,601.4,661.3z"/>
	<path class="st9" d="M720.5,743.2c-0.5-7-2.6-19.6-12-28.9c-9.8-9.8-22.8-11.3-28.9-12c-101.7-10.6-139.9-10.6-139.9-10.6
		c0,0-40.3,0-139.9,10.6c-5.6,0.6-19.2,2.2-28.9,12c-7,7-10,16.2-10.1,16.8c-1.2,3.8-1.8,14.2-1.8,14.2v4.3
		c0,21.4,17.4,38.8,38.8,38.8h284.1c21.4,0,38.8-17.4,38.8-38.8V743.2z"/>
	<path d="M566.5,891.4h-53.7V355.3c1.2-11.2,4.1-14.3,6.6-15c3.7-1.1,6.5,3,15.9,4.1c4.4,0.5,8,0.2,9.2,0c9.1-1.2,11.8-5.2,15.4-4.1
		c2.5,0.7,5.4,3.8,6.6,15V891.4z"/>
	<rect x="518.5" y="856" width="42.2" height="122.8"/>
	<path d="M524.7,1037.9L524,936l30.6-0.2l0.7,101.8c0,5.8-4.6,10.6-10.5,10.6l-9.5,0.1C529.5,1048.4,524.7,1043.7,524.7,1037.9z"/>
	<path d="M343,976.9l179.8-18.1l3.2,29.4l-194.1,19.5l-1.7-15.7C329.4,984.6,335.1,977.7,343,976.9z"/>
	<path d="M734.8,976l-179.9-17.1l-2.9,30.5l194.2,18.5l1.5-16.2C748.5,983.7,742.7,976.7,734.8,976z"/>
	<circle cx="357.4" cy="1026.1" r="23"/>
	<circle cx="540.6" cy="1052.3" r="23"/>
	<circle cx="722" cy="1027.3" r="23"/>
</g>
<g id="shade" class="st22">
	<path d="M720.6,848.5c-6.2,33.4-24,135.1-31.1,152.9h-31.2c0.1-0.2,0.1-0.5,0.1-0.7c0,0,0,0,0,0c1-7,2.3-16.5,3.8-27.7
		c4.9-36.1,7.3-54.1,8.6-66.1c3.9-35.1,3-39.2,6.4-52.6c0.9-3.4,3.3-12.3,5.2-24.7c1.3-8.3,1.9-15.2,2.2-19.8v0
		c0.3-2.9,0.6-5.9,0.8-8.8c0.1-1.5,0.3-3,0.4-4.5c4.2-1.9,16.4-8.1,23.2-22.4c7.5-15.8,3.4-31.1,1.7-37.6
		c-1.3-4.9-3.9-14.6-11.2-22.4c-8.8-9.4-19.5-10.9-44.6-13.4c-27.7-2.8-41.5-4.3-69.5-6.3c-18.1-1.3-32.8-2.7-42-3.6l-2.6-10.7
		l-2.6,10.7c-9.2,0.9-23.9,2.3-42,3.6c-28,2-41.8,3.4-69.5,6.3c-25.1,2.6-35.8,4.1-44.6,13.4c-7.3,7.8-9.8,17.4-11.1,22.4
		c-1.7,6.5-5.8,21.8,1.7,37.6c6.7,14.1,18.6,20.3,23,22.3c0.1,0,0.1,0.1,0.2,0.1c0.7,7.5,1.9,19,3.4,33.1c3.7,34.1,6.9,58.6,10.4,86
		c2.5,19.5,6.1,48,10.6,83.4c-4.1,0.3-8.3,0.6-12.4,0.8c-3.7,0-7.4,0.1-11.2,0.1c-2.5,0.6-4.9,1.1-7.4,1.7
		c-3.4-17.6-8.3-42.7-14-73.1c-11.1-59.7-6.1-36.2-14.1-80c-8.5-46.4-15.7-77.9-5.5-112.8c2.5-8.7,4.6-13,6.1-15.6
		c13.4-23.8,40-32.3,66.6-38.3c54.3-12.3,100.6-12.7,112.4-12.6c11.8-0.1,58.1,0.3,112.4,12.6c26.6,6,53.2,14.5,66.6,38.3
		c1.5,2.6,3.6,7,6.1,15.6C735.4,767.9,728.5,805.7,720.6,848.5z"/>
	<path d="M387.4,598.6c-107.8,0-215.6,0-323.4,0c-2.4,0-4.3-2.8-4.3-6.2v-6.3c107.7,0,215.4,0,323.2,0"/>
	<path d="M696.2,586.1c108.3,0,216.6,0,324.9,0v6.3c0,3.4-1.9,6.2-4.3,6.2c-108.1,0-216.2,0-324.2,0"/>
</g>
</svg>
