<svg id="Layer_1" data-name="Layer 1" xmlns="http://www.w3.org/2000/svg" viewBox="0 0 1080 1080"><defs><style>.cls-1{fill:#0e1f2b;}.cls-10,.cls-17,.cls-2,.cls-3,.cls-5,.cls-6,.cls-7,.cls-8{fill:none;}.cls-2,.cls-3{stroke:#1a3749;}.cls-2,.cls-3,.cls-5,.cls-6,.cls-7,.cls-8{stroke-miterlimit:10;}.cls-2,.cls-3,.cls-5,.cls-6,.cls-7{stroke-width:3px;}.cls-10,.cls-17,.cls-3,.cls-5,.cls-6,.cls-7,.cls-8{stroke-linecap:round;}.cls-4{fill:#1a3749;}.cls-5{stroke:#c69;}.cls-6{stroke:#69c;}.cls-7{stroke:#cc3;}.cls-8{stroke:#060;}.cls-10,.cls-8{stroke-width:2px;}.cls-9{fill:#5b3d2f;}.cls-10,.cls-17{stroke:#000;stroke-linejoin:round;}.cls-11{fill:#4d4d4d;}.cls-12{fill:#12283d;}.cls-13{fill:#cbcbcb;}.cls-14{fill:#b48868;}.cls-15{fill:#190a07;}.cls-16{fill:#212121;}.cls-17{stroke-width:20px;}.cls-18{opacity:0.5;}</style></defs><g id="Monitor"><rect x="206.22" y="82.41" width="666.85" height="361"/><rect class="cls-1" x="224.5" y="98.9" width="630.29" height="328.01" rx="5.85"/><line class="cls-2" x1="224" y1="135" x2="855" y2="135"/><line class="cls-2" x1="320.5" y1="353.5" x2="855" y2="353.5"/><line class="cls-2" x1="320.5" y1="426.5" x2="320.5" y2="133.5"/><line class="cls-3" x1="675" y1="116.5" x2="405" y2="116.5"/><circle class="cls-4" cx="828.5" cy="116.5" r="6.5"/><circle class="cls-4" cx="792.5" cy="116.5" r="6.5"/><circle class="cls-4" cx="755.5" cy="116.5" r="6.5"/><circle class="cls-4" cx="843.2" cy="369.8" r="2.8"/><circle class="cls-4" cx="827.72" cy="369.8" r="2.8"/><circle class="cls-4" cx="811.8" cy="369.8" r="2.8"/><line class="cls-3" x1="245.5" y1="160.5" x2="299.5" y2="160.5"/><line class="cls-3" x1="245.5" y1="196.5" x2="299.5" y2="196.5"/><line class="cls-3" x1="245.5" y1="172.5" x2="286.5" y2="172.5"/><line class="cls-3" x1="245.5" y1="208.5" x2="286.5" y2="208.5"/><line class="cls-3" x1="245.5" y1="184.5" x2="294.5" y2="184.5"/><line class="cls-5" x1="360.5" y1="175.5" x2="423.5" y2="175.5"/><line class="cls-5" x1="755.5" y1="175.5" x2="787.5" y2="175.5"/><line class="cls-3" x1="656.5" y1="175.5" x2="748.5" y2="175.5"/><line class="cls-3" x1="665.5" y1="220.13" x2="799" y2="220.13"/><line class="cls-6" x1="360.5" y1="220.13" x2="418.5" y2="220.13"/><line class="cls-3" x1="360.5" y1="190.38" x2="693.44" y2="190.38"/><line class="cls-3" x1="360.5" y1="235" x2="426.5" y2="235"/><line class="cls-6" x1="656.5" y1="235.5" x2="808.5" y2="235.5"/><line class="cls-6" x1="702.5" y1="190.5" x2="798.5" y2="190.5"/><line class="cls-7" x1="360.5" y1="205.25" x2="417.5" y2="205.25"/><line class="cls-7" x1="719.5" y1="205.5" x2="808.5" y2="205.5"/><line class="cls-3" x1="664.5" y1="205.5" x2="709.5" y2="205.5"/><line class="cls-3" x1="631.5" y1="251.5" x2="799" y2="251.5"/><line class="cls-5" x1="359.5" y1="251.5" x2="449.5" y2="251.5"/><line class="cls-3" x1="582.5" y1="296.13" x2="687.5" y2="296.13"/><line class="cls-6" x1="698.5" y1="296.5" x2="803.5" y2="296.5"/><line class="cls-5" x1="360.5" y1="296.13" x2="498.5" y2="296.13"/><line class="cls-3" x1="360.5" y1="266.38" x2="462.5" y2="266.38"/><line class="cls-5" x1="618.5" y1="266.5" x2="808.5" y2="266.5"/><line class="cls-7" x1="581.5" y1="311" x2="693.44" y2="311"/><line class="cls-3" x1="360.5" y1="311" x2="497.44" y2="311"/><line class="cls-3" x1="598.5" y1="281.25" x2="758.4" y2="281.25"/><line class="cls-6" x1="360.5" y1="281.25" x2="483.5" y2="281.25"/><line class="cls-3" x1="245.5" y1="221.5" x2="299.5" y2="221.5"/><line class="cls-3" x1="245.5" y1="257.5" x2="299.5" y2="257.5"/><line class="cls-3" x1="245.5" y1="233.5" x2="286.5" y2="233.5"/><line class="cls-3" x1="245.5" y1="269.5" x2="286.5" y2="269.5"/><line class="cls-3" x1="245.5" y1="245.5" x2="294.5" y2="245.5"/><polyline class="cls-8" points="339 369 344 371.55 339 374.02"/><line class="cls-8" x1="349.5" y1="375.5" x2="368.5" y2="375.5"/></g><g id="table"><rect class="cls-9" x="4" y="674" width="1074" height="39" rx="6.97"/><rect class="cls-10" x="4" y="674" width="1074" height="39" rx="6.97"/><path class="cls-11" d="M909.35,674H874a17.74,17.74,0,0,1,35.35,0Z"/><path class="cls-10" d="M909.35,674H874a17.74,17.74,0,0,1,35.35,0Z"/><rect class="cls-11" x="286" y="659" width="507" height="15"/><rect class="cls-10" x="286" y="659" width="507" height="15"/><path d="M350.94,698.49c-1.24,6.1-22.36,6.85-35,6.8s-33.73-.7-35-6.8S297.78,681,316,681,352.17,692.47,350.94,698.49Z"/><path d="M797.94,698.49c-1.24,6.1-22.36,6.85-35,6.8s-33.73-.7-35-6.8S744.78,681,763,681,799.17,692.47,797.94,698.49Z"/></g><g id="Me"><path class="cls-12" d="M784,980a609.18,609.18,0,0,1-26,99H684c5.5-33.44,10.62-65.68,17-106,2.61-16.47,5-32.14,5.14-47.54,0-.4,0-.8,0-1.2.05-16.88-2.64-33.45-10.7-50.39-.72-1.53-1.48-3.2-2.46-4.87-22.17-37.86-83.17-42.81-124-41.62-11.84.35-22,1.22-29,2V830l-3-.35-3,.35v-.67c-6.2-.65-14.87-1.4-25-1.8-40.74-1.63-105.09,2.35-128,41.47-1,1.65-1.73,3.32-2.46,4.87-7.86,16.5-10.7,32.65-11,48.81,0,.47,0,.93,0,1.39-.12,15.52,2.07,31,4.44,46.93,6.6,44.34,12.81,80.13,18,108H321a496.72,496.72,0,0,1-31-99c-13.62-67.65-25.16-125.42,6-172a109.85,109.85,0,0,1,13-15.93c22.84-23.28,53.69-34.41,83.61-43.61h0c3.83-1.18,7.64-2.32,11.42-3.46a305.45,305.45,0,0,1,105-12.26c10.64.59,20,1.66,28,2.81a320,320,0,0,1,32-3A305.06,305.06,0,0,1,670,745c5.3,1.59,10.66,3.2,16,4.89,31.64,9.94,63.81,22.62,86,50,2.08,2.56,4.07,5.24,6,8.07C806.67,850.85,797.46,902.84,784,980Z"/><path class="cls-10" d="M784,980a609.18,609.18,0,0,1-26,99H684c5.5-33.44,10.62-65.68,17-106,2.61-16.47,5-32.14,5.14-47.54,0-.4,0-.8,0-1.2.05-16.88-2.64-33.45-10.7-50.39-.72-1.53-1.48-3.2-2.46-4.87-22.17-37.86-83.17-42.81-124-41.62-11.84.35-22,1.22-29,2V830l-3-.35-3,.35v-.67c-6.2-.65-14.87-1.4-25-1.8-40.74-1.63-105.09,2.35-128,41.47-1,1.65-1.73,3.32-2.46,4.87-7.86,16.5-10.7,32.65-11,48.81,0,.47,0,.93,0,1.39-.12,15.52,2.07,31,4.44,46.93,6.6,44.34,12.81,80.13,18,108H321a496.72,496.72,0,0,1-31-99c-13.62-67.65-25.16-125.42,6-172a109.85,109.85,0,0,1,13-15.93c22.84-23.28,53.69-34.41,83.61-43.61h0c3.83-1.18,7.64-2.32,11.42-3.46a305.45,305.45,0,0,1,105-12.26c10.64.59,20,1.66,28,2.81a320,320,0,0,1,32-3A305.06,305.06,0,0,1,670,745c5.3,1.59,10.66,3.2,16,4.89,31.64,9.94,63.81,22.62,86,50,2.08,2.56,4.07,5.24,6,8.07C806.67,850.85,797.46,902.84,784,980Z"/><path class="cls-13" d="M790.76,581c-3.16-10.93-7.5-24.51-13.39-40-42.57-96.73-52.67-140.15-92.62-178-7.61-7.21-17.28-16.15-32.37-23-26.83-12.19-53.52-10.75-67.52-9a86.54,86.54,0,0,1-25.67,10,89.86,89.86,0,0,1-17,2,91.31,91.31,0,0,1-23.42-3,87,87,0,0,1-23.44-10c-15.39-1.69-42.31-2.45-69.18,10-14.74,6.83-24.45,15.5-32.36,23-40,37.85-50.06,81.27-92.63,178-5.89,15.49-10.22,29.07-13.39,40-4.84,16.73-11.84,44.88-3,62.53.3.58.57,1.07.8,1.47,7,12.11,18.1,18.37,24.55,22,16.06,9,33.84,12.06,72.54,11a655.75,655.75,0,0,0,91.5-9q-1.11-22.5-2.23-45a548.88,548.88,0,0,0-62.49-9c-26.58-2.25-42.36-1.57-49.1-11-5.76-8-1.67-18.91,1.11-26,15.26-38.82,31.3-74.73,41.26-96.49Q418.3,546.26,433.94,611l52.45,8,51.06,47.62V670l1.82-1.69,1.81,1.69v-3.39l51-47.61,52.45-8q15.64-64.74,31.28-129.49C691.92,520.06,705,550.83,717.11,578c3.53,7.94,9.24,20.67,2.78,29-7.07,9.11-23.83,6.66-50.77,8a343.78,343.78,0,0,0-62.49,9q-1.11,22.5-2.23,45a655.73,655.73,0,0,0,91.51,9c38.69,1.06,56.47-2,72.53-11,6.45-3.63,17.56-9.89,24.55-22,.23-.4.5-.89.8-1.47C802.6,625.88,795.6,597.73,790.76,581Z"/><path class="cls-10" d="M790.76,581c-3.16-10.93-7.5-24.51-13.39-40-42.57-96.73-52.67-140.15-92.62-178-7.61-7.21-17.28-16.15-32.37-23-26.83-12.19-53.52-10.75-67.52-9a86.54,86.54,0,0,1-25.67,10,89.86,89.86,0,0,1-17,2,91.31,91.31,0,0,1-23.42-3,87,87,0,0,1-23.44-10c-15.39-1.69-42.31-2.45-69.18,10-14.74,6.83-24.45,15.5-32.36,23-40,37.85-50.06,81.27-92.63,178-5.89,15.49-10.22,29.07-13.39,40-4.84,16.73-11.84,44.88-3,62.53.3.58.57,1.07.8,1.47,7,12.11,18.1,18.37,24.55,22,16.06,9,33.84,12.06,72.54,11a655.75,655.75,0,0,0,91.5-9q-1.11-22.5-2.23-45a548.88,548.88,0,0,0-62.49-9c-26.58-2.25-42.36-1.57-49.1-11-5.76-8-1.67-18.91,1.11-26,15.26-38.82,31.3-74.73,41.26-96.49Q418.3,546.26,433.94,611l52.45,8,51.06,47.62V670l1.82-1.69,1.81,1.69v-3.39l51-47.61,52.45-8q15.64-64.74,31.28-129.49C691.92,520.06,705,550.83,717.11,578c3.53,7.94,9.24,20.67,2.78,29-7.07,9.11-23.83,6.66-50.77,8a343.78,343.78,0,0,0-62.49,9q-1.11,22.5-2.23,45a655.73,655.73,0,0,0,91.51,9c38.69,1.06,56.47-2,72.53-11,6.45-3.63,17.56-9.89,24.55-22,.23-.4.5-.89.8-1.47C802.6,625.88,795.6,597.73,790.76,581Z"/><g id="Head"><path class="cls-14" d="M428.14,193.47c-24.13,9.69-7.19,60.08,18,51.69l-1.47-2.55a93.72,93.72,0,0,1-4.74-11.77,94.81,94.81,0,0,1-4.44-22.76Z"/><path class="cls-14" d="M497.77,287.85l.42,42.61A79.53,79.53,0,0,0,582,331.65c0-8.67-.22-37.7-.36-43.55a128.91,128.91,0,0,1-83.89-.25Z"/><path class="cls-14" d="M645,209.19a100.62,100.62,0,0,0-17.51-39.31A40.95,40.95,0,0,1,601,132.46a400.59,400.59,0,0,1-56.84,4.32,401.59,401.59,0,0,1-65.37-5.06,38.07,38.07,0,0,1-5,20.88,38.77,38.77,0,0,1-21.39,17.08,115.32,115.32,0,0,0-16.5,39,86.17,86.17,0,0,0,12.29,40.44c10.94,18,25.55,26.74,33.39,31.3C507,295.15,531.5,295.11,540.52,295c11.24-.16,59.29-.83,87.05-38.29C640.92,238.69,644.1,219.57,645,209.19Z"/><path class="cls-15" d="M645.75,208.65a109.82,109.82,0,0,1-209,.53,80.23,80.23,0,0,1,5.79-97.26c-4.6-4-11.36-18.75-10.78-26.76,6.24,2.61,40.44-1.72,44.13-6.59-.21-.7-18,8.39-29.77,1C434.38,71.83,435.38,57,438.54,51c9.93,10.12,19,12.65,24.62,13.3,5,.58,10.67-.59,21.83-3,23.79-5.08,25.17-5.44,27.79-6C541.59,47,624.69,58.2,626.71,110.53a75.48,75.48,0,0,1,27.48,40.57C661.94,180.57,648.42,204.2,645.75,208.65Z"/></g><path class="cls-14" d="M653,193.47c24.13,9.69,7.2,60.08-18,51.69l1.47-2.55a93.94,93.94,0,0,0,9.18-34.53Z"/><g id="Outline"><g id="Head-2" data-name="Head"><path class="cls-10" d="M435.83,208.66c7.36,114.74,201.79,115.29,209,.53"/><path d="M646.19,209.06c-.45,1.35-1,2.64-1.5,4l-1.56,4.06c-.55,1.35-1.14,2.68-1.7,4s-1.25,2.63-1.87,4a110.54,110.54,0,0,1-188.51,15.45,111.51,111.51,0,0,1-15.76-31l.13.25a82.8,82.8,0,0,1-10.93-24,84.34,84.34,0,0,1-2.48-13c-.14-1.1-.17-2.2-.26-3.3l-.12-1.65c0-.56,0-1.11,0-1.66l0-3.31.16-3.31.08-1.65.18-1.65c.13-1.1.21-2.2.38-3.29l.54-3.27c.17-1.09.46-2.16.68-3.24a81,81,0,0,1,4-12.62,83.07,83.07,0,0,1,13.73-22.52l.1,1.41a26,26,0,0,1-4.6-6.14,58.88,58.88,0,0,1-3.26-6.74,50.25,50.25,0,0,1-2.37-7.11,25.92,25.92,0,0,1-.89-7.6,1,1,0,0,1,1-.93.88.88,0,0,1,.32.07h0a10.42,10.42,0,0,0,2.49.52c.9.1,1.82.14,2.75.17,1.85,0,3.72,0,5.59-.1,3.74-.2,7.48-.58,11.2-1.08s7.43-1.13,11.08-2c1.82-.42,3.63-.9,5.37-1.48a24.69,24.69,0,0,0,2.53-1,5.72,5.72,0,0,0,2-1.31l-.15.86a.84.84,0,0,0,.38.51.92.92,0,0,0,.24.11,1.1,1.1,0,0,0,.2,0c.08,0,0,0,0,0l-.15,0-.43.13-.91.3L472,80.6c-1.25.41-2.52.81-3.81,1.15a47.45,47.45,0,0,1-7.88,1.5,29.68,29.68,0,0,1-8.09-.24,18.61,18.61,0,0,1-7.6-3.07,22.21,22.21,0,0,1-8.87-13.37,26.59,26.59,0,0,1-.57-8.1,22.2,22.2,0,0,1,2.08-7.94,1,1,0,0,1,1.28-.43.93.93,0,0,1,.26.18l0,0a46.68,46.68,0,0,0,15.82,10.9,31.46,31.46,0,0,0,9.28,2.18,41.2,41.2,0,0,0,9.58-.85c6.43-1.18,12.88-2.66,19.33-4l19.33-4.14-.08,0A77.42,77.42,0,0,1,529.75,52a137.14,137.14,0,0,1,17.79.6,142,142,0,0,1,34.7,7.63,101.81,101.81,0,0,1,16.2,7.46,69.83,69.83,0,0,1,14.3,10.73A49.69,49.69,0,0,1,623.12,93a46.56,46.56,0,0,1,4.12,17.48l-.4-.76a74.69,74.69,0,0,1,28.92,46c.27,1.13.36,2.29.55,3.43s.39,2.29.43,3.44c.16,2.31.38,4.62.31,6.94s-.15,4.62-.3,6.93-.51,4.6-1,6.87a80.24,80.24,0,0,1-3.68,13.35l-1.28,3.23c-.47,1-.9,2.12-1.42,3.16s-1,2.08-1.55,3.11S646.71,208.2,646.19,209.06Zm-1.82-.82c.64-1.1,1.18-2,1.7-3s1-2,1.51-3,.92-2.06,1.39-3.09l1.24-3.14a77.63,77.63,0,0,0,3.59-13c.47-2.21.68-4.45,1-6.69s.35-4.49.29-6.74-.15-4.5-.3-6.75c0-1.13-.29-2.23-.42-3.35s-.27-2.24-.53-3.33a77.81,77.81,0,0,0-3.76-13,75.1,75.1,0,0,0-24.4-31.77,1,1,0,0,1-.4-.76,44.5,44.5,0,0,0-3.94-16.73,47.93,47.93,0,0,0-10-14,68.25,68.25,0,0,0-13.9-10.42,99.79,99.79,0,0,0-15.89-7.31,140.27,140.27,0,0,0-34.2-7.52A135.09,135.09,0,0,0,529.82,54a75.79,75.79,0,0,0-17.23,2.36l-.09,0-19.32,4.14c-6.44,1.36-12.85,2.83-19.38,4a43.52,43.52,0,0,1-10.06.88,33.42,33.42,0,0,1-9.89-2.32,47.66,47.66,0,0,1-16.47-11.39l1.56-.23A20.26,20.26,0,0,0,437,58.63a24.43,24.43,0,0,0,.49,7.53,20.06,20.06,0,0,0,8.1,12.26,16.61,16.61,0,0,0,6.88,2.75,27.45,27.45,0,0,0,7.58.2,45.83,45.83,0,0,0,7.56-1.45c1.24-.35,2.48-.73,3.71-1.14l1.85-.63,1-.32.51-.16.32-.07.28,0a1.5,1.5,0,0,1,.33,0,1.55,1.55,0,0,1,.29.13,1.06,1.06,0,0,1,.42.56l0,0a.9.9,0,0,1-.17.8A7.29,7.29,0,0,1,473.5,81a24.11,24.11,0,0,1-2.74,1.1c-1.84.62-3.7,1.11-5.56,1.55-3.72.86-7.48,1.5-11.25,2s-7.56.92-11.37,1.11c-1.91.1-3.82.15-5.75.11-1,0-1.93-.07-2.91-.19a11.4,11.4,0,0,1-3-.66l1.38-.85a23.93,23.93,0,0,0,.84,7A49,49,0,0,0,435.38,99a56.45,56.45,0,0,0,3.15,6.5,23.88,23.88,0,0,0,4.17,5.62l0,0a1,1,0,0,1,.08,1.38,81.28,81.28,0,0,0-13.39,22,78.85,78.85,0,0,0-3.87,12.31c-.22,1-.5,2.09-.66,3.16l-.53,3.18c-.16,1.07-.25,2.14-.37,3.21L423.8,158l-.08,1.61-.15,3.22,0,3.23c0,.54,0,1.08,0,1.62l.12,1.61c.09,1.07.12,2.15.25,3.22a81.35,81.35,0,0,0,13.08,36.1,1,1,0,0,1,.12.25A109,109,0,0,0,541,284.49,107.65,107.65,0,0,0,574.68,279,109,109,0,0,0,605,263.22a110.82,110.82,0,0,0,24-24.31A109.23,109.23,0,0,0,638,224.27c.62-1.29,1.27-2.56,1.87-3.86s1.16-2.62,1.71-3.94,1.06-2.66,1.55-4S643.89,209.63,644.37,208.24Z"/><path class="cls-10" d="M582.12,289.07q-.11,10.28,0,20.88.1,11,.39,21.7a83.92,83.92,0,0,1-84.3,0l.05-43.8"/><path class="cls-10" d="M428.14,193.47c-24.13,9.69-7.19,60.08,18,51.69"/><path class="cls-10" d="M635.49,245.16c25.21,8.39,42.12-42,18-51.69"/></g></g></g><g id="Chair"><path class="cls-16" d="M609,783H471c-61.33,0-111-52.89-111-118.14V380.75A41.8,41.8,0,0,1,371.18,352c9.07-9.65,21-11.27,27-11.89,40.65-4.22,99.17,7.19,141.84,7.19,41.55,0,108.06-10.82,141.84-7.19,6.19.67,18.22,2.57,27,11.89A41.8,41.8,0,0,1,720,380.75V664.86C720,730.11,670.29,783,609,783Z"/><path class="cls-16" d="M742,874.5h0c-.6-7.86-2.91-21.84-13.38-32.31-11-11-25.48-12.68-32.32-13.39C582.65,817,540,817,540,817s-45,0-156.3,11.8c-6.25.66-21.42,2.47-32.32,13.39a50.83,50.83,0,0,0-11.33,18.72A45.85,45.85,0,0,0,338,874.5h0a2.38,2.38,0,0,0,1.75,2.3H338v4.81a43.29,43.29,0,0,0,43.29,43.29H698.71A43.29,43.29,0,0,0,742,881.61V876.8h-1.75Z"/><path class="cls-17" d="M315,702c-3.47,23.55-7.05,56.42-6,90.07.76,25.52,4.16,51.48,12.26,74.17C329,887.88,341,906.55,359,919a67.76,67.76,0,0,0,8.56,5.07c7.79,3.86,15.77,5.68,25.84,6.29,22,1.32,54-3.15,115.6-4.82,9.59-.26,19.9-.45,31-.54,10.31-.09,20-.07,29,0,52.75.49,84.72,3.42,107.09,3.57,12.29.08,21.69-.67,30-3.12A57.1,57.1,0,0,0,720,919.31l.1-.06q2.43-1.47,4.89-3.25l.44-.33c11.17-8.16,19.88-18.75,26.59-30.95,13.26-24.09,18.72-54.44,20-84.79,1.54-36.18-2.85-72.36-7-97.93"/><path class="cls-10" d="M609,783H471c-61.33,0-111-52.89-111-118.14V380.75A41.8,41.8,0,0,1,371.18,352c9.07-9.65,21-11.27,27-11.89,40.65-4.22,99.17,7.19,141.84,7.19,41.55,0,108.06-10.82,141.84-7.19,6.19.67,18.22,2.57,27,11.89A41.8,41.8,0,0,1,720,380.75V664.86C720,730.11,670.29,783,609,783Z"/><path class="cls-10" d="M742,874.5c-.6-7.86-2.91-21.84-13.38-32.31-11-11-25.48-12.68-32.32-13.39C582.65,817,540,817,540,817s-45,0-156.3,11.8c-6.25.66-21.42,2.47-32.32,13.39a50.83,50.83,0,0,0-11.33,18.72C338.72,865.2,338,876.8,338,876.8v4.81a43.29,43.29,0,0,0,43.29,43.29H698.71A43.29,43.29,0,0,0,742,881.61Z"/><path d="M531.19,417h15.62A22.19,22.19,0,0,1,569,439.19V929a0,0,0,0,1,0,0H509a0,0,0,0,1,0,0V439.19A22.19,22.19,0,0,1,531.19,417Z"/></g><g id="shade" class="cls-18"><path d="M752.75,866.24c-2.94-9.67-5.41-14.53-7.13-17.47C730,822.2,699,812.74,668,806c-63.28-13.75-117.26-14.19-131-14-13.72-.14-67.7.3-131,14-31,6.74-62.05,16.2-77.65,42.77-1.72,2.94-4.19,7.8-7.13,17.47-10.92,36-2.84,78.14,6.38,126a448.5,448.5,0,0,0,26,86.79H390c-7.15-33.88-13.32-69.92-18-108q-2.31-18.79-4-37c-4.9-2.11-19.1-9-27-25-8.73-17.64-4-34.7-2-42,1.53-5.53,4.5-16.29,13-25,10.22-10.47,22.74-12.13,52-15,32.25-3.16,48.37-4.75,81-7,21.13-1.46,38.24-3,49-4l3-11.94L540,816c10.76,1,27.87,2.54,49,4,32.63,2.25,48.75,3.84,81,7,29.26,2.87,41.78,4.53,52,15,8.5,8.71,11.47,19.47,13,25,2,7.3,6.73,24.36-2,42-7.9,16-22.11,22.89-27,25q-1.69,18.19-4,37c-4.68,38.08-10.85,74.12-18,108h36.38a448.5,448.5,0,0,0,26-86.79C755.59,944.38,763.67,902.19,752.75,866.24Z"/><path d="M370,713H8.77C6.13,713,4,709.88,4,706v-7H365"/><path d="M715,699h363v7c0,3.85-2.14,7-4.77,7H711"/></g></svg>