<svg xmlns="http://www.w3.org/2000/svg" viewBox="0 0 1080 1080"><defs><style>.cls-1{fill:#1f5673;}.cls-2{fill:#1a1a1a;}.cls-3{fill:#bf272d;}.cls-4{fill:#8a6239;}.cls-5{fill:#891820;}.cls-13,.cls-18,.cls-20,.cls-23,.cls-6,.cls-7{fill:none;}.cls-18,.cls-23,.cls-6{stroke:#000;}.cls-23,.cls-6,.cls-7{stroke-linecap:round;stroke-linejoin:round;}.cls-18,.cls-6,.cls-7{stroke-width:2px;}.cls-7{stroke:#e4e4e4;}.cls-8{fill:#e4e4e4;}.cls-9{fill:#b58968;}.cls-10{fill:#190a07;}.cls-11{fill:#2d1b0a;}.cls-12{fill:#6b393f;}.cls-14{fill:#fff;}.cls-15{opacity:0.25;}.cls-16{opacity:0.45;}.cls-17{opacity:0.92;}.cls-18,.cls-20{stroke-miterlimit:10;}.cls-19{fill:#7a573d;}.cls-20{stroke:#443935;stroke-width:3px;}.cls-21{fill:#443935;}.cls-22{fill:#e8908e;}</style></defs><g id="Me"><g id="Color"><path class="cls-1" d="M899.62,731.21a86.3,86.3,0,0,0-6.87-8.54,104.12,104.12,0,0,0-19.34-16.87c-11.86-7.9-83.76-19.15-183.39-12.7l-149.17.06c-63,4.8-114.24,1.13-150.89-.06-98.7-3.18-170.08,5.28-183.4,12.7a71.67,71.67,0,0,0-20.12,16.62,50,50,0,0,0-6.08,8.79c-2.58,2.87-13.82,15.92-13.49,35.73.32,20.37,12.6,33.39,16.11,36.79.07.06.15.13.55.53,8.61,8.15,21.62,20,41.83,37.2,41.65,28.93,51,35.41,51.06,35.44,14,7.55,27.11,14.06,39,19.66s22.59,10.26,31.89,14.11c18.2,7.58,37.78,14.42,44.59,16.85,12.81,4.57,23.72,8.23,31.88,10.91a31.43,31.43,0,0,0,.46,13.86,32.47,32.47,0,0,0,11,16.82c20.14-1,41.18-2.52,63.06-4.82q21.15-2.22,41-5.07c26.75,4,56.49,7.36,88.93,9.31l17.45,1.76a36.71,36.71,0,0,0,10.54-22.23,37.08,37.08,0,0,0-7.86-26.1L629,917.33c3.85-8.23,8.6-12.06,11.78-14,15.84-9.63,34.31.87,75.23,6.75a165.33,165.33,0,0,0,18.75,1.2,455.26,455.26,0,0,0,68.84-34.39,488.65,488.65,0,0,0,92.87-72.64c2.48-2.31,16.34-15.66,16.67-37.32C913.44,747.13,902.19,734.08,899.62,731.21ZM554.5,885.84c-3.56,1.23-7.36,2.52-7.36,2.52l-7.31,2.45-7.16-2.45s-3.66-1.27-7.2-2.52c-31.29-11.06-67.82-26.74-67.82-26.74-13.11-5.64-29.47-12.92-48.21-21.88C432.39,846,466.3,855,507,852.52A225.32,225.32,0,0,0,540,848a227.61,227.61,0,0,0,120.49-7.21c-15.32,7.44-28.37,13.39-38.19,17.76C622.25,858.57,583.61,875.74,554.5,885.84ZM668.72,926c0,2.18,0,4.26,0,6.23,10.68-2.78,20.87-5.61,30.77-8.67l-23.83-3.52A6,6,0,0,0,668.72,926Z"/><path class="cls-2" d="M835.5,714.49c-7.91,16.84-21.19,27.07-42,40-14.49,9-28.12,14.46-43,20.46-8.3,3.35-14.9,6.52-25.29,9.07-10.13,2.48-11.88,3.92-33,7.9-11.65,2.2-13,3.42-20.15,5-10.54,2.25-18.42,3.38-23.86,4-24.48,2.93-28.61-.34-30.31-2.31-.69-.82-1.38-2.93-2.74-7.12-2.67-8.3-4.75-14.88-5.66-23.83a40.59,40.59,0,0,1,.55-12.88c.77-3.62,1.64-5,2.22-5.77,3-4,8.06-4.57,9.79-4.7l33.33-7.72,54.43-21.15c13.59-7,23.89-15,26.39-23.82a20.75,20.75,0,0,0,.81-2.22c7.8-26.17-27.12-95.22-60.4-143.52-6.28-9.1-12.5-17.49-18.37-24.7q2.32,22.7,4.64,45.4,3.95,38.76,7.92,77.55c1.64,16.13,4.93,48.94,4.93,48.94h-67.2l-77,1H404s3.07-28,4.61-42.22q1.84-17.25,3.71-34.49,2-18.51,4-37l5-46.43c0-.47.1-.92.15-1.39.41-3.78.81-7.54,1.22-11.32q-7,9.21-13.43,18.31c-.39.52-.76,1.06-1.14,1.59l0,0c-1.95,2.78-3.89,5.55-5.79,8.3-5.95,9.38-12.61,19.57-19.25,30.26l-.05.06c-.63,1-1.63,2.63-2.84,4.62,0,0-36.08,59.2-37.07,91.81-.11,3.68.26,7.91.26,7.91.47,5.28.81,9.12,2.77,13,1.79,3.58,4.1,5.63,7.32,8.41s7.06,5.41,14.34,9c4.88,2.44,8.4,3.88,21.46,9,9.14,3.61,13.7,5.42,14.87,5.85,12.44,4.65,22.49,7.67,27.09,9,8.27,2.4,18.16,5,29.47,7.25a12.25,12.25,0,0,1,5.3,2.55c4.45,3.76,4.6,10,4.67,16.28a59.28,59.28,0,0,1-3.42,20.3,29,29,0,0,1-3.21,8.68c-1.42,2.53-3.06,5.38-6.23,7.12a13.74,13.74,0,0,1-7.49,1.48,268.88,268.88,0,0,1-41.82-5.71c-13.62-3.13-12.4-2.31-22.67-4.72-23.44-5.51-55.73-13.09-89.51-32.26C272,745.6,245.06,730.3,243,707.64c-.61-6.8.69-18.11,2.68-27.29.6-2.78,2.28-10,8.35-25.23,1.91-4.79,6.35-15.61,15.27-33.27,9.26-18.34,17.41-32.3,22.07-40.24C297.81,570.68,298.58,570,308,554c3.45-5.87,6.85-12,12.75-21.55q3.62-5.84,7-11.47c5.3-8.87,10.15-17.4,14.74-25.62,41.44-74.45,59.83-121.74,155.91-123.11,15.08,36.17,69.28,35.78,84.32,0,112.89,4.23,134,67,197.66,192.33,3.18,6.64,6.86,13.7,10.81,21,7.29,13.53,11.58,21.37,14.82,27.31,14.26,26.11,21.41,41.67,27.42,62.34C838.26,692.21,840.89,703,835.5,714.49Z"/><g id="Right-Shoe"><path class="cls-3" d="M451.71,967.87a41.42,41.42,0,0,1-1.74,5c-14,25.6-22.72,19.4-84.74,20.39,4.39-.42-75.42-.91-86.15-13.3-14.54-14.36-16.87-31.91-12.91-45.65,0,0,0,0,0,0a39,39,0,0,1,6.58-13.22l.09-.1c.4-.54.84-1.05,1.28-1.55a12.74,12.74,0,0,1,1.44-1l0,0a24,24,0,0,1,4.71-2.27v0l.32-.1c14.48-5.18,41.68-4.26,63.28-4.65,11.68,4.59,23.45,8.64,35.68,12.37,7.24,2.21,15.41,4.16,31.52,8.85,5.59,1.63,10.18,3,13.23,3.92a17.94,17.94,0,0,0-.6,9.62c.82,4.95,3.8,20.6,11.22,22.14a41.07,41.07,0,0,0,7.07.18C446.08,968.33,449.43,968.09,451.71,967.87Z"/><path class="cls-4" d="M281,914.84a52.28,52.28,0,0,0,6.47,59.76,79.79,79.79,0,0,0,11,4.41c13.74,4.25,24,5.15,37,6.12,23.49,1.75,17.06,2.06,40.43,3.74,27.7,2,39,1.74,47.84,1.2,4.7-.3,11.68-1.22,11.71-1s-10.6,2-17.7,2.86c-12,1.48-20.55,1.15-47.08.14-14.83-.56-21.65-.69-29.05-1.14-7-.43-11.53-.69-16.84-1.25-17.59-1.82-26.57-2.61-34.49-6.34-4.52-2.13-11.73-5.63-17.42-13.55a40.43,40.43,0,0,1-7.14-19.94c-.52-4.81-2-18.79,7.14-28.88A28.16,28.16,0,0,1,281,914.84Z"/><path class="cls-5" d="M332.13,964.35c-12.74-1.85-14.05-30.45-1.4-33.45l48.85-7.22c10.12,3.11,20.55,6,31.52,8.85C411.6,985.8,418.43,966.2,332.13,964.35Z"/><path class="cls-6" d="M378.12,923c-4,.61-8,1.19-11.95,1.78l-16.35,2.42-18.38,2.71c-12.6,3-11.35,31.3,1.19,33.4l0,0,.17,0q9.45.2,17.46.66h0l.42,0c6.2.34,11.77.76,16.8,1.21a1.23,1.23,0,0,1,.27,0c21.89,1.94,33.1,4.32,38.76,2.44a6.74,6.74,0,0,0,2.09-1.06c3.54-2.66,3.65-8.8,3.42-21.2,0-.91,0-1.84-.06-2.82h0c-.06-2.68-.12-5.62-.15-8.85"/><path class="cls-7" d="M408.42,967.09c0-.18-.1-.38-.15-.56-.63-2.3-1.28-4.59-1.91-6.89-.54-2-1.1-4-1.65-5.95-.86-3.13-1.72-6.24-2.59-9.37-1.06-3.83-2.12-7.67-3.19-11.49-.29-1.08-.59-2.15-.89-3.24"/><path class="cls-7" d="M332,963v0q-.09-16.61-.2-33.21l8.31,16.12q4.69,9.06,9.35,18.14H351l.24.48c.06-.15.11-.31.17-.46q3.61-9.46,7.22-18.91,3.89-10.18,7.78-20.35,3.81,10.29,7.64,20.62v0q3.93,10.53,7.83,21.11,3.09-10.68,6.17-21.36V945c1.69-5.66,3.37-11.34,5-17"/><path class="cls-7" d="M332,930v33.07s0,0,0-.05a2.83,2.83,0,0,1,.16-.36q4-8.45,8-16.91,4.39-9.25,8.79-18.5,4.14,8.88,8.26,17.75,4.62,10,9.27,19.93l.16.34c0-.1.08-.22.1-.32q3.09-9.84,6.19-19.66v0L379.71,924"/><path class="cls-7" d="M381,923v.09q3.51,11,7,21.91v0q3.72,11.65,7.43,23.32c2.43-8,4.86-16.07,7.3-24.09.69-2.33,1.4-4.67,2.1-7,.39-1.26.77-2.51,1.15-3.77l.67-2.19"/><g id="lACES"><path class="cls-8" d="M404.24,931.47c1.08.83,1.3,2,1.88,3s1.06,2,1.63,3c1.13,2,2.34,3.9,3.61,5.79a1,1,0,0,1-1.65,1.13,39.12,39.12,0,0,1-3.5-6.13c-.49-1.07-.95-2.15-1.34-3.26s-.93-2.15-.72-3.47a.06.06,0,0,1,.06,0Z"/><path class="cls-8" d="M415.75,934.87c-.71,2.83-2.24,5.28-3.48,7.87l-1,1.9c-.33.59-.73,1.22-1.08,1.83l-2.21,3.7-2.24,3.67c-.77,1.21-1.58,2.39-2.37,3.58-1.6,2.38-3.2,4.75-4.83,7.1a1,1,0,0,1-1.65-1.13l0,0c1.59-2.36,3.21-4.69,4.84-7,.81-1.17,1.65-2.32,2.44-3.5l2.31-3.58,2.36-3.56c.39-.6.78-1.16,1.18-1.8l1.09-1.82c1.44-2.45,2.6-5,4.57-7.24a0,0,0,0,1,.06,0S415.75,934.85,415.75,934.87Z"/><path class="cls-8" d="M394.38,928.74a141.37,141.37,0,0,1,18.69,17.1,77.53,77.53,0,0,1,8,9.94,32.25,32.25,0,0,1,3.07,5.71,12.65,12.65,0,0,1,1,6.63,10.36,10.36,0,0,1-3.46,5.84,12.39,12.39,0,0,1-6.09,2.9,8.62,8.62,0,0,1-6.72-1.55,8.24,8.24,0,0,1-2.24-2.75,13,13,0,0,1-1.1-3.23,25.79,25.79,0,0,1-.4-6.54,45.63,45.63,0,0,1,.79-6.41,64.85,64.85,0,0,1,3.67-12.29,1,1,0,0,1,1.31-.55,1,1,0,0,1,.54,1.3h0a62.66,62.66,0,0,0-3.56,11.9,33.85,33.85,0,0,0-.43,12.18,11.65,11.65,0,0,0,.89,2.75,6.39,6.39,0,0,0,1.71,2.13,6.7,6.7,0,0,0,5.25,1.22c3.76-.58,7.4-3.49,8.13-7.23a11,11,0,0,0-.8-5.72,30.38,30.38,0,0,0-2.82-5.46,76.6,76.6,0,0,0-7.69-9.88c-5.57-6.28-11.87-11.86-17.75-17.93a0,0,0,0,1,0-.07A0,0,0,0,1,394.38,928.74Z"/></g></g><g id="Left-Shoe"><path class="cls-3" d="M807.12,971.3c-13.3,18.34-45.67,19.38-90.89,20.84-9.77.31-4.82-.16-24.53.07-29.61.35-39.27,1.39-48.46-4.5a38.2,38.2,0,0,1-13.4-14.84,29.21,29.21,0,0,1-1.55-4.34c5.39.34,10.85.62,16.39.88,1.54-1.36,12.22-11,11.89-26.4a29.69,29.69,0,0,0-1-7.44,20.22,20.22,0,0,0-9.9-14.74l-7.3-1.61-9.3-2.06a23.46,23.46,0,0,1,4.93-9.35c9.32-10.58,28.94-11.72,49.3-3.42l51,5.76c13.5.68,24.34.62,32,.42,2.55-.06,14.19-.39,23.82,1.76a39.71,39.71,0,0,1,14.2,6c.62.43,1.12.8,1.44,1,.44.5.88,1,1.28,1.55l0,0a35.38,35.38,0,0,1,3.6,5.68,40.82,40.82,0,0,1,3,7.48,46.84,46.84,0,0,1,1.38,18A47.79,47.79,0,0,1,807.12,971.3Z"/><path class="cls-4" d="M799.41,915.32a53,53,0,0,1-7,59.28,79.29,79.29,0,0,1-11,4.41,103.79,103.79,0,0,1-11,2.89c-3.77.77-6.41,1.11-25.3,2.62-7.9.63-10.47.81-15.29,1.32-4.62.48-5.88.68-9.63,1-7.2.71-12.51.91-15.69,1.06-26.28,1.16-32,3.28-48.32,2.12-6.15-.44-11.69-1.2-11.71-1s10.6,2,17.7,2.86c12,1.48,20.55,1.15,47.07.14,14.84-.56,21.65-.69,29.05-1.14,3.69-.23,9.44-.58,16.84-1.25,36.36-3.26,43.41-8.74,46.82-12.15a42.35,42.35,0,0,0,6.63-9,47.17,47.17,0,0,0,5.61-18.68c.51-5.89,1.7-19.37-7.15-28.88A26.93,26.93,0,0,0,799.41,915.32Z"/><path class="cls-5" d="M747.68,964.35c-86.46,1.85-79.46,21.52-79-32.11,0-2,0-4,0-6.23a6,6,0,0,1,6.92-6l23.83,3.52q24.79,3.66,49.6,7.33C761.73,933.9,760.42,962.5,747.68,964.35Z"/></g><g id="Head"><path class="cls-9" d="M427.87,234.07c-24.13,9.69-7.19,60.08,18,51.69l-1.47-2.55a93.72,93.72,0,0,1-4.74-11.77,94.81,94.81,0,0,1-4.44-22.76Z"/><path class="cls-9" d="M497.5,328.45l.42,42.6a45.35,45.35,0,0,0,83.83,1.2c0-8.67-.22-37.71-.36-43.56a129,129,0,0,1-83.89-.24Z"/><path class="cls-9" d="M644.72,249.78a100.47,100.47,0,0,0-17.51-39.3,40.95,40.95,0,0,1-26.45-37.42,399.34,399.34,0,0,1-56.84,4.31,400.79,400.79,0,0,1-65.38-5.05,37.94,37.94,0,0,1-5,20.88,38.77,38.77,0,0,1-21.39,17.08,115.67,115.67,0,0,0-16.51,39A86.36,86.36,0,0,0,448,289.7c10.94,18,25.55,26.74,33.39,31.3,25.34,14.75,49.85,14.71,58.87,14.58,11.24-.15,59.29-.83,87-38.28C640.65,279.28,643.83,260.16,644.72,249.78Z"/><path class="cls-10" d="M435.09,249.25a110.76,110.76,0,0,1,17.11-39,39.51,39.51,0,0,0,19.48-14.84c5.08-7.41,8.06-16.21,6.86-23.12,33.41,6.44,88.71,6.78,122.22.74-2.19,13.9,12.49,34.81,26.45,37.42a108,108,0,0,1,9.73,17.27,109.74,109.74,0,0,1,7.19,22,80.25,80.25,0,0,0-5.8-97.26c4.6-4,11.36-18.75,10.78-26.76-6.24,2.61-40.44-1.72-44.13-6.59.21-.7,18,8.38,29.78,1,11.7-7.73,10.71-22.58,7.54-28.58-9.92,10.12-19,12.65-24.61,13.3-5,.58-10.68-.6-21.84-3-23.79-5.07-25.17-5.43-27.79-6-28.8-8.31-111.91,2.85-113.93,55.18a75.44,75.44,0,0,0-27.48,40.57C418.9,221.17,432.42,244.79,435.09,249.25Z"/><path class="cls-11" d="M509,233.87c.18,18.81-20.13,18.81-19.95,0C488.88,215.05,509.2,215.05,509,233.87Z"/><path class="cls-11" d="M590,233.87c.18,18.81-20.14,18.81-20,0C569.87,215.05,590.18,215.05,590,233.87Z"/><path class="cls-12" d="M564.55,288.6c-4,28.1-45.65,28.09-49.62,0C528.42,286,551.06,286,564.55,288.6Z"/></g><path class="cls-9" d="M652.75,234.07c24.13,9.69,7.2,60.08-18,51.69l1.47-2.55a93.94,93.94,0,0,0,9.18-34.53Z"/><g id="Hands"><path class="cls-9" d="M542,751.06v.48c-.48-.07-1-.16-1.4-.24Z"/><path class="cls-9" d="M571.57,787.64c-1,1.44-2.56,1.83-6.87,2.47-5.27.79-7.92,1-11,1.33-4.42.53-8.85,1-13.29,1.56h-.83l-1.85.21q-11.16,1.32-22.27,2.67c1,.08,2.49.23,4.3.35,3.48.27,8.22.57,13.34.7H534l.92,0,2.16,0h3.24c.92,0,1.85,0,2.77,0s1.65,0,2.45,0,1.35,0,2,0l.79,0,.77,0c.72-.05,1.28-.08,1.73-.15,5.75-.8,8.42-2.29,10.3-.74a1.66,1.66,0,0,1,.23.23,5.21,5.21,0,0,1,.66,5.74c-.78,1.48-2.67,2-6.42,3.06a56.67,56.67,0,0,1-14.84,2h-.61c-4.53,0-15.23.06-23.53-.09-6.75-.12-11.92-.23-16.44-.63a97.15,97.15,0,0,1-33.87-9.69l-4.39-.73c.32-.55.64-1.14.95-1.73.9-1.79,1.68-3.69,2.47-5.54a55.2,55.2,0,0,0,4.66-20.48,54.26,54.26,0,0,0-2.58-18.41,112.23,112.23,0,0,0,11.63-4.52c7.25-3.28,8.62-4.81,13.29-5.93,6.21-1.48,6.57.56,13.42-.61,9.09-1.55,12.77-5.89,15.72-3.81,1.86,1.31,2.19,4.28,1.74,6.22-.83,3.52-4.63,5.17-7.39,6.32-4.57,1.91-6.56.72-11.35,2.07a24.93,24.93,0,0,0-8.88,4.72,142.83,142.83,0,0,0,23.19-1c17.39-2.17,26.09-3.26,30.2-4.27,4.6-1.14,10.76-2.91,13.12-.1a4.81,4.81,0,0,1,.75,4.41c-1.56,4.67-10.68,4.7-24.57,7a209.08,209.08,0,0,0-21.45,4.71c4,0,9.71,0,16.59-.27,11.67-.38,17.5-.57,21.21-1.21,13.95-2.41,20.52-7.75,23.82-4.54,1.77,1.72,1.68,5,.85,7.2-2.17,5.69-10.72,7.18-23.66,9.27a139.8,139.8,0,0,1-15,1.62h-1.51c-2.43.18-4.8.32-7.59.56l-15.44,1.36.3.08H515.4s8.21,1.64,12.38,2l5.91.54,5.27.34a62.12,62.12,0,0,0,7.54.3,44.94,44.94,0,0,0,10-1A51.23,51.23,0,0,1,563.1,780a13.22,13.22,0,0,1,2.14,0h0c3.39-.3,4.29-.33,5.2.35C572.44,781.81,573,785.5,571.57,787.64Z"/><path class="cls-9" d="M540.39,761a4.28,4.28,0,0,1,.48-.07,1.31,1.31,0,0,1,0,.15Z"/><path class="cls-13" d="M540,765.24h.34l-.34,0-7.46-.42"/><path class="cls-9" d="M616.68,796.22h0c-1.06.17-2.06.32-3.09.5a95.69,95.69,0,0,1-33.4,9.56c-4.46.39-9.56.5-16.22.62-8.18.15-18.73.11-23.2.09h-.85a56.62,56.62,0,0,1-14.84-2c-3.76-1-5.64-1.58-6.43-3.06a5.23,5.23,0,0,1,.67-5.74,1.63,1.63,0,0,1,.22-.23c1.89-1.55,4.56-.06,10.31.74.8.1,1.94.16,3.65.22.3,0,.61,0,1,0h1l2.29,0c.42,0,.86,0,1.31,0h4.7c.78,0,1.54,0,2.3,0s1.27,0,1.91-.05l.74,0,.72,0c4.43-.13,8.47-.4,11.53-.63,1.82-.12,3.29-.27,4.3-.35q-11.1-1.33-22.27-2.67l-1.84-.21h-.85c-4.45-.52-8.85-1-13.27-1.56-3-.34-5.69-.53-11-1.33-4.31-.64-5.91-1-6.87-2.47-1.44-2.13-.87-5.81,1.09-7.28.91-.69,1.8-.66,5.15-.36h0a3.91,3.91,0,0,1,1-.11l1.19.1c2.81.26,5.1.44,6.53.56,1.22.16,2.68.35,4.33.54l.34,0c1.56.18,3.32.36,5.22.52,1.49.14,6.32.34,6.32.34h0c1.72.14,3.56.23,5.51.21A64,64,0,0,0,558.18,781l8.67-1.29c-1.12.07-2.34.12-3.66.13a69.21,69.21,0,0,1-17.72-2c-.73-.18-1.45-.36-2.15-.58a70.5,70.5,0,0,1-23.56-11.71v0c.23-.31.46-.61.68-.93,3.84.13,8.8.35,14.71.63,4.16.21,8.8.46,13.8.77,16.69,1,26.67,2,26.75,1.38s-7.4-1.63-18.56-3.88c-2.64-.52-5.51-1.12-8.53-1.79-2.2-.48-4.33-1-6.37-1.46-9.75-2.32-17.71-4.59-23.32-6.29l-.06,0c-.36-1.37-.58-3.22.39-4.47,2.24-2.9,8.89-.48,18.12,1.48.63.14,1.28.27,1.94.39,5.45,1,11.79,1.63,22.89,2.69l1.47.14s3,.26,5.32.43,7.93.35,15.24.34a18.75,18.75,0,0,0-6.1-4c-3.41-1.38-4.91-.73-9.11-1.6-4-.81-9.45-1.94-11.19-5.92-1.19-2.7-.64-6.7,1.5-8,2.43-1.48,4.85,1.72,11.92,3.31,6,1.36,6.64-.4,13.3.9,4.07.8,6.91,2.06,11.88,4.27a126.7,126.7,0,0,0,13.82,5.85l1.18.39a40.91,40.91,0,0,0-2.23,10.72,43.37,43.37,0,0,0,.6,10.38A137.34,137.34,0,0,0,616.68,796.22Z"/></g><path class="cls-14" d="M564,292.42c-7.55-.6-15.69-1-24.36-1s-17,.36-24.64,1v-3.48a132.77,132.77,0,0,1,49,0Z"/><path class="cls-14" d="M524.21,304a64.22,64.22,0,0,0,32.61-.15,24.67,24.67,0,0,1-32.61.15Z"/></g><g id="Highlights" class="cls-15"><path class="cls-14" d="M838.6,697.77l-.3,6.77a53.8,53.8,0,0,1,12.24.51A56.73,56.73,0,0,1,869,711.58c9.5,5.33,15.5,12.29,26,24.47a94.65,94.65,0,0,1,7.62,10.84c.57,1,1.68,2.8,2.77,4.85a91.24,91.24,0,0,1,6.72,16.51A67.57,67.57,0,0,0,907,745.37c-4.86-11.53-11.81-18.87-16.46-23.76A96.17,96.17,0,0,0,879,711.29c-4.07-3.09-7.16-5.43-11.87-7.52-4.22-1.87-7.47-2.53-13.78-3.82A140.24,140.24,0,0,0,838.6,697.77Z"/><path class="cls-14" d="M802.62,926.15a27.64,27.64,0,0,0-6-4.9,33.1,33.1,0,0,0-8.9-3.46c-10.5-2.25-52.13-2.07-64.09-2.57-30-1.24-57.41-14.31-71.11-9.89a29.15,29.15,0,0,0-14.34,9.79,4.87,4.87,0,0,0-1.22,2,5.76,5.76,0,0,0-.13.62l-6.74-1.64.3-.71a28.53,28.53,0,0,1,6.21-8.88,31.45,31.45,0,0,1,10.58-6.29c6.2-2.12,12-1,23.24,1.18,1.89.37.66.17,9.1,2.07,12,2.69,18.05,4.06,24.18,5,4.26.65,8.31,1.13,11.72,1.54,3.86.46,5.95.71,8.6.89a113.74,113.74,0,0,0,11.67.2c12.12.15,23.29.36,33.66.59a122.74,122.74,0,0,1,15.07,1.1,116.52,116.52,0,0,1,14.18,2.86c.76,1.54,1.53,3.27,2.25,5.17S802.16,924.49,802.62,926.15Z"/><path class="cls-14" d="M804.76,926.73l7.51,5.27A36.74,36.74,0,0,0,805,919.07a17.31,17.31,0,0,0-1.71-1.23,14.82,14.82,0,0,0-2.1-1.1c.7,1.5,1.4,3.17,2,5S804.37,925.18,804.76,926.73Z"/><path class="cls-14" d="M652.17,929.55a942.75,942.75,0,0,1-131.43-40.11,943.35,943.35,0,0,1-106.33-48.92,1074.31,1074.31,0,0,0,116.22,48.39,1073.27,1073.27,0,0,0,116.7,33.5A32.13,32.13,0,0,1,650.1,926,31,31,0,0,1,652.17,929.55Z"/><path class="cls-14" d="M666.67,845.66a715,715,0,0,0,106.2-58.55c-30.88,17-64.33,34.15-100.35,50.77C627.4,858.7,584.22,876,543.74,890.55,544.12,891.58,612,869.93,666.67,845.66Z"/><path class="cls-14" d="M583.11,373.57c34.77,4.42,59.56,16.29,73.58,24.4a170.3,170.3,0,0,1,32.18,23.73c16.38,15.74,24.86,31,33,46,23.83,43.67,43.61,82,47.12,88.77,8.93,17.23,22.26,41.89,40.09,71.21a314.41,314.41,0,0,1,20,50.9c3.5,11.92,5.31,20.9,3.42,31.65a56.53,56.53,0,0,1-8.12,20.62,46.73,46.73,0,0,0,11-20c.73-2.92,3.09-11-1.9-29.51a256.33,256.33,0,0,0-12-34.18c-6.35-14.78-12.28-25.86-18.14-36.74-7.06-13.12-8.7-15.13-15.58-27.68-7.24-13.22-10.84-20.86-19.29-38-16.36-33.27-24.55-49.9-33.63-66.07-11.35-20.21-17-30.32-26.5-42.33-7.83-9.92-21-27.2-41.54-40.22C634.34,375.39,600.76,373.29,583.11,373.57Z"/><path class="cls-14" d="M653.26,235.18a15.18,15.18,0,0,1,4.36,2.5c6.51,5.41,6.28,14.94,6.19,18.66,0,1.65-.74,18.77-13.91,26.51a25.22,25.22,0,0,1-7.85,3,36.92,36.92,0,0,0,13.06-13.45c1.37-2.46,7.29-13.74,3.36-26.9A32.62,32.62,0,0,0,653.26,235.18Z"/><path class="cls-14" d="M582.93,328.61l-5.85,1.91c0,2.85-.1,7.54-.1,13.35,0,19.48.51,23.56-1.29,29.77A42.61,42.61,0,0,1,565.41,391a40.93,40.93,0,0,0,16.86-18.79Z"/><path class="cls-14" d="M546.71,239.35c0,.28,0,.83,0,1.51.41,6.54,2.22,9.57,3.06,15.74a5.13,5.13,0,0,1-.53,3.75c-.88,1.21-2.3,1.42-7,2.47-1.74.39-3.13.74-3.91.94a16.58,16.58,0,0,0,7.26.76c2.39-.3,5-.62,6.58-2.77a7.17,7.17,0,0,0,.93-5.48Q549.93,247.81,546.71,239.35Z"/><path class="cls-14" d="M637.44,152.49a76.64,76.64,0,0,1,20.27,42.8c3.35,27.22-9.4,47.15-12.82,52.15a97.61,97.61,0,0,0-7.45-94.95Z"/><path class="cls-14" d="M648.58,125.92a37.2,37.2,0,0,1-11.14,26.57,99.63,99.63,0,0,0,6.1-11.81A97.65,97.65,0,0,0,648.58,125.92Z"/><path class="cls-14" d="M605.21,118.27C619,127,635.09,123.65,641.46,114c6.18-9.33,1-21.41.59-22.45,2.23,9.69,0,19.29-6.28,24.48a21.68,21.68,0,0,1-14.34,4.75c-1.74-.12-2.81-.46-13.35-2.09Z"/><path class="cls-14" d="M601.23,173.06c.74,4.46,4,21.37,18.61,30.54a36.48,36.48,0,0,0,9.75,4.28,120.08,120.08,0,0,1,5.94,10.88,122.81,122.81,0,0,1,9.87,29.92,128.27,128.27,0,0,0-16.6-38,40.22,40.22,0,0,1-16.42-10.29C602.16,189.68,601.34,176.64,601.23,173.06Z"/><path class="cls-14" d="M564.51,332.62a91.58,91.58,0,0,0,36.8-12.46c2.73-1.64,36.5-22.72,41.4-58.81a68.84,68.84,0,0,0-.21-19.85,68.15,68.15,0,0,0-13.7-30.85,43,43,0,0,1-29.07-35.28,34.09,34.09,0,0,0,5,21.89c7.72,12.11,20.49,14.64,22.68,15a71.8,71.8,0,0,1,10.28,36.92,73.39,73.39,0,0,1-5.8,27.69c-6.57,15.66-16.74,24.8-24.53,31.65A120.22,120.22,0,0,1,564.51,332.62Z"/><path class="cls-14" d="M580.9,220.34a26.31,26.31,0,0,1,5,7.12,27.2,27.2,0,0,1,2.28,15.1,22.38,22.38,0,0,0,1.83-8.08c.07-2,.22-6.36-2.43-10.18a8.57,8.57,0,0,0-4.25-3.56A7.17,7.17,0,0,0,580.9,220.34Z"/><path class="cls-14" d="M499.78,220.34a26.09,26.09,0,0,1,5,7.12,27.11,27.11,0,0,1,2.28,15.1,22.44,22.44,0,0,0,1.84-8.08c.07-2,.21-6.36-2.44-10.18a8.57,8.57,0,0,0-4.25-3.56A7.16,7.16,0,0,0,499.78,220.34Z"/></g><g id="Shadows" class="cls-16"><path d="M529.45,958.65A684.74,684.74,0,0,1,344.6,910.18c-10.28-.29-19-.11-25.57.17-9.47.4-17.61.87-28.18,3A148.41,148.41,0,0,0,276.37,917a40.15,40.15,0,0,0-10.2,17.32c-5,17.77,4.83,32.71,6.66,35.5,1.49,2.27,4.19,10.07,12.22,12.64,21.66,6.91,38.13,8.9,74.94,9.47,47.09.74,60,3,78.39-5.18,10.22-4.58,11.24-13.64,13.33-18.85Z"/><path d="M498.31,372.25a40.6,40.6,0,0,0,4.1,7.72c11.08,16.33,30.28,18.71,31.74,18.87a43.76,43.76,0,0,0,14.67-.93c-32.42-5.42-39.58-15.43-41.4-21.57-.9-3-.58-5.35-.27-12.92.57-13.65.31-24.6,0-31.68-1.18-.28-2.42-.62-3.7-1a55,55,0,0,1-6-2.26Z"/><path d="M446.14,286.53a94.24,94.24,0,0,1-10.92-37.85l-7.35-14.61-7.46,5.71c6.53,4.32,9.31,8.87,10.66,12.08,3.25,7.77.67,13.91,4.74,23.87a19.67,19.67,0,0,0,5.67,8A18.45,18.45,0,0,0,446.14,286.53Z"/><path d="M526,304.34a15.69,15.69,0,0,1-3.82-2.64,17.09,17.09,0,0,1-5-9.41c6.61-.5,13.65-.81,21.07-.86,9.38-.05,18.18.33,26.3,1-6.21,5.09-11.59,6.63-15.46,7-4.47.48-7.36-.49-12.79.66A31.47,31.47,0,0,0,526,304.34Z"/><path d="M241.8,707a62.7,62.7,0,0,0,2.41,13c5.54,18.51,18.93,31.06,58,56.44,22.88,14.86,42.2,26.08,58.15,34.94,25.78,14.33,38.67,21.49,52.33,26.6a234.06,234.06,0,0,0,70,14.73A224.15,224.15,0,0,0,540,848a219.73,219.73,0,0,0,72.75,3.79,235.26,235.26,0,0,0,47.74-11c22-7.25,37.2-15.36,50.45-22.41,27.89-14.85,56.46-29.94,91.07-48.21q-35.28,15.91-37.27,12.5-2.25-3.87,38.4-32.65c-19.43,10.75-36,18.74-48.49,23.75-26.55,10.66-22,9.89-67.05,20-6.7,1.5-12.2,2.62-17.24,3.55-23,4.25-26.71,5.55-37,5.94-4.37.17-10.8-2-18.39-6.33a108.62,108.62,0,0,1-25.78,8.51,118.77,118.77,0,0,1-14,1.85c-5.19.37-8,.23-31.87.23h0c-.06,0-44.41.06-49.82-.89a97.1,97.1,0,0,1-15.24-4,91.27,91.27,0,0,1-14.34-6.53c-1.54,2.3-4.35,7.36-9.4,7.13a197.8,197.8,0,0,1-20.17-2c-8.9-1.32-13.05-1.86-17.84-2.67-25.67-4.32-42.85-8.65-42.85-8.65a391.22,391.22,0,0,1-44.74-14.6c-17.42-6.65-27.06-11.54-34.08-15.56-3.84-2.19-7.57-4.52-8.72-5.23-9-5.61-14.9-9.29-21.35-14.81-4.5-3.86-9.64-8.26-14.6-15.54A66.83,66.83,0,0,1,241.8,707Z"/><path d="M646.54,969.09h.05c0-.06-9-1.29-10.65-1.52-97-13.27-147.28-20.16-195-32.37-44-11.27-74.93-24.28-105-36.93-19.91-8.38-81-34.89-134-85.44-12.58-12-24.52-25.14-26.84-44.31C172,742.44,188.54,721.18,195,713.66a77.79,77.79,0,0,0-22.94,30.86,84.21,84.21,0,0,0-5.21,22.42c-1.79,25.19,41,74.54,127.54,119.84,77.71,40.69,147,55.28,179.51,61.87,40.47,8.22,84.62,13.26,93.37,14.24C598.89,966.43,625.94,968.17,646.54,969.09Z"/><path d="M628.29,968.53l11.26,1.74a20.88,20.88,0,0,0,6.59,9.5A21.71,21.71,0,0,0,658,984c20.25,1.77,66.85-2.82,88.88-4.09,7.64-.44,34.24-1.75,48.79-11.74a50.31,50.31,0,0,0,7.12-6.06,46.72,46.72,0,0,0,11.41-22c.76,7.18,1.39,23.27-8.85,34.71-7.49,8.35-18.54,10.81-40.93,14a352,352,0,0,1-49.85,3.4h0c-17,0-57.35.83-68.22-3a19.47,19.47,0,0,1-9.31-6.64h0A37.13,37.13,0,0,1,628.29,968.53Z"/><path d="M276,609.16a98,98,0,0,1,29.81,31.91c10.91,19.16,8.37,31.18,17.8,45.69,6.55,10.07,19.71,22.64,49.36,29.41-22.59-26.08-32.79-49.16-37.9-65.85-3.19-10.43-5.55-22.12-14.23-36.55a113.21,113.21,0,0,0-29.41-32.16Q283.7,595.38,276,609.16Z"/><path d="M309.46,551.05A73.2,73.2,0,0,1,327,553.31c5.21,1.32,9.74,2.48,14.77,5.54,9.36,5.68,10.34,11.81,15.56,11.6,4-.16,7.5-4,8.74-7.44,2.41-6.74-3.21-13.47-5.57-16.3-4.81-5.75-10.55-8.05-17.67-10.81a80.84,80.84,0,0,0-21.42-5Z"/><path d="M378.19,558.19a20.7,20.7,0,0,0-6.46,7,17.36,17.36,0,0,0-2.11,12,17.54,17.54,0,0,0,8,11.06l4.91-7.8Z"/><path d="M719.81,908.52c12.69-4.87,25.7-10.38,39-16.64a577,577,0,0,0,148-101.08,184.92,184.92,0,0,1-17.46,20.86A205.09,205.09,0,0,1,866,832c-11.07,8.58-26,19.82-44.31,32.83-8.84,6.07-18.42,12.2-28.76,18.21a451.72,451.72,0,0,1-54.32,26.89Z"/><path d="M435.22,248.68a92.33,92.33,0,0,1,34-89.66,63.48,63.48,0,0,1,9.09-24.53c9.37-14.69,22.44-21.15,33.37-26.37,22.65-10.83,44.37-12.3,58.68-11.8a148,148,0,0,0-37.6-2.08c-12.75.93-28.09,2.21-44.82,11.24-8.81,4.76-26.4,14.27-30.9,32.55A37.57,37.57,0,0,0,456,149c-4,2.92-28.12,21.05-31.4,53.59C422.3,225.45,431.61,242.69,435.22,248.68Z"/><path d="M553.14,262.67a15.61,15.61,0,0,1-16.22,4.19l1.48-3.1a25.12,25.12,0,0,0,5.68.62A25.47,25.47,0,0,0,553.14,262.67Z"/><path d="M569.41,332.35c0-1-41.59,7.71-81.44-13.5-21.7-11.56-32.67-26.74-35.41-30.66A96.57,96.57,0,0,1,436.34,247a79.06,79.06,0,0,0,5.41,31.19C455,311.67,488,324.53,498,328.45,535.31,343.09,569.43,333.26,569.41,332.35Z"/><path d="M500,220.34a17,17,0,0,0-6.73,10.19c-.15.74-1.72,9.36,4.16,14a12.34,12.34,0,0,0,7,2.55c-4.52,1.39-7.44.12-8.28-.3-6.94-3.44-5.81-14.48-5.7-15.42a12.54,12.54,0,0,1,3.25-7.87A11.57,11.57,0,0,1,500,220.34Z"/><path d="M580.9,220.34a17,17,0,0,0-6.72,10.19c-.15.74-1.72,9.36,4.15,14a12.36,12.36,0,0,0,7,2.55c-4.52,1.39-7.43.12-8.27-.3-6.95-3.44-5.81-14.48-5.7-15.42a12.49,12.49,0,0,1,3.25-7.87A11.55,11.55,0,0,1,580.9,220.34Z"/><path d="M779.54,622.47a69.47,69.47,0,0,1-43.4,60,40.2,40.2,0,0,0,10.45-1.82c28.89-9.19,37.34-49.43,38.48-55.19a28.39,28.39,0,0,0,19.52-20.52,64.76,64.76,0,0,1-25.05,17.55Z"/><path d="M736.05,691c-.06.16-.09.27-.12.33a6.65,6.65,0,0,1-.26.75c-2.42,7.27-10.11,14-20.51,20l-.91-1.38c2.6-2.45,5.14-5,7.62-7.61,0,0,4.63-4.9,9.68-11l.87-1.07Z"/><path d="M515.46,765.66c-.05-.25,1.78-.77,8-1.93,2.55-.46,5.82-1,10-1.72l3.35-.55,2.57-.43.16,0h.6l.11,1h0a7.93,7.93,0,0,1,2.71-.48c.88.14,2.53.48,2.53.48h.29c4.42.74,7.82,1.33,10.42,1.79-2.27.32-4.5.51-7.69.76s-5.56.38-7.64.45h-1.4c-.92,0-1.76.06-2.53.07C527.76,765.32,515.53,766.29,515.46,765.66Z"/><path class="cls-17" d="M565.72,795.92c-1.06.09-4.53.08-4.53.08h0s-.15.13-.22.07c-1.88-1.55-4.56-.06-10.28.74-.55.07-1.25.13-2.19.18l-1.77,0c-.45,0-.91,0-1.36,0-.81,0-1.62,0-2.45,0s-2.77-.09-2.77-.09h-1.37s-.88.1-1.29.09-1.14.91-1.14.91h-.06a6.66,6.66,0,0,0-2.06-1l-.64,0h-.68l-.56,0h-.52c-4.88-.15-9.34-.44-12.71-.7-1.94-.13-3.5-.28-4.56-.37q11.79-1.42,23.62-2.83c.65-.08,1.92-.09,1.92-.09h0a9.3,9.3,0,0,1,2,.09Q554,794.48,565.72,795.92Z"/><path d="M515.19,780a.56.56,0,0,0-.39-.31l17-1.49c3.09-.27,5.71-.42,8.37-.62,2.66.2,5.28.35,8.37.62l17,1.49a2.62,2.62,0,0,1-.38.09l0,0a76.2,76.2,0,0,1-19.4,2.57,35.66,35.66,0,0,1-5.43-.37h-.11a61.38,61.38,0,0,1-6.32-.34c-4-.36-7.44-.78-9.89-1.11-1.42-.12-3.7-.3-6.53-.56a6.81,6.81,0,0,0-2.17,0Z"/><path d="M466.33,789a89,89,0,0,0,19.56,10.72c12.22,4.81,19.24,4.37,63.3,3.66,26.3-.42,38-.49,53.6-6.82a98.64,98.64,0,0,0,11.75-5.7q.88,2.31,1.76,4.63a114.27,114.27,0,0,1-23.9,8.87c-12,3-18.75,2.55-45.59,2.55-37.84,0-41.22.83-52.77-1.31A145.84,145.84,0,0,1,463,796.13C464.08,793.74,465.21,791.36,466.33,789Z"/><path d="M475.9,524.46a34.28,34.28,0,0,1-3.46,10.67c-3.3,6.32-7.8,10-16.42,16.73-3,2.31-7.09,5.39-12.2,8.79l13.29-.78c2.23-2.4,4-4.44,5.14-5.84,8.19-9.83,15.05-18.29,14-27.66A17.29,17.29,0,0,0,475.9,524.46Z"/><path d="M495,754.8c-.18-.25,4.46-5.82,11.52-7.32,3.1-.65,4.38,0,8.06-1a24.8,24.8,0,0,0,7.62-3.57,16.8,16.8,0,0,1-5.79,4.9c-5,2.49-8,.64-14.37,3C497.5,752.52,495.16,755,495,754.8Z"/><path d="M584.92,754.53c.17-.25-4.47-5.83-11.53-7.32-3.1-.66-4.37-.05-8.06-1a24.86,24.86,0,0,1-7.61-3.56,16.63,16.63,0,0,0,5.78,4.89c5,2.49,8,.64,14.37,3C582.46,752.24,584.79,754.7,584.92,754.53Z"/><path d="M551.16,777.45c1.52-.4,4.11-1.07,7.34-1.88,12.82-3.22,16.7-3.8,19.17-7.27a11.33,11.33,0,0,0,2-6.28,8.18,8.18,0,0,1,.59,5.34c-1.42,5.51-9.57,7.81-14.83,9.3a45,45,0,0,1-6.93,1.38Z"/><path d="M573,783.3,570.12,789c-5,.6-10.31,1.4-15.77,2.45-2.27.43-4.48.89-6.65,1.37A44.09,44.09,0,0,0,561,793c4.85-.68,10.78-1.51,12.2-5.28A6.3,6.3,0,0,0,573,783.3Z"/><path d="M607,748.87a51.58,51.58,0,0,0-1.79,18.2,60,60,0,0,0,9.1,26.27A98.19,98.19,0,0,1,609,766.87a87,87,0,0,1,.89-16.53Z"/></g><g id="Outline"><path class="cls-18" d="M802.81,606.94c15.51,28.84,32.88,65,34.36,89.9a50.82,50.82,0,0,1-2.65,20.78c-21.9,37.37-101,66.57-137,73.24-4.58-.3-75.71,20.74-80.93,6.08l-.29-.66c-4.2-9.94-12.25-35.13-5.15-46.27a11.41,11.41,0,0,1,8.69-5.3c14-3.54,59.35-14,89.09-29.2h0c2-1,4-2.1,5.86-3.19,10.4-6,18.09-12.72,20.51-20a6.65,6.65,0,0,0,.26-.75c0-.06.06-.17.12-.33.55-1.68,2.4-8.45,2.62-9.16"/><path class="cls-18" d="M291.41,581.61c-22.65,39.09-46.48,84.68-48.54,115.93-.51,7.64.28,14.45,2.72,20.08,22.28,37.34,101.32,66.77,137,73.24A470.9,470.9,0,0,0,452.9,802.3c5,.36,8-2.39,10.16-6.11a67.3,67.3,0,0,0,3.41-7.21c3.28-9.06,8.08-28.83,1.68-38.84a12.3,12.3,0,0,0-6.32-5.1c-21.57-4.83-31.52-6.89-60.22-17.31-8.72-3.93-19.11-7.37-28.66-11.56-12.32-5.37-23.3-12-27.67-22.34-.16-.36-.31-.75-.45-1.12a76.32,76.32,0,0,1-1-17.53"/><path class="cls-18" d="M357.88,629a315.76,315.76,0,0,1,16-34.07q4.37-8,8.84-15.21"/><path class="cls-18" d="M409,539v.28q6.39-9,13.34-18.17-.64,5.65-1.3,11.29"/><path class="cls-18" d="M342.11,495.14C383.58,420.66,402,373.36,498,372h0a47.49,47.49,0,0,0,2.2,4.53l0,0a42,42,0,0,0,14.19,15.08c.11.08.23.15.33.21l.63.41a48.85,48.85,0,0,0,47.48,1.1c.34-.18.68-.38,1-.57A42.57,42.57,0,0,0,582.37,372C695.26,376.23,716.31,439,780,564.33c3.18,6.64,7.47,15.08,11.41,22.39"/><path class="cls-18" d="M327,521h.38q-3.33,5.64-6.93,11.44c-3.74,6.44-8.09,13.74-12.81,21.66"/><path class="cls-18" d="M664.19,579.46q-1.66-17.75-3.65-35.89-1.24-11.31-2.57-22.46l27.29,38.39"/><path d="M345.64,691.51a.54.54,0,0,0,.25.09c.07-.12.15-.07.23-.1l.47-.08a7.56,7.56,0,0,1,1,0l1.89,0c1.27,0,2.54,0,3.8,0a.93.93,0,0,1,.91,1,.94.94,0,0,1-.84.91c-1.27.11-2.53.21-3.79.29l-1.89.1a7.55,7.55,0,0,1-.95,0l-.48,0c-.08,0-.16,0-.24-.08a.33.33,0,0,0-.23.11,1.41,1.41,0,1,1-2-2A1.41,1.41,0,0,1,345.64,691.51Z"/><path d="M302.23,776.43c13.51,8,26.94,16.08,40.53,23.9S370.09,815.7,384,822.94q41.7,21.73,85.11,39.95t88.19,32.57q44.78,14.35,90.67,24.85a1,1,0,0,1,.46.25,28.12,28.12,0,0,1,7.27,11.82,36.37,36.37,0,0,1,1.53,13.74,39.47,39.47,0,0,1-3.37,13.4,27.66,27.66,0,0,1-8.52,11,1,1,0,0,1-.65.18h0c-31.82-2.66-63.62-5.58-95.33-9.46s-63.31-8.78-94.52-15.66a657.39,657.39,0,0,1-91.91-27.06,676.88,676.88,0,0,1-86.87-40.44l-.08,0c-18.88-12.78-38.09-25.17-56.28-39a278.26,278.26,0,0,1-26.13-22.27A152,152,0,0,1,182,804a90.67,90.67,0,0,1-9.6-14.35,54.4,54.4,0,0,1-5.74-16.36,47,47,0,0,1,.52-17.34,66.34,66.34,0,0,1,5.8-16.31,77.77,77.77,0,0,1,9.45-14.47A85.55,85.55,0,0,1,194.67,713c1.15-.87,2.25-1.8,3.44-2.62l3.58-2.43,3.74-2.2c.61-.38,1.26-.71,1.9-1s1.28-.68,1.94-1a75.62,75.62,0,0,1,33.61-7.12.93.93,0,1,1,0,1.86,73.65,73.65,0,0,0-32.78,6.94c-.64.29-1.25.63-1.88,1s-1.26.63-1.86,1l-3.64,2.14-3.5,2.37c-1.15.81-2.23,1.72-3.36,2.57a83.18,83.18,0,0,0-12,11.89,75.81,75.81,0,0,0-9.23,14.13A64.44,64.44,0,0,0,169,756.29a45.14,45.14,0,0,0-.5,16.66A52.71,52.71,0,0,0,174,788.74c5.3,10,12.83,18.63,20.86,26.6a277.8,277.8,0,0,0,26,22.11c18.12,13.81,37.3,26.18,56.21,39l-.07,0a674.93,674.93,0,0,0,86.63,40.31,654.84,654.84,0,0,0,91.64,27c31.14,6.85,62.69,11.74,94.35,15.62s63.45,6.78,95.25,9.43l-.66.19a25.72,25.72,0,0,0,7.88-10.2,37.76,37.76,0,0,0,3.2-12.72,34.4,34.4,0,0,0-1.45-13,26.1,26.1,0,0,0-6.75-11l.46.24q-45.93-10.49-90.84-24.88-22.42-7.19-44.52-15.36c-3.69-1.36-7.37-2.73-11-4.15l-5.5-2.1-5.47-2.17c-3.65-1.46-7.31-2.86-10.94-4.37l-10.88-4.5q-21.7-9.15-43-19.16c-14.2-6.69-28.22-13.79-42.1-21.11s-27.61-15-41.16-22.88S315.15,785.34,302.23,776.43Z"/><g id="Left-Shoe-2" data-name="Left-Shoe"><path class="cls-6" d="M628.74,916.61c1.29-2.77,2.19-4.49,2.8-5.59l.05-.09a29.39,29.39,0,0,1,2.37-3.27l0,0a23.36,23.36,0,0,1,6.74-5.54c13.06-8.67,27.3-2,50,3A171.89,171.89,0,0,0,716,908.82a158.33,158.33,0,0,0,18.3,1.18h.07a9.79,9.79,0,0,0,1.23.18c9.63.18,30.66-.18,30.66-.18h.07s19.6,1.54,27.14,3.22a35.82,35.82,0,0,1,5.56,1.62V915h.2a21.15,21.15,0,0,1,6.48,3.45c11.71,13.14,15.74,40.09-4.95,60.53-10.74,12.39-90.54,12.89-86.15,13.3-43.46-.69-60.76,2.15-72-4.9a32.74,32.74,0,0,1-12.72-15.5,34,34,0,0,1-1.26-3.42"/><path d="M643.8,986.67l9.29,1.06c3.1.33,6.22.49,9.33.62a185.23,185.23,0,0,0,18.7-.33c12.49-.86,25-2,37.48-3,6.25-.53,12.5-1,18.76-1.49s12.53-.76,18.72-1.43a129.64,129.64,0,0,0,18.37-3.26c3-.78,6-1.63,8.93-2.63a85.37,85.37,0,0,0,8.57-3.6l-.32.25a52.45,52.45,0,0,0,8.28-12.93,50.51,50.51,0,0,0-1.51-44.6l-.11-.43a1.09,1.09,0,0,0,.11.43.9.9,0,0,0,.15.19.88.88,0,0,1-.16-.21,1,1,0,0,1-.11-.44.91.91,0,0,1,1.82,0,.94.94,0,0,0-.11-.43.81.81,0,0,0-.15-.2.81.81,0,0,1,.15.2,1,1,0,0,1,.12.44l-.11-.43a53.3,53.3,0,0,1,5.35,15,51.6,51.6,0,0,1-3.63,31.28,54.38,54.38,0,0,1-8.59,13.42,1.07,1.07,0,0,1-.32.25,91.62,91.62,0,0,1-8.77,3.68c-3,1-6,1.88-9.1,2.67A129.61,129.61,0,0,1,756.29,984c-6.27.69-12.54,1-18.78,1.45s-12.5,1-18.74,1.48c-12.5,1-25,2.18-37.52,3a186.15,186.15,0,0,1-18.9.33c-3.15-.12-6.3-.29-9.44-.62l-9.39-1.07a1,1,0,1,1,.23-2h0Z"/><path class="cls-6" d="M747.68,963.23c-89.65,1.93-78.82,23-78.95-38.33a6,6,0,0,1,6.91-6l73.43,10.86C761.72,932.78,760.41,961.39,747.68,963.23Z"/><path class="cls-7" d="M747.68,963.23l.19-33.6L730,964.38l-15.62-39.72-15.93,41.75q-6.87-23.07-13.73-46.14l-13,46.82"/><path class="cls-7" d="M748,930v33.25q-8.6-18.09-17.18-36.18-8.94,19.21-17.87,38.41l-13.56-43.06q-7.14,22.43-14.29,44.85l-14.19-46.89"/><g id="lACES-2" data-name="lACES"><path class="cls-8" d="M682.41,964a163.58,163.58,0,0,1-14.57-21.27,107.11,107.11,0,0,1-5.91-11.54c-.46-1-.79-2-1.2-3s-.71-2.07-1-3.15a16.65,16.65,0,0,1-.59-6.7l.17-.88a6.47,6.47,0,0,1,.3-.84c.11-.28.21-.57.33-.84l.48-.76a8.83,8.83,0,0,1,2.51-2.51,10.88,10.88,0,0,1,6.67-1.74,9.92,9.92,0,0,1,6.4,2.73,3.77,3.77,0,0,1,.6.66l.54.72a11.9,11.9,0,0,1,.85,1.57,13.14,13.14,0,0,1,.85,3.4,22.88,22.88,0,0,1-.5,6.68,42.54,42.54,0,0,1-1.87,6.32,56.58,56.58,0,0,1-6.08,11.58,1,1,0,0,1-1.66-1.12h0a55,55,0,0,0,5.87-11.16c1.46-3.91,2.56-8.09,2.28-12.11a8.81,8.81,0,0,0-1.34-4.09l-.43-.56a2.18,2.18,0,0,0-.47-.53,7.94,7.94,0,0,0-5.16-2.23A9,9,0,0,0,664,914a6.9,6.9,0,0,0-3.06,4.61,15,15,0,0,0,.48,6c.21,1,.57,2,.87,3s.68,2,1.12,3A106.72,106.72,0,0,0,669,942c4.2,7.46,9.09,14.49,13.48,21.88a0,0,0,0,1,0,.07S682.42,964,682.41,964Z"/><path class="cls-8" d="M685.82,928.81c-5.88,6.07-12.18,11.65-17.75,17.93a76.41,76.41,0,0,0-7.69,9.88,30.38,30.38,0,0,0-2.82,5.46,11.06,11.06,0,0,0-.8,5.73c.73,3.73,4.37,6.64,8.13,7.23a6.78,6.78,0,0,0,5.25-1.22,6.38,6.38,0,0,0,1.7-2.14,11.23,11.23,0,0,0,.9-2.75,33.85,33.85,0,0,0-.43-12.18,62.66,62.66,0,0,0-3.56-11.9h0a1,1,0,0,1,.54-1.3,1,1,0,0,1,1.31.55h0a64.85,64.85,0,0,1,3.67,12.29,45.63,45.63,0,0,1,.79,6.41,25.79,25.79,0,0,1-.4,6.54,13,13,0,0,1-1.1,3.23,8.24,8.24,0,0,1-2.24,2.75,8.62,8.62,0,0,1-6.72,1.55,12.39,12.39,0,0,1-6.09-2.9,10.36,10.36,0,0,1-3.46-5.84,12.65,12.65,0,0,1,1-6.63,32.61,32.61,0,0,1,3.07-5.71,77.53,77.53,0,0,1,8-9.94,141.37,141.37,0,0,1,18.69-17.1,0,0,0,0,1,.06,0S685.84,928.79,685.82,928.81Z"/></g></g><path d="M423.79,937.05c.33,3,.09,5.81.36,8.68a43.09,43.09,0,0,0,1.55,8.39,28.69,28.69,0,0,0,8.7,14.2l-.72-.23c17.62-1.36,35.23-2.81,52.82-4.45q13.2-1.21,26.37-2.62t26.33-2.94l.12,1.85H539a.93.93,0,0,1,0-1.86h.32a.93.93,0,0,1,.12,1.85h0q-13.15,1.68-26.35,3.11t-26.39,2.62c-17.61,1.64-35.23,3.08-52.86,4.43a1,1,0,0,1-.72-.23,27.1,27.1,0,0,1-5.79-6.93,34.49,34.49,0,0,1-3.46-8.28,37.81,37.81,0,0,1-1.28-8.83C422.53,942.86,422.57,939.83,423.79,937.05Z"/><path d="M837.55,696.18a211.7,211.7,0,0,1,21.59,3.58,62.32,62.32,0,0,1,10.53,3.3,26,26,0,0,1,4.88,2.75c1.49,1,3,2,4.47,3.16,3,2.15,5.76,4.53,8.51,7a103.85,103.85,0,0,1,7.73,7.83,82.69,82.69,0,0,1,6.78,8.69c1.07,1.49,2,3.09,3,4.65s1.82,3.2,2.6,4.88,1.53,3.35,2.26,5,1.3,3.46,1.79,5.24a55,55,0,0,1,2.15,10.88,52.16,52.16,0,0,1-.15,11.1,48.92,48.92,0,0,1-7.74,20.67c-1,1.57-2.15,3-3.26,4.49-.59.71-1.21,1.4-1.81,2.1-.31.34-.61.7-.92,1l-1,1c-5.16,5.2-10.38,10.23-15.75,15.18A488.71,488.71,0,0,1,814,872c-3,2-6.2,3.84-9.3,5.77s-6.4,3.52-9.6,5.24q-9.65,5.13-19.43,10-19.57,9.71-39.76,18.11a.93.93,0,0,1-1.21-.51.92.92,0,0,1,.5-1.21q20.09-8.42,39.59-18.15,9.75-4.84,19.36-10c3.2-1.73,6.4-3.42,9.54-5.21s6.18-3.75,9.23-5.73a487.69,487.69,0,0,0,68.92-53c10.3-10.06,22.39-19.24,27.24-32.91A46.39,46.39,0,0,0,911.67,774a50,50,0,0,0,.14-10.66,52.13,52.13,0,0,0-2.07-10.48c-.48-1.73-1.13-3.4-1.73-5.08s-1.38-3.31-2.2-4.9-1.67-3.18-2.53-4.75-1.85-3.08-2.89-4.54A87.7,87.7,0,0,0,893.8,725a101.83,101.83,0,0,0-7.52-7.75c-2.68-2.41-5.41-4.77-8.31-6.92-1.42-1.11-2.92-2.13-4.4-3.18a24.75,24.75,0,0,0-4.56-2.65,60.47,60.47,0,0,0-10.22-3.34,181.21,181.21,0,0,0-21.4-3.69.67.67,0,0,1,.15-1.33Z"/><path d="M731.55,692.28a2.42,2.42,0,0,1,.13-.65.89.89,0,0,1,.13-.14.65.65,0,0,1,.26-.17,2.92,2.92,0,0,1,.51,0l1,0a14.32,14.32,0,0,1,2.06.12.93.93,0,0,1,.79,1.06.94.94,0,0,1-.8.8,15.87,15.87,0,0,1-2.06.1l-1,0a2.24,2.24,0,0,1-.52,0,.73.73,0,0,1-.26-.16,1,1,0,0,1-.12-.15A2.06,2.06,0,0,1,731.55,692.28Z"/><path d="M539.91,889.88c11.33-4,22.54-8.33,33.74-12.66s22.34-8.85,33.45-13.43q33.31-13.75,66-28.86T738,803.52c21.43-10.86,42.66-22.13,63.89-33.42a.1.1,0,0,1,.13,0,.11.11,0,0,1,0,.14c-20.64,12.35-41.77,23.87-63.13,34.91s-43,21.56-64.85,31.66-43.92,19.66-66.16,28.81q-16.7,6.86-33.52,13.36c-11.21,4.36-22.5,8.49-33.75,12.75a1,1,0,0,1-.72-1.88Z"/><g id="Right-Shoe-2" data-name="Right-Shoe"><path class="cls-6" d="M344.6,910.18c-21.66.4-49.11-.56-63.65,4.66l0,0a21.09,21.09,0,0,0-6.47,3.45c-11.71,13.14-15.74,40.09,5,60.53,10.74,12.39,90.54,12.89,86.15,13.3,62-1,70.76,5.22,84.74-20.4a39.21,39.21,0,0,0,1.46-4"/><path d="M281.83,915.31a51.73,51.73,0,0,0-5.06,14.48,50,50,0,0,0-.51,15.3,50.65,50.65,0,0,0,4.15,14.72,52.12,52.12,0,0,0,8.24,12.88l-.38-.29a85.12,85.12,0,0,0,8.51,3.57c2.88,1,5.89,1.84,8.87,2.61a129.26,129.26,0,0,0,18.25,3.19c6.16.68,12.39,1.07,18.62,1.61,3.11.27,6.23.56,9.34.91l9.29,1.08c6.17.66,12.39,1.12,18.61,1.58s12.43.83,18.65,1.1,12.43.46,18.65.42,12.42-.45,18.68-.58a.07.07,0,0,1,.07.06s0,.07-.06.07c-6.18.86-12.38,1.78-18.65,2s-12.52.23-18.77,0-12.49-.59-18.72-1-12.46-.85-18.69-1.47l-9.31-1c-3.09-.33-6.18-.6-9.29-.85-6.2-.5-12.43-.84-18.68-1.52a130.42,130.42,0,0,1-18.58-3.26c-3.06-.79-6.06-1.63-9.08-2.68a89.56,89.56,0,0,1-8.74-3.67,1.24,1.24,0,0,1-.38-.29,54.6,54.6,0,0,1-8.62-13.49,52.06,52.06,0,0,1-3.56-31.39,53.86,53.86,0,0,1,5.39-15,1,1,0,1,1,1.76.94Z"/></g><path d="M407.91,835.18a222.63,222.63,0,0,0,98.58,16.41,228.52,228.52,0,0,0,33.25-4.53h0a1.08,1.08,0,0,1,.4,0,223,223,0,0,0,33.13,4.71,221.37,221.37,0,0,0,66.49-5.7,223.91,223.91,0,0,0,31.85-10.28.91.91,0,0,1,.69,1.68,224.76,224.76,0,0,1-32.11,10.4A223.19,223.19,0,0,1,539.74,849h.41a224.87,224.87,0,0,1-132.84-12.37.78.78,0,0,1,.6-1.44Z"/><g id="Hands-2" data-name="Hands"><path class="cls-6" d="M565.07,779.94l0,0c3.39-.3,4.31-.33,5.22.36a5.92,5.92,0,0,1,1.1,7.33c-1,1.45-2.57,1.84-6.91,2.49-5.29.79-8,1-11,1.34L540.13,793h-.71l-1.82.22q-11.22,1.32-22.39,2.68c1,.09,2.48.23,4.32.35,3.19.25,7.42.52,12.05.66h.49l.53,0h.64l.61,0h.93l1,0h.53s.75.09,1.14.09,1.29.91,1.29.91h1.37a10.08,10.08,0,0,1,2.77-.91c.83,0,1.64,0,2.45,0,.45,0,.91,0,1.36,0l1.77,0c.94,0,1.64-.11,2.19-.18,5.72-.8,8.4-2.29,10.28-.74.07.06.22-.07.22-.07h.21a4.36,4.36,0,0,1,.9,1.48,5.61,5.61,0,0,1-.25,4.37c-.8,1.49-2.72,2-6.54,3.1a57.19,57.19,0,0,1-15.07,2h-.77c-4.47,0-15,.06-23.12-.09-6.64-.12-11.73-.23-16.18-.62a95.6,95.6,0,0,1-33.3-9.53c-1.32-.23-2.66-.45-4-.66"/><path class="cls-6" d="M468.15,750.1l.87-.19c.4-.1.83-.22,1.27-.35a39.88,39.88,0,0,0,4.94-1.77c1.06-.45,2-.91,2.8-1.33,4.41-1.79,7.87-3.22,10.11-4.17,2.9-1.22,4.28-1.83,5.34-2.15a7.24,7.24,0,0,1,1.78-.32,33.68,33.68,0,0,1,4.48.21,22.32,22.32,0,0,0,3.53,0,26,26,0,0,0,3.62-.53c7.94-1.8,11-5.72,14-3.87,2.07,1.24,2.86,4.32,2.35,6.6-.9,4-6,5.81-8.89,6.8-5,1.72-6.88.54-11.76,2.38a23.93,23.93,0,0,0-4.18,2.07,23.68,23.68,0,0,0-2.32,1.65c3,0,5.91,0,8.62-.11,5.13-.16,9.68-.47,13.56-.81l1.89-.17c1.33-.12,3-.29,5-.51l1.91-.23.94-.12c1.84-.23,3.9-.52,6.14-.88,1.82-.29,3.51-.57,5-.83l1-.17.3,0c3.47-.6,5.63-1,5.63-1,2.07-.41,3.85-.78,5.39-1.1a39.25,39.25,0,0,1,6.89-1.08,3.48,3.48,0,0,1,2.74,1,5.08,5.08,0,0,1,1,4.88,1.71,1.71,0,0,1-.09.3s0,0,0,0l-.15.32c-1,1.93-3.46,2.75-7.58,3.69l-1.12.26-.23,0-.73.15c-2,.44-4.34.92-6.88,1.4-1.31.25-2.68.5-4.12.75l-1,.18h-.6l-.16,0-2.57.43-3.35.55c-4.2.7-7.47,1.26-10,1.72-6.22,1.16-8.05,1.68-8,1.93.07.63,12.3-.34,21.51-.59.77,0,1.61,0,2.53-.07h.43c2.35-.08,5.18-.22,8.66-.5s6.13-.51,8.7-.87c.77-.1,1.54-.23,2.33-.37a71.55,71.55,0,0,0,9.92-2.59,2,2,0,0,0,.26-.09c4.17-1.38,6.5-2.28,8.25-.88s2.12,4.11,1.6,6.11c-1.56,5.89-12.15,7.94-21.28,9.71-2.67.51-4.64.75-8.59,1.26s-6.87.72-9.85.93c-2.74.21-5.44.36-8.62.64-6.35.56-12.42,1.08-17.46,1.54l.4.11H515"/><path class="cls-6" d="M540,782h0"/><path class="cls-6" d="M540,761h.16l.11,1h0a7.93,7.93,0,0,1,2.71-.48c.88.14,2.53.48,2.53.48h0c4.87.81,8.61,1.46,11.47,2"/><path class="cls-6" d="M523.27,763.67c2.49.35,5,.56,8.46.84s6.06.41,8.34.49H540"/><path class="cls-6" d="M540.13,777.58c2.66.2,5.28.35,8.37.62l17,1.49a2.62,2.62,0,0,1-.38.09l0,0a76.2,76.2,0,0,1-19.4,2.57,35.66,35.66,0,0,1-5.43-.37h-.11a61.38,61.38,0,0,1-6.32-.34c-4-.36-7.44-.78-9.89-1.11-1.42-.12-3.7-.3-6.53-.56a6.81,6.81,0,0,0-2.17,0H515"/><path class="cls-6" d="M562,754.17h.23l.84.08c1.51.13,3.13.26,4.83.37l.3,0c1.1.07,2.24.13,3.41.18,1.46.07,3,.13,4.56.17h0s5.19.14,8,.13c-.45-.36-1-.77-1.66-1.21-.11-.08-.35.08-.35.08h0a24.17,24.17,0,0,0-4.51-2.29,20.37,20.37,0,0,0-2.26-.71l-1-.21c-1-.17-1.83-.24-2.71-.32s-1.73-.15-2.69-.32a20.32,20.32,0,0,1-3.16-.82c-2.87-1-8-2.76-8.91-6.82a7.05,7.05,0,0,1,1.07-5.41,3.85,3.85,0,0,1,5.15-1.21,1.58,1.58,0,0,0,.23.11h.47c1.41.57,3.11,1.51,5.38,2.36a28.51,28.51,0,0,0,3.87,1.16,23.56,23.56,0,0,0,3.18.48h.44l.21,0,1.85.09c2.65,0,4-.41,6.18-.26a8.44,8.44,0,0,1,2.53.58c.69.25,1.56.61,2.81,1.14h0l1.26.54.46.2,2.54,1.07s.05,0,.08,0l2,.8,2.92,1.2,2.64,1.07c1.08.56,2.38,1.18,3.9,1.79.83.33,1.73.66,2.69,1,.36.12.74.24,1.13.34l.56.16,1,.25"/><path class="cls-6" d="M616.64,796.19l-3.42.57a95.64,95.64,0,0,1-33.31,9.53c-4.44.39-9.53.5-16.18.62-8.16.15-18.66.11-23.12.09H540"/><path class="cls-6" d="M540.13,751.3l-1-.19-1-.18c-2.42-.43-3.86-.71-3.86-.71-2.07-.41-3.85-.78-5.39-1.1l-.21,0-.86-.18c-1.2-.24-2.24-.45-3.13-.59-2.91-.47-4.39-.37-5.44.72a5.12,5.12,0,0,0-.91,5.18"/><path class="cls-6" d="M540,793h.13a9.3,9.3,0,0,1,2,.09q11.85,1.39,23.62,2.83a27.4,27.4,0,0,1-4.53.08H561"/><path class="cls-6" d="M519.1,796.29a1.56,1.56,0,0,1,.23-.22c1.86-1.55,4.54-.06,10.26.74.66.09,1.53.14,2.74.19l.56,0h.68l.64,0a16.28,16.28,0,0,0,2.06,0h.06a4.71,4.71,0,0,0,1.14.09c.41,0,.84,0,1.29.91h1.37a3.58,3.58,0,0,1,2.77-.91c.83,0,1.64,0,2.45,0,.45,0,.91,0,1.36,0l1.77,0"/></g><g id="Head-2" data-name="Head"><path class="cls-6" d="M435.56,249.26c7.36,114.74,201.78,115.28,209,.52"/><path d="M435.4,248.26a.82.82,0,0,0-.37-.34c-.1-.07-.12,0-.07-.19l.37-1.3.71-2.6c.47-1.73,1-3.46,1.54-5.17,1.1-3.42,2.38-6.79,3.81-10.09a110.57,110.57,0,0,1,10.46-18.86.9.9,0,0,1,.49-.37h0a38.62,38.62,0,0,0,10.6-5.69,37.28,37.28,0,0,0,8.32-8.68,43.62,43.62,0,0,0,5.46-10.76A24.92,24.92,0,0,0,478,172.49a1,1,0,0,1,.82-1.16,1,1,0,0,1,.35,0,280,280,0,0,0,30.32,3.8c10.17.77,20.38,1.15,30.58,1.23s20.42-.21,30.6-.86a280.57,280.57,0,0,0,30.36-3.43,1,1,0,0,1,1.16.81.81.81,0,0,1,0,.31v0a25.09,25.09,0,0,0,1.48,11.61,44.6,44.6,0,0,0,13.71,19.4,25,25,0,0,0,10.46,5.26h0a1,1,0,0,1,.63.41,110,110,0,0,1,17.06,39.66l-1.8-.35a80.7,80.7,0,0,0,10.65-23.42,81.52,81.52,0,0,0,2.42-12.68c.14-1.06.17-2.14.26-3.21l.11-1.61c0-.54,0-1.08,0-1.62l0-3.23-.16-3.22-.08-1.62-.18-1.6c-.12-1.07-.2-2.15-.37-3.21l-.52-3.19c-.17-1.06-.45-2.1-.67-3.16a78.45,78.45,0,0,0-3.87-12.31,81.38,81.38,0,0,0-13.39-22,1,1,0,0,1,.08-1.39l0,0a24.13,24.13,0,0,0,4.16-5.62,54.85,54.85,0,0,0,3.15-6.5,49.43,49.43,0,0,0,2.28-6.84,24,24,0,0,0,.84-7l1.38.85a11.81,11.81,0,0,1-3,.66c-1,.11-1.95.15-2.91.18-1.93,0-3.84,0-5.75-.11-3.81-.21-7.6-.6-11.37-1.11s-7.52-1.17-11.25-2c-1.86-.43-3.71-.93-5.55-1.54a27.48,27.48,0,0,1-2.74-1.1,7.3,7.3,0,0,1-2.65-1.89.86.86,0,0,1-.17-.78v-.06a1.08,1.08,0,0,1,.42-.55.89.89,0,0,1,.29-.12.74.74,0,0,1,.32,0,1.8,1.8,0,0,1,.28,0l.32.08.51.15,1,.32,1.86.63c1.23.42,2.46.8,3.71,1.14a46.92,46.92,0,0,0,7.56,1.46,27.53,27.53,0,0,0,7.59-.21,16.31,16.31,0,0,0,6.87-2.76,20.17,20.17,0,0,0,8.07-12.27,24.35,24.35,0,0,0,.49-7.52,20.4,20.4,0,0,0-1.9-7.18l1.6.23A48.18,48.18,0,0,1,627,103.66,33.73,33.73,0,0,1,617.1,106,43.52,43.52,0,0,1,607,105.1c-6.53-1.21-12.93-2.67-19.38-4l-19.32-4.14-.08,0A76,76,0,0,0,551,94.55a135.09,135.09,0,0,0-17.53.59,140.27,140.27,0,0,0-34.2,7.52A101,101,0,0,0,483.4,110a68.23,68.23,0,0,0-13.89,10.43,47.64,47.64,0,0,0-10,14,44.69,44.69,0,0,0-3.94,16.73,1,1,0,0,1-.4.76,74.91,74.91,0,0,0-24.39,31.77,76.9,76.9,0,0,0-3.77,13c-.26,1.09-.34,2.22-.53,3.33s-.38,2.22-.42,3.35c-.15,2.25-.36,4.49-.3,6.74s.15,4.5.29,6.75.49,4.48,1,6.69a77.26,77.26,0,0,0,3.59,13l1.25,3.15c.46,1,.88,2.07,1.38,3.08s1,2,1.51,3c.25.5.54,1,.81,1.48l.2.37c.06.11,0,.06,0,.11A.75.75,0,0,0,435.4,248.26Zm.32,2a4.46,4.46,0,0,1-1.25-1,5.5,5.5,0,0,1-.43-.63l-.21-.38c-.28-.51-.57-1-.83-1.53-.54-1-1.06-2-1.55-3.1s-.94-2.11-1.42-3.17l-1.28-3.22a80.06,80.06,0,0,1-3.67-13.36c-.48-2.26-.7-4.57-1-6.86-.14-2.31-.36-4.62-.3-6.93s.15-4.63.31-6.94c0-1.16.29-2.29.43-3.44s.28-2.3.55-3.43A79.29,79.29,0,0,1,429,183,77.19,77.19,0,0,1,454,150.33l-.4.76a46.56,46.56,0,0,1,4.12-17.48A49.74,49.74,0,0,1,468.1,119a69.88,69.88,0,0,1,14.3-10.74,102.34,102.34,0,0,1,16.21-7.45,142.28,142.28,0,0,1,34.69-7.64,138.94,138.94,0,0,1,17.79-.59A77.35,77.35,0,0,1,568.81,95l-.08,0,19.34,4.14c6.44,1.36,12.89,2.83,19.32,4A41.75,41.75,0,0,0,617,104a31.6,31.6,0,0,0,9.29-2.18,46.1,46.1,0,0,0,15.79-10.92h0a1,1,0,0,1,1.39,0,1,1,0,0,1,.19.27,21.76,21.76,0,0,1,2.09,7.94,26.1,26.1,0,0,1-.57,8.12,22.06,22.06,0,0,1-8.9,13.35,18.6,18.6,0,0,1-7.6,3.06,29.29,29.29,0,0,1-8.09.24,48.36,48.36,0,0,1-7.87-1.49c-1.29-.35-2.56-.74-3.82-1.16l-1.87-.63-.91-.31-.43-.13-.16,0s0,0,0,0a1.28,1.28,0,0,0,.19,0,1,1,0,0,0,.23-.1.92.92,0,0,0,.38-.51l-.15-.84a5.82,5.82,0,0,0,2,1.32,24.47,24.47,0,0,0,2.52,1c1.75.58,3.56,1.06,5.38,1.48,3.64.83,7.35,1.46,11.08,2s7.46.88,11.2,1.07c1.87.09,3.74.14,5.6.09.92,0,1.85-.07,2.74-.17a10.42,10.42,0,0,0,2.49-.52h0a1,1,0,0,1,1.29.54.88.88,0,0,1,.07.32,25.81,25.81,0,0,1-.89,7.59,50,50,0,0,1-2.37,7.12,57.26,57.26,0,0,1-3.26,6.74,25.88,25.88,0,0,1-4.6,6.14l.11-1.41a83,83,0,0,1,13.72,22.52,80.69,80.69,0,0,1,4,12.62c.23,1.08.52,2.15.68,3.24l.54,3.27c.17,1.09.25,2.19.38,3.29l.18,1.64.09,1.66.16,3.31,0,3.31c0,.55,0,1.1,0,1.65l-.12,1.66c-.09,1.1-.12,2.2-.26,3.3a83.39,83.39,0,0,1-13.4,37,1,1,0,0,1-1.39.28,1,1,0,0,1-.42-.63,108.17,108.17,0,0,0-16.76-39l.64.42a26.89,26.89,0,0,1-11.34-5.67,45.67,45.67,0,0,1-8.55-9.18,46.23,46.23,0,0,1-5.8-11.13,26.86,26.86,0,0,1-1.56-12.57l1.16,1.14a281,281,0,0,1-30.59,3.46c-10.23.65-20.48.91-30.73.86s-20.5-.46-30.72-1.24a280.6,280.6,0,0,1-30.54-3.83l1.17-1.15a26.67,26.67,0,0,1-1.39,12.68,45.94,45.94,0,0,1-5.7,11.27,43.13,43.13,0,0,1-4,4.92,42.16,42.16,0,0,1-4.74,4.22,40.67,40.67,0,0,1-11.15,6l.49-.37a109.5,109.5,0,0,0-10.43,18.45c-1.44,3.23-2.72,6.54-3.84,9.9q-.83,2.52-1.55,5.08c-.23.86-.45,1.71-.64,2.58l-.27,1.3a4.28,4.28,0,0,1-.37,1.12A5.69,5.69,0,0,1,435.72,250.24Z"/><path class="cls-6" d="M581.85,329.67q-.11,10.27,0,20.88.09,11,.39,21.7a46.09,46.09,0,0,1-84.3,0l.05-43.8"/><path class="cls-6" d="M427.87,234.07c-24.13,9.69-7.19,60.08,18,51.69"/><path class="cls-6" d="M635.22,285.76c25.21,8.39,42.12-42,18-51.69"/><path class="cls-6" d="M509.48,233.87c.18,18.81-20.13,18.81-20,0C489.35,215.05,509.67,215.05,509.48,233.87Z"/><path class="cls-6" d="M590.47,233.87c.18,18.81-20.14,18.81-20,0C570.34,215.05,590.65,215.05,590.47,233.87Z"/><path class="cls-6" d="M565,288.6c-4,28.1-45.65,28.09-49.62,0C528.89,286,551.53,286,565,288.6Z"/></g><path d="M546.77,239.32c1.46,2.89,2.91,5.74,4.29,8.66a35.1,35.1,0,0,1,3.29,9.31,8.24,8.24,0,0,1,0,2.71,5.47,5.47,0,0,1-1.26,2.62,6.78,6.78,0,0,1-2.37,1.53,11.12,11.12,0,0,1-2.54.59,22.22,22.22,0,0,1-5,0,38.65,38.65,0,0,1-4.81-.82.15.15,0,0,1-.11-.19.15.15,0,0,1,.15-.11c1.61,0,3.22,0,4.8-.06a27.26,27.26,0,0,0,4.66-.46,13.44,13.44,0,0,0,2.12-.63,5.08,5.08,0,0,0,1.61-1.14,4.74,4.74,0,0,0,.77-3.78c-.41-3-1.66-6-2.73-9a85.42,85.42,0,0,1-3-9.21.06.06,0,0,1,.05-.08S546.76,239.29,546.77,239.32Z"/></g></g><g id="sooz"><g id="Color-2" data-name="Color"><path class="cls-19" d="M805.23,603.9c-.59,1.18-2.72,5.23-10.08,10.51a62.37,62.37,0,0,1-15.61,8.06,64.91,64.91,0,0,1-3.73,20.37,65.75,65.75,0,0,1-5.16,11.07,68.39,68.39,0,0,1-10.92,13.91,71.06,71.06,0,0,1-21.06,14.24c-.53.92-1.36,2.3-2.45,3.91a77.06,77.06,0,0,1-5.78,7.32c-4.39,5.2-8.86,9.66-17.6,18.39l-2.54,2.52c-5.46,2.52-13.21,5.95-21.76,9.3-6.66,2.61-11.34,4.19-12.41,4.55-2.48.83-4.44,1.45-7.22,2.32-4.76,1.5-8.73,2.68-11.72,3.56-17.63,5.18-28.09,7.57-30.1,8l-1.35.29c-.45.1-2,.49-5.25,1.34-4,1.06-5,1.42-6.13,2.12a11.67,11.67,0,0,0-3.31,3.22c-1.31-.4-2.4-.78-3.21-1.09-1.14-.43-2-.8-2.92-1.19-1.13-.48-1.53-.67-2.57-1.13s-1.67-.72-3.76-1.59c-4.66-1.93-4.49-1.88-6.43-2.67l-4.09-1.62a14,14,0,0,0-1.93-.53,14.7,14.7,0,0,0-3.43-.26c-1.5,0-2,.3-3.15.34a23.77,23.77,0,0,1-5.6-.46,31.06,31.06,0,0,1-5.3-1.69c-5.13-1.94-7.12-3.29-9.19-2.35a4,4,0,0,0-1,.7,7.85,7.85,0,0,0-1.78,2.81,8.2,8.2,0,0,0,1.34,7.66c1,1.28,2.53,1.92,5.53,3.2a21.91,21.91,0,0,0,5.94,1.81,48.65,48.65,0,0,1,6,.82,16.42,16.42,0,0,1,2.35.72,21.87,21.87,0,0,1,4.56,2.38,94.16,94.16,0,0,1-9.53-.15,91.41,91.41,0,0,1-9.58-1.14,5.67,5.67,0,0,0-.35-3.09,6.26,6.26,0,0,0-1.28-1.88c-2.35-2.26-6.6-1.13-6.78-1.09l-14,2.72-.88.19-4.39-.94-4.37-.83c-2.6-.47-4.52-.85-5.75-1.1a9.27,9.27,0,0,0-4.33-.23,5.67,5.67,0,0,0-2.19,1c-2.13,1.62-2.09,4.62-2.07,5.11-2.59.22-5.26.41-8,.54q-4.92.24-9.49.25a17.57,17.57,0,0,1,5-2.32c2.46-.69,3.3-.33,6.83-1a32.38,32.38,0,0,0,5.59-1.63,13.46,13.46,0,0,0,5-2.87,7.78,7.78,0,0,0,2.42-4c.67-3.35-1.62-7.38-4.45-8.06-1.36-.33-2.26,0-6.18,1.78a40.12,40.12,0,0,1-7.37,2.67,22.58,22.58,0,0,1-3.66.55c-3.83.27-5-.7-8.25-.16a15.74,15.74,0,0,0-2,.47,18.65,18.65,0,0,0-3.22,1.34c-1.34.65-2.75,1.17-4.12,1.76-5.95,2.57-9,3.86-10.63,4.5-1.32.5-3.3,1.22-5.79,2a9.68,9.68,0,0,0-2.11-2.64,11.87,11.87,0,0,0-6.23-2.47c-5.66-1.12-13.47-2.82-22.65-5.34-5.27-1.44-14.68-4.18-33.23-11-8.52-3.12-19.41-7.31-32-12.66a24.13,24.13,0,0,1-7.54-7.26c-1.15-1.78-1.66-3.16-3.6-6.09-1.69-2.56-3.23-4.16-3.88-5.19-8.94-14-12.05-19.28-13-21.15-.69-1.41-3.22-7.2-3.22-7.21h0a148.39,148.39,0,0,1-7-21.64c-7.61-28.09-11.16-32.33-32.81-54-3.58-4-6.68-7.47-9.36-10.57-7.15-8.29-11.3-14-13.8-20.79-13.63-30.85,10.1-73.33,53.39-67.88a61.14,61.14,0,0,1,11.09,2.51c14.83,4.79,28.52,14.88,28.13,25.44,0,.68-.33,6.79-4.91,9.95-9.27,6.44-23.88-7.74-38-9.77a18.43,18.43,0,0,0-9.87,1c-7.17,3-12.69,11.15-13.49,18.86a17.86,17.86,0,0,0,0,4.14,22.88,22.88,0,0,0,3.62,9c3.11,4.59,17.36,20.49,37.83,41.06a256.92,256.92,0,0,1,10.36,29.71c.56,2,1.1,4,1.6,6A82.61,82.61,0,0,1,404.39,587l0-5a20.05,20.05,0,0,1-7.77,1.76A27.61,27.61,0,0,1,387,582h0l.12,0c-.82-.33-1.64-.7-2.42-1.1l-.06,0c-.45-.24-.92-.48-1.36-.75-4.56-2.65-8.11-6.57-8.64-11.38a1,1,0,0,1,0-.29,11.15,11.15,0,0,1,0-1.64c.38-5.39,5.52-8.84,13.46-13.83,2.07-1.31,4.09-2.59,6.06-3.8h0c5.67-3.51,10.86-6.62,15.43-9.29,4.81-2.81,8.92-5.15,12.2-7,5.47-3,8.63-4.67,8.78-4.74,11.74-6.09,19.37-10.18,24.82-12.44,0,0,0,0,.07,0a28.4,28.4,0,0,1,5.77-1.86s0,0,0,0a9.49,9.49,0,0,1,6.84.89c.45.32.89.63,1.29,1l.08,0A16.62,16.62,0,0,1,475.1,523c0,.12.08.26.11.38,4.69,14.75-21.23,31.76-33.36,39.33l-.68.44c.68-.21,1.37-.42,2.08-.59a45.6,45.6,0,0,1,6.58-1.22c21.3-2.41,48.89,7.9,57.39,30.26L546.66,620A60.2,60.2,0,0,1,566,615.1c19.93-1.53,45.82,10.85,58.61,19.82l5-.79q10.56-1.57,20.5-2.37c-.84-5.62-3.3-26.66,10-46.76a65.78,65.78,0,0,1,25.15-22.27,44.68,44.68,0,0,1,2.52-19.23c1.06-2.89,6.06-16.48,12.74-16.89,6.42-.39,13.88,11.45,18,29.36A65.09,65.09,0,0,1,771,588.71a43,43,0,0,1,18.9-1.88c4.65.59,15.25,2,17.23,8.15C808.11,598.06,806.58,601.15,805.23,603.9Z"/><g id="WhiteSpots"><path class="cls-14" d="M577.55,721c-2,4.77-5.47,10.46-11.59,13.76-.43.23-.86.45-1.3.64a10.84,10.84,0,0,0-2-.74,5,5,0,0,0-2-.24,4,4,0,0,0-1.86.72,4.88,4.88,0,0,0-1.79,2.18,16.33,16.33,0,0,1-3.52.3c-.4,0-.78,0-1.15-.06q-1.89-9.42-3.78-18.81a14.82,14.82,0,0,1,1.41-3.78,15.28,15.28,0,0,1,4.92-5.44c.84-.56,6.29-4.19,10.82-2.24,2.13.92,2.51,2.41,5.91,6.86A77.4,77.4,0,0,0,577.55,721Z"/><path class="cls-14" d="M555.35,644.72a26.16,26.16,0,0,0-.36-16.09,25.75,25.75,0,0,0-6.5-10c-2.73.55-11.07,2.63-15.93,10.11-1.49,2.29-4,6.21-2.87,10.75,1.1,4.3,5.14,7.66,10.38,8.87Z"/><path class="cls-14" d="M389.17,630c2-6.8,11.3-9.47,16-10.82,19.05-5.51,45.37-15.73,77.21-23.32A13.49,13.49,0,0,1,495,603c3.48,6.66-.45,13.13-.62,13.41A68.59,68.59,0,0,1,478,629.93c-11.18,6.61-22.53,8.86-22.27,9.94.22.91-40.11,13.16-39.87,11.51-1.66.32-10.55,1.87-18.23-3.88C392.53,643.71,387.32,636.26,389.17,630Z"/><path class="cls-14" d="M373.84,565.74c.59-7,9.15-11.51,13.5-13.79,17.35-9.13,40.35-21.82,69.22-37.74a13.85,13.85,0,0,1,15.59,3.95c4.64,5.71,2.2,12.88,2.06,13.25A68.64,68.64,0,0,1,460.85,548c-9.64,8.71-20.32,13.18-19.85,14.19.4.85-36.67,20.9-36.77,19.24-1.56.65-10,3.93-18.63-.17C379.89,578.55,373.3,572.29,373.84,565.74Z"/><path class="cls-14" d="M649.7,632.43c-1.1,5-5,25.37,7.09,41.77,18.56,25.11,57.31,17.24,61.26,16.38A69.78,69.78,0,0,0,739.37,682a75.26,75.26,0,0,1-54.73-3,62.56,62.56,0,0,1,31.9-32.63,10.68,10.68,0,0,1-9.9-16.41,11.24,11.24,0,0,1-12.54,2.2,11.4,11.4,0,0,1-5.78-7.81A67.09,67.09,0,0,1,663,661.17a72.57,72.57,0,0,1-13.33-28.74Z"/><path class="cls-14" d="M632.61,684.05c-6.1,13.63-33.05,12.92-48.72,12.51-33-.88-53.92-13.15-60.56-17.38-5.21-3.32-24.8-16.44-24.32-29.2.06-1.62.28-7.29,3.81-9.34,2.33-1.35,5.12-.58,6.35-.22,12.23,3.62,34.84,16.18,49,20.52s28.55,3.07,40.47,2c14.88-1.32,23.4-4.42,29.58.9C633.47,668.35,635.52,677.57,632.61,684.05Z"/></g><g id="Stripes"><path class="cls-20" d="M415,703a10.4,10.4,0,0,1,1.08-2.93,22.91,22.91,0,0,1,2.15-3.56,24,24,0,0,1,4.24,0,20.18,20.18,0,0,1,3.05.54c1.91.53,3,1.85,2.8,3.44a4,4,0,0,1-1.74,2.76,4.28,4.28,0,0,1-4.45.2,4.92,4.92,0,0,1-3.14,4,3.46,3.46,0,0,1-3-.41C414.47,706.06,414.81,704.06,415,703Z"/><path class="cls-21" d="M750.92,567.41c1.74,1.46,3.27,2.88,4.58,4.19q-6.56,6.18-13.11,12.43l-7.61,7.26c-.75.72-2.35-.7-1.86-1.64l5-9.54q4.27-8.1,8.56-16.12C747.85,565,749.34,566.1,750.92,567.41Z"/><path class="cls-21" d="M739.27,561.8l.06.16-7.12,13-2,3.75a1,1,0,0,1-1.78-.78l1.37-4.19q2.36-7.35,4.7-14.71Z"/><path class="cls-21" d="M761,576.11h-.17l-10.49,10.52-3,3c-.75.75.38,2.08,1.25,1.48l3.63-2.5L765,580Z"/><path class="cls-21" d="M651.74,604.39c.41-1.06.84-2,1.26-2.85l8,4.35,4.65,2.51c.46.25,0,1.24-.48,1.15l-5.32-.91c-3-.52-6-1-9-1.58C651.06,606.25,651.36,605.36,651.74,604.39Z"/><path class="cls-21" d="M650.47,610.92l.07,0,7.39.88,2.12.26a.5.5,0,0,1,0,1l-2.2.14-7.71.56Z"/><path class="cls-21" d="M653.88,598.32l0,.08,6.74,3.22,1.94.93c.48.23.91-.53.48-.85l-1.79-1.3L655,595.77C654.63,596.62,654.25,597.47,653.88,598.32Z"/><path class="cls-21" d="M746,677.67c-1,.54-2,1-2.81,1.35-1.08-2.82-2.16-5.65-3.26-8.48q-.94-2.47-1.91-4.94c-.19-.48.77-1,1.12-.56l3.46,4.14q2.94,3.54,5.83,7.05C747.76,676.69,747,677.18,746,677.67Z"/><path class="cls-21" d="M751.24,673.52h-.09l-5-5.47-1.45-1.57c-.36-.39.23-1.05.66-.73l1.77,1.32,6.23,4.57Z"/><path class="cls-21" d="M740.47,680.9l0-.08-3-6.82-.88-2c-.21-.49-1-.19-.91.33l.51,2.16L738,682.1Z"/><path class="cls-21" d="M309.36,601.07A35.51,35.51,0,0,0,334.87,583l8,8.82a46.23,46.23,0,0,1-25.61,17.8Z"/><path class="cls-21" d="M370,518.37c.39,4.29-1.5,9.85-5.63,12.52-11.83,7.66-31.18-15.48-46.95-8.87-8,3.37-11.73,12.86-13.57,20a20.43,20.43,0,0,1-30.14-.6,51.57,51.57,0,0,1,10.63-30.15,49.88,49.88,0,0,1,21.28-15.93C332.39,485.28,368.49,502,370,518.37Z"/><path class="cls-21" d="M283.23,571.25A24.77,24.77,0,0,0,310.55,558l13.77,14a25.63,25.63,0,0,1-25.62,17.91Z"/><path class="cls-21" d="M656,734.21a48,48,0,0,0-1.6-15.76,45.43,45.43,0,0,0-4.82-11.21c-.59-1-2.34-.27-2.11.87a36.55,36.55,0,0,1,.27,12.92,43.33,43.33,0,0,1-7.07,17.56Z"/><path class="cls-21" d="M454.88,742.84a84,84,0,0,0,7-22.76,85.82,85.82,0,0,0,.89-18.8,1.44,1.44,0,0,0-2.86-.29A62.28,62.28,0,0,1,453,718.9,58.24,58.24,0,0,1,435.22,738q4.78,1.35,9.93,2.62C448.47,741.45,451.72,742.18,454.88,742.84Z"/><path class="cls-21" d="M534.63,610.78a36.71,36.71,0,0,1-5,9.28,37.56,37.56,0,0,1-5.65,6.12.64.64,0,0,1-1-.81,27.44,27.44,0,0,0,3.49-7.75,25.74,25.74,0,0,0,.5-11.53Z"/><path class="cls-21" d="M626.5,634.54a37.12,37.12,0,0,1-3.27,10,37.86,37.86,0,0,1-4.48,7,.63.63,0,0,1-1.1-.62,27.77,27.77,0,0,0,2.06-8.25,25.87,25.87,0,0,0-1.55-11.44Z"/><path class="cls-21" d="M700.62,718.53a36.24,36.24,0,0,0-7.94-16.22.61.61,0,0,0-1,.63,26.45,26.45,0,0,1,2.22,7.89,25,25,0,0,1-1.18,11.08Z"/><path class="cls-21" d="M400.83,682.77a85.31,85.31,0,0,1-5.81,17.9c-1.23,2.71-2.12,4.43-2.67,5.43l-.52.92c-2,3.56-7.82,11.53-8.56,12.54-1.72-.64-3.36-1.4-5.16-2.14s-3.93-1.56-5.72-2.38c-.75-.75-1.51-1.57-2.29-2.44s-1.56-1.83-2.24-2.7a71.49,71.49,0,0,0,8.08-4.28,62.45,62.45,0,0,0,6.37-4.46,58.44,58.44,0,0,0,4.43-4,62,62,0,0,0,11.4-15.45A1.45,1.45,0,0,1,400.83,682.77Z"/><path class="cls-21" d="M516.77,694.05a58.06,58.06,0,0,1-15.64,5.2,59.75,59.75,0,0,1-13,.89,1,1,0,0,1-.25-2,42.76,42.76,0,0,0,12.29-5.06,40.22,40.22,0,0,0,13-12.57Z"/><path class="cls-21" d="M491.29,650.51a57.82,57.82,0,0,1-7.6,14.62,59.33,59.33,0,0,1-8.7,9.69,1,1,0,0,1-1.55-1.24,43.29,43.29,0,0,0,5.29-12.19,40.5,40.5,0,0,0,.54-18.06Q485.27,646.93,491.29,650.51Z"/><path class="cls-21" d="M561.22,616.23a22.8,22.8,0,0,1,1.63,6.2,23.15,23.15,0,0,1,0,5.06.39.39,0,0,1-.77,0,16.88,16.88,0,0,0-1.66-4.9,15.8,15.8,0,0,0-4.56-5.34Z"/><path class="cls-21" d="M590.86,619.76a22.48,22.48,0,0,1-1.63,6.2,22.82,22.82,0,0,1-2.47,4.42.39.39,0,0,1-.69-.34,16.81,16.81,0,0,0,1-5.07,15.78,15.78,0,0,0-1.35-6.9Z"/><path class="cls-21" d="M583.78,732a22.69,22.69,0,0,1-4.88,4.15,23,23,0,0,1-4.56,2.21.38.38,0,0,1-.37-.67,16.86,16.86,0,0,0,3.69-3.62,15.65,15.65,0,0,0,2.85-6.42Z"/><path class="cls-21" d="M568.89,761l.26-.08c0,.11,0,.22-.06.32Z"/><path class="cls-21" d="M574.71,751.51l-.19.21c-.88.95-1.76,1.9-2.65,2.84l-1.78-.19-1.83-.16a18,18,0,0,1,2.12-1.51,18.35,18.35,0,0,1,2.93-1.45l.94.18Z"/><path class="cls-21" d="M600.44,740.78c-.05.65-.13,1.36-.25,2.1-.09.56-.2,1.08-.32,1.57l-1.58-.65-1.74-.72c-.14-.55-.32-1.15-.54-1.79a21.22,21.22,0,0,0-.82-2Z"/><path class="cls-21" d="M575.2,642.63a22.54,22.54,0,0,0,.84-6.36,22.81,22.81,0,0,0-.62-5,.39.39,0,0,0-.77.06,16.6,16.6,0,0,1-1,5.06,15.58,15.58,0,0,1-3.85,5.87Z"/><path class="cls-21" d="M472,563.61A58.42,58.42,0,0,1,469.88,580a60.08,60.08,0,0,1-4.82,12.1,1,1,0,0,1-1.89-.63,43,43,0,0,0,.76-13.27A40.43,40.43,0,0,0,458.19,561Z"/><path class="cls-21" d="M503.53,584.29c-.07.1-.15.19-.23.29a57.86,57.86,0,0,1-11.66,11.12c-.63.45-1.26.88-1.88,1.28a9.88,9.88,0,0,0-4.91-1.2c-.24,0-.49,0-.75,0a41.63,41.63,0,0,0,4-5.23,40.5,40.5,0,0,0,6.22-16.29c0-.23.06-.44.09-.64l2.93,3.44,4.14,4.86Z"/><path class="cls-21" d="M544.61,738.85c-.11,1.15-.24,2.25-.4,3.42-.1.73-.28,1.94-.56,3.45-.21,1.17-.49,2.54-.85,4.06l-2.8.56-10.57-2.1a31.47,31.47,0,0,0,2.27-2.76,38.16,38.16,0,0,0,4-7.28,84.23,84.23,0,0,0,5.86-18.29,1.65,1.65,0,0,1,.55-1,1.48,1.48,0,0,1,2.33,1.1A85.06,85.06,0,0,1,544.61,738.85Z"/></g><path class="cls-22" d="M715.58,626c-1.39,1.44-5,2.29-6.18,3-4.11,1.17-2.51-4.51-2.14-7.18a6.38,6.38,0,0,0,.07-.78c.34-1.37,1-1.83,1.86-1.75a6.29,6.29,0,0,1,3,1.49c1.24,1,2.4,2.05,3.09,2.45C716.43,624.36,716.32,625.28,715.58,626Z"/><path class="cls-22" d="M700.58,533.91c-3.52.14-5.81,7.84-7,11.51a39.2,39.2,0,0,0-1.79,14.44,64.91,64.91,0,0,1,20.74-4,56.38,56.38,0,0,0-3.89-11.29C706.13,539.22,703.59,533.79,700.58,533.91Z"/><path class="cls-22" d="M798.82,596.77c1.37,3.25-4.62,8.6-7.45,11.23a39.27,39.27,0,0,1-12.31,7.75A64.37,64.37,0,0,0,777.22,605a65.07,65.07,0,0,0-3.36-9.73A55.67,55.67,0,0,1,785.73,594C791.65,594,797.65,594,798.82,596.77Z"/><g id="Beans"><ellipse class="cls-22" cx="478.5" cy="600" rx="5.76" ry="1.01" transform="translate(-159.96 174.17) rotate(-17.73)"/><ellipse class="cls-22" cx="484.5" cy="600" rx="5.76" ry="1.01" transform="translate(-159.67 175.99) rotate(-17.73)"/><ellipse class="cls-22" cx="485" cy="602.5" rx="6.12" ry="0.91" transform="translate(-109.05 107.19) rotate(-11.35)"/><ellipse class="cls-22" cx="484" cy="604.5" rx="6.12" ry="0.91" transform="translate(-109.47 107.03) rotate(-11.35)"/><path class="cls-22" d="M477.79,605.34c-1.75,1.75-6.31,2.61-7.17,2.06-.56-.36.75-1.07.37-2s-2.29-1-2.14-1.57c.22-.89,4.38-2.5,7.18-2.06a2.93,2.93,0,0,1,2.3,1.33A1.86,1.86,0,0,1,477.79,605.34Z"/></g><g id="Beans-2" data-name="Beans"><ellipse class="cls-22" cx="454" cy="519.5" rx="5.51" ry="0.93" transform="translate(-178.41 243.72) rotate(-25.29)"/><ellipse class="cls-22" cx="459" cy="518.5" rx="5.51" ry="0.93" transform="translate(-177.5 245.76) rotate(-25.29)"/><ellipse class="cls-22" cx="461.5" cy="520.5" rx="5.96" ry="1.01" transform="translate(-166.3 220.89) rotate(-22.93)"/><ellipse class="cls-22" cx="461.5" cy="523.5" rx="5.96" ry="1.01" transform="translate(-167.47 221.12) rotate(-22.93)"/><path class="cls-22" d="M455.34,524.8c-1,2-5.17,3.61-6.23,3.25-.67-.23.34-1.14-.39-2s-2.6-.48-2.68-1.09c-.13-.88,3.33-3.14,6.23-3.25a3.69,3.69,0,0,1,2.74.83A1.78,1.78,0,0,1,455.34,524.8Z"/></g></g><g id="Highlights-2" data-name="Highlights" class="cls-15"><path class="cls-14" d="M718.38,557l.29.36A95.51,95.51,0,0,1,770.49,590a65.62,65.62,0,0,0-52.11-33Z"/><path class="cls-14" d="M530.92,633.79a70.87,70.87,0,0,1,30.63-12.31c21.25-3,40.54,5.08,54.46,10.88,3.4,1.42,5.8,2.24,7.58,3.1A116.45,116.45,0,0,0,605.07,625c-9.48-4.42-20.39-9.5-34.92-9.59a56.8,56.8,0,0,0-18.91,2.95c-4.82,1.68-13.27,4.76-18.77,12.84A27.79,27.79,0,0,0,530.92,633.79Z"/><path class="cls-14" d="M715.32,625.8l-.6.51a7.1,7.1,0,0,0-1.54-2.16,8,8,0,0,0-5.87-2c0-.26,0-.53.07-.81s0-.32,0-.47a1.89,1.89,0,0,1,.91-1.44c.21-.09.54-.15,1.38.17a7.25,7.25,0,0,1,2.41,1.5l1.81,1.33,1.22.91a1.78,1.78,0,0,1,.69,1,1.21,1.21,0,0,1,0,.6A1.36,1.36,0,0,1,715.32,625.8Z"/><path class="cls-14" d="M454.87,641a56.59,56.59,0,0,1,26.32,4.34c22.84,9.84,30.49,31.76,31.63,35.22A59.9,59.9,0,0,1,515,708.65c.12-5,0-26.2-16-44.84C482.09,644.07,459.55,641.44,454.87,641Z"/><path class="cls-14" d="M445.55,562.87a56.37,56.37,0,0,1,18-.73c3.09.38,28.37,3.89,40,24.93a44.25,44.25,0,0,1,5,14.34,65,65,0,0,0-15.48-21.36C474.56,563.27,452,562.78,445.55,562.87Z"/><path class="cls-14" d="M778.88,588c3.8-1.09,11.7-2.69,19.69.89,2.9,1.3,7.13,3.19,8.25,7.13,1.33,4.64-2,10.68-8.65,14.72,5.19-6,7.44-12.22,5.24-15.82-.75-1.23-1.84-1.87-3.76-3-1.54-.89-4.34-2.25-12.46-3.26C785.11,588.44,782.28,588.15,778.88,588Z"/><path class="cls-14" d="M718.67,557.33a79.22,79.22,0,0,0-4.42-14.57c-2.19-5.31-4-7.93-5.73-10-2.44-2.78-4.58-5.23-7.59-5.27-3.36,0-6.61,3-8.5,7.18,1.2-1.44,4.37-4.87,8.24-4.61,4.51.3,7.31,5.42,10.48,11.21a53.66,53.66,0,0,1,5.48,15,4,4,0,0,0,2,1Z"/><path class="cls-14" d="M708.33,619c.15-1,1-1.13,1.64-3s.19-2.64.79-3.1c1.1-.86,3.8.93,6.26,2.57s5.41,3.59,5,4.94c-.24.82-1.44.56-3.16,2-1.43,1.23-1.25,2-2.11,2.44C714.15,626.24,707.89,621.83,708.33,619Z"/></g><g id="sHADOWS-2" data-name="sHADOWS" class="cls-15"><path d="M433.08,609.52c14.24-4,12.49-4.18,26.2-7.87q12.66-3.39,24.34-5.84a9,9,0,0,1,6.23,1.64,7.06,7.06,0,0,1,2.67,4c.42,4.89-20.54,10.1-37.39,15.13C433.56,623,395,636.17,390.9,631.85a3.84,3.84,0,0,1-1-2.06c-.24-2.48,2.94-4.7,4.45-5.76a17.73,17.73,0,0,1,4.34-2.19h0c7.74-3.25,16-6.38,24.79-9.29Q428.33,610.93,433.08,609.52Z"/><path d="M373.93,567.38a5.11,5.11,0,0,0,1.19,3.27c4.2,4.35,17.7-3.5,44.74-18.4,33.57-18.5,49.43-26.62,48.13-34.32a5.42,5.42,0,0,0-1.58-3.06c-3.93-3.58-13.27.85-27.82,8.41-19.63,10.21-31.07,16.94-36.53,20.18C381.81,555.46,373.39,560.86,373.93,567.38Z"/><path d="M391.24,625.44a15.6,15.6,0,0,0-2.11,8.52c.45,7.47,6.83,12,9.43,13.83a27.24,27.24,0,0,0,16.81,4.75,44.84,44.84,0,0,0,1.93,22.15,43.3,43.3,0,0,0,4.5,9,35.1,35.1,0,0,1-8.8-15.18A34.73,34.73,0,0,1,412,655.64c-13,1.28-23.55-6.06-25.32-15C385.15,633.16,390.16,626.76,391.24,625.44Z"/><path d="M410,598.93a21.17,21.17,0,0,1-4.62-7.64,20.65,20.65,0,0,1-1-4.33,61.92,61.92,0,0,0-15.26,7.62c-2.47,1.7-11.37,7.82-10.42,10C379.39,606.18,385.29,606.3,410,598.93Z"/><path d="M535.44,625.44a12.62,12.62,0,0,0-6.13,11.8c.56,6.11,5.66,9.22,6.18,9.52a13.64,13.64,0,0,0,7.2,1.69c4.38,0,6.56-1.57,11.11-3.21a44.89,44.89,0,0,1,14.8-2.81,40.68,40.68,0,0,1,15,3,44.83,44.83,0,0,1,7.36,3.64,57.41,57.41,0,0,0-23.64-2.25c-14.67,1.78-21.32,8.83-30.27,5.08-.39-.17-8.64-3.77-9.62-11.59C526.71,634.77,529.87,629,535.44,625.44Z"/><path d="M564.13,706.9c-1.57.17-10.64,1.29-14.15,8-2.17,4.17-1.16,8.47.42,15.13a61.89,61.89,0,0,0,6.87,17l-6.75,1.45a79.75,79.75,0,0,1-2.57-9.05c-2.32-10.51-4.4-19.92.69-26.16,3.31-4.05,8.71-5.61,9.35-5.78A19.55,19.55,0,0,1,564.13,706.9Z"/><path d="M719,706l-9.52,9.43A461.72,461.72,0,0,1,656.86,735c-14.42,4.4-28.11,7.81-40.87,10.46l-5.6,4.25-.56-.16c-.39-.1-.77-.22-1.13-.34-1-.31-1.85-.64-2.68-1-1.52-.61-2.82-1.22-3.89-1.78l-2.64-1.07-2.91-1.2-2-.8s0,0-.08,0c-1-.41-1.81-.77-2.53-1.06l-.46-.2-1.26-.54h0c-1.25-.53-2.12-.89-2.8-1.14a8.44,8.44,0,0,0-2.53-.58c-2.16-.15-3.52.29-6.17.26l-1.84-.09-.21,0h-.37a23.56,23.56,0,0,1-3.18-.48,28.51,28.51,0,0,1-3.87-1.16c-2.27-.85-4-1.79-5.38-2.36h-.47a1.58,1.58,0,0,1-.23-.11,3.85,3.85,0,0,0-5.15,1.21,7.05,7.05,0,0,0-1.07,5.41c.9,4.06,6,5.82,8.91,6.82a20.32,20.32,0,0,0,3.16.82c1,.17,1.83.24,2.69.32s1.75.15,2.71.32l1,.21a20.37,20.37,0,0,1,2.26.71,24.17,24.17,0,0,1,4.51,2.29h0s.24-.16.35-.08c.65.44,1.21.85,1.66,1.21-2.8,0-8-.13-8-.13h-.1c-1.58,0-3.1-.1-4.55-.17-1.17-.05-2.31-.11-3.41-.18l-.3,0c-1.69-.11-3.31-.24-4.82-.37l-.83-.08H562a1.71,1.71,0,0,0,.09-.3,5.07,5.07,0,0,0-1-4.87,3.48,3.48,0,0,0-2.74-1,39.1,39.1,0,0,0-6.87,1.08c-1.54.32-3.32.69-5.38,1.1,0,0-2.16.43-5.62,1l-.3,0-1,.17c-1.49.26-3.18.54-5,.83-2.23.35-4.29.64-6.13.87l-.93.12-1.91.23q-3,.33-5,.51l-1.89.17c-3.87.34-8.41.65-13.53.81-2.7.08-5.58.12-8.6.11a24.67,24.67,0,0,1,2.31-1.65,23.94,23.94,0,0,1,4.18-2.06c4.87-1.84,6.75-.66,11.73-2.38,2.86-1,8-2.74,8.87-6.78.51-2.28-.28-5.35-2.34-6.59-3-1.85-6,2.06-14,3.86a26,26,0,0,1-3.62.53,22.19,22.19,0,0,1-3.52,0,33.53,33.53,0,0,0-4.47-.21,7.24,7.24,0,0,0-1.78.32c-1.05.32-2.43.93-5.33,2.15-2.23.94-5.68,2.37-10.09,4.16-.8.42-1.73.88-2.79,1.32a39.69,39.69,0,0,1-4.93,1.77c-.44.13-.87.25-1.27.35l-3.92-3.58a362.54,362.54,0,0,1-95-32.63l-8.63-12a261.72,261.72,0,0,0,47.17,21.94c10,3.46,24.24,7.6,52.77,15.89,4.24,1.24,7.76,2.25,10.14,2.93,4.19-1.82,7.77-3.18,10.46-4.14,5.21-1.87,7.89-2.81,11.44-3.36,4.1-.63,4.26,0,10.27-.22,10.89-.45,14.63-2.81,17.57-.17,1.44,1.29,2,3.19,3,6.12a24.64,24.64,0,0,1,1.13,6.69L540,750.31l14.84-2.9c.29-4,1.36-11.2,5.79-13,1.73-.71,3.17-.27,10.75,1.22,3.15.62,6.33,1.09,9.47,1.78h0a133.47,133.47,0,0,0,30.48,2.55c21.44-.87,52.4-11.32,56.78-12.81A430.93,430.93,0,0,0,719,706Z"/><path d="M455.69,639.87A154.11,154.11,0,0,0,470.22,634c9.76-4.55,15.93-7.51,21.13-13.9a36.21,36.21,0,0,0,4.91-8,27,27,0,0,1-2.72,9.78c-6.16,12.3-20,15.39-22.39,15.88a48.05,48.05,0,0,1,42.1,41.63,59.71,59.71,0,0,0-19.35-27A60.39,60.39,0,0,0,455.69,639.87Z"/><path d="M688.42,624.88c.07.32,1.47,6,7,7.88A10.84,10.84,0,0,0,706.64,630c-2.38,5.22-1.37,11,2.21,14a10.86,10.86,0,0,0,7.69,2.37,11.11,11.11,0,0,1-9.41-1.87,10.74,10.74,0,0,1-3.76-10.39,10.31,10.31,0,0,1-10.78-.69A10.74,10.74,0,0,1,688.42,624.88Z"/><path d="M712.54,555.87a57,57,0,0,0-3.26-10l-2.15-4.37c-2.47-5-3.48-6.73-5.32-7.3A4.42,4.42,0,0,0,700,534a51.88,51.88,0,0,1,6,10.12A52.44,52.44,0,0,1,709.63,556Z"/><path d="M773.86,595.29c1.25-.26,3.1-.61,5.34-.89a63.81,63.81,0,0,1,11.93-.31c4.75.3,6.77.91,7.56,2.42a2.88,2.88,0,0,1,.31,1,54.36,54.36,0,0,0-24,.38Z"/><path d="M545.47,761.16l17.07-6,1.59.14a8.91,8.91,0,0,1-2.19,2.82c-.51.43-1.45,1.11-6.06,2.38a25.64,25.64,0,0,1-5.61,1.19A16.58,16.58,0,0,1,545.47,761.16Z"/><path d="M649.64,633a90.59,90.59,0,0,0,3.29,12.16,69.54,69.54,0,0,0,8.81,17.9,63.52,63.52,0,0,0,10.64,11.87,60.81,60.81,0,0,0,18.6,11,63.75,63.75,0,0,0,21.1,3.56c5.38,0,12.34-.06,20.2-3.61a39.75,39.75,0,0,0,5.84-3.25c-2,.59-4.48,1.25-7.43,1.81-.32.06-5.54.8-11,1.22a67.7,67.7,0,0,1-31.26-5A64,64,0,0,1,670,668.86a64.67,64.67,0,0,1-12.78-16.48A73.56,73.56,0,0,1,649.64,633Z"/><path d="M711.15,612.67a1.58,1.58,0,0,0-.56.46c-.41.54-.27,1.15-.35,1.87a5.82,5.82,0,0,1-.68,1.87,9.59,9.59,0,0,1-2.92,3.38,8,8,0,0,1,2.12-6.09A6.9,6.9,0,0,1,711.15,612.67Z"/><path d="M722.07,619.88a1.09,1.09,0,0,1-.14.69,1.28,1.28,0,0,1-.67.46s-.25.1-1.34.62a5.26,5.26,0,0,0-1.72,1.44,7.83,7.83,0,0,0-1,1.35l-.25.26-.4.54c.24,0,3.38-.12,4.83-2.62A5.13,5.13,0,0,0,722.07,619.88Z"/></g><g id="Outline-2" data-name="Outline"><g id="Body"><path d="M651.88,639.74a37.36,37.36,0,0,1-1.85-5.43,49.14,49.14,0,0,1-1.19-5.64,54.67,54.67,0,0,1-.39-11.51,64.67,64.67,0,0,1,1.63-11.42l.31-1.41.4-1.39.81-2.77,1-2.71.5-1.36.59-1.32a64.71,64.71,0,0,1,12.65-19.19,68.23,68.23,0,0,1,18.42-13.75l-.55.89a71.24,71.24,0,0,1,2.57-19.57,45,45,0,0,1,3.76-9.23,26,26,0,0,1,2.88-4.17,13.6,13.6,0,0,1,4-3.34,7.35,7.35,0,0,1,2.7-.78,6.75,6.75,0,0,1,2.8.38,12.59,12.59,0,0,1,4.42,2.86,32.11,32.11,0,0,1,5.86,8.16,66.54,66.54,0,0,1,6.19,18.75l-.92-.82a67,67,0,0,1,16,3,65,65,0,0,1,14.82,6.87,67.13,67.13,0,0,1,22.49,23.35l-1.11-.47a59.27,59.27,0,0,1,20.34-1.81,33.79,33.79,0,0,1,10.07,2.44,16.5,16.5,0,0,1,4.54,2.83,9.52,9.52,0,0,1,1.79,2.18,6.83,6.83,0,0,1,.92,2.77,11.57,11.57,0,0,1-.88,5.42,23.28,23.28,0,0,1-2.55,4.62,38.16,38.16,0,0,1-7.14,7.49,60.78,60.78,0,0,1-17.93,9.86l.76-1a65.58,65.58,0,0,1-4.08,21.59A65.83,65.83,0,0,1,749,677.46a54.63,54.63,0,0,1-20.55,7.29.06.06,0,0,1-.08-.06.07.07,0,0,1,0-.08,84.06,84.06,0,0,0,19.5-8.91,68.92,68.92,0,0,0,8.55-6.36,66.13,66.13,0,0,0,7.38-7.68,64.83,64.83,0,0,0,6-8.76,61.26,61.26,0,0,0,4.53-9.63,63.81,63.81,0,0,0,4-20.82h0a1.13,1.13,0,0,1,.75-1,58.63,58.63,0,0,0,17.33-9.4,36.39,36.39,0,0,0,6.78-7,21.17,21.17,0,0,0,2.34-4.17,9.84,9.84,0,0,0,.78-4.43,5.87,5.87,0,0,0-2-3.7,14.68,14.68,0,0,0-4-2.48,31.86,31.86,0,0,0-9.47-2.28,57.52,57.52,0,0,0-19.65,1.76,1,1,0,0,1-1.11-.47,65.21,65.21,0,0,0-21.82-22.66,63.36,63.36,0,0,0-14.37-6.65A65,65,0,0,0,718.37,557a1,1,0,0,1-.92-.82,64.1,64.1,0,0,0-6-18.18,29.79,29.79,0,0,0-5.47-7.64,10.68,10.68,0,0,0-3.69-2.42,4.8,4.8,0,0,0-3.95.3,11.4,11.4,0,0,0-3.42,2.85,23.46,23.46,0,0,0-2.65,3.85,42.64,42.64,0,0,0-3.59,8.81,69.11,69.11,0,0,0-2.49,19,1,1,0,0,1-.55.89A66.4,66.4,0,0,0,667.77,577a62.43,62.43,0,0,0-12.3,18.6l-.57,1.28-.48,1.31-1,2.63-.79,2.69-.39,1.34-.31,1.37a60,60,0,0,0-1.57,11.08,93.38,93.38,0,0,0,.21,11.22c.27,3.74.75,7.46,1.37,11.23,0,0,0,.06,0,.06A.06.06,0,0,1,651.88,639.74Z"/><path d="M371.92,716.63c-.94-.76-1.83-1.57-2.69-2.4l-2.45-2.66c-1.67-1.76-3.14-3.63-4.66-5.49s-2.93-3.78-4.34-5.71l-2.09-2.92-1-1.47-.51-.74-.25-.38-.13-.18-.06-.1.08.08-.14-.18a154,154,0,0,1-15-28.61,145.6,145.6,0,0,1-5.1-15.37c-1.31-5.24-2.75-10.33-4.35-15.43a85.62,85.62,0,0,0-5.94-14.7A68.81,68.81,0,0,0,314,607.53c-3.51-4-7.27-7.79-11-11.61l-2.84-2.87c-.92-1-1.8-2-2.69-3l-5.35-6a133.7,133.7,0,0,1-10.15-12.62,50.25,50.25,0,0,1-4.11-7.12c-.3-.61-.55-1.25-.82-1.89l-.74-1.88a38.19,38.19,0,0,1-1.41-3.84,46.69,46.69,0,0,1-1.82-8c-.12-1.37-.34-2.73-.36-4.1l-.07-2,0-2.06a51.44,51.44,0,0,1,3.17-16,53,53,0,0,1,8-14.27,51,51,0,0,1,12.12-11,51.64,51.64,0,0,1,31.36-7.69,60.44,60.44,0,0,1,16,3.24,66.24,66.24,0,0,1,7.57,3.07,64,64,0,0,1,7.13,4,47.22,47.22,0,0,1,6.44,5.13,26.21,26.21,0,0,1,5,6.67,15.12,15.12,0,0,1,1.68,8.36,14.79,14.79,0,0,1-3.27,7.9,10.47,10.47,0,0,1-7.84,3.66,22.07,22.07,0,0,1-8.22-1.7c-5.13-2-9.81-4.58-14.69-6.66a49.43,49.43,0,0,0-7.42-2.58,22.35,22.35,0,0,0-7.61-.63c-5.05.5-9.5,3.73-12.54,7.84A22.12,22.12,0,0,0,304.9,544a17.69,17.69,0,0,0,2.2,7.21,34.55,34.55,0,0,0,4.63,6.26c3.53,4,7.37,7.68,11.19,11.45s7.64,7.54,11.34,11.45a139.17,139.17,0,0,1,10.53,12.31,67.57,67.57,0,0,1,8.12,14.11,53.29,53.29,0,0,1,4.24,15.76c.16,1.34.14,2.68.37,3.95a18.27,18.27,0,0,0,1.05,3.69,23.55,23.55,0,0,0,4,6.61.91.91,0,1,1-1.38,1.18l0,0a27.73,27.73,0,0,1-4.24-7.12,20.12,20.12,0,0,1-1.17-4c-.25-1.37-.52-2.71-.67-4A50.92,50.92,0,0,0,351,607.65a65.45,65.45,0,0,0-7.89-13.7,138.5,138.5,0,0,0-10.37-12.12c-3.67-3.87-7.48-7.63-11.3-11.39s-7.67-7.51-11.29-11.55a37.62,37.62,0,0,1-4.91-6.65,20,20,0,0,1-2.45-8,21.52,21.52,0,0,1,1.15-8.33,26.7,26.7,0,0,1,3.89-7.37,23.77,23.77,0,0,1,6.05-5.78,17.76,17.76,0,0,1,7.94-2.9,24.28,24.28,0,0,1,8.34.67,51,51,0,0,1,7.75,2.69c5,2.13,9.7,4.75,14.6,6.62a20.11,20.11,0,0,0,7.42,1.56,8.32,8.32,0,0,0,6.29-2.93,12.59,12.59,0,0,0,2.77-6.75,13.1,13.1,0,0,0-1.46-7.17,24,24,0,0,0-4.62-6.1,44.59,44.59,0,0,0-6.13-4.87,60.84,60.84,0,0,0-6.87-3.87,64.59,64.59,0,0,0-7.33-3,58.29,58.29,0,0,0-15.44-3.13,49.52,49.52,0,0,0-30.07,7.37,49,49,0,0,0-11.59,10.52,50.87,50.87,0,0,0-7.65,13.69,49.27,49.27,0,0,0-3,15.37l-.05,2,.07,2c0,1.31.23,2.61.34,3.91a45,45,0,0,0,1.74,7.64,39.34,39.34,0,0,0,1.36,3.71l.73,1.86c.26.6.5,1.2.79,1.79a46.67,46.67,0,0,0,3.93,6.8,132.1,132.1,0,0,0,10,12.42l5.31,6c.9,1,1.76,2,2.67,3l2.83,2.83c3.76,3.81,7.54,7.65,11.12,11.7a70.81,70.81,0,0,1,9.49,13.24,88.61,88.61,0,0,1,6.11,15.07c1.6,5.13,3.08,10.36,4.38,15.52a142.77,142.77,0,0,0,5,15.14,152.93,152.93,0,0,0,14.85,28.22l-.14-.18,2.12,3.11,2,2.9c1.37,1.93,2.8,3.82,4.22,5.71s2.87,3.78,4.44,5.51l2.3,2.67c.81.86,1.62,1.72,2.37,2.64l0,0a.67.67,0,0,1-.09,1A.68.68,0,0,1,371.92,716.63Z"/><path d="M708.76,715.09l-.11,0-.14.35h0l.17-.37a5.08,5.08,0,0,1,1.63-2.34l2-1.91c1.36-1.25,2.59-2.64,3.92-3.92,2.62-2.63,5.27-5.18,7.75-7.94s5-5.52,7.36-8.32a81.39,81.39,0,0,0,6.74-8.78.32.32,0,0,1,.56.32,65.42,65.42,0,0,1-5.85,9.63c-2.27,3-4.71,5.81-7.15,8.64-1.24,1.4-2.45,2.82-3.76,4.17l-4,4c-1.33,1.31-2.64,2.65-4,3.9l-2.08,1.87a5,5,0,0,1-2.47,1.45l.17-.37h0l-.14.35a.56.56,0,0,1-.17.09.47.47,0,0,1-.42-.84Z"/><path d="M357,629.45a88,88,0,0,1,47.18-43,.53.53,0,0,1,.68.3.52.52,0,0,1-.29.68,86.35,86.35,0,0,0-45.77,42.88,1,1,0,0,1-1.33.47,1,1,0,0,1-.47-1.34Z"/><path d="M623.66,633.57a80.23,80.23,0,0,1,26.17-2.75,1,1,0,1,1-.12,2h0a78.46,78.46,0,0,0-25.52,2.67,1,1,0,1,1-.53-1.92Z"/><path d="M507.45,591.51a213.83,213.83,0,0,1,38.48,27.38,1,1,0,0,1-1.33,1.5h0a211.33,211.33,0,0,0-37.93-27.47.81.81,0,0,1-.3-1.1A.8.8,0,0,1,507.45,591.51Z"/><path d="M421.5,683.48a25.91,25.91,0,0,1-3.93-7.35,52.18,52.18,0,0,1-2.23-8,59.25,59.25,0,0,1-1.1-8.31,26.21,26.21,0,0,1,.65-8.54l1.28,1.2a12.26,12.26,0,0,1-5,.72,21.06,21.06,0,0,1-4.83-.84,31,31,0,0,1-8.71-4.1,26.2,26.2,0,0,1-7-6.71,14.66,14.66,0,0,1-2.81-9.44,12,12,0,0,1,.46-2.51,7.65,7.65,0,0,1,.48-1.23,7.48,7.48,0,0,1,.63-1.14,12.49,12.49,0,0,1,3.62-3.52,46,46,0,0,1,8.62-4.14c5.86-2.24,11.71-4.38,17.61-6.46C431,608.93,442.9,605,455,601.62c6-1.68,12-3.43,18.07-5a66.45,66.45,0,0,1,9.34-1.8c.81-.08,1.6-.11,2.46-.12a13.69,13.69,0,0,1,2.51.25,10.15,10.15,0,0,1,2.47.84,13.47,13.47,0,0,1,2.17,1.42l.07.07h0a22,22,0,0,1,4.74,7.34,14.67,14.67,0,0,1,.84,4.42,18.78,18.78,0,0,1-.19,2.26,12.54,12.54,0,0,1-.55,2.19,20.7,20.7,0,0,1-4.66,7.38,41.23,41.23,0,0,1-6.51,5.54A93.73,93.73,0,0,1,471,634.66C465.9,637,460.68,639,455.43,641l-.41-1.81a52,52,0,0,1,17,1.16,55.41,55.41,0,0,1,15.71,6.43,61.41,61.41,0,0,1,22.9,24.54,57.93,57.93,0,0,1,6.3,32.89c-1.15,11.3-6.05,22-13,30.72a.13.13,0,0,1-.2-.16,72.26,72.26,0,0,0,8-14.62A60,60,0,0,0,515.56,704a57.72,57.72,0,0,0-6.37-32,59.91,59.91,0,0,0-22.38-23.78A51.69,51.69,0,0,0,455.2,641a.93.93,0,0,1-1-.83.92.92,0,0,1,.6-1h0c5.21-1.92,10.37-4,15.4-6.29a91.27,91.27,0,0,0,14.38-8.1,40.3,40.3,0,0,0,6.18-5.29,18.7,18.7,0,0,0,4.17-6.65,11,11,0,0,0,.47-1.86c.11-.62.1-1.26.15-1.9a12.42,12.42,0,0,0-.74-3.74,20.16,20.16,0,0,0-4.28-6.59l.08.08a10.35,10.35,0,0,0-1.73-1.14,7.36,7.36,0,0,0-1.95-.66,11.42,11.42,0,0,0-2.14-.21c-.7,0-1.48,0-2.22.1a64.33,64.33,0,0,0-9,1.75c-6,1.51-12,3.26-18,4.94-12,3.33-23.83,7.26-35.59,11.37-5.87,2.07-11.74,4.21-17.55,6.42a44.18,44.18,0,0,0-8.22,3.93,10.62,10.62,0,0,0-3.06,2.94,6.62,6.62,0,0,0-.5.9,6.91,6.91,0,0,0-.37.95,10.18,10.18,0,0,0-.38,2.08,12.62,12.62,0,0,0,2.46,8.13,23.85,23.85,0,0,0,6.43,6.19,29.27,29.27,0,0,0,8.15,3.85,19.94,19.94,0,0,0,4.37.77,10.41,10.41,0,0,0,4.19-.53,1,1,0,0,1,1.26.57,1,1,0,0,1,0,.62h0a27.09,27.09,0,0,0-.71,7.87,69.22,69.22,0,0,0,.75,8.12,59,59,0,0,0,1.75,8,27.81,27.81,0,0,0,3.22,7.49h0a.15.15,0,0,1,0,.2A.15.15,0,0,1,421.5,683.48Z"/><path d="M508.9,604.5a44.91,44.91,0,0,0-2.36-11.1,42,42,0,0,0-5.18-9.95,48.23,48.23,0,0,0-16.89-14.56A63.18,63.18,0,0,0,463,562.16a53.58,53.58,0,0,0-22.27,1.61h0a1.1,1.1,0,0,1-.91-2c4.72-2.93,9.37-6,13.82-9.24a91.34,91.34,0,0,0,12.46-10.81,40.75,40.75,0,0,0,5-6.41,18.53,18.53,0,0,0,2.76-7.34,11.07,11.07,0,0,0,.09-1.91,15,15,0,0,0-.24-1.89,11.85,11.85,0,0,0-1.47-3.53,20.17,20.17,0,0,0-5.53-5.6l.1.06a8.73,8.73,0,0,0-3.43-1,12.75,12.75,0,0,0-3.7.42,44,44,0,0,0-7.39,2.8c-4.86,2.23-9.64,4.76-14.43,7.23l-7.2,3.73-7.11,3.82c-4.73,2.56-9.38,5.3-14.08,8l.47-.81v0a.92.92,0,0,1-.45.79l0,0-18.1,11.06c-3,1.83-6,3.71-8.9,5.7s-5.65,4.2-6.94,7.06a8.11,8.11,0,0,0-.49,4.59A11.31,11.31,0,0,0,376.8,573a16,16,0,0,0,3.35,3.64,23.11,23.11,0,0,0,4.22,2.77,29.7,29.7,0,0,0,9.72,3.05,22.47,22.47,0,0,0,5.05.09,11.43,11.43,0,0,0,4.63-1.35l.09,0a.86.86,0,0,1,1.18.33.84.84,0,0,1,.1.49,50.61,50.61,0,0,0-.26,5.18,20.47,20.47,0,0,0,.82,5.14,14.06,14.06,0,0,1-2-5,28.87,28.87,0,0,1-.37-5.38l1.38.77a12,12,0,0,1-5.37,1.92,23.41,23.41,0,0,1-5.55,0,32,32,0,0,1-10.49-3.16,21.32,21.32,0,0,1-8.44-7.18,13.45,13.45,0,0,1-2.07-5.36,11.39,11.39,0,0,1-.09-2.92,9.93,9.93,0,0,1,.76-2.9,14.6,14.6,0,0,1,3.47-4.55,37.71,37.71,0,0,1,4.32-3.33c3-2,6-3.84,9-5.67l18.2-11-.47.81v0h0a.93.93,0,0,1,.47-.8c4.7-2.67,9.35-5.42,14.1-8l7.15-3.86,7.17-3.74c4.8-2.48,9.56-5,14.51-7.31a45.58,45.58,0,0,1,7.73-2.95,14.94,14.94,0,0,1,4.31-.49,10.74,10.74,0,0,1,4.28,1.23l.1.06A22,22,0,0,1,474,519.6a14.43,14.43,0,0,1,1.74,4.14A19.2,19.2,0,0,1,476,526a12.92,12.92,0,0,1-.09,2.25,20.56,20.56,0,0,1-3,8.2,42.32,42.32,0,0,1-5.24,6.77,94.22,94.22,0,0,1-12.73,11.09c-4.52,3.34-9.21,6.41-13.95,9.36l-.91-2A54.8,54.8,0,0,1,463.3,560a65.53,65.53,0,0,1,22.14,7c6.83,3.71,13.1,8.77,17.43,15.34a37.32,37.32,0,0,1,6.33,22.09.15.15,0,0,1-.15.14A.15.15,0,0,1,508.9,604.5Z"/><g id="Right-Paw"><path d="M623.35,635.36a116.5,116.5,0,0,0-19.23-10.75q-5.05-2.21-10.29-3.94c-3.52-1.15-7-2.28-10.58-3.21a58.18,58.18,0,0,0-10.76-1.82,50.8,50.8,0,0,0-10.88.5A62.73,62.73,0,0,0,551,618.75a55.46,55.46,0,0,0-10,4.46,29.16,29.16,0,0,0-8.3,6.78,12,12,0,0,0-2.34,4.58,8.66,8.66,0,0,0,.37,5,13,13,0,0,0,2.79,4.37,12.13,12.13,0,0,0,4.26,3,10.36,10.36,0,0,0,5.06.76,26.64,26.64,0,0,0,5.24-1.21c3.47-1.15,7-2.55,10.63-3.45a38.2,38.2,0,0,1,11.22-1.21A41.89,41.89,0,0,1,591,649a.07.07,0,0,1,0,.07,0,0,0,0,1-.06,0A65,65,0,0,0,580.66,645a41.71,41.71,0,0,0-10.78-1.79,38.31,38.31,0,0,0-10.81,1.26c-3.54.89-7,2.28-10.51,3.48a27.75,27.75,0,0,1-5.57,1.32,12.14,12.14,0,0,1-5.83-.84,13.93,13.93,0,0,1-4.83-3.31,14.57,14.57,0,0,1-3.18-4.93,11.56,11.56,0,0,1-.67-2.93,10.21,10.21,0,0,1,.2-3,13.81,13.81,0,0,1,2.63-5.28,30.9,30.9,0,0,1,8.78-7.27A56.63,56.63,0,0,1,550.37,617a64,64,0,0,1,10.94-2.76,51.45,51.45,0,0,1,11.3-.58,59.86,59.86,0,0,1,11.16,1.81c3.64.92,7.18,2.07,10.72,3.24s7,2.53,10.46,4a118,118,0,0,1,19.54,11,1,1,0,1,1-1.14,1.64Z"/></g><path d="M616.64,739.11a42,42,0,0,1-15,2.08,27.67,27.67,0,0,1-7.6-1.39,19.78,19.78,0,0,1-6.78-3.94,42.78,42.78,0,0,1-5.08-5.75c-1.53-2-3-4.08-4.38-6.16s-2.79-4.17-4.16-6.26-2.7-4.26-4.12-6.2a10.5,10.5,0,0,0-2.37-2.46,7,7,0,0,0-3.08-1.16,12,12,0,0,0-6.76,1.13,14.61,14.61,0,0,0-5.47,4.34,10.71,10.71,0,0,0-1.66,3,9.93,9.93,0,0,0-.62,3.39,31.48,31.48,0,0,0,.93,7.21,71.36,71.36,0,0,0,2,7.13,76.14,76.14,0,0,0,6.09,13.5,1,1,0,0,1-1.66,1l0,0a87.37,87.37,0,0,1-6.07-13.88q-1.18-3.6-2-7.3a32.64,32.64,0,0,1-1-7.63,12,12,0,0,1,.7-4,12.67,12.67,0,0,1,1.91-3.52,16.33,16.33,0,0,1,6.13-4.93,13.94,13.94,0,0,1,7.82-1.33,9.1,9.1,0,0,1,3.88,1.46,12.3,12.3,0,0,1,2.84,2.88c1.53,2.1,2.8,4.21,4.2,6.29s2.75,4.17,4.15,6.23,2.83,4.09,4.33,6.06a43.11,43.11,0,0,0,4.83,5.47c3.54,3.2,8.37,4.54,13.2,5S611.62,739.42,616.64,739.11Z"/></g><g id="Face"><path d="M690.82,597.8a7.39,7.39,0,0,1,3.88-.94,8.68,8.68,0,0,1,4,1.06,8.24,8.24,0,0,1,3,2.84,6.9,6.9,0,0,1,1.11,3.86,23.32,23.32,0,0,0-2.39-2.86,13.28,13.28,0,0,0-2.71-2.11,12.92,12.92,0,0,0-3.21-1.29A20,20,0,0,0,690.82,597.8Z"/><path d="M733.08,622.69a7.53,7.53,0,0,1,4-.42,8.62,8.62,0,0,1,3.82,1.52,8.39,8.39,0,0,1,2.68,3.15,7,7,0,0,1,.72,3.94,25.84,25.84,0,0,0-2.09-3.08,14.42,14.42,0,0,0-2.48-2.4A16,16,0,0,0,733.08,622.69Z"/><path d="M688.36,624.37a11.34,11.34,0,0,0,2.68,5.26,10.24,10.24,0,0,0,5,3,9.1,9.1,0,0,0,5.63-.39,9.71,9.71,0,0,0,4.29-3.54l.42-.62,1.27.89-.46.6a11,11,0,0,1-5.12,3.74,10,10,0,0,1-6.24.08,10.76,10.76,0,0,1-5.09-3.42,11.61,11.61,0,0,1-2.44-5.53v0l.08,0Z"/><path d="M716.55,646.44a11.57,11.57,0,0,1-6-1,10.81,10.81,0,0,1-4.56-4.1,10,10,0,0,1-1.44-6.08,11,11,0,0,1,2.39-5.88l.47-.58,1.16,1-.5.56a9.7,9.7,0,0,0-2.38,5,9,9,0,0,0,1,5.55,10.1,10.1,0,0,0,4.07,4.1,11.21,11.21,0,0,0,5.75,1.33h0v.08Z"/><path class="cls-23" d="M706.91,620.84c.05,2.21-2.43,10,2.44,8.47,1.88-1.15,9.88-2.9,6.11-6.35C713.52,621.91,708,615.86,706.91,620.84Z"/></g><path d="M529.89,640.74a20.92,20.92,0,0,1,10.91-11.31.07.07,0,0,1,.09,0,.08.08,0,0,1,0,.09,19.77,19.77,0,0,0-9.07,11.83,1,1,0,1,1-1.94-.52.49.49,0,0,1,0-.11Z"/><path d="M535.85,646.16a20.9,20.9,0,0,1,10.9-11.31s.08,0,.09,0a.05.05,0,0,1,0,.08,19.81,19.81,0,0,0-9.08,11.83,1,1,0,1,1-1.93-.51l0-.11Z"/><path d="M554.54,711a36.28,36.28,0,0,0,2.62,14.62.07.07,0,0,1,0,.09.06.06,0,0,1-.08,0,37.53,37.53,0,0,1-4.5-14.62,1,1,0,0,1,2-.19A.57.57,0,0,1,554.54,711Z"/><path d="M561.77,707.42a28.1,28.1,0,0,0,3.94,14.26.08.08,0,0,1,0,.1.1.1,0,0,1-.09,0,29.18,29.18,0,0,1-5.82-14.21h0a1,1,0,0,1,2-.25Z"/><path d="M468.06,520.29a5.7,5.7,0,0,1,4.32,1.93,8.14,8.14,0,0,1,1.88,4.44,13.46,13.46,0,0,1,0,2.37,13.91,13.91,0,0,1-.33,2.33,14.65,14.65,0,0,1-1.74,4.27,16.84,16.84,0,0,0,1.14-4.38,15.18,15.18,0,0,0-.14-4.42,7.76,7.76,0,0,0-.68-2,10.53,10.53,0,0,0-1.08-1.82A9.31,9.31,0,0,0,468.06,520.29Z"/><path d="M491,604.19a5.64,5.64,0,0,1,3.72,2.91,8.06,8.06,0,0,1,.75,4.77,13.09,13.09,0,0,1-.55,2.3,12.91,12.91,0,0,1-.88,2.18,14.6,14.6,0,0,1-2.72,3.73,16.55,16.55,0,0,0,2.16-4,15.3,15.3,0,0,0,.95-4.32,8.41,8.41,0,0,0-.18-2.13,11.09,11.09,0,0,0-.6-2,9.53,9.53,0,0,0-2.65-3.43Z"/><path d="M467.22,516.78a5.63,5.63,0,0,1,4.65.82,8.08,8.08,0,0,1,2.92,3.84,13.93,13.93,0,0,1,.6,2.3,14.07,14.07,0,0,1,.25,2.33,14.32,14.32,0,0,1-.65,4.57,16.3,16.3,0,0,0,0-4.52,15.24,15.24,0,0,0-1.21-4.26,8.27,8.27,0,0,0-1.16-1.8,10.57,10.57,0,0,0-1.49-1.5A9.41,9.41,0,0,0,467.22,516.78Z"/></g></g></svg>