<?xml version="1.0" encoding="utf-8"?>
<!-- Generator: Adobe Illustrator 25.4.1, SVG Export Plug-In . SVG Version: 6.00 Build 0)  -->
<svg version="1.1" xmlns="http://www.w3.org/2000/svg" xmlns:xlink="http://www.w3.org/1999/xlink" x="0px" y="0px"
	 viewBox="0 0 1080 1080" style="enable-background:new 0 0 1080 1080;" xml:space="preserve">
<style type="text/css">
	.st0{display:none;}
	.st1{fill:#1F5673;}
	.st2{fill:#1A1A1A;}
	.st3{fill:#BF272D;}
	.st4{fill:#8A6239;}
	.st5{fill:#891820;}
	.st6{fill:none;stroke:#000000;stroke-width:2;stroke-linecap:round;stroke-linejoin:round;stroke-miterlimit:10;}
	.st7{fill:none;stroke:#E4E4E4;stroke-width:2;stroke-linecap:round;stroke-linejoin:round;stroke-miterlimit:10;}
	.st8{fill:#E4E4E4;}
	.st9{fill:#B58968;}
	.st10{fill:#190A07;}
	.st11{fill:#2D1B0A;}
	.st12{fill:#6B393F;}
	.st13{fill:none;}
	.st14{fill:#FFFFFF;}
	.st15{opacity:0.25;}
	.st16{opacity:0.45;}
	.st17{opacity:0.92;}
	.st18{fill:none;stroke:#000000;stroke-width:2;stroke-miterlimit:10;}
	.st19{fill:#7A573D;}
	.st20{fill:none;stroke:#443935;stroke-width:3;stroke-miterlimit:10;}
	.st21{fill:#443935;}
	.st22{fill:#E8908E;}
	.st23{fill:none;stroke:#000000;stroke-linecap:round;stroke-linejoin:round;stroke-miterlimit:10;}
</style>
<g id="Layer_1" class="st0">
	
		<image style="display:inline;overflow:visible;opacity:0.6;" width="4032" height="3024" xlink:href="../../../../../Downloads/IMG_1049.JPG"  transform="matrix(4.307848e-09 0.3612 -0.3612 4.307848e-09 1073.2081 -276.0825)">
	</image>
</g>
<g id="Me">
	<g id="Color_00000093884481356436542300000006732422333824382876_">
		<path class="st1" d="M967,765.4c0,0-2.8-4.2-8.2-10.1c-5.3-5.9-13.1-13.4-23-20.1c-14.1-9.4-99.6-22.8-218-15.1
			c-59.1,0-118.2,0.1-177.3,0.1c-74.9,5.7-135.8,1.3-179.4-0.1c-117.3-3.8-202.2,6.3-218,15.1c-11.1,6.2-18.9,13.7-23.9,19.8
			c-5,6-7.2,10.5-7.2,10.5c-3.1,3.4-16.4,18.9-16,42.5c0.4,24.2,15,39.7,19.1,43.7c0.1,0.1,0.2,0.2,0.7,0.6
			c10.2,9.7,25.7,23.7,49.7,44.2c49.5,34.4,60.6,42.1,60.7,42.1c16.7,9,32.2,16.7,46.4,23.4c14.1,6.6,26.9,12.2,37.9,16.8
			c21.6,9,44.9,17.1,53,20c15.2,5.4,28.2,9.8,37.9,13c-0.7,3.5-1.3,9.5,0.6,16.5c2.9,11.2,10.3,17.7,13.1,20c23.9-1.1,49-3,75-5.7
			c16.8-1.8,33-3.8,48.8-6c31.8,4.8,67.2,8.8,105.7,11.1c6.9,0.7,13.8,1.4,20.8,2.1c2.5-2.5,11.1-11.7,12.5-26.4
			c1.6-16.8-7.4-28.6-9.3-31c-7.7-1.8-15.4-3.7-23.1-5.5c4.6-9.8,10.2-14.3,14-16.6c18.8-11.5,40.8,1,89.4,8
			c6.1,0.9,13.8,1.3,22.3,1.4c26.5-10.5,52.8-23.4,81.8-40.9c49.7-30,86.3-62.3,110.4-86.4c3-2.7,19.4-18.6,19.8-44.4
			C983.4,784.4,970.1,768.8,967,765.4z M556.7,949.3c-4.2,1.5-8.8,3-8.8,3c-2.9,1-5.8,1.9-8.7,2.9c-2.8-1-5.7-1.9-8.5-2.9
			c0,0-4.4-1.5-8.6-3c-37.2-13.1-80.6-31.8-80.6-31.8c-15.6-6.7-35-15.4-57.3-26c27.3,10.4,67.6,21.2,116,18.2
			c14.2-0.9,27.3-2.8,39.1-5.3c16.6,3.5,37.8,6.4,62.5,5.8c33.7-0.8,61.4-7.8,80.8-14.4c-18.2,8.8-33.7,15.9-45.4,21.1
			C637.2,916.9,591.3,937.3,556.7,949.3z M692.5,997c0,2.6,0,5.1,0,7.4c12.7-3.3,24.8-6.7,36.6-10.3c-9.4-1.4-18.9-2.8-28.3-4.2
			C696.4,989.3,692.5,992.7,692.5,997z"/>
		<path class="st2" d="M890.8,745.6c-9.4,20-25.2,32.2-50,47.5c-17.2,10.6-33.4,17.2-51.1,24.3c-9.9,4-17.7,7.7-30.1,10.8
			c-12,3-14.1,4.7-39.2,9.4c-13.8,2.6-15.4,4.1-23.9,5.9c-12.5,2.7-21.9,4-28.4,4.8c-29.1,3.5-34-0.4-36-2.8c-0.8-1-1.6-3.5-3.3-8.5
			c-3.2-9.9-5.7-17.7-6.7-28.3c-0.4-3.5-0.7-8.9,0.7-15.3c0.9-4.3,1.9-5.9,2.6-6.9c3.5-4.7,9.6-5.4,11.6-5.6
			c13.2-3.1,26.4-6.1,39.6-9.2c21.6-8.4,43.1-16.8,64.7-25.1c16.2-8.3,28.4-17.8,31.4-28.3c0.4-0.8,0.7-1.7,1-2.6
			c9.3-31.1-32.2-113.2-71.8-170.6c-7.5-10.8-14.9-20.8-21.8-29.4c1.8,18,3.7,36,5.5,54c3.1,30.7,6.3,61.5,9.4,92.2
			c2,19.2,5.9,58.2,5.9,58.2h-79.9l-91.6,1.2H377.7c0,0,3.7-33.3,5.5-50.2c1.5-13.7,3-27.3,4.4-41c1.6-14.7,3.2-29.4,4.8-44
			c2-18.4,4-36.8,6-55.2c0.1-0.6,0.1-1.1,0.2-1.6c0.5-4.5,1-9,1.4-13.5c-5.5,7.3-10.9,14.6-16,21.8c-0.5,0.6-0.9,1.3-1.4,1.9l0,0
			c-2.3,3.3-4.6,6.6-6.9,9.9c-7.1,11.1-15,23.3-22.9,36c0,0,0,0.1-0.1,0.1c-0.7,1.2-1.9,3.1-3.4,5.5c0,0-42.9,70.4-44.1,109.2
			c-0.1,4.4,0.3,9.4,0.3,9.4c0.6,6.3,1,10.8,3.3,15.5c2.1,4.3,4.9,6.7,8.7,10c3.9,3.4,8.4,6.4,17.1,10.8c5.8,2.9,10,4.6,25.5,10.8
			c10.9,4.3,16.3,6.4,17.7,7c14.8,5.5,26.7,9.1,32.2,10.7c9.8,2.9,21.6,5.9,35,8.6c1.7,0.4,4.1,1.2,6.3,3c5.3,4.5,5.5,11.9,5.6,19.4
			c0.1,5.5-0.5,14-4.1,24.1c-0.9,4.6-2.5,8-3.8,10.3c-1.7,3-3.6,6.4-7.4,8.5c-3.6,2-7.1,1.8-8.9,1.8c-25.4-1.2-49.7-6.8-49.7-6.8
			c-16.2-3.7-14.7-2.7-26.9-5.6c-27.9-6.5-66.3-15.6-106.4-38.4c-28.9-16.4-60.9-34.6-63.3-61.5c-0.7-8.1,0.8-21.5,3.2-32.4
			c0.7-3.3,2.7-11.9,9.9-30c2.3-5.7,7.6-18.6,18.2-39.6c11-21.8,20.7-38.4,26.2-47.8c7.6-13,8.5-13.8,19.7-32.8
			c4.1-7,8.1-14.3,15.2-25.6c2.9-4.6,5.6-9.2,8.3-13.6c6.3-10.5,12.1-20.7,17.5-30.5c49.3-88.5,71.1-144.7,185.4-146.4
			c17.9,43,82.4,42.5,100.3,0c134.2,5,159.3,79.7,235,228.7c3.8,7.9,8.2,16.3,12.8,25c8.7,16.1,13.8,25.4,17.6,32.5
			c16.9,31,25.4,49.5,32.6,74.1C894.1,719.1,897.2,731.9,890.8,745.6z"/>
		<g id="Right-Shoe_00000096060391097154741200000012806766491932537245_">
			<path class="st3" d="M434.5,1046.8c-0.7,2.3-1.4,4.3-2.1,5.9c-16.6,30.4-27,23.1-100.8,24.2c5.2-0.5-89.7-1.1-102.4-15.8
				c-17.3-17.1-20.1-37.9-15.4-54.3c0,0,0,0,0,0c1.7-6,4.4-11.4,7.8-15.7c0,0,0.1-0.1,0.1-0.1c0.5-0.6,1-1.3,1.5-1.8
				c0.5-0.4,1.1-0.9,1.7-1.3c0,0,0,0,0,0c1.6-1,3.5-1.9,5.6-2.7l0,0c0.1,0,0.3-0.1,0.4-0.1c17.2-6.2,49.6-5.1,75.2-5.5
				c13.9,5.5,27.9,10.3,42.4,14.7c8.6,2.6,18.3,4.9,37.5,10.5c6.6,1.9,12.1,3.6,15.7,4.7c-0.5,1.6-1.1,3.8-1.2,6.6
				c0,1.9,0.2,3.5,0.5,4.8c1,5.9,4.5,24.5,13.3,26.3c1.5,0.3,3.8,0.3,8.4,0.2C427.8,1047.4,431.8,1047.1,434.5,1046.8z"/>
			<path class="st4" d="M231.5,983.8c-2.8,5-8.8,17.6-7.6,34.4c1.4,19.6,11.7,32.6,15.3,36.7c4.9,2.3,9,4,13.1,5.2
				c16.3,5,28.5,6.1,44,7.3c27.9,2.1,20.3,2.4,48.1,4.4c32.9,2.4,46.4,2.1,56.9,1.4c5.6-0.3,13.9-1.4,13.9-1.2
				c0,0.3-12.6,2.4-21,3.4c-14.3,1.8-24.4,1.4-56,0.2c-17.6-0.7-25.7-0.8-34.5-1.4c-8.3-0.5-13.7-0.8-20-1.5
				c-20.9-2.2-31.6-3.1-41-7.5c-5.4-2.5-14-6.7-20.7-16.1c-6.8-9.5-8-19.1-8.5-23.7c-0.6-5.7-2.4-22.3,8.5-34.3
				C225.3,987.2,229,985,231.5,983.8z"/>
			<path class="st5" d="M292.3,1042.6c-15.1-2.2-16.7-36.2-1.7-39.8c19.4-2.9,38.7-5.7,58.1-8.6c12,3.7,24.4,7.1,37.5,10.5
				C386.8,1068.1,394.9,1044.8,292.3,1042.6z"/>
			<path class="st6" d="M347,993.4c-4.7,0.7-9.5,1.4-14.2,2.1c-6.5,1-13,1.9-19.4,2.9c-7.3,1.1-14.6,2.1-21.9,3.2
				c-15,3.5-13.5,37.2,1.4,39.7c0,0,0,0,0,0c0.1,0,0.1,0,0.2,0c7.5,0.2,14.4,0.4,20.8,0.8h0c0.2,0,0.3,0,0.5,0
				c7.4,0.4,14,0.9,20,1.4c0.1,0,0.2,0,0.3,0c26,2.3,39.4,5.1,46.1,2.9c1-0.3,1.8-0.7,2.5-1.3c4.2-3.2,4.3-10.5,4.1-25.2
				c0-1.1-0.1-2.2-0.1-3.3v0c-0.1-3.2-0.1-6.7-0.2-10.5"/>
			<path class="st7" d="M383,1045.9c-0.1-0.2-0.1-0.4-0.2-0.7c-0.8-2.7-1.5-5.5-2.3-8.2c-0.6-2.4-1.3-4.7-2-7.1
				c-1-3.7-2-7.4-3.1-11.1c-1.3-4.5-2.5-9.1-3.8-13.7c-0.3-1.3-0.7-2.6-1.1-3.8"/>
			<path class="st7" d="M292.1,1041C292.1,1041,292.1,1041.1,292.1,1041c-0.1-13.2-0.1-26.4-0.2-39.5c3.3,6.4,6.6,12.8,9.9,19.2
				c3.7,7.2,7.4,14.4,11.1,21.6h1.8c0.1,0.2,0.2,0.4,0.3,0.6c0.1-0.2,0.1-0.4,0.2-0.6c2.9-7.5,5.7-15,8.6-22.5
				c3.1-8.1,6.2-16.1,9.2-24.2c3,8.2,6.1,16.3,9.1,24.5v0c3.1,8.4,6.2,16.7,9.3,25.1c2.4-8.5,4.9-16.9,7.3-25.4v-0.1
				c2-6.7,4-13.5,6-20.2"/>
			<path class="st7" d="M292.1,1001.8v39.2v0.1c0,0,0,0,0-0.1c0.1-0.1,0.1-0.3,0.2-0.4c3.2-6.7,6.4-13.4,9.6-20.1
				c3.5-7.3,7-14.7,10.5-22c3.3,7,6.6,14.1,9.8,21.1c3.7,7.9,7.4,15.8,11,23.7c0.1,0.1,0.1,0.3,0.2,0.4c0-0.1,0.1-0.3,0.1-0.4
				c2.4-7.8,4.9-15.6,7.4-23.4v0c2.7-8.4,5.3-16.8,8-25.3"/>
			<path class="st7" d="M350.4,993.5v0.1c2.8,8.7,5.5,17.4,8.3,26.1v0c2.9,9.2,5.9,18.5,8.8,27.7c2.9-9.5,5.8-19.1,8.7-28.6
				c0.8-2.8,1.7-5.5,2.5-8.3c0.5-1.5,0.9-3,1.4-4.5c0.3-0.9,0.5-1.7,0.8-2.6"/>
			<g id="lACES_00000131357883304992729080000002330967510443098556_">
				<g>
					<path class="st8" d="M378,1003.5c1.2,1,1.5,2.4,2.1,3.6c0.6,1.2,1.2,2.4,1.9,3.6c1.3,2.4,2.8,4.7,4.3,6.9
						c0.3,0.5,0.2,1.1-0.3,1.4c-0.5,0.3-1.1,0.2-1.4-0.3c-1.6-2.3-3-4.7-4.2-7.3c-0.6-1.3-1.1-2.6-1.6-3.9
						C378.5,1006.3,377.8,1005.1,378,1003.5C377.9,1003.5,378,1003.5,378,1003.5C378,1003.5,378,1003.5,378,1003.5z"/>
				</g>
				<g>
					<path class="st8" d="M391.7,1007.6c-1,3.3-2.7,6.2-4.2,9.3l-1.2,2.3c-0.4,0.7-0.9,1.5-1.3,2.2l-2.6,4.4l-2.7,4.4
						c-0.9,1.4-1.9,2.8-2.8,4.3c-1.9,2.8-3.8,5.6-5.7,8.4c-0.3,0.5-0.9,0.6-1.4,0.3c-0.5-0.3-0.6-0.9-0.3-1.4l0,0
						c1.9-2.8,3.8-5.6,5.8-8.4c1-1.4,2-2.8,2.9-4.2l2.7-4.3l2.8-4.2c0.5-0.7,0.9-1.4,1.4-2.1l1.3-2.2
						C388,1013.3,389.4,1010.2,391.7,1007.6C391.6,1007.5,391.7,1007.5,391.7,1007.6C391.7,1007.5,391.7,1007.5,391.7,1007.6z"/>
				</g>
				<g>
					<path class="st8" d="M366.3,1000.3c8,6.1,15.3,13.1,22.1,20.4c3.4,3.7,6.7,7.6,9.5,11.8c1.4,2.1,2.6,4.4,3.6,6.8
						c1,2.4,1.6,5.1,1.1,7.8c-0.5,2.7-2.1,5.1-4.1,6.8c-2,1.8-4.5,3-7.2,3.4c-2.6,0.4-5.6-0.1-7.8-1.8c-1.1-0.9-2-2-2.6-3.2
						c-0.6-1.2-1-2.5-1.3-3.8c-0.5-2.6-0.6-5.2-0.5-7.7c0.1-2.6,0.5-5.1,0.9-7.6c0.9-5,2.4-9.9,4.4-14.6c0.2-0.5,0.8-0.8,1.3-0.5
						c0.5,0.2,0.8,0.8,0.5,1.3l0,0l0,0c-1.9,4.6-3.3,9.3-4.2,14.2c-0.5,2.4-0.8,4.9-0.9,7.3c-0.1,2.4-0.1,4.9,0.4,7.2
						c0.3,1.2,0.6,2.3,1.1,3.3c0.5,1,1.2,1.9,2.1,2.6c1.7,1.4,4.1,1.8,6.4,1.5c2.3-0.4,4.5-1.4,6.3-2.9c1.8-1.5,3.1-3.6,3.5-5.8
						c0.4-2.2-0.1-4.6-1-6.9c-0.9-2.3-2-4.4-3.4-6.5c-2.7-4.2-5.8-8-9.2-11.7C380.8,1014.1,373.3,1007.5,366.3,1000.3
						C366.2,1000.3,366.2,1000.3,366.3,1000.3C366.3,1000.3,366.3,1000.3,366.3,1000.3z"/>
				</g>
			</g>
		</g>
		<g id="Left-Shoe_00000014603294652169004940000004027944600751673017_">
			<path class="st3" d="M857,1050.9c-15.8,21.8-54.3,23-108.1,24.8c-11.6,0.4-5.7-0.2-29.2,0.1c-35.2,0.4-46.7,1.7-57.6-5.3
				c-11.3-7.2-15.9-17.6-15.9-17.6c-0.9-2.1-1.5-3.9-1.8-5.2c6.4,0.4,12.9,0.7,19.5,1c1.8-1.6,14.5-13.1,14.1-31.4
				c0-3.2-0.5-6.2-1.2-8.8c-0.3-2.2-1.2-6.7-4.6-11.1c-2.5-3.4-5.4-5.4-7.2-6.4c-2.9-0.6-5.8-1.3-8.7-1.9c-3.7-0.8-7.4-1.6-11.1-2.4
				c1.4-5.1,3.7-8.7,5.9-11.1c11.1-12.6,34.4-13.9,58.6-4.1c20.2,2.3,40.4,4.6,60.6,6.8c16.1,0.8,28.9,0.7,38,0.5
				c3-0.1,16.9-0.5,28.3,2.1c6.3,1.4,11.9,3.7,16.9,7.2c0.7,0.5,1.3,1,1.7,1.2c0.5,0.6,1,1.2,1.5,1.8c0,0,0,0,0.1,0
				c1.6,2,3,4.3,4.3,6.8c1.4,2.8,2.6,5.7,3.6,8.9c3.1,10.5,1.8,20.4,1.6,21.4C866.4,1028.1,864.7,1040.3,857,1050.9z"/>
			<path class="st4" d="M847.9,984.3c2.7,5.2,8.2,17.5,6.9,33.8c-1.5,19.5-11.6,32.4-15.3,36.7c-4.9,2.3-9,4-13.1,5.2
				c-2.5,0.8-7,2.2-13.1,3.4c-4.5,0.9-7.6,1.3-30.1,3.1c-9.4,0.8-12.4,1-18.2,1.6c-5.5,0.6-7,0.8-11.4,1.3
				c-8.6,0.8-14.9,1.1-18.7,1.3c-31.2,1.4-38,3.9-57.5,2.5c-7.3-0.5-13.9-1.4-13.9-1.2c0,0.3,12.6,2.4,21,3.4
				c14.3,1.8,24.4,1.4,56,0.2c17.6-0.7,25.7-0.8,34.5-1.4c4.4-0.3,11.2-0.7,20-1.5c43.2-3.9,51.6-10.4,55.7-14.5
				c4.2-4.2,7-9.1,7.9-10.7c1.5-2.6,5.7-10.7,6.7-22.2c0.6-7,2-23-8.5-34.3C853.7,987.7,850.3,985.6,847.9,984.3z"/>
			<path class="st5" d="M786.4,1042.6c-102.8,2.2-94.5,25.6-93.9-38.2c0-2.3,0-4.8,0-7.4c0-4.4,3.9-7.7,8.2-7.1
				c9.4,1.4,18.9,2.8,28.3,4.2c19.6,2.9,39.3,5.8,59,8.7C803.1,1006.4,801.5,1040.4,786.4,1042.6z"/>
		</g>
		<g id="Head_00000176749364376105768050000011338451410063553431_">
			<path class="st9" d="M406.1,174.4c-28.7,11.5-8.6,71.4,21.4,61.5c-0.6-1-1.2-2-1.8-3c-2-4.1-3.9-8.8-5.6-14
				c-3.3-10.2-4.7-19.5-5.3-27.1C412,185.9,409,180.2,406.1,174.4z"/>
			<path class="st9" d="M488.9,286.6c0.2,16.9,0.3,33.8,0.5,50.7c8.1,20.4,27.9,33.9,49.8,34c21.6,0.1,41.3-12.7,49.9-32.6
				c0-10.3-0.3-44.8-0.4-51.8c-11.1,3.8-28,8.1-48.9,8.2C517.9,295.1,500.2,290.5,488.9,286.6z"/>
			<path class="st9" d="M663.9,193c-1.6-7.8-4.5-17.7-9.7-28.4c-3.6-7.3-7.5-13.4-11.1-18.3c-4.2-1.6-13.9-5.9-21.6-16.2
				c-8.9-11.7-9.7-24-9.8-28.3c-19.7,2.9-42.4,5-67.6,5.1c-29.4,0.1-55.6-2.5-77.7-6c0.2,4.3,0.2,14.4-5.9,24.8
				c-8.3,14.3-21.9,19.2-25.4,20.3c-4.5,6.8-9.4,15.5-13.6,26.2c-2.8,7.3-4.7,14.1-6.1,20.1c0.5,9.7,2.8,28.6,14.6,48.1
				c13,21.4,30.4,31.8,39.7,37.2c30.1,17.5,59.3,17.5,70,17.3c13.4-0.2,70.5-1,103.5-45.5C659.1,228.1,662.9,205.4,663.9,193z"/>
			<path class="st10" d="M414.7,192.4c1.7-7.7,4.6-17.2,9.4-27.5c3.5-7.4,7.3-13.7,10.9-18.9c3.8-1.3,15-5.7,23.2-17.6
				c6-8.8,9.6-19.3,8.2-27.5c39.7,7.7,105.5,8.1,145.3,0.9c-2.6,16.5,14.8,41.4,31.4,44.5c3.8,5.5,7.9,12.3,11.6,20.5
				c4.4,9.8,7,18.8,8.5,26.2c4.5-6.7,18.5-29.3,16-60.9c-2.3-29.2-17.5-48.5-22.9-54.8c5.5-4.7,13.5-22.3,12.8-31.8
				c-7.4,3.1-48.1-2-52.5-7.8c0.2-0.8,21.4,10,35.4,1.2c13.9-9.2,12.7-26.9,9-34c-11.8,12-22.6,15-29.3,15.8
				c-5.9,0.7-12.7-0.7-26-3.5c-28.3-6-29.9-6.5-33-7.1c-34.3-9.9-133.1,3.4-135.5,65.6C431.1,80.4,412,96,404.7,124
				C395.5,159,411.5,187.1,414.7,192.4z"/>
			<path class="st11" d="M502.6,174.1c0.2,22.4-23.9,22.4-23.7,0C478.7,151.8,502.8,151.8,502.6,174.1z"/>
			<path class="st11" d="M598.9,174.1c0.2,22.4-23.9,22.4-23.7,0C574.9,151.8,599.1,151.8,598.9,174.1z"/>
			<path class="st12" d="M568.6,239.2c-4.7,33.4-54.3,33.4-59,0C525.7,236.1,552.6,236.1,568.6,239.2z"/>
		</g>
		<path class="st9" d="M673.5,174.4c28.7,11.5,8.6,71.4-21.4,61.5c0.6-1,1.2-2,1.8-3c2-4.1,3.9-8.8,5.6-14
			c3.3-10.2,4.7-19.5,5.3-27.1C667.7,185.9,670.6,180.2,673.5,174.4z"/>
		<g id="Hands_00000023263755625168817850000003421538467152348576_">
			<path class="st9" d="M541.8,789v0.6c-0.6-0.1-1.1-0.2-1.7-0.3C540.7,789.2,541.3,789.1,541.8,789z"/>
			<path class="st9" d="M577,832.5c-1.1,1.7-3,2.2-8.2,2.9c-6.3,0.9-9.4,1.2-13,1.6c-5.3,0.6-10.5,1.2-15.8,1.9h-1
				c-0.7,0.1-1.5,0.2-2.2,0.3c-8.9,1-17.7,2.1-26.5,3.2c1.2,0.1,3,0.3,5.1,0.4c4.1,0.3,9.8,0.7,15.9,0.8c0.3,0,0.7,0,1.1,0
				c0.4,0,0.7,0,1.1,0c0.8,0,1.6,0,2.6,0c0.5,0,1,0,1.5,0h2.4c1.1,0,2.2,0,3.3,0c1,0,2,0,2.9,0c0.8,0,1.6,0,2.4-0.1
				c0.3,0,0.6,0,0.9,0c0.3,0,0.6,0,0.9,0c0.9-0.1,1.5-0.1,2.1-0.2c6.8-1,10-2.7,12.2-0.9c0.1,0.1,0.2,0.2,0.3,0.3
				c1.6,1.6,1.9,4.7,0.8,6.8c-0.9,1.8-3.2,2.4-7.6,3.6c-6.1,1.7-12,2.3-17.6,2.4h-0.7c0,0-0.1,0-0.1,0c-5.4,0-18.1,0.1-28-0.1
				c-8-0.1-14.2-0.3-19.5-0.7c-9.5-0.8-23.4-3.4-40.3-11.5c-1.7-0.3-3.5-0.6-5.2-0.9c0.4-0.7,0.8-1.3,1.1-2.1c1.1-2.1,2-4.4,2.9-6.6
				c5.7-13.3,5.5-24.3,5.5-24.3c0.3-8.6-1.2-16-3.1-21.9c3.2-1,8-2.8,13.8-5.4c8.6-3.9,10.2-5.7,15.8-7.1c7.4-1.8,7.8,0.7,15.9-0.7
				c10.8-1.8,15.2-7,18.7-4.5c2.2,1.6,2.6,5.1,2.1,7.4c-1,4.2-5.5,6.2-8.8,7.5c-5.4,2.3-7.8,0.9-13.5,2.5c-4.1,1.2-7.6,3.2-10.6,5.6
				c11.6,0.4,21-0.3,27.6-1.2c20.7-2.6,31-3.9,35.9-5.1c5.5-1.4,12.8-3.5,15.6-0.1c1.1,1.3,1.5,3.5,0.9,5.2
				c-1.9,5.5-12.7,5.6-29.2,8.3c-5.9,1-14.8,2.7-25.5,5.6c4.7,0,11.5-0.1,19.7-0.3c13.9-0.4,20.8-0.7,25.2-1.4
				c16.6-2.9,24.4-9.2,28.3-5.4c2.1,2.1,2,6,1,8.6c-2.6,6.8-12.7,8.5-28.1,11c-7.4,1.2-13.6,1.7-17.9,1.9h-1.8
				c-2.9,0.2-5.7,0.4-9,0.7c-6.7,0.6-13,1.1-18.4,1.6c0.1,0,0.2,0.1,0.4,0.1h-1.3c0,0,9.8,2,14.7,2.4c2.4,0.2,4.7,0.4,7,0.6
				c2.1,0.1,4.2,0.3,6.3,0.4c3.7,0.4,6.7,0.4,9,0.4c4-0.1,7.6-0.2,11.9-1.2c1.5-0.4,4.1-1,7.8-1.5c1.1-0.1,2.5,0,2.5,0h0
				c0,0,0.1,0,0.1,0c4-0.4,5.1-0.4,6.2,0.4C578,825.6,578.7,830,577,832.5z"/>
			<path class="st9" d="M539.9,800.9c0.2,0,0.4-0.1,0.6-0.1c0,0.1,0,0.1,0,0.2C540.3,801,540.1,800.9,539.9,800.9z"/>
			<path class="st13" d="M539.4,805.9c0.1,0,0.3,0,0.4,0C539.7,805.9,539.6,805.9,539.4,805.9l-8.9-0.5"/>
			<path class="st9" d="M630.6,842.7C630.6,842.7,630.6,842.7,630.6,842.7c-1.3,0.2-2.5,0.4-3.7,0.6c-16.6,8-30.3,10.5-39.7,11.4
				c-5.3,0.5-11.4,0.6-19.3,0.7c-9.7,0.2-22.3,0.1-27.6,0.1h-0.9c0,0-0.1,0-0.1,0c-5.6,0-11.5-0.7-17.6-2.4
				c-4.5-1.2-6.7-1.9-7.6-3.6c-1.1-2.1-0.8-5.2,0.8-6.8c0.1-0.1,0.2-0.2,0.3-0.3c2.2-1.8,5.4-0.1,12.2,0.9c1,0.1,2.3,0.2,4.3,0.3
				c0.4,0,0.7,0,1.1,0c0.4,0,0.8,0,1.2,0c0.8,0,1.7,0,2.7,0c0.5,0,1,0,1.6,0h2.5c1,0,2.1,0,3.1,0c0.9,0,1.8,0,2.7,0
				c0.8,0,1.5,0,2.3-0.1c0.3,0,0.6,0,0.9,0c0.3,0,0.6,0,0.9,0c5.3-0.2,10.1-0.5,13.7-0.7c2.2-0.2,3.9-0.3,5.1-0.4
				c-8.8-1.1-17.6-2.1-26.5-3.2c-0.7-0.1-1.5-0.2-2.2-0.3h-1c-5.3-0.6-10.5-1.2-15.8-1.8c-3.6-0.4-6.8-0.6-13-1.6
				c-5.1-0.8-7-1.2-8.2-2.9c-1.7-2.5-1-6.9,1.3-8.7c1.1-0.8,2.1-0.8,6.1-0.4h0c0,0,0.8-0.2,1.2-0.1c0.4,0,0.9,0.1,1.4,0.1
				c3.3,0.3,6.1,0.5,7.8,0.7c1.4,0.2,3.2,0.4,5.2,0.6c0.1,0,0.3,0,0.4,0.1c1.9,0.2,4,0.4,6.2,0.6c1.8,0.2,7.5,0.4,7.5,0.4h0
				c2,0.2,4.2,0.3,6.6,0.3c5.5,0,10.5-0.6,14.7-1.5c3.4-0.5,6.9-1,10.3-1.5c-1.3,0.1-2.8,0.1-4.3,0.2c-5.8,0.1-13-0.4-21.1-2.4
				c-0.9-0.2-1.7-0.4-2.5-0.7c-13-3.6-22.4-9.7-28-13.9l0,0c0.3-0.4,0.5-0.7,0.8-1.1c4.6,0.2,10.5,0.4,17.5,0.8
				c5,0.3,10.5,0.5,16.4,0.9c19.9,1.2,31.7,2.4,31.8,1.6c0-0.6-8.8-1.9-22.1-4.6c-3.1-0.6-6.6-1.3-10.1-2.1
				c-2.6-0.6-5.2-1.2-7.6-1.7c-11.6-2.8-21.1-5.5-27.7-7.5c0,0-0.1,0-0.1,0c-0.4-1.6-0.7-3.8,0.5-5.3c2.7-3.4,10.6-0.6,21.5,1.8
				c0.8,0.2,1.5,0.3,2.3,0.5c6.5,1.2,14,1.9,27.2,3.2c0.6,0.1,1.1,0.1,1.7,0.2c0,0,3.5,0.3,6.3,0.5c2.9,0.2,9.4,0.4,18.1,0.4
				c-1.5-1.4-3.9-3.4-7.2-4.8c-4.1-1.6-5.8-0.9-10.8-1.9c-4.7-1-11.2-2.3-13.3-7c-1.4-3.2-0.8-8,1.8-9.5c2.9-1.8,5.8,2,14.2,3.9
				c7.1,1.6,7.9-0.5,15.8,1.1c4.8,0.9,8.2,2.4,14.1,5.1c4.6,2,8.8,4.4,16.4,7c0.6,0.2,1.1,0.4,1.4,0.5c-1,2.9-2.3,7.3-2.6,12.7
				c-0.3,4.5,0,8.2,0.7,12.3C624.3,824.7,628.1,836,630.6,842.7z"/>
		</g>
		<path class="st14" d="M568,243.7c-9-0.7-18.7-1.1-29-1.2c-10.4,0-20.2,0.4-29.3,1.2c0-1.4,0-2.8,0-4.1c8-1.5,17.8-2.7,29.1-2.7
			c11.3,0,21.1,1.2,29.2,2.7C568,241,568,242.4,568,243.7z"/>
		<path class="st14" d="M520.7,257.5c4.8,1.2,11.3,2.4,19,2.4c8.1,0,14.8-1.3,19.7-2.6c-1.7,1.5-8.8,7.5-19.7,7.4
			C529.3,264.7,522.4,259,520.7,257.5z"/>
	</g>
	<g id="Highlights_00000038384604073233623290000003508880130214570687_" class="st15">
		<path class="st14" d="M894.5,725.7c-0.1,2.7-0.2,5.4-0.4,8.1c3.6-0.3,8.7-0.3,14.6,0.6c2.8,0.4,11.8,2.1,22,7.8
			c11.3,6.3,18.4,14.6,30.9,29.1c0.8,0.9,5.1,6.3,9.1,12.9c0.7,1.1,2,3.3,3.3,5.8c2.2,4,5.2,10.5,8,19.6
			c-0.6-12.1-3.7-21.4-6.2-27.2c-5.8-13.7-14-22.4-19.6-28.3c-2.1-2.2-6.9-7.1-13.7-12.3c-4.8-3.7-8.5-6.5-14.1-8.9
			c-5-2.2-8.9-3-16.4-4.5C907.7,727.4,901.7,726.4,894.5,725.7z"/>
		<path class="st14" d="M851.7,997.2c-1.6-1.7-3.9-3.9-7.1-5.8c0,0-4.8-2.9-10.6-4.1c-12.5-2.7-62-2.5-76.2-3.1
			c-35.6-1.5-68.3-17-84.5-11.8c-11.6,3.7-17,11.6-17.1,11.6c-0.5,0.5-1.1,1.2-1.4,2.3c-0.1,0.3-0.1,0.5-0.2,0.7
			c-2.7-0.6-5.3-1.3-8-1.9c0.1-0.2,0.2-0.5,0.4-0.8c1.4-3.1,2.9-5.3,3.7-6.4c0.2-0.3,1.7-2.3,3.7-4.2c0,0,5.1-4.9,12.6-7.5
			c7.4-2.5,14.3-1.2,27.6,1.4c2.3,0.4,0.8,0.2,10.8,2.5c14.2,3.2,21.5,4.8,28.7,5.9c5.1,0.8,9.9,1.3,13.9,1.8
			c4.6,0.5,7.1,0.8,10.2,1.1c5.9,0.4,10.7,0.3,13.9,0.2c14.4,0.2,27.7,0.4,40,0.7c4.3,0.1,10.2,0.2,17.9,1.3
			c7.1,1,12.9,2.3,16.9,3.4c0.9,1.8,1.8,3.9,2.7,6.2C850.5,993.1,851.1,995.2,851.7,997.2z"/>
		<path class="st14" d="M854.2,997.9c3,2.1,5.9,4.2,8.9,6.3c-0.8-2.4-1.9-5.4-3.8-8.6c-1.6-2.8-3.3-5-4.8-6.8c-0.6-0.5-1.2-1-2-1.5
			c-0.9-0.6-1.7-1-2.5-1.3c0.8,1.8,1.7,3.8,2.4,6C853.2,994.1,853.8,996,854.2,997.9z"/>
		<path class="st14" d="M672.8,1001.2c-46.6-10.6-99.5-25.7-156.3-47.7c-47.6-18.4-89.8-38.5-126.4-58.2
			c40.3,19.6,86.4,39.5,138.2,57.5c49.8,17.4,96.4,30.2,138.8,39.8c1,1.2,2.2,2.6,3.3,4.2C671.4,998.5,672.2,999.9,672.8,1001.2z"/>
		<path class="st14" d="M690,901.5c32-14.2,76-36.2,126.3-69.6c-36.7,20.3-76.5,40.6-119.3,60.4c-53.6,24.8-105,45.3-153.1,62.6
			C544.3,956.1,625,930.4,690,901.5z"/>
		<path class="st14" d="M590.7,340.2c41.3,5.3,70.8,19.4,87.5,29c21.8,12.6,35.3,25.4,38.3,28.2c19.5,18.7,29.6,36.8,39.3,54.7
			c28.3,51.9,51.8,97.5,56,105.5c10.6,20.5,26.5,49.8,47.7,84.7c12.1,24.4,19.4,45.3,23.8,60.5c4.2,14.2,6.3,24.8,4.1,37.6
			c-1.9,10.9-6.3,19.3-9.7,24.5c4.3-4.6,10.3-12.6,13.1-23.7c0.9-3.5,3.7-13.1-2.3-35.1c-5.1-18.9-11.2-33.6-14.2-40.6
			c-7.5-17.6-14.6-30.7-21.6-43.7c-8.4-15.6-10.3-18-18.5-32.9c-8.6-15.7-12.9-24.8-22.9-45.2c-19.5-39.5-29.2-59.3-40-78.5
			c-13.5-24-20.2-36.1-31.5-50.3c-9.3-11.8-25-32.3-49.4-47.8C651.6,342.4,611.7,339.9,590.7,340.2z"/>
		<path class="st14" d="M674.1,175.7c1.4,0.5,3.3,1.4,5.2,3c7.7,6.4,7.5,17.8,7.4,22.2c0,2-0.9,22.3-16.5,31.5
			c-3.6,2.1-7,3.1-9.3,3.5c4-2.4,10.7-7.3,15.5-16c1.6-2.9,8.7-16.3,4-32C678.6,182.3,676,178.2,674.1,175.7z"/>
		<path class="st14" d="M590.5,286.8c-2.3,0.8-4.6,1.5-7,2.3c0,3.4-0.1,9-0.1,15.9c0,23.2,0.6,28-1.5,35.4
			c-1.5,5-4.6,12.5-12.2,20.7c3.6-2.1,8.7-5.7,13.4-11.5c3.2-3.9,5.3-7.8,6.6-10.8C590,321.4,590.2,304.1,590.5,286.8z"/>
		<path class="st14" d="M547.4,180.6c0,0.3,0,1,0.1,1.8c0.5,7.8,2.6,11.4,3.6,18.7c0.2,1.3,0.4,3-0.6,4.5c-1,1.4-2.7,1.7-8.3,2.9
			c-2.1,0.5-3.7,0.9-4.7,1.1c3.8,1.2,6.9,1.1,8.6,0.9c2.8-0.4,6-0.7,7.8-3.3c1.8-2.5,1.3-5.6,1.1-6.5
			C552.5,194.1,550,187.3,547.4,180.6z"/>
		<path class="st14" d="M655.3,77.4c5.5,5.8,20.7,23.4,24.1,50.9c4,32.4-11.2,56.1-15.2,62c4.4-9.6,11.9-29.3,10.4-55
			C673,106.6,661.2,86.2,655.3,77.4z"/>
		<path class="st14" d="M668.5,45.8c0,3.7-0.5,9.9-3.3,16.8c-3,7.3-7.3,12.2-10,14.8c2.4-4,4.9-8.7,7.3-14.1
			C665.3,56.9,667.2,51,668.5,45.8z"/>
		<path class="st14" d="M617,36.7c16.3,10.3,35.5,6.4,43.1-5.1c7.3-11.1,1.3-25.5,0.7-26.7c2.6,11.5,0,22.9-7.5,29.1
			c-4,3.3-10.6,6.1-17.1,5.6c-2.1-0.1-3.4-0.5-15.9-2.5C619,37,617.8,36.8,617,36.7z"/>
		<path class="st14" d="M612.2,101.8c0.9,5.3,4.8,25.4,22.1,36.3c4,2.5,8,4.1,11.6,5.1c2.4,3.9,4.8,8.2,7.1,12.9
			c6.3,13,9.8,25.3,11.7,35.6c-1.9-7.6-4.8-16.4-9.2-25.9c-3.4-7.4-7.1-13.9-10.6-19.3c-4.5-1.5-12.4-4.8-19.5-12.2
			C613.3,121.6,612.4,106.1,612.2,101.8z"/>
		<path class="st14" d="M568.6,291.5c20.8-2.5,35.5-9.8,43.7-14.8c3.2-2,43.4-27,49.2-69.9c1.6-11.5,0.2-20.9-0.3-23.6
			c-2.9-17.8-11.3-30.3-16.3-36.7c-4.5-1.5-14-5.4-22.2-14.7c-9.5-10.8-11.7-22.6-12.3-27.2c-0.4,3.5-1.2,14.8,6,26
			c9.2,14.4,24.4,17.4,27,17.9c4.3,7.1,12.3,22.8,12.2,43.9c0,3.9-0.3,17.3-6.9,32.9c-7.8,18.6-19.9,29.5-29.2,37.6
			C601.8,278.5,583.1,286.9,568.6,291.5z"/>
		<path class="st14" d="M588.1,158c1.8,1.9,4.1,4.7,5.9,8.5c3.6,7.6,3.1,14.7,2.7,17.9c1.7-4,2.1-7.4,2.2-9.6
			c0.1-2.4,0.3-7.6-2.9-12.1c-0.8-1.2-2.3-3.3-5.1-4.2C589.8,158.1,588.8,158,588.1,158z"/>
		<path class="st14" d="M491.6,158c1.8,1.9,4.1,4.7,5.9,8.5c3.6,7.6,3.1,14.7,2.7,17.9c1.7-4,2.1-7.4,2.2-9.6
			c0.1-2.4,0.3-7.6-2.9-12.1c-0.8-1.2-2.3-3.3-5.1-4.2C493.3,158.1,492.3,158,491.6,158z"/>
	</g>
	<g id="Shadows" class="st16">
		<path d="M526.9,1035.8c-27-3.2-56.5-8-87.8-15.2c-50.7-11.7-94.9-26.9-132-42.4c-12.2-0.3-22.6-0.1-30.4,0.2
			c-11.3,0.5-20.9,1-33.5,3.5c-7.2,1.4-13.1,3.1-17.2,4.3c-8,8.1-10.9,16.4-12.1,20.6c-5.9,21.1,5.7,38.9,7.9,42.2
			c1.8,2.7,5,12,14.5,15c25.8,8.2,45.3,10.6,89.1,11.3c56,0.9,71.4,3.6,93.2-6.2c12.2-5.4,13.4-16.2,15.9-22.4
			C465.3,1043.2,496.1,1039.5,526.9,1035.8z"/>
		<path d="M489.9,338.7c0.9,2.2,2.4,5.5,4.9,9.2c13.2,19.4,36,22.3,37.7,22.4c3.9,0.4,10,0.6,17.4-1.1
			c-38.5-6.4-47.1-18.3-49.2-25.6c-1.1-3.6-0.7-6.4-0.3-15.4c0.7-16.2,0.4-29.2,0-37.7c-1.4-0.3-2.9-0.7-4.4-1.2
			c-2.6-0.8-5-1.8-7.1-2.7C489.2,303.9,489.5,321.3,489.9,338.7z"/>
		<path d="M427.8,236.7c-3.1-5.8-6.5-13.3-9.1-22.5c-2.4-8.6-3.5-16.3-3.9-22.5c-2.9-5.8-5.8-11.6-8.7-17.4c-3,2.3-5.9,4.5-8.9,6.8
			c7.8,5.1,11.1,10.5,12.7,14.4c3.9,9.2,0.8,16.5,5.6,28.4c1.1,2.7,3,6.5,6.7,9.6C424.4,235.2,426.4,236.2,427.8,236.7z"/>
		<path d="M522.8,257.9c-1.4-0.7-3-1.7-4.5-3.1c-4.3-4-5.5-9-6-11.2c7.9-0.6,16.2-1,25-1c11.2-0.1,21.6,0.4,31.3,1.2
			c-7.4,6.1-13.8,7.9-18.4,8.4c-5.3,0.6-8.8-0.6-15.2,0.8C529.7,254,525.5,256.2,522.8,257.9z"/>
		<path d="M184.9,736.7c0.3,3.7,1,9.2,2.9,15.4c6.6,22,22.5,36.9,69,67.1c27.2,17.7,50.2,31,69.1,41.5c30.6,17,46,25.5,62.2,31.6
			c39.2,14.7,71.8,17,83.2,17.5c27.4,1.3,50.7-1.9,68.1-5.6c36.7,8,66.9,6.8,86.5,4.5c25.9-3,45.6-9.4,56.8-13.1
			c26.2-8.6,44.2-18.3,60-26.6c33.2-17.7,67.1-35.6,108.3-57.3c-28,12.6-42.7,17.6-44.3,14.9c-1.8-3.1,13.4-16,45.7-38.8
			c-23.1,12.8-42.8,22.3-57.7,28.2c-31.6,12.7-26.1,11.8-79.7,23.8c-8,1.8-14.5,3.1-20.5,4.2c-27.3,5.1-31.8,6.6-43.9,7.1
			c-5.2,0.2-12.8-2.3-21.9-7.5c-7,3.3-17.4,7.5-30.7,10.1c-2.5,0.5-8.6,1.6-16.6,2.2c-6.2,0.4-9.5,0.3-37.9,0.3c0,0,0,0,0,0
			c-0.1,0-52.8,0.1-59.2-1.1c-8.6-1.5-15-3.6-18.1-4.7c-7.2-2.5-12.9-5.4-17.1-7.8c-1.8,2.7-5.2,8.8-11.2,8.5
			c-10.8-0.5-18.9-1.6-24-2.4c-10.6-1.6-15.5-2.2-21.2-3.2c-30.5-5.1-50.9-10.3-50.9-10.3c-23.5-6.1-40.6-12.5-53.2-17.4
			c-20.7-7.9-32.2-13.7-40.5-18.5c-4.6-2.6-9-5.4-10.4-6.2c-10.7-6.7-17.7-11-25.4-17.6c-5.4-4.6-11.5-9.8-17.4-18.5
			C189.5,749.2,186.5,741.8,184.9,736.7z"/>
		<path d="M666.1,1048.3C666.1,1048.3,666.2,1048.3,666.1,1048.3c0.1-0.1-10.6-1.5-12.6-1.8c-115.3-15.8-175.1-24-231.8-38.5
			c-52.3-13.4-89.1-28.9-124.8-43.9c-23.7-10-96.2-41.5-159.4-101.6c-15-14.2-29.2-29.9-31.9-52.7c-3.7-31,16-56.3,23.7-65.2
			c-7.2,5.9-19.7,17.8-27.3,36.7c0,0-5.2,12.9-6.2,26.7c-2.1,29.9,48.8,88.6,151.6,142.5c92.4,48.4,174.8,65.7,213.4,73.6
			c48.1,9.8,100.6,15.8,111,16.9C609.5,1045.1,641.6,1047.2,666.1,1048.3z"/>
		<path d="M644.4,1047.6c4.5,0.7,8.9,1.4,13.4,2.1c1.2,3.3,3.4,7.8,7.8,11.3c5.2,4.1,11,4.7,14.1,5c24.1,2.1,79.5-3.4,105.7-4.9
			c9.1-0.5,40.7-2.1,58-14c4.7-3.2,8.5-7.2,8.5-7.2c8.9-9.4,12.2-20.1,13.6-26.2c0.9,8.5,1.7,27.7-10.5,41.3
			c-8.9,9.9-22,12.9-48.7,16.6c-14.8,2.1-34.9,4.1-59.3,4c0,0,0,0,0,0c-20.2,0-68.2,1-81.1-3.5c-7.6-2.7-11.1-7.9-11.1-7.9
			c0,0,0,0,0,0C648.8,1058.3,645.9,1051.8,644.4,1047.6z"/>
		<path class="st0" d="M540.8,954.8c14.1,5.1,28.8,10.1,44.1,14.9c20.8,6.5,40.9,12.2,60.2,17c2.2-5.4,6.2-13.1,14-18
			c13.6-8.5,29.8-2.9,49.3,1.3c15.3,3.3,37.8,6.9,66.7,6.8c-18.8-1.5-33.7-4.5-43.9-7c-19.9-4.9-50.3-14.8-67-8.9
			c-6.4,2.2-11.3,6.1-11.3,6.1c-1.9,1.5-3.3,3-4.4,4.3c-3.6,4.4-3.9,8.1-5.9,8.2c-9.2,0.4-13.6-1.8-23.9-5.4
			c-18.4-6.4-32.6-10.3-51.5-15.5C561.5,957,552.3,955.7,540.8,954.8z"/>
		<path d="M225.5,620.3c10.1,7,24.7,19,35.4,37.9c13,22.8,9.9,37.1,21.2,54.3c7.8,12,23.4,26.9,58.7,35c-26.9-31-39-58.5-45.1-78.3
			c-3.8-12.4-6.6-26.3-16.9-43.5c-11.1-18.4-24.9-30.7-35-38.2C237.8,598.5,231.7,609.4,225.5,620.3z"/>
		<path d="M265.3,551.2c5.3,0,12.5,0.6,20.9,2.7c6.2,1.6,11.6,2.9,17.6,6.6c11.1,6.8,12.3,14,18.5,13.8c4.8-0.2,8.9-4.7,10.4-8.8
			c2.9-8-3.8-16-6.6-19.4c-5.7-6.8-12.5-9.6-21-12.9c-5.7-2.2-14.3-4.9-25.5-6C274.8,535.2,270.1,543.2,265.3,551.2z"/>
		<path d="M347.1,559.7c-2,1.4-5.3,4-7.7,8.3c-1.1,2-3.9,7.4-2.5,14.3c1.7,8.3,8.3,12.4,9.5,13.1c1.9-3.1,3.9-6.2,5.8-9.3
			C350.5,577.4,348.8,568.5,347.1,559.7z"/>
		<path d="M753.2,976.2c15.1-5.8,30.6-12.3,46.3-19.8c73.8-34.9,131.8-78.8,175.9-120.2c-4.6,6.4-11.4,15.2-20.8,24.8
			c-9.7,9.9-17.9,16.5-27.7,24.1c-13.2,10.2-30.9,23.6-52.7,39c-10.5,7.2-21.9,14.5-34.2,21.7c-22.7,13.2-44.6,23.7-64.6,32
			C768.1,977.3,760.7,976.8,753.2,976.2z"/>
		<path d="M414.9,191.7c-1.8-9.8-4.5-31.8,4.6-57.2c9.9-27.4,27.9-43.3,35.7-49.4c1.1-7.2,3.7-18.1,10.8-29.2
			c11.1-17.5,26.7-25.1,39.7-31.4c26.9-12.9,52.8-14.6,69.8-14c-10.6-1.9-26.1-3.8-44.7-2.5c-15.2,1.1-33.4,2.6-53.3,13.4
			c-10.5,5.7-31.4,17-36.7,38.7c-1.3,5.2-1.4,9.8-1.2,13c-4.8,3.5-33.4,25-37.3,63.7C399.5,164.1,410.6,184.6,414.9,191.7z"/>
		<path d="M555.1,208.4c-1.1,1.2-4.1,4-8.9,5.3c-4.8,1.3-8.8,0.2-10.4-0.3c0.6-1.2,1.2-2.5,1.8-3.7c1.8,0.4,4.1,0.8,6.8,0.7
			C548.9,210.4,552.6,209.3,555.1,208.4z"/>
		<path d="M574.4,291.2c0-1.2-49.4,9.2-96.8-16.1c-25.8-13.7-38.8-31.8-42.1-36.5c-13.5-19.3-17.7-38.4-19.3-48.9
			c-0.2,9.1,0.6,22.5,6.4,37.1c15.8,39.8,55,55,66.8,59.7C533.9,304,574.4,292.3,574.4,291.2z"/>
		<path d="M491.8,158c-1.5,1.1-6.6,5.1-8,12.1c-0.2,0.9-2,11.1,4.9,16.7c3.1,2.5,6.5,2.9,8.3,3c-5.4,1.7-8.8,0.1-9.8-0.4
			c-8.3-4.1-6.9-17.2-6.8-18.3c0.3-2.5,0.8-6.2,3.9-9.4C487,159.1,490.4,158.3,491.8,158z"/>
		<path d="M588.1,158c-1.5,1.1-6.6,5.1-8,12.1c-0.2,0.9-2,11.1,4.9,16.7c3.1,2.5,6.5,2.9,8.3,3c-5.4,1.7-8.8,0.1-9.8-0.4
			c-8.3-4.1-6.9-17.2-6.8-18.3c0.3-2.5,0.8-6.2,3.9-9.4C583.3,159.1,586.6,158.3,588.1,158z"/>
		<path d="M824.2,636.2c-0.5,7.6-2.6,24.2-14,41c-13.1,19.3-30.6,27.5-37.6,30.3c4.7-0.2,8.8-1,12.4-2.2
			c34.3-10.9,44.4-58.8,45.7-65.6c3-0.9,10.1-3.5,16-10.3c4.7-5.4,6.5-11,7.2-14.1c-3.2,3.6-7.6,8-13.6,12.2
			C834.4,631.7,828.7,634.4,824.2,636.2z"/>
		<path d="M772.5,717.6c-0.1,0.2-0.1,0.3-0.1,0.4c-0.1,0.3-0.2,0.6-0.3,0.9c-2.9,8.6-12,16.6-24.4,23.8l-1.1-1.6
			c3.1-2.9,6.1-5.9,9.1-9c0,0,5.5-5.8,11.5-13.1c0.3-0.4,0.7-0.8,1-1.3L772.5,717.6z"/>
		<path d="M510.3,806.4c-0.1-0.3,2.1-0.9,9.5-2.3c3-0.5,6.9-1.2,11.9-2c1.3-0.2,2.6-0.4,4-0.7c1-0.2,2.1-0.3,3.1-0.5
			c0.1,0,0.1,0,0.2,0h0.7l0.1,1.2h0c0,0,2.1-0.7,3.2-0.6c1,0.2,3,0.6,3,0.6h0.3c5.3,0.9,9.3,1.6,12.4,2.1c-2.7,0.4-5.4,0.6-9.1,0.9
			c-3.7,0.3-6.6,0.4-9.1,0.5c0,0-1.6,0-1.6,0h0c-1.1,0-2.1,0.1-3,0.1C524.9,806,510.3,807.1,510.3,806.4z"/>
		<path class="st17" d="M570,842.4c-1.3,0.1-5.4,0.1-5.4,0.1h0c0,0-0.2,0.2-0.3,0.1c-2.2-1.8-5.4-0.1-12.2,0.9
			c-0.7,0.1-1.5,0.2-2.6,0.2c-0.7,0-1.4,0-2.1,0c-0.5,0-1.1,0-1.6,0c-1,0-1.9,0-2.9,0c-1.1,0-3.3-0.1-3.3-0.1H538c0,0-1,0.1-1.5,0.1
			c-0.5,0-1.4,1.1-1.4,1.1H535c0,0-1.7-1.1-2.4-1.1c-0.3,0-0.5,0-0.8,0c-0.3,0-0.6,0-0.8,0c-0.2,0-0.5,0-0.7,0s-0.4,0-0.6,0
			c-5.8-0.2-11.1-0.5-15.1-0.8c-2.3-0.2-4.2-0.3-5.4-0.4c9.3-1.1,18.7-2.3,28.1-3.4c0.8-0.1,2.3-0.1,2.3-0.1h0h0
			c0.8-0.1,1.6,0,2.3,0.1C551.3,840.1,560.7,841.2,570,842.4z"/>
		<path d="M509.9,823.4c-0.2-0.3-0.3-0.3-0.5-0.4c5.8-0.5,12.8-1.1,20.2-1.8c3.7-0.3,6.8-0.5,10-0.7c3.2,0.2,6.3,0.4,10,0.7
			c7.3,0.6,14.3,1.2,20.2,1.8c-0.1,0-0.3,0.1-0.5,0.1c0,0,0,0,0,0c-9.6,2.5-17.5,3.1-23.1,3.1c-2.1,0-4.3-0.1-6.5-0.4h0h0h-0.1
			c-3,0-5.7-0.2-7.5-0.4c-4.8-0.4-8.8-0.9-11.8-1.3c-1.7-0.1-4.4-0.4-7.8-0.7C511.6,823.3,510.7,823.3,509.9,823.4L509.9,823.4z"/>
		<path d="M451.9,834.1c5.1,3.7,12.9,8.7,23.3,12.8c14.5,5.7,22.9,5.2,75.3,4.4c31.3-0.5,45.2-0.6,63.7-8.1c6-2.4,10.8-5,14-6.8
			c0.7,1.8,1.4,3.7,2.1,5.5c-6.4,3.2-16.1,7.5-28.4,10.5c-14.3,3.5-22.3,3-54.2,3c-45,0-49,1-62.7-1.5c-16.2-3-28.9-7.8-37-11.2
			C449.2,839.8,450.5,836.9,451.9,834.1z"/>
		<path d="M463.2,519.6c-0.5,3-1.5,7.7-4.1,12.7c-3.9,7.5-9.3,11.9-19.5,19.9c-3.5,2.8-8.4,6.4-14.5,10.5c5.3-0.3,10.5-0.6,15.8-0.9
			c2.7-2.8,4.7-5.3,6.1-6.9c9.7-11.7,17.9-21.8,16.6-32.9C463.5,520.9,463.3,520.1,463.2,519.6z"/>
		<path d="M486,793.5c-0.2-0.3,5.3-6.9,13.7-8.7c3.7-0.8,5.2-0.1,9.6-1.2c4-1.1,7.1-2.9,9.1-4.2c-2.1,2.8-4.5,4.6-6.9,5.8
			c-5.9,3-9.6,0.8-17.1,3.6C488.9,790.8,486.1,793.7,486,793.5z"/>
		<path d="M592.8,793.2c0.2-0.3-5.3-6.9-13.7-8.7c-3.7-0.8-5.2-0.1-9.6-1.2c-4-1.1-7.1-2.9-9.1-4.2c2.1,2.8,4.5,4.6,6.9,5.8
			c5.9,3,9.6,0.8,17.1,3.6C589.9,790.4,592.7,793.4,592.8,793.2z"/>
		<path d="M552.7,820.4c1.8-0.5,4.9-1.3,8.7-2.2c15.3-3.8,19.9-4.5,22.8-8.6c1-1.3,2.2-3.7,2.4-7.5c1.2,3,1,5.1,0.7,6.3
			c-1.7,6.6-11.4,9.3-17.6,11.1c-3.4,0.9-6.2,1.4-8.2,1.6C558.5,820.9,555.6,820.6,552.7,820.4z"/>
		<path d="M578.7,827.4c-1.1,2.2-2.3,4.5-3.4,6.7c-6,0.7-12.3,1.7-18.8,2.9c-2.7,0.5-5.3,1.1-7.9,1.6c6.7,1.1,12.1,0.8,15.8,0.2
			c5.8-0.8,12.8-1.8,14.5-6.3C579.6,830.7,579.2,828.8,578.7,827.4z"/>
		<path d="M619,786.4c-1.4,5-2.9,12.5-2.1,21.6c1.1,14.1,7.5,26.2,10.8,31.2c-2.5-7.3-5.7-19.3-6.2-31.5c-0.3-7.5,0.2-14.1,1.1-19.7
			C621.4,787.6,620.2,787,619,786.4z"/>
	</g>
	<g id="Outline_00000142865433338792077300000012590777565338329216_">
		<path class="st18" d="M851.9,617.7C870.3,652,891,695,892.8,724.6c0.5,8.9-0.4,17.2-3.2,24.7c-26,44.4-120.1,79.1-162.8,87.1
			c-5.4-0.4-90,24.7-96.2,7.2c-0.1-0.2-0.2-0.5-0.3-0.8c-5-11.8-14.6-41.8-6.1-55c2.1-3.4,5.5-5.7,10.3-6.3
			c16.7-4.2,70.6-16.6,105.9-34.7c0,0,0,0,0,0c0,0,0,0,0,0c0,0,0,0,0,0c2.4-1.2,4.7-2.5,7-3.8c12.4-7.2,21.5-15.1,24.4-23.8
			c0.1-0.3,0.2-0.6,0.3-0.9c0-0.1,0.1-0.2,0.1-0.4c0.7-2,2.9-10,3.1-10.9"/>
		<path class="st18" d="M243.9,587.6c-26.9,46.5-55.3,100.7-57.7,137.8c-0.6,9.1,0.3,17.2,3.2,23.9c26.5,44.4,120.5,79.4,162.8,87.1
			c20.7,5,49.1,10.6,83.6,13.6c5.9,0.4,9.4-2.8,12.1-7.3c1.5-2.6,2.8-5.7,4-8.6c3.9-10.8,9.6-34.3,2-46.2c-1.7-2.7-4.2-4.8-7.5-6.1
			c-25.6-5.7-37.5-8.2-71.6-20.6c-10.4-4.7-22.7-8.8-34.1-13.7c-14.6-6.4-27.7-14.2-32.9-26.6c-0.2-0.4-0.4-0.9-0.5-1.3
			c-1.2-6.8-1.5-13.8-1.1-20.8"/>
		<path class="st18" d="M322.9,643.9c5.1-12.7,11.3-26.4,19-40.5c3.5-6.4,7-12.4,10.5-18.1"/>
		<path class="st18" d="M383.7,536.9v0.3c5.1-7.1,10.4-14.4,15.9-21.6c-0.5,4.5-1,8.9-1.5,13.4"/>
		<path class="st18" d="M304.2,484.8c49.3-88.5,71.2-144.8,185.4-146.4c0,0,0,0,0,0c0.8,1.9,1.7,3.7,2.6,5.4c0,0,0,0,0,0
			c4.2,7.6,10.1,13.6,16.9,17.9c0.1,0.1,0.3,0.2,0.4,0.3c0.3,0.2,0.5,0.3,0.8,0.5c16.9,10.2,39.1,10.6,56.4,1.3
			c0.4-0.2,0.8-0.4,1.2-0.7c9.4-5.3,17.3-13.6,22-24.7c134.2,5,159.3,79.7,235,228.7c3.8,7.9,8.9,17.9,13.6,26.6"/>
		<path class="st18" d="M286.2,515.5h0.5c-2.6,4.5-5.4,9-8.2,13.6c-4.4,7.7-9.6,16.3-15.2,25.8"/>
		<path class="st18" d="M687.1,585c-1.3-14.1-2.8-28.3-4.3-42.7c-1-9-2-17.9-3.1-26.7c10.8,15.2,21.6,30.4,32.4,45.6"/>
		<g>
			<path d="M308.4,718.4c0.1,0.1,0.2,0.1,0.3,0.1c0.1-0.1,0.2-0.1,0.3-0.1l0.6-0.1c0.4,0,0.8-0.1,1.1-0.1l2.3,0c1.5,0,3,0,4.5,0
				c0.5,0,0.9,0.4,0.9,0.9c0,0.5-0.4,0.9-0.9,0.9c-1.5,0.1-3,0.2-4.5,0.3l-2.3,0.1c-0.4,0-0.8,0-1.1,0l-0.6,0c-0.1,0-0.2,0-0.3-0.1
				c-0.1,0-0.2,0-0.3,0.1c-0.6,0.5-1.4,0.4-1.9-0.2c-0.5-0.6-0.4-1.4,0.2-1.9C307.3,718.1,307.9,718.1,308.4,718.4z"/>
		</g>
		<g>
			<path d="M256.7,819.2c16,9.6,32,19.2,48.1,28.5c16.1,9.3,32.5,18.3,49,26.9c33,17.2,66.8,33.1,101.2,47.5
				c34.4,14.3,69.4,27.3,104.9,38.7c35.5,11.4,71.5,21.2,107.8,29.6c0.2,0,0.3,0.1,0.5,0.2c4,3.8,6.9,8.7,8.6,14
				c1.7,5.3,2.2,10.8,1.8,16.3c-0.4,5.5-1.7,10.9-4,15.9c-2.3,5-5.5,9.6-10.1,13c-0.2,0.1-0.4,0.2-0.6,0.2l0,0
				c-37.8-3.2-75.6-6.6-113.3-11.2c-37.7-4.6-75.3-10.4-112.4-18.6c-37.1-8.1-73.7-18.7-109.2-32.2c-35.6-13.4-70-29.7-103.3-48.1
				c0,0-0.1,0-0.1,0c-22.5-15.2-45.3-29.9-66.9-46.4c-10.8-8.2-21.3-16.9-31-26.5c-4.8-4.8-9.5-9.8-13.8-15.1
				c-4.3-5.3-8.2-11-11.4-17c-3.2-6.1-5.7-12.6-6.8-19.4c-1.2-6.8-0.8-13.8,0.6-20.6c1.4-6.7,3.8-13.2,6.9-19.3
				c3.1-6.1,6.8-11.9,11.2-17.2c4.4-5.3,9.2-10.1,14.6-14.4c1.4-1,2.7-2.1,4.1-3.1l4.3-2.9l4.4-2.6c0.7-0.4,1.5-0.8,2.3-1.2
				c0.8-0.4,1.5-0.8,2.3-1.2c12.4-5.9,26.2-8.6,39.9-8.4c0.5,0,0.9,0.4,0.9,0.9c0,0.5-0.4,0.9-0.9,0.9c-13.4-0.2-26.9,2.5-39.1,8.3
				c-0.8,0.3-1.5,0.8-2.2,1.1c-0.7,0.4-1.5,0.8-2.2,1.2l-4.3,2.6l-4.2,2.8c-1.4,1-2.7,2-4,3.1c-5.2,4.2-10,9-14.3,14.2
				c-4.3,5.2-8,10.9-11,16.8c-3,6-5.4,12.3-6.7,18.9c-1.3,6.5-1.7,13.3-0.6,19.9c1.1,6.6,3.5,12.9,6.6,18.8
				c3.1,5.9,7,11.5,11.2,16.7c4.2,5.2,8.8,10.2,13.6,14.9c9.7,9.4,20.1,18.1,30.9,26.3c21.5,16.4,44.4,31.1,66.8,46.3l-0.1,0
				c33.2,18.3,67.6,34.5,103,47.9c35.5,13.4,72,24,109,32.1c37,8.1,74.5,14,112.2,18.6c37.7,4.6,75.4,8.1,113.3,11.2l-0.7,0.2
				c4.2-3,7.3-7.4,9.4-12.2c2.2-4.8,3.4-10,3.8-15.2c0.4-5.2-0.1-10.5-1.7-15.5c-1.6-5-4.3-9.6-8.1-13.2l0.5,0.2
				c-36.4-8.3-72.4-18.2-108-29.6c-17.8-5.7-35.4-11.8-52.9-18.3c-4.4-1.6-8.8-3.2-13.1-4.9l-6.5-2.5l-6.5-2.6
				c-4.3-1.7-8.7-3.4-13-5.2l-12.9-5.3c-17.2-7.3-34.3-14.8-51.1-22.8c-16.9-8-33.6-16.4-50.1-25.1c-16.5-8.7-32.8-17.8-48.9-27.2
				C288,839.5,272.2,829.7,256.7,819.2z"/>
		</g>
		<g id="Left-Shoe_00000041991018898349879090000002774972983299186612_">
			<path class="st6" d="M645,985.9c1.5-3.3,2.6-5.3,3.3-6.6c0,0,0-0.1,0.1-0.1c0.9-1.4,1.8-2.7,2.8-3.9c0,0,0,0,0,0
				c2.2-2.7,4.9-4.9,8-6.6c15.5-10.3,32.5-2.3,59.4,3.6c8.8,1.9,18.7,3.7,30,4.4c6,0.9,13.5,1.2,21.8,1.4c0,0,0.1,0,0.1,0
				s1,0.2,1.5,0.2c11.4,0.2,36.5-0.2,36.5-0.2h0.1c0,0,23.3,1.8,32.3,3.8c2.5,0.5,4.8,1.2,6.6,1.9v0.2h0.2c3.1,1.1,5.7,2.4,7.7,4.1
				c13.9,15.6,18.7,47.7-5.9,72c-12.8,14.7-107.6,15.3-102.4,15.8c-51.7-0.8-72.2,2.6-85.6-5.8c-11.2-7-15.1-18.4-15.1-18.4
				c-0.7-1.7-1.2-3.1-1.5-4.1"/>
			<g>
				<path d="M662.8,1069.3l11.1,1.3c3.7,0.4,7.4,0.6,11.1,0.7c7.4,0.3,14.8,0.1,22.3-0.4c14.9-1,29.7-2.4,44.6-3.6
					c7.4-0.6,14.9-1.2,22.3-1.8c7.4-0.6,14.9-0.9,22.3-1.7c7.4-0.8,14.7-2,21.9-3.9c3.6-0.9,7.2-1.9,10.6-3.1
					c3.5-1.2,6.9-2.7,10.2-4.3l-0.3,0.2c4-4.6,7.4-9.8,9.9-15.4c2.5-5.6,4.2-11.5,4.9-17.6c0.8-6.1,0.5-12.3-0.6-18.3
					c-1.2-6-3.2-11.9-6.1-17.3l-0.1-0.4c0,0.1,0,0.3,0.1,0.4c0.1,0.1,0.2,0.2,0.1,0.2c0,0-0.1-0.1-0.2-0.2c-0.1-0.1-0.1-0.3-0.1-0.4
					c0-0.5,0.4-0.9,0.9-0.9s0.9,0.4,0.9,0.9c0-0.1,0-0.3-0.1-0.4c-0.1-0.1-0.2-0.2-0.2-0.2s0.1,0.1,0.2,0.2c0.1,0.1,0.1,0.3,0.1,0.4
					l-0.1-0.4c3,5.6,5.1,11.6,6.3,17.8c1.2,6.2,1.5,12.6,0.7,18.9c-0.7,6.3-2.4,12.4-5.1,18.2c-2.6,5.8-6,11.1-10.2,15.9
					c-0.1,0.1-0.2,0.2-0.3,0.2c-3.4,1.6-6.8,3.1-10.4,4.4c-3.6,1.2-7.2,2.2-10.8,3.2c-7.3,1.9-14.7,3.1-22.1,3.9
					c-7.5,0.8-14.9,1.2-22.3,1.7c-7.4,0.5-14.9,1.1-22.3,1.8c-14.9,1.2-29.7,2.6-44.6,3.6c-7.5,0.5-15,0.7-22.5,0.4
					c-3.7-0.1-7.5-0.3-11.2-0.7l-11.2-1.3c-0.5-0.1-0.9-0.6-0.9-1.1C661.7,1069.7,662.2,1069.3,662.8,1069.3L662.8,1069.3
					L662.8,1069.3z"/>
			</g>
			<path class="st6" d="M786.4,1041.3c-106.6,2.3-93.7,27.3-93.9-45.6c0-4.4,3.9-7.7,8.2-7.1c29.1,4.3,58.2,8.6,87.3,12.9
				C803.1,1005.1,801.5,1039.1,786.4,1041.3z"/>
			<path class="st7" d="M786.4,1041.3c0.1-13.3,0.2-26.6,0.2-39.9c-7.1,13.8-14.2,27.5-21.3,41.3c-6.2-15.7-12.4-31.5-18.6-47.2
				c-6.3,16.5-12.6,33.1-18.9,49.6c-5.4-18.3-10.9-36.6-16.3-54.9c-5.1,18.6-10.3,37.1-15.4,55.7"/>
			<path class="st7" d="M786.7,1001.8v39.5c-6.8-14.3-13.6-28.7-20.4-43c-7.1,15.2-14.2,30.4-21.2,45.7
				c-5.4-17.1-10.8-34.1-16.1-51.2c-5.7,17.8-11.3,35.5-17,53.3c-5.6-18.6-11.3-37.2-16.9-55.8"/>
			<g id="lACES_00000047059687789166633210000008649513458570159515_">
				<g>
					<path class="st8" d="M708.8,1042.2c-6.5-7.9-12-16.6-17.2-25.4c-2.6-4.4-5-9-7-13.7c-0.5-1.2-0.9-2.4-1.4-3.6
						c-0.2-0.6-0.4-1.2-0.6-1.9c-0.2-0.6-0.4-1.2-0.5-1.9c-0.6-2.5-1.1-5.2-0.7-7.9c0.3-2.8,2.1-5.3,4.4-6.8c2.3-1.5,5.1-2.2,7.8-2
						c2.7,0.1,5.5,1.2,7.5,3.2c2,2,3.1,4.8,3.3,7.4c0.2,2.7-0.1,5.3-0.6,7.9c-0.5,2.6-1.3,5.1-2.2,7.5c-1.8,4.9-4.3,9.4-7.2,13.7
						c-0.3,0.5-0.9,0.6-1.4,0.3c-0.5-0.3-0.6-0.9-0.3-1.4l0,0l0,0c2.8-4.2,5.2-8.6,7-13.3c0.9-2.3,1.6-4.7,2.1-7.2
						c0.5-2.4,0.8-4.9,0.6-7.3c-0.2-2.4-1.1-4.7-2.7-6.3c-1.6-1.6-3.9-2.6-6.3-2.7c-2.3-0.1-4.8,0.4-6.7,1.7c-2,1.3-3.4,3.3-3.7,5.6
						c-0.4,2.3,0,4.8,0.6,7.2c0.1,0.6,0.3,1.2,0.5,1.8c0.2,0.6,0.4,1.2,0.6,1.8c0.5,1.2,0.8,2.4,1.3,3.5c1.9,4.7,4.3,9.2,6.7,13.6
						C697.7,1025,703.5,1033.4,708.8,1042.2C708.8,1042.1,708.8,1042.2,708.8,1042.2C708.8,1042.2,708.8,1042.2,708.8,1042.2z"/>
				</g>
				<g>
					<path class="st8" d="M712.8,1000.4c-7.1,7.1-14.5,13.8-21.2,21.2c-3.3,3.7-6.5,7.6-9.2,11.7c-1.4,2.1-2.5,4.3-3.4,6.5
						c-0.9,2.3-1.3,4.7-1,6.9c0.4,2.2,1.8,4.3,3.5,5.8c1.8,1.5,4,2.6,6.3,2.9c2.3,0.4,4.7-0.1,6.4-1.5c0.9-0.7,1.6-1.6,2.1-2.6
						c0.5-1,0.8-2.2,1.1-3.3c0.5-2.3,0.5-4.8,0.4-7.2c-0.1-2.4-0.5-4.9-0.9-7.3c-0.9-4.9-2.4-9.6-4.2-14.2l0,0
						c-0.2-0.5,0-1.1,0.5-1.3c0.5-0.2,1.1,0,1.3,0.5l0,0c1.9,4.7,3.4,9.6,4.4,14.6c0.5,2.5,0.8,5,0.9,7.6c0.1,2.6,0.1,5.2-0.5,7.7
						c-0.3,1.3-0.7,2.6-1.3,3.8c-0.6,1.2-1.5,2.3-2.6,3.2c-2.2,1.8-5.2,2.3-7.8,1.8c-2.7-0.4-5.1-1.7-7.2-3.4
						c-2-1.7-3.6-4.1-4.1-6.8c-0.4-2.7,0.2-5.4,1.1-7.8c1-2.4,2.2-4.7,3.6-6.8c2.8-4.3,6.1-8.1,9.5-11.8
						C697.5,1013.3,704.8,1006.4,712.8,1000.4C712.8,1000.3,712.8,1000.3,712.8,1000.4C712.8,1000.3,712.8,1000.3,712.8,1000.4z"/>
				</g>
			</g>
		</g>
		<g>
			<path d="M401.3,1010.2c0.2,3.5,0,6.9,0.3,10.3c0.3,3.4,0.9,6.8,1.8,10c1.8,6.5,5.3,12.6,10.4,17l-0.7-0.2
				c20.9-1.6,41.9-3.3,62.8-5.3c10.5-1,20.9-2,31.4-3.1c10.4-1.1,20.9-2.3,31.3-3.5l0.1,1.9l-0.4,0c-0.5,0-0.9-0.4-0.9-0.9
				c0-0.5,0.4-0.9,0.9-0.9l0.4,0c0.5,0,0.9,0.4,0.9,0.9c0,0.5-0.4,0.9-0.8,0.9c-10.4,1.3-20.9,2.5-31.3,3.7
				c-10.5,1.1-20.9,2.1-31.4,3.1c-20.9,1.9-41.9,3.7-62.8,5.3c-0.3,0-0.5-0.1-0.7-0.2c-2.7-2.3-5-5.1-6.8-8.2
				c-1.8-3.1-3.2-6.4-4.1-9.8c-0.9-3.4-1.4-6.9-1.5-10.5C399.9,1017.1,400,1013.5,401.3,1010.2z"/>
		</g>
		<g>
			<path d="M893.2,723.9c8.6,1.1,17.2,2.3,25.7,4.3c4.2,1,8.4,2.2,12.5,3.9c2,0.9,4,2,5.8,3.3c1.8,1.2,3.6,2.4,5.3,3.8
				c3.5,2.6,6.8,5.4,10.1,8.3c3.2,3,6.3,6,9.2,9.3c2.9,3.3,5.6,6.7,8,10.3c1.3,1.8,2.4,3.7,3.5,5.5c1,1.9,2.2,3.8,3.1,5.8
				c1,1.9,1.8,4,2.7,6c0.7,2.1,1.5,4.1,2.1,6.2c1.2,4.2,2.2,8.5,2.5,12.9c0.4,4.4,0.4,8.8-0.2,13.2c-0.6,4.4-1.7,8.7-3.2,12.8
				c-0.4,1-0.8,2.1-1.2,3.1l-1.4,3c-1.1,1.9-2.1,3.9-3.3,5.7c-1.2,1.9-2.5,3.6-3.9,5.3c-0.7,0.8-1.4,1.7-2.2,2.5
				c-0.4,0.4-0.7,0.8-1.1,1.2l-1.2,1.2c-6.1,6.2-12.3,12.2-18.7,18c-25.5,23.5-53,44.7-82.3,63.3c-3.6,2.4-7.4,4.6-11.1,6.9
				c-3.8,2.2-7.6,4.2-11.4,6.2c-7.6,4.1-15.3,8-23.1,11.9c-15.5,7.7-31.3,14.9-47.2,21.6c-0.5,0.2-1,0-1.2-0.5c-0.2-0.5,0-1,0.5-1.2
				c15.9-6.7,31.6-13.8,47.1-21.5c7.7-3.8,15.4-7.8,23-11.9c3.8-2.1,7.6-4.1,11.3-6.2c3.7-2.3,7.4-4.5,11-6.8
				c29.1-18.5,56.6-39.7,82-63.1c6.3-5.8,12.6-11.9,18.6-18l1.1-1.1c0.4-0.4,0.7-0.8,1.1-1.2c0.7-0.8,1.4-1.6,2.1-2.4
				c1.3-1.7,2.6-3.4,3.7-5.2c1.2-1.7,2.2-3.6,3.2-5.5l1.4-2.9c0.5-1,0.8-2,1.2-3c1.5-4,2.5-8.1,3.1-12.3c0.5-4.2,0.6-8.5,0.2-12.7
				c-0.4-4.2-1.3-8.4-2.5-12.5c-0.6-2.1-1.3-4-2.1-6.1c-0.8-2-1.6-3.9-2.6-5.8c-0.9-1.9-2-3.8-3-5.7c-1.1-1.8-2.2-3.7-3.5-5.4
				c-1.2-1.8-2.5-3.5-3.8-5.2c-0.6-0.9-1.3-1.7-2-2.5c-0.7-0.8-1.3-1.7-2.1-2.5c-2.8-3.3-5.9-6.3-9-9.2c-3.2-2.9-6.4-5.7-9.9-8.2
				c-1.7-1.3-3.5-2.5-5.2-3.8c-1.7-1.3-3.5-2.3-5.5-3.2c-3.9-1.7-8-2.9-12.2-4c-8.4-2.1-16.9-3.3-25.5-4.4c-0.4,0-0.6-0.4-0.6-0.7
				C892.5,724.1,892.8,723.9,893.2,723.9L893.2,723.9z"/>
		</g>
		<g>
			<path d="M767.2,719.1c0.1-0.4,0.1-0.6,0.2-0.6c0.1-0.1,0.1-0.1,0.2-0.1c0.1-0.1,0.2-0.1,0.3-0.2c0.2,0,0.4,0,0.6,0l1.2,0
				c0.8,0,1.6,0,2.4,0.1c0.5,0.1,0.9,0.5,0.8,1c-0.1,0.4-0.4,0.8-0.8,0.8c-0.8,0.1-1.6,0.1-2.5,0.1l-1.2,0c-0.2,0-0.4,0-0.6,0
				c-0.1,0-0.2-0.1-0.3-0.2c-0.1,0-0.1-0.1-0.2-0.1C767.3,719.7,767.2,719.5,767.2,719.1z"/>
		</g>
		<g>
			<path d="M539.4,954.3c13.5-4.8,26.8-9.9,40.1-15.1c13.3-5.2,26.6-10.5,39.8-16c26.4-10.9,52.6-22.3,78.5-34.3
				c26-11.9,51.7-24.4,77.1-37.4c25.5-12.9,50.7-26.3,75.9-39.9c0,0,0.1,0,0.1,0c0,0,0,0.1,0,0.1c-24.6,14.6-49.7,28.3-75.1,41.4
				c-25.4,13.1-51.1,25.6-77.1,37.6c-26,12-52.2,23.4-78.7,34.3c-13.2,5.4-26.5,10.7-39.8,15.9c-13.3,5.2-26.7,10.1-40.1,15.2
				c-0.5,0.2-1.1-0.1-1.3-0.6C538.6,955,538.9,954.5,539.4,954.3C539.4,954.3,539.4,954.3,539.4,954.3z"/>
		</g>
		<g id="Right-Shoe_00000020381879723697361170000010060499416018450063_">
			<path class="st6" d="M307.1,978.2c-25.8,0.5-58.4-0.7-75.7,5.5l0,0c-3.1,1.1-5.7,2.5-7.7,4.1c-13.9,15.6-18.7,47.7,5.9,72
				c12.8,14.7,107.6,15.3,102.4,15.8c73.8-1.2,84.1,6.2,100.8-24.2c0.6-1.4,1.2-3,1.7-4.8"/>
			<g>
				<path d="M232.3,984.2c-2.9,5.4-4.9,11.3-6,17.3c-1.2,6-1.3,12.2-0.6,18.3c0.7,6.1,2.4,12,4.9,17.6c2.5,5.6,5.8,10.8,9.8,15.4
					l-0.4-0.3c3.3,1.6,6.7,3,10.1,4.3c3.4,1.2,7,2.2,10.6,3.1c7.1,1.8,14.4,3,21.7,3.8c7.3,0.8,14.7,1.3,22.1,1.9
					c3.7,0.3,7.4,0.7,11.1,1.1l11,1.3c7.3,0.8,14.7,1.3,22.1,1.9c7.4,0.5,14.8,1,22.2,1.3c7.4,0.3,14.8,0.5,22.2,0.5
					c3.7,0,7.4-0.1,11.1-0.3c3.7-0.2,7.4-0.4,11.1-0.5c0,0,0.1,0,0.1,0.1c0,0,0,0.1-0.1,0.1c-3.7,0.5-7.4,0.9-11.1,1.4
					c-3.7,0.5-7.4,0.7-11.1,0.9c-7.4,0.3-14.9,0.2-22.3,0c-7.4-0.3-14.8-0.7-22.2-1.2c-7.4-0.5-14.8-1-22.2-1.8l-11.1-1.2
					c-3.7-0.4-7.4-0.7-11-1c-7.4-0.6-14.8-1-22.2-1.8c-7.4-0.8-14.8-2-22.1-3.9c-3.6-0.9-7.2-1.9-10.8-3.2c-3.6-1.2-7-2.8-10.4-4.4
					c-0.1-0.1-0.3-0.2-0.4-0.3c-4.2-4.8-7.6-10.2-10.2-16c-1.3-2.9-2.4-5.9-3.2-8.9c-0.9-3-1.4-6.2-1.8-9.3
					c-0.7-6.3-0.5-12.7,0.8-18.9c1.2-6.2,3.4-12.2,6.4-17.8c0.3-0.5,0.9-0.7,1.4-0.4C232.4,983.1,232.6,983.7,232.3,984.2z"/>
			</g>
		</g>
		<g>
			<path d="M382.3,889.2c12.3,5.1,25,9.2,38,12.4c12.9,3.2,26.1,5.4,39.4,6.6c6.6,0.6,13.3,1,20,1.1c6.7,0.1,13.3-0.1,20-0.5
				c13.3-0.8,26.5-2.6,39.6-5.4l0,0l0,0c0.1,0,0.3,0,0.4,0c13,2.8,26.2,4.7,39.4,5.6c13.3,0.9,26.6,0.8,39.8-0.4
				c6.6-0.6,13.2-1.4,19.8-2.4c6.6-1.1,13.1-2.4,19.5-4c12.9-3.1,25.6-7.2,37.9-12.2c0.5-0.2,1,0,1.2,0.5c0.2,0.5,0,1-0.5,1.2
				c-12.4,5.1-25.1,9.2-38.1,12.3c-6.5,1.6-13.1,2.9-19.7,4c-6.6,1.1-13.2,1.9-19.9,2.5c-13.3,1.2-26.7,1.3-40.1,0.4
				c-13.4-0.9-26.6-2.7-39.7-5.6l0.4,0l0,0c-13.1,2.8-26.5,4.6-39.9,5.4c-6.7,0.4-13.4,0.5-20.1,0.4c-6.7-0.1-13.4-0.5-20.1-1.1
				c-13.4-1.2-26.6-3.5-39.6-6.7c-13-3.2-25.8-7.5-38.2-12.6c-0.4-0.2-0.6-0.6-0.4-1C381.5,889.2,381.9,889,382.3,889.2z"/>
		</g>
		<g id="Hands_00000181076586268420788100000005110650820930107525_">
			<path class="st6" d="M569.2,823.4C569.3,823.3,569.3,823.3,569.2,823.4c4.1-0.4,5.2-0.4,6.2,0.4c2.3,1.8,3,6.2,1.3,8.7
				c-1.1,1.7-3.1,2.2-8.2,3c-6.3,0.9-9.5,1.2-13.1,1.6c-5.3,0.6-10.6,1.2-15.9,1.9c0,0-0.8,0-0.8,0h0c-0.7,0.1-1.4,0.2-2.2,0.3
				c-8.9,1-17.8,2.1-26.6,3.2c1.2,0.1,3,0.3,5.1,0.4c3.8,0.3,8.8,0.6,14.3,0.8c0.2,0,0.4,0,0.6,0c0.2,0,0.4,0,0.6,0
				c0.2,0,0.5,0,0.8,0c0.2,0,0.5,0,0.7,0c0.4,0,0.7,0,1.1,0c0.4,0,0.8,0,1.2,0h0.6c0,0,0.9,0.1,1.4,0.1c0.5,0,1.5,1.1,1.5,1.1h1.6
				c0,0,2.2-1.1,3.3-1.1c1,0,1.9,0,2.9,0c0.5,0,1.1,0,1.6,0c0.7,0,1.4,0,2.1,0c1.1-0.1,1.9-0.1,2.6-0.2c6.8-1,10-2.7,12.2-0.9
				c0.1,0.1,0.3-0.1,0.3-0.1h0.2c0.5,0.5,0.8,1.1,1.1,1.8c0.6,1.6,0.5,3.7-0.3,5.2c-0.9,1.8-3.2,2.4-7.8,3.7
				c-6.2,1.7-12.2,2.4-17.9,2.4c-0.4,0-0.8,0-1.1,0c0,0,0.2,0,0.2,0c-5.3,0-17.8,0.1-27.5-0.1c-7.9-0.1-13.9-0.3-19.2-0.7
				c-9.4-0.8-23-3.4-39.6-11.3c-1.6-0.3-3.2-0.5-4.7-0.8"/>
			<path class="st6" d="M454,787.9c0.3-0.1,0.7-0.1,1-0.2c0.5-0.1,1-0.3,1.5-0.4c2.2-0.6,4.2-1.4,5.9-2.1c1.3-0.5,2.4-1.1,3.3-1.6
				c5.2-2.1,9.4-3.8,12-5c3.4-1.5,5.1-2.2,6.3-2.6c0.7-0.2,1.4-0.3,2.1-0.4c1.9-0.1,3.4,0.1,5.3,0.2c1.1,0.1,2.5,0.1,4.2,0
				c1.9-0.2,3.3-0.4,4.3-0.6c9.4-2.1,13-6.8,16.6-4.6c2.5,1.5,3.4,5.1,2.8,7.8c-1.1,4.8-7.2,6.9-10.6,8.1c-5.9,2-8.2,0.6-14,2.8
				c-1.9,0.7-3.6,1.6-5,2.5c-1.1,0.7-2,1.4-2.8,2c3.6,0,7,0,10.2-0.1c6.1-0.2,11.5-0.6,16.1-1c0.8-0.1,1.5-0.1,2.2-0.2
				c1.6-0.1,3.6-0.3,5.9-0.6c0.7-0.1,1.5-0.2,2.3-0.3c0.4,0,0.7-0.1,1.1-0.1c2.2-0.3,4.6-0.6,7.3-1c2.2-0.3,4.2-0.7,6-1
				c0.4-0.1,0.8-0.1,1.2-0.2c0.1,0,0.2,0,0.4-0.1c4.1-0.7,6.7-1.2,6.7-1.2c2.5-0.5,4.6-0.9,6.4-1.3c3.8-0.8,6.4-1.3,8.2-1.3
				c1.5,0,2.5,0.4,3.3,1.2c1.3,1.3,1.9,3.8,1.2,5.8c0,0.1-0.1,0.2-0.1,0.4c0,0,0,0,0,0c-0.1,0.1-0.1,0.3-0.2,0.4
				c-1.2,2.3-4.1,3.3-9,4.4c-0.4,0.1-0.9,0.2-1.3,0.3c-0.1,0-0.2,0-0.3,0.1c-0.3,0.1-0.6,0.1-0.9,0.2c-2.4,0.5-5.2,1.1-8.2,1.7
				c-1.6,0.3-3.2,0.6-4.9,0.9c-0.4,0.1-0.8,0.1-1.2,0.2h-0.7c-0.1,0-0.1,0-0.2,0c-1,0.2-2,0.4-3.1,0.5c-1.4,0.2-2.7,0.4-4,0.7
				c-5,0.8-8.9,1.5-11.9,2c-7.4,1.4-9.6,2-9.5,2.3c0.1,0.7,14.6-0.4,25.6-0.7c0.9,0,1.9,0,3-0.1h0.4h0c0,0,0,0,0,0
				c2.8-0.1,6.2-0.3,10.3-0.6c4.3-0.3,7.3-0.6,10.4-1c0.9-0.1,1.8-0.3,2.8-0.4c4.9-0.9,8.8-2.1,11.8-3.1c0.1,0,0.2-0.1,0.3-0.1
				c5-1.6,7.7-2.7,9.8-1.1c2,1.6,2.5,4.9,1.9,7.3c-1.8,7-14.4,9.4-25.3,11.5c-3.2,0.6-5.5,0.9-10.2,1.5c-4.5,0.6-8.2,0.9-11.7,1.1
				c-3.3,0.2-6.5,0.4-10.2,0.8c-7.6,0.7-14.8,1.3-20.8,1.8c0.2,0,0.3,0.1,0.5,0.1c0,0,0.9,0,0.9,0"/>
			<path class="st6" d="M539.4,825.8c0,0,0.2,0,0.2,0c0,0,0,0,0,0S539.4,825.8,539.4,825.8"/>
			<path class="st6" d="M539.4,800.9h0.2l0.1,1.2h0c0,0,2.1-0.7,3.2-0.6c1,0.2,3,0.6,3,0.6h0c5.8,1,10.2,1.7,13.6,2.3"/>
			<path class="st6" d="M519.5,804c3,0.4,5.9,0.7,10.1,1c4,0.3,7.2,0.5,9.9,0.6h0h0c0,0-0.1,0-0.1,0"/>
			<path class="st6" d="M539.6,820.6c3.2,0.2,6.3,0.4,10,0.7c7.3,0.6,14.3,1.2,20.2,1.8c-0.1,0-0.3,0.1-0.5,0.1c0,0,0,0,0,0
				c-9.6,2.5-17.5,3.1-23.1,3.1c-2.1,0-4.3-0.1-6.5-0.4h0h0h-0.1c-3,0-5.7-0.2-7.5-0.4c-4.8-0.4-8.8-0.9-11.8-1.3
				c-1.7-0.1-4.4-0.4-7.8-0.7c-1-0.1-1.8-0.2-2.6,0h-0.3"/>
			<path class="st6" d="M565.6,792.7c0.1,0,0.2,0,0.3,0c0.3,0,0.7,0.1,1,0.1c1.8,0.2,3.7,0.3,5.7,0.4c0.1,0,0.2,0,0.4,0
				c1.3,0.1,2.7,0.2,4.1,0.2c1.7,0.1,3.5,0.2,5.4,0.2h0c0,0,6.2,0.2,9.5,0.2c-0.5-0.4-1.2-0.9-2-1.4c-0.1-0.1-0.4,0.1-0.4,0.1h0
				c-1.4-0.9-3.2-1.9-5.4-2.7c-1-0.4-1.9-0.6-2.7-0.8c-0.4-0.1-0.8-0.2-1.2-0.3c-1.1-0.2-2.2-0.3-3.2-0.4c-1-0.1-2.1-0.2-3.2-0.4
				c-1.1-0.2-2.3-0.5-3.8-1c-3.4-1.2-9.5-3.3-10.6-8.1c-0.5-2.1,0-4.6,1.3-6.4c0.4-0.6,0.9-1.1,1.5-1.4c1.4-0.9,2.8-0.7,4.6,0
				c0.1,0.1,0.2,0.1,0.3,0.1c0,0,0.5,0,0.6,0c1.7,0.7,3.7,1.8,6.4,2.8c1.3,0.5,2.9,1,4.6,1.4c0.9,0.2,2.1,0.4,3.8,0.6h0.5
				c0.1,0,0.2,0,0.2,0c0.8,0,1.5,0.1,2.2,0.1c3.2,0,4.8-0.5,7.3-0.3c1,0.1,1.8,0.2,3,0.7c0.8,0.3,1.9,0.7,3.3,1.4c0,0,0,0,0,0
				c0.5,0.2,1,0.4,1.5,0.6c0.2,0.1,0.4,0.2,0.5,0.2c0.9,0.4,1.9,0.8,3,1.3c0,0,0.1,0,0.1,0c0.7,0.3,1.5,0.6,2.3,1
				c1.1,0.4,2.2,0.9,3.5,1.4c1,0.4,2,0.8,3.1,1.3c1.3,0.7,2.8,1.4,4.6,2.1c1,0.4,2.1,0.8,3.2,1.2c0.4,0.1,0.9,0.3,1.3,0.4
				c0.2,0.1,0.5,0.1,0.7,0.2c0.4,0.1,0.8,0.2,1.1,0.3"/>
			<path class="st6" d="M630.6,842.7c-1.4,0.2-2.7,0.4-4.1,0.7c-16.6,8-30.2,10.5-39.6,11.3c-5.3,0.5-11.3,0.6-19.2,0.7
				c-9.7,0.2-22.2,0.1-27.5,0.1c-0.4,0-0.8,0-1.1,0c-0.1,0,0.3,0,0.3,0"/>
			<path class="st6" d="M539.6,789.3c-0.4-0.1-0.8-0.2-1.2-0.2c-0.4-0.1-0.8-0.1-1.2-0.2c-2.9-0.5-4.6-0.8-4.6-0.8
				c-2.5-0.5-4.6-0.9-6.4-1.3c-0.1,0-0.2,0-0.2,0c-0.4-0.1-0.7-0.1-1-0.2c-1.4-0.3-2.7-0.5-3.7-0.7c-3.5-0.6-5.2-0.4-6.5,0.9
				c-1.4,1.4-1.9,4.1-1.1,6.2"/>
			<path class="st6" d="M539.4,838.9h0.1h0c0.8-0.1,1.6,0,2.3,0.1c9.4,1.1,18.8,2.2,28.1,3.4c-1.3,0.1-3.1,0.3-5.4,0.1h-0.2"/>
			<path class="st6" d="M514.6,842.8c0.1-0.1,0.2-0.2,0.3-0.3c2.2-1.8,5.4-0.1,12.2,0.9c0.8,0.1,1.8,0.2,3.3,0.2c0.2,0,0.4,0,0.7,0
				c0.2,0,0.5,0,0.8,0c0.2,0,0.5,0,0.8,0c0.7,0,1.6,0,2.4-0.1h0.1c0.4,0.1,0.9,0.1,1.4,0.1c0.5,0,1,0,1.5,1.1h0.6h1
				c1.1-1.1,2.2-1.1,3.3-1.1c1,0,1.9,0,2.9,0c0.5,0,1.1,0,1.6,0c0.7,0,1.4,0,2.1,0"/>
		</g>
		<g id="Head_00000008122561947756690060000006006895930136197250_">
			<path class="st6" d="M415.3,192.4c8.7,136.4,239.9,137.1,248.5,0.6"/>
			<g>
				<path d="M415.1,191.4c-0.1-0.2-0.2-0.4-0.3-0.5c-0.1-0.1-0.1-0.1,0-0.3l0.4-1.5l0.8-3.1c0.6-2.1,1.2-4.1,1.8-6.1
					c1.3-4.1,2.8-8.1,4.5-12c3.4-7.8,7.6-15.3,12.4-22.4c0.1-0.2,0.3-0.3,0.5-0.4l0,0c4.5-1.6,8.8-3.9,12.7-6.8
					c1.9-1.5,3.7-3.1,5.4-4.8c1.7-1.7,3.2-3.6,4.6-5.6c2.7-4,5-8.3,6.5-12.8c1.5-4.5,2.3-9.4,1.6-14l0,0c-0.1-0.5,0.3-1.1,0.8-1.2
					c0.1,0,0.2,0,0.3,0c11.9,2.2,24,3.6,36.1,4.5c12.1,0.9,24.2,1.4,36.4,1.5c12.1,0.1,24.3-0.2,36.4-1c12.1-0.8,24.2-2,36.1-4.1
					c0.5-0.1,1.1,0.3,1.2,0.8c0,0.1,0,0.2,0,0.3c-0.7,4.6,0.2,9.4,1.7,13.9c1.6,4.5,3.9,8.8,6.6,12.7c2.8,3.9,6,7.5,9.7,10.5
					c3.7,3,7.9,5.4,12.5,6.3l0,0c0.3,0.1,0.5,0.2,0.6,0.4c9.8,14.2,16.7,30.3,20.3,47.1l-1.8-0.3c5.7-8.5,10-18,12.7-27.9
					c1.3-5,2.3-10,2.9-15.1c0.2-1.3,0.2-2.6,0.3-3.8l0.1-1.9c0-0.6,0-1.3,0-1.9l0-3.8l-0.2-3.8l-0.1-1.9l-0.2-1.9
					c-0.2-1.3-0.2-2.6-0.4-3.8l-0.6-3.8c-0.2-1.3-0.5-2.5-0.8-3.8c-1.1-5-2.7-9.9-4.6-14.7c-3.9-9.5-9.3-18.4-16-26.2
					c-0.4-0.4-0.3-1,0.1-1.4l0,0c2-1.8,3.6-4.3,5-6.7c1.4-2.5,2.7-5.1,3.8-7.8c1.1-2.7,2-5.4,2.7-8.2c0.7-2.8,1.2-5.6,1-8.3l1.4,0.8
					c-1.2,0.5-2.4,0.6-3.6,0.8c-1.2,0.1-2.3,0.2-3.4,0.2c-2.3,0.1-4.6,0-6.8-0.1c-4.5-0.2-9-0.7-13.5-1.3c-4.5-0.6-8.9-1.4-13.4-2.4
					c-2.2-0.5-4.4-1.1-6.6-1.8c-1.1-0.4-2.2-0.8-3.2-1.3c-1.1-0.5-2.1-1.1-3.1-2.2c-0.2-0.2-0.2-0.5-0.2-0.8l0-0.1
					c0.1-0.2,0.2-0.4,0.4-0.6c0.2-0.1,0.2-0.1,0.3-0.1c0.2-0.1,0.3,0,0.3,0c0.2,0,0.2,0,0.3,0c0.1,0,0.3,0.1,0.4,0.1l0.6,0.2
					l1.1,0.4l2.2,0.8c1.5,0.5,2.9,0.9,4.4,1.4c3,0.8,6,1.4,9,1.7c3,0.3,6.1,0.3,9.1-0.2c2.9-0.5,5.9-1.6,8.2-3.3
					c5-3.4,8.4-8.8,9.7-14.7c0.7-2.9,0.8-6,0.6-9c-0.3-3-1-6-2.3-8.6l1.6,0.2c-5.5,5.7-12.1,10.5-19.5,13.5
					c-3.7,1.5-7.7,2.4-11.7,2.7c-4.1,0.2-8-0.4-11.9-1c-7.8-1.4-15.4-3.2-23-4.8l-23-4.9c0,0-0.1,0-0.1,0
					c-6.6-1.8-13.6-2.6-20.5-2.8c-7-0.2-13.9,0-20.9,0.7c-13.9,1.3-27.6,4.2-40.7,9c-6.5,2.4-12.9,5.2-18.9,8.7
					c-6,3.5-11.7,7.6-16.6,12.4c-4.9,4.9-9,10.5-11.9,16.8c-2.9,6.3-4.4,13.1-4.7,20c0,0.3-0.2,0.6-0.4,0.8
					c-8.6,6.5-16,14.5-21.7,23.6c-2.9,4.5-5.3,9.3-7.3,14.3c-2,5-3.4,10.2-4.5,15.4c-0.2,0.7-0.3,1.3-0.3,2l-0.3,2l-0.3,2
					c-0.1,0.7-0.2,1.3-0.2,2c-0.2,2.7-0.4,5.4-0.4,8c-0.1,2.7,0.2,5.4,0.3,8c0.1,1.3,0.3,2.7,0.5,4c0.1,1.3,0.4,2.7,0.7,4
					c1,5.3,2.4,10.5,4.3,15.5l1.5,3.7c0.6,1.2,1.1,2.5,1.6,3.7c0.6,1.2,1.2,2.4,1.8,3.6c0.3,0.6,0.6,1.2,1,1.8l0.2,0.4
					c0.1,0.1,0.1,0.1,0,0.2C415.4,190.9,415.1,191.1,415.1,191.4z M415.4,193.4c-0.4-0.2-0.9-0.6-1.3-1.1c-0.2-0.2-0.4-0.5-0.5-0.7
					l-0.3-0.5c-0.3-0.6-0.7-1.2-1-1.8c-0.6-1.2-1.3-2.4-1.8-3.7c-0.6-1.2-1.1-2.5-1.7-3.8l-1.5-3.8c-1.9-5.1-3.4-10.5-4.4-15.8
					c-0.3-1.3-0.5-2.7-0.7-4.1c-0.2-1.4-0.4-2.7-0.5-4.1c-0.2-2.7-0.4-5.5-0.4-8.2c-0.1-2.7,0.2-5.5,0.4-8.2c0-0.7,0.1-1.4,0.2-2
					l0.3-2l0.3-2c0.1-0.7,0.2-1.4,0.4-2c1.1-5.4,2.6-10.7,4.6-15.8c2.1-5.1,4.6-10,7.5-14.6c5.9-9.3,13.4-17.5,22.2-24.1l-0.4,0.8
					c0.3-7.1,1.9-14.2,4.9-20.7c3-6.5,7.2-12.4,12.3-17.3c5.1-5,10.8-9.2,17-12.7c6.1-3.5,12.6-6.4,19.2-8.8
					c13.3-4.8,27.2-7.7,41.2-9.1c7-0.7,14.1-0.9,21.1-0.7c7.1,0.2,14.1,1,21,2.9l-0.1,0l23,4.9c7.7,1.6,15.3,3.4,23,4.8
					c3.8,0.7,7.7,1.2,11.4,1c3.8-0.3,7.5-1.2,11.1-2.6c7.1-2.8,13.4-7.5,18.8-13l0,0c0.4-0.4,1-0.4,1.4,0c0.1,0.1,0.1,0.2,0.2,0.3
					c1.5,3,2.2,6.2,2.5,9.4c0.3,3.2,0.1,6.5-0.7,9.6c-1.4,6.3-5.1,12.1-10.5,15.8c-2.7,1.9-5.8,3-9,3.6c-3.2,0.6-6.4,0.6-9.6,0.3
					c-3.2-0.3-6.3-0.9-9.3-1.8c-1.5-0.4-3-0.9-4.5-1.4l-2.2-0.8l-1.1-0.4l-0.5-0.2l-0.2,0c0,0-0.1,0,0,0c0,0,0,0,0.2,0
					c0.1,0,0.1,0,0.2-0.1c0.2-0.1,0.3-0.3,0.4-0.5l-0.2-0.8c0.5,0.6,1.5,1.2,2.4,1.6c1,0.5,2,0.8,3,1.2c2.1,0.7,4.2,1.3,6.4,1.8
					c4.3,1,8.8,1.7,13.2,2.3c4.4,0.6,8.9,1,13.3,1.3c2.2,0.1,4.5,0.2,6.7,0.1c1.1,0,2.2-0.1,3.3-0.2c1.1-0.1,2.2-0.3,3-0.6l0,0
					c0.5-0.2,1.1,0,1.3,0.5c0,0.1,0.1,0.2,0.1,0.3c0.2,3.1-0.4,6.1-1.1,9c-0.7,2.9-1.7,5.7-2.8,8.4c-1.1,2.7-2.4,5.4-3.9,8
					c-1.5,2.6-3.1,5.1-5.4,7.2l0.1-1.4c6.8,8,12.3,17,16.3,26.7c2,4.8,3.5,9.9,4.7,15c0.3,1.3,0.6,2.5,0.8,3.8l0.6,3.9
					c0.2,1.3,0.3,2.6,0.5,3.9l0.2,2l0.1,2l0.2,3.9l0,3.9c0,0.7,0,1.3,0,2l-0.1,2c-0.1,1.3-0.1,2.6-0.3,3.9
					c-0.5,5.2-1.6,10.4-2.9,15.4c-2.8,10.1-7.2,19.8-13,28.5c-0.3,0.5-0.9,0.6-1.4,0.3c-0.2-0.2-0.4-0.4-0.4-0.6
					c-3.5-16.6-10.3-32.4-20-46.4l0.6,0.4c-5-1-9.5-3.6-13.4-6.7c-3.9-3.1-7.3-6.8-10.1-10.9c-2.9-4.1-5.2-8.5-6.9-13.2
					c-1.6-4.7-2.6-9.8-1.8-14.9l1.2,1.1c-12,2.1-24.2,3.3-36.3,4.1c-12.2,0.8-24.3,1.1-36.5,1c-12.2-0.1-24.4-0.5-36.5-1.5
					c-12.1-0.9-24.3-2.3-36.3-4.6l1.2-1.2c0.8,5.1-0.1,10.2-1.6,15c-1.6,4.8-3.9,9.2-6.8,13.4c-1.4,2.1-3,4-4.8,5.8
					c-1.7,1.8-3.6,3.5-5.6,5c-4,3-8.5,5.4-13.2,7.1l0.5-0.4c-4.8,6.9-9,14.3-12.4,22c-1.7,3.9-3.2,7.8-4.6,11.8c-0.7,2-1.3,4-1.8,6
					c-0.3,1-0.5,2-0.8,3.1l-0.3,1.5c-0.1,0.3-0.2,0.8-0.4,1.2C415.9,192.8,415.6,193.1,415.4,193.4z"/>
			</g>
			<path class="st6" d="M589.2,288c-0.1,8.1-0.1,16.4,0,24.8c0.1,8.7,0.2,17.3,0.5,25.8c-8.8,19.7-28.3,32.5-49.9,32.6
				c-21.7,0.1-41.5-12.7-50.3-32.6c0-17.4,0-34.7,0.1-52.1"/>
			<path class="st6" d="M406.1,174.4c-28.7,11.5-8.6,71.4,21.4,61.5"/>
			<path class="st6" d="M652.7,235.8c30,10,50.1-50,21.4-61.5"/>
			<path class="st6" d="M503.2,174.1c0.2,22.4-23.9,22.4-23.7,0C479.2,151.8,503.4,151.8,503.2,174.1z"/>
			<path class="st6" d="M599.4,174.1c0.2,22.4-23.9,22.4-23.7,0C575.5,151.8,599.7,151.8,599.4,174.1z"/>
			<path class="st6" d="M569.2,239.2c-4.7,33.4-54.3,33.4-59,0C526.2,236.1,553.1,236.1,569.2,239.2z"/>
		</g>
		<g>
			<path d="M547.5,180.6c1.7,3.5,3.4,6.9,5,10.3c0.8,1.7,1.6,3.5,2.3,5.3c0.7,1.8,1.3,3.7,1.6,5.7c0.1,1,0.2,2.1,0,3.2
				c-0.2,1.1-0.7,2.2-1.5,3c-0.8,0.8-1.8,1.4-2.7,1.8c-1,0.3-2,0.6-3,0.7c-2,0.3-3.9,0.2-5.9,0c-1.9-0.2-3.8-0.5-5.7-0.9
				c-0.1,0-0.1-0.1-0.1-0.2c0-0.1,0.1-0.1,0.2-0.1c1.9,0,3.8,0.1,5.7,0c1.9,0,3.8-0.2,5.6-0.5c0.9-0.2,1.8-0.4,2.6-0.7
				c0.8-0.4,1.5-0.8,2-1.4c1-1.2,1.2-2.9,1-4.6c-0.2-1.8-0.8-3.6-1.4-5.3c-0.6-1.8-1.3-3.6-1.9-5.3c-1.4-3.6-2.7-7.2-3.7-10.9
				C547.3,180.6,547.4,180.6,547.5,180.6C547.4,180.6,547.5,180.6,547.5,180.6z"/>
		</g>
	</g>
</g>
<g id="sooz">
	<g id="Color">
		<path class="st19" d="M854.8,614.1c-0.7,1.4-3.2,6.2-12,12.5c-4,2.8-10.1,6.6-18.6,9.6c-0.1,3.3-0.4,7.3-1.2,11.8
			c-1,5.4-2.3,9.7-3.3,12.4c-1,2.8-2.9,7.6-6.1,13.2c-1.5,2.5-5.7,9.3-13,16.5c-8.8,8.6-18,13.8-25,16.9c-0.6,1.1-1.6,2.7-2.9,4.7
			c-2.7,4-5.3,6.8-6.9,8.7c-5.2,6.2-10.5,11.5-20.9,21.9c-1.1,1.1-2.1,2.1-3,3c-6.5,3-15.7,7.1-25.9,11.1c-7.9,3.1-13.5,5-14.8,5.4
			c-2.9,1-5.3,1.7-8.6,2.8c-5.7,1.8-10.4,3.2-13.9,4.2c-21,6.2-33.4,9-35.8,9.5c-0.6,0.1-1.2,0.3-1.6,0.4c-0.5,0.1-2.4,0.6-6.2,1.6
			c-4.8,1.3-6,1.7-7.3,2.5c-2,1.2-3.2,2.8-3.9,3.8c-1.6-0.5-2.9-0.9-3.8-1.3c-1.4-0.5-2.4-1-3.5-1.4c-1.3-0.6-1.8-0.8-3.1-1.4
			c-1.3-0.6-2-0.9-4.5-1.9c-5.5-2.3-5.3-2.2-7.6-3.2c-1.2-0.5-2.8-1.1-4.9-1.9c-0.6-0.2-1.3-0.4-2.3-0.6c-0.6-0.1-2-0.4-4.1-0.3
			c-1.8,0.1-2.4,0.4-3.8,0.4c-1.6,0.1-3.9,0-6.7-0.5c-2.1-0.4-3.6-1-6.3-2c-6.1-2.3-8.5-3.9-10.9-2.8c-0.6,0.3-1,0.6-1.2,0.8
			c-0.6,0.6-1.5,1.7-2.1,3.3c-1.1,3.2-0.3,6.8,1.6,9.1c1.2,1.5,3,2.3,6.6,3.8c2.6,1.1,4.5,1.8,7.1,2.1c2.4,0.3,4,0.2,7.2,1
			c0.8,0.2,1.7,0.5,2.8,0.9c2.4,0.9,4.2,2,5.4,2.8c-3.4,0.1-7.2,0.1-11.3-0.2c-4.1-0.3-8-0.8-11.4-1.4c0.1-0.6,0.2-2.1-0.4-3.7
			c0,0-0.5-1.3-1.5-2.2c-2.8-2.7-7.8-1.4-8.1-1.3c-5.5,1.1-11.1,2.2-16.6,3.2c-0.3,0.1-0.7,0.1-1,0.2c-1.7-0.4-3.5-0.7-5.2-1.1
			c-1.7-0.3-3.5-0.7-5.2-1c-3.1-0.6-5.4-1-6.8-1.3c-1.9-0.4-3.3-0.7-5.2-0.3c-0.6,0.1-1.6,0.4-2.6,1.1c-2.5,1.9-2.5,5.5-2.5,6.1
			c-3.1,0.3-6.2,0.5-9.5,0.6c-3.9,0.2-7.7,0.3-11.3,0.3c1.3-0.9,3.4-2,6-2.8c2.9-0.8,3.9-0.4,8.1-1.2c3.5-0.7,5.8-1.6,6.6-1.9
			c2.6-1,4.3-1.7,5.9-3.4c0.9-0.9,2.4-2.4,2.9-4.7c0.8-4-1.9-8.8-5.3-9.6c-1.6-0.4-2.7,0.1-7.3,2.1c-4.6,2.1-6.8,2.7-8.8,3.2
			c-0.5,0.1-2.2,0.5-4.4,0.7c-4.6,0.3-5.9-0.8-9.8-0.2c-1.2,0.2-2.2,0.5-2.4,0.6c-1.7,0.5-2.7,1.1-3.8,1.6c-1.6,0.8-3.3,1.4-4.9,2.1
			c-7.1,3.1-10.7,4.6-12.6,5.4c-1.6,0.6-3.9,1.5-6.9,2.4c-0.4-0.8-1.2-2-2.5-3.1c-2.9-2.5-6.4-2.7-7.4-2.9c-6.7-1.3-16-3.4-26.9-6.3
			c-6.3-1.7-17.5-5-39.5-13.1c-10.1-3.7-23.1-8.7-38-15.1c-4.7-3-7.4-6.2-9-8.6c-1.4-2.1-2-3.8-4.3-7.2c-2-3-3.8-4.9-4.6-6.2
			c-10.6-16.6-14.3-22.9-15.4-25.1c-0.8-1.7-3.8-8.6-3.8-8.6c0,0,0,0,0,0c0,0,0,0,0,0c-3.4-8.2-6.2-16.8-8.4-25.7
			c-9.1-33.4-13.3-38.4-39-64.2c-4.3-4.8-7.9-8.9-11.1-12.6c-8.5-9.9-13.4-16.7-16.4-24.7c-16.2-36.7,12-87.2,63.5-80.7
			c4.3,0.5,8.8,1.6,13.2,3c17.6,5.7,33.9,17.7,33.4,30.2c0,0.8-0.4,8.1-5.8,11.8c-11,7.7-28.4-9.2-45.1-11.6
			c-4-0.6-7.9-0.3-11.7,1.2c-8.5,3.5-15.1,13.3-16,22.4c-0.2,1.7-0.2,3.3,0,4.9c0,0,0.7,5.3,4.3,10.7c3.7,5.5,20.6,24.4,45,48.8
			c4.6,10.9,8.8,22.6,12.3,35.3c0.7,2.4,1.3,4.8,1.9,7.1c3.3-7.6,8.9-17.8,18.3-27.8c7-7.5,14-12.6,19.4-16.1
			c6.5-4.1,12.6-6.9,17.4-8.7c0-2,0-4,0-6c-3.9,1.7-7.2,2.1-9.2,2.1c-5.8,0.1-11.4-2-11.4-2c0,0,0,0,0,0c0.1,0,0.1,0,0.1-0.1
			c-1-0.4-2-0.8-2.9-1.3c0,0-0.1,0-0.1,0c-0.5-0.3-1.1-0.6-1.6-0.9c-5.4-3.1-9.6-7.8-10.3-13.5c0-0.1-0.1-0.2-0.1-0.3
			c-0.1-0.6-0.1-1.3,0-2c0.4-6.4,6.6-10.5,16-16.4c2.5-1.6,4.9-3.1,7.2-4.5l0,0c6.7-4.2,12.9-7.9,18.3-11c5.7-3.3,10.6-6.1,14.5-8.3
			c6.5-3.6,10.3-5.5,10.4-5.6c14-7.2,23-12.1,29.5-14.8c0,0,0.1,0,0.1,0c2.7-1.1,4.9-1.9,6.9-2.2c0,0,0,0,0.1,0
			c3.2-0.6,5.7-0.3,8.1,1.1c0.5,0.4,1.1,0.8,1.5,1.1c0,0,0.1,0,0.1,0.1c3.5,2.8,5.7,5.7,6.7,8.7c0,0.1,0.1,0.3,0.1,0.4
			c5.6,17.5-25.2,37.8-39.7,46.8c-0.3,0.2-0.5,0.4-0.8,0.5c0.8-0.3,1.6-0.5,2.5-0.7c2.5-0.7,5.1-1.1,7.8-1.4
			c25.3-2.9,58.1,9.4,68.2,36c15.6,11.3,31.3,22.6,46.9,33.8c7.3-3.2,15.6-5.4,23-5.9c23.7-1.8,54.5,12.9,69.7,23.6
			c2-0.3,3.9-0.6,6-0.9c8.4-1.3,16.5-2.2,24.4-2.8c-1-6.7-3.9-31.7,11.8-55.6c10-15.2,23.1-23,29.9-26.5c-0.4-5.2-0.4-13.5,3-22.9
			c1.3-3.4,7.2-19.6,15.2-20.1c7.6-0.5,16.5,13.6,21.4,34.9c7,0.4,20.5,2.2,34.9,10.8c15.8,9.4,24.1,22,27.6,28.1
			c9.9-3.2,17.9-2.8,22.5-2.2c5.5,0.7,18.1,2.3,20.5,9.7C858.2,607.1,856.4,610.8,854.8,614.1z"/>
		<g id="WhiteSpots_00000105426399435135636760000014871810659256972989_">
			<path class="st14" d="M584.1,753.3c-2.4,5.7-6.5,12.4-13.8,16.4c-0.5,0.3-1,0.5-1.5,0.8c-1-0.5-1.8-0.7-2.4-0.9
				c-0.9-0.2-1.5-0.4-2.3-0.3c-1.1,0.1-1.9,0.6-2.2,0.9c-1.3,0.9-1.9,2-2.1,2.6c-1.2,0.2-2.6,0.4-4.2,0.4c-0.5,0-0.9,0-1.4-0.1
				c-1.5-7.5-3-14.9-4.5-22.4c0.1-0.6,0.6-2.4,1.7-4.5c0.6-1.1,2.4-4.1,5.8-6.5c1-0.7,7.5-5,12.9-2.7c2.5,1.1,3,2.9,7,8.2
				C579.8,748.7,582.4,751.5,584.1,753.3z"/>
			<path class="st14" d="M557.7,662.6c0.8-2.8,2.7-10.4-0.4-19.1c-2.1-6-5.6-9.9-7.7-11.9c-3.2,0.7-13.2,3.1-18.9,12
				c-1.8,2.7-4.8,7.4-3.4,12.8c1.3,5.1,6.1,9.1,12.3,10.5C545.6,665.5,551.6,664.1,557.7,662.6z"/>
			<path class="st14" d="M360.1,645c2.4-8.1,13.4-11.3,19-12.9c22.7-6.6,53.9-18.7,91.8-27.7c6.3-0.3,12.2,3,15,8.5
				c4.1,7.9-0.5,15.6-0.7,15.9c-4.2,4.7-10.6,10.9-19.5,16.1c-13.3,7.8-26.8,10.5-26.5,11.8c0.3,1.1-47.7,15.6-47.4,13.7
				c-2,0.4-12.5,2.2-21.7-4.6C364.1,661.4,357.9,652.5,360.1,645z"/>
			<path class="st14" d="M341.9,568.7c0.7-8.4,10.9-13.7,16-16.4c20.6-10.8,48-25.9,82.3-44.9c6.8-2.5,14.3-0.6,18.5,4.7
				c5.5,6.8,2.6,15.3,2.5,15.8c-3.2,5.5-8.2,12.8-15.9,19.7c-11.5,10.3-24.2,15.7-23.6,16.9c0.5,1-43.6,24.9-43.7,22.9
				c-1.9,0.8-11.8,4.7-22.2-0.2C349.1,583.9,341.2,576.5,341.9,568.7z"/>
			<path class="st14" d="M669.9,648c-1.3,5.9-6,30.2,8.4,49.7c22.1,29.9,68.1,20.5,72.8,19.5c11.1-2.4,19.7-6.8,25.3-10.2
				c-6.8,2.2-17.3,4.8-30.1,4.5c-15.7-0.4-27.9-4.8-35-8c2.4-5.6,6.7-14,14.7-22.3c8.6-9,17.6-13.9,23.3-16.5
				c-5.1,0.4-9.9-2.3-12.3-6.7c-2.2-4-1.9-8.9,0.5-12.9c-4.2,3.9-10.2,4.9-14.9,2.6c-5.5-2.7-6.7-8.6-6.9-9.3
				c-1.7,6.1-4.9,15.4-11.7,25.1c-6.3,9-13.3,15-18.3,18.6c-2.7-3.5-5.6-7.8-8.3-13C673.4,661.2,671.1,653.8,669.9,648z"/>
			<path class="st14" d="M649.5,709.4c-7.3,16.2-39.3,15.4-57.9,14.9c-39.2-1-64.1-15.6-72-20.7c-6.2-3.9-29.5-19.5-28.9-34.7
				c0.1-1.9,0.3-8.7,4.5-11.1c2.8-1.6,6.1-0.7,7.5-0.3c14.5,4.3,41.4,19.2,58.3,24.4c16.9,5.2,33.9,3.6,48.1,2.4
				c17.7-1.6,27.8-5.3,35.2,1.1C650.6,690.7,653,701.7,649.5,709.4z"/>
		</g>
		<g id="Stripes">
			<path class="st20" d="M390.8,731.9c0.2-1.3,0.7-2.3,1.3-3.5c0.9-1.8,1.8-3.2,2.6-4.2c1.4-0.1,3.2-0.2,5,0
				c1.4,0.1,2.6,0.4,3.6,0.6c2.3,0.6,3.6,2.2,3.3,4.1c0,0.3-0.3,2.1-2.1,3.3c-1.6,1-3.7,1.2-5.3,0.2c-0.2,2.2-1.9,4.1-3.7,4.7
				c-1.9,0.7-3.4-0.3-3.6-0.5C390.2,735.5,390.6,733.2,390.8,731.9z"/>
			<path class="st21" d="M790.2,570.7c2.1,1.7,3.9,3.4,5.5,5c-5.2,4.9-10.4,9.8-15.6,14.8c-3,2.9-6,5.8-9,8.6
				c-0.9,0.9-2.8-0.8-2.2-1.9c2-3.8,4-7.6,6-11.3c3.4-6.4,6.8-12.8,10.2-19.2C786.6,567.8,788.3,569.1,790.2,570.7z"/>
			<path class="st21" d="M776.4,564c0,0.1,0,0.1,0.1,0.2l-8.5,15.5l-2.4,4.5c-0.6,1.1-2.5,0.3-2.1-0.9l1.6-5
				c1.9-5.8,3.7-11.7,5.6-17.5C772.5,561.8,774.5,562.9,776.4,564z"/>
			<path class="st21" d="M802.2,581c-0.1,0-0.1,0-0.2,0l-12.5,12.5l-3.6,3.6c-0.9,0.9,0.5,2.5,1.5,1.8l4.3-3
				c5.1-3.4,10.1-6.9,15.2-10.3C805.4,584.1,803.8,582.6,802.2,581z"/>
			<path class="st21" d="M672.3,614.7c0.5-1.3,1-2.4,1.5-3.4c3.2,1.7,6.3,3.5,9.5,5.2c1.8,1,3.7,2,5.5,3c0.5,0.3,0,1.5-0.6,1.4
				c-2.1-0.4-4.2-0.7-6.3-1.1c-3.6-0.6-7.2-1.2-10.7-1.9C671.5,616.9,671.8,615.8,672.3,614.7z"/>
			<path class="st21" d="M670.8,622.4C670.8,622.4,670.8,622.4,670.8,622.4l8.9,1l2.5,0.3c0.6,0.1,0.6,1.1,0,1.2l-2.6,0.2
				c-3.1,0.2-6.1,0.4-9.2,0.7C670.5,624.6,670.6,623.5,670.8,622.4z"/>
			<path class="st21" d="M674.8,607.4c0,0,0,0.1,0,0.1l8,3.8l2.3,1.1c0.6,0.3,1.1-0.6,0.6-1l-2.1-1.6c-2.5-1.8-5-3.7-7.4-5.5
				C675.7,605.4,675.3,606.4,674.8,607.4z"/>
			<path class="st21" d="M784.4,701.8c-1.2,0.6-2.3,1.2-3.3,1.6c-1.3-3.4-2.6-6.7-3.9-10.1c-0.8-2-1.5-3.9-2.3-5.9
				c-0.2-0.6,0.9-1.2,1.3-0.7c1.4,1.6,2.7,3.3,4.1,4.9c2.3,2.8,4.6,5.6,6.9,8.4C786.5,700.6,785.5,701.2,784.4,701.8z"/>
			<path class="st21" d="M790.6,696.8c0,0-0.1,0-0.1,0l-6-6.5l-1.7-1.9c-0.4-0.5,0.3-1.2,0.8-0.9l2.1,1.6c2.5,1.8,4.9,3.6,7.4,5.4
				C792.2,695.4,791.4,696.1,790.6,696.8z"/>
			<path class="st21" d="M777.8,705.6C777.8,705.6,777.8,705.6,777.8,705.6l-3.6-8.2l-1-2.3c-0.3-0.6-1.2-0.2-1.1,0.4l0.6,2.6
				c0.7,3,1.4,6,2.1,9C775.8,706.6,776.8,706.1,777.8,705.6z"/>
			<path class="st21" d="M265.2,610.7c3.9-0.6,11.5-2.4,19-8.2c6.1-4.7,9.6-10,11.4-13.3c3.2,3.5,6.3,7,9.5,10.5
				c-2.5,3.5-6.7,8.5-13.1,13c-6.7,4.7-13.2,7-17.4,8.2C271.5,617.4,268.4,614.1,265.2,610.7z"/>
			<path class="st21" d="M337.3,512.4c0.5,5.1-1.8,11.7-6.7,14.9c-14.1,9.1-37.1-18.4-55.8-10.6c-9.6,4-13.9,15.3-16.1,23.7
				c-1,1.1-7.7,7.9-18.4,7.5c-10.3-0.3-16.5-7.1-17.5-8.2c0.1-5.4,1.2-21.1,12.6-35.8c2.9-3.7,11.4-13.8,25.3-18.9
				C292.6,473,335.5,493,337.3,512.4z"/>
			<path class="st21" d="M234.2,575.2c2.4,0.5,10.7,1.9,19.6-2.7c8.1-4.2,11.7-10.8,12.9-13.1c5.5,5.6,10.9,11.1,16.4,16.7
				c-0.8,2.4-3.6,10.3-11.8,16c-8,5.5-16,5.4-18.6,5.3C246.4,590,240.3,582.6,234.2,575.2z"/>
			<path class="st21" d="M677.4,769c0.3-4.8,0.1-11.4-1.9-18.7c-1.5-5.3-3.6-9.7-5.7-13.3c-0.7-1.2-2.8-0.3-2.5,1
				c0.8,4.1,1.2,9.3,0.3,15.4c-1.5,9.7-5.8,17-8.4,20.9C665.2,772.5,671.3,770.7,677.4,769z"/>
			<path class="st21" d="M438.2,779.3c3-6.4,6.5-15.5,8.4-27.1c1.3-8.3,1.5-15.9,1.1-22.4c-0.1-2.1-2.9-2.4-3.4-0.3
				c-1.4,6.3-3.8,13.7-8.2,21.3c-7.1,12.3-16.1,19.3-21.1,22.7c3.8,1.1,7.7,2.1,11.8,3.1C430.6,777.6,434.5,778.5,438.2,779.3z"/>
			<path class="st21" d="M533.1,622.2c-1.1,2.9-2.9,6.9-5.9,11c-2.2,3-4.6,5.4-6.7,7.3c-0.7,0.6-1.7-0.2-1.2-1
				c1.5-2.4,3.1-5.5,4.1-9.2c1.6-6.1,1.1-11.1,0.6-13.7C527,618.5,530,620.4,533.1,622.2z"/>
			<path class="st21" d="M642.3,650.5c-0.5,3.1-1.6,7.3-3.9,11.9c-1.6,3.3-3.5,6.1-5.3,8.3c-0.6,0.7-1.7,0.1-1.3-0.7
				c1.1-2.6,2.1-5.9,2.5-9.8c0.6-6.2-0.9-11.1-1.8-13.6C635.7,647.9,639,649.2,642.3,650.5z"/>
			<path class="st21" d="M730.4,750.4c-0.6-2.9-1.7-7-4.1-11.4c-1.7-3.2-3.6-5.8-5.4-7.9c-0.6-0.7-1.6-0.1-1.2,0.8
				c1.1,2.5,2.2,5.7,2.6,9.4c0.7,6-0.5,10.7-1.4,13.2C724.1,753,727.3,751.7,730.4,750.4z"/>
			<path class="st21" d="M374,707.8c-1.3,6.3-3.4,13.6-6.9,21.3c-1.5,3.2-2.5,5.3-3.2,6.5c0,0-0.3,0.5-0.6,1.1
				c-2.4,4.2-9.3,13.7-10.2,14.9c-2-0.8-4-1.7-6.1-2.5c-2.3-1-4.7-1.9-6.8-2.8c-0.9-0.9-1.8-1.9-2.7-2.9c-1-1.1-1.9-2.2-2.7-3.2
				c2.3-1.1,5.8-2.8,9.6-5.1c4.2-2.6,7-4.8,7.6-5.3c1.8-1.4,3.5-3,5.3-4.7c6.3-6.2,10.6-12.7,13.6-18.4
				C371.8,704.7,374.4,705.8,374,707.8z"/>
			<path class="st21" d="M511.8,721.3c-4.4,2.2-10.6,4.7-18.6,6.2c-5.7,1-11,1.2-15.4,1.1c-1.5-0.1-1.7-2-0.3-2.3
				c4.3-1,9.4-2.9,14.6-6c8.4-5.1,13.1-11.4,15.4-15C508.9,710.5,510.4,715.9,511.8,721.3z"/>
			<path class="st21" d="M481.5,669.5c-1.6,4.6-4.3,10.8-9,17.4c-3.4,4.7-7,8.5-10.3,11.5c-1.1,1-2.6-0.2-1.8-1.5
				c2.4-3.8,4.8-8.6,6.3-14.5c2.5-9.5,1.5-17.3,0.6-21.5C472,663.8,476.8,666.6,481.5,669.5z"/>
			<path class="st21" d="M564.7,628.7c0.7,1.7,1.6,4.2,1.9,7.4c0.3,2.3,0.2,4.3,0,6c-0.1,0.6-0.8,0.6-0.9,0.1
				c-0.3-1.7-0.9-3.7-2-5.8c-1.8-3.4-4.1-5.4-5.4-6.3C560.4,629.6,562.6,629.2,564.7,628.7z"/>
			<path class="st21" d="M599.9,632.9c-0.2,1.9-0.7,4.5-1.9,7.4c-0.9,2.1-1.9,3.8-2.9,5.3c-0.3,0.5-1,0.1-0.8-0.4
				c0.6-1.6,1.1-3.7,1.1-6c0.1-3.8-0.9-6.7-1.6-8.2C595.8,631.6,597.9,632.3,599.9,632.9z"/>
			<path class="st21" d="M591.5,766.4c-1.3,1.4-3.2,3.3-5.8,4.9c-1.9,1.2-3.8,2-5.4,2.6c-0.5,0.2-0.9-0.5-0.4-0.8
				c1.4-1,3-2.4,4.4-4.3c2.3-3.1,3.1-6,3.4-7.6C588.9,762.9,590.2,764.6,591.5,766.4z"/>
			<path class="st21" d="M573.8,800.9c0.1,0,0.2-0.1,0.3-0.1c0,0.1,0,0.3-0.1,0.4C573.9,801.1,573.9,801,573.8,800.9z"/>
			<path class="st21" d="M580.7,789.6c-0.1,0.1-0.2,0.2-0.2,0.2c-1,1.1-2.1,2.3-3.2,3.4c-0.7-0.1-1.4-0.2-2.1-0.2
				c-0.7-0.1-1.5-0.1-2.2-0.2c0.7-0.6,1.5-1.2,2.5-1.8c1.3-0.8,2.4-1.3,3.5-1.7c0.4,0.1,0.7,0.1,1.1,0.2
				C580.3,789.5,580.5,789.5,580.7,789.6z"/>
			<path class="st21" d="M611.3,776.8c-0.1,0.8-0.1,1.6-0.3,2.5c-0.1,0.7-0.2,1.3-0.4,1.9c-0.6-0.3-1.3-0.5-1.9-0.8
				c-0.7-0.3-1.4-0.6-2.1-0.9c-0.2-0.7-0.4-1.4-0.6-2.1c-0.3-0.9-0.6-1.7-1-2.4L611.3,776.8z"/>
			<path class="st21" d="M581.3,660.1c0.5-1.8,1-4.4,1-7.6c0-2.3-0.3-4.3-0.7-6c-0.1-0.6-0.9-0.5-0.9,0.1c-0.1,1.7-0.4,3.8-1.2,6
				c-1.3,3.6-3.4,5.8-4.6,7C577,659.8,579.1,660,581.3,660.1z"/>
			<path class="st21" d="M458.5,566.2c0.1,4.9-0.3,11.6-2.5,19.4c-1.5,5.6-3.6,10.4-5.7,14.4c-0.7,1.3-2.5,0.7-2.2-0.8
				c0.9-4.3,1.5-9.7,0.9-15.8c-1-9.8-4.6-16.7-6.8-20.4C447.6,564.1,453.1,565.1,458.5,566.2z"/>
			<path class="st21" d="M496.1,590.8c-0.1,0.1-0.2,0.2-0.3,0.3c-3,3.8-7.5,8.6-13.9,13.2c-0.7,0.5-1.5,1-2.2,1.5
				c-1.6-0.9-3.5-1.4-5.8-1.4c-0.3,0-0.6,0-0.9,0c1.7-1.8,3.3-3.9,4.8-6.2c5.1-7.8,6.8-15,7.4-19.4c0-0.3,0.1-0.5,0.1-0.8
				c1.2,1.4,2.3,2.7,3.5,4.1l4.9,5.8C494.5,588.9,495.3,589.8,496.1,590.8z"/>
			<path class="st21" d="M544.9,774.5c-0.1,1.4-0.3,2.7-0.5,4.1c-0.1,0.9-0.3,2.3-0.7,4.1c-0.3,1.4-0.6,3-1,4.8
				c-1.1,0.2-2.2,0.4-3.3,0.7c-4.2-0.8-8.4-1.7-12.6-2.5c0.7-0.7,1.6-1.8,2.7-3.3c1.9-2.7,3.3-5.5,4.7-8.7c3.1-7,5.5-14.3,7-21.7
				c0-0.2,0.2-0.8,0.7-1.2c1-0.7,2.6-0.2,2.8,1.3C545.5,758.6,545.8,766.1,544.9,774.5z"/>
		</g>
		<path class="st22" d="M748.2,640.4c-1.7,1.7-6,2.7-7.3,3.5c-4.9,1.4-3-5.4-2.5-8.5c0-0.4,0.1-0.7,0.1-0.9c0.4-1.6,1.2-2.2,2.2-2.1
			c1.1,0.1,2.3,0.9,3.5,1.8c1.5,1.1,2.9,2.4,3.7,2.9C749.2,638.4,749.1,639.5,748.2,640.4z"/>
		<path class="st22" d="M730.4,530.9c-4.2,0.2-6.9,9.3-8.3,13.7c-2.2,6.9-2.4,13.1-2.1,17.2c3.5-1.3,7.6-2.5,12.5-3.4
			c4.5-0.9,8.7-1.2,12.2-1.3c-0.7-3.2-2.1-7.9-4.6-13.4C737,537.2,733.9,530.7,730.4,530.9z"/>
		<path class="st22" d="M847.2,605.6c1.6,3.9-5.5,10.2-8.8,13.3c-5.3,5-10.8,7.7-14.6,9.2c-0.3-3.7-1-8-2.2-12.8
			c-1.2-4.5-2.6-8.3-4-11.6c3.2-0.7,8.1-1.5,14.1-1.5C838.6,602.3,845.8,602.3,847.2,605.6z"/>
		<g id="Beans_00000109030510343652968000000016738203407584975526_">
			
				<ellipse transform="matrix(0.9525 -0.3045 0.3045 0.9525 -163.4086 170.9076)" class="st22" cx="466.3" cy="609.4" rx="6.9" ry="1.2"/>
			
				<ellipse transform="matrix(0.9525 -0.3045 0.3045 0.9525 -163.0699 173.0795)" class="st22" cx="473.5" cy="609.4" rx="6.9" ry="1.2"/>
			
				<ellipse transform="matrix(0.9805 -0.1967 0.1967 0.9805 -111.2151 105.2281)" class="st22" cx="474" cy="612.4" rx="7.3" ry="1.1"/>
			
				<ellipse transform="matrix(0.9805 -0.1967 0.1967 0.9805 -111.7061 105.0407)" class="st22" cx="472.9" cy="614.8" rx="7.3" ry="1.1"/>
			<path class="st22" d="M465.5,615.8c-2.1,2.1-7.5,3.1-8.5,2.4c-0.7-0.4,0.9-1.3,0.4-2.4c-0.5-1.2-2.7-1.1-2.5-1.9
				c0.3-1.1,5.2-3,8.5-2.4c2,0.3,2.6,1.4,2.7,1.6C466.2,613.3,466.8,614.4,465.5,615.8z"/>
		</g>
		<g id="Beans_00000038409838548756330160000011444079296524295823_">
			
				<ellipse transform="matrix(0.9042 -0.4272 0.4272 0.9042 -177.5533 235.9878)" class="st22" cx="437.2" cy="513.7" rx="6.6" ry="1.1"/>
			
				<ellipse transform="matrix(0.9042 -0.4272 0.4272 0.9042 -176.4758 238.4133)" class="st22" cx="443.1" cy="512.5" rx="6.6" ry="1.1"/>
			
				<ellipse transform="matrix(0.921 -0.3895 0.3895 0.921 -165.3408 214.4507)" class="st22" cx="446.1" cy="514.9" rx="7.1" ry="1.2"/>
			
				<ellipse transform="matrix(0.921 -0.3895 0.3895 0.921 -166.7302 214.7324)" class="st22" cx="446.1" cy="518.5" rx="7.1" ry="1.2"/>
			<path class="st22" d="M438.8,520c-1.2,2.3-6.2,4.3-7.4,3.9c-0.8-0.3,0.4-1.3-0.5-2.3c-1-1.1-3.1-0.6-3.2-1.3
				c-0.1-1,4-3.7,7.4-3.9c2.1-0.1,3.1,0.8,3.3,1C438.6,517.5,439.6,518.5,438.8,520z"/>
		</g>
	</g>
	<g id="Highlights" class="st15">
		<path class="st14" d="M751.5,558.3c0.1,0.1,0.2,0.3,0.4,0.4c8.8,2.1,21.9,6.4,35.8,15.5c12.1,7.9,20.5,16.7,25.8,23.3
			c-3.5-6.1-10.6-16.7-23.4-25.6C774.4,561.1,758.8,558.8,751.5,558.3z"/>
		<path class="st14" d="M528.6,649.6c15.2-10.4,28.6-13.5,36.4-14.6c25.3-3.5,48.2,6,64.8,12.9c4,1.7,6.9,2.7,9,3.7
			c-8.8-6.1-16.2-9.7-22-12.4c-11.3-5.3-24.2-11.3-41.5-11.4c-11.8-0.1-20,2.6-22.5,3.5c-5.7,2-15.8,5.7-22.3,15.3
			C529.7,647.8,529,648.9,528.6,649.6z"/>
		<path class="st14" d="M747.9,640.1c-0.2,0.2-0.5,0.4-0.7,0.6c-0.3-0.7-0.9-1.7-1.8-2.6c-2.7-2.5-6.2-2.4-7-2.3c0-0.3,0-0.6,0.1-1
			c0-0.2,0-0.4,0.1-0.6c0-0.2,0.2-1.3,1.1-1.7c0.3-0.1,0.6-0.2,1.6,0.2c0.7,0.3,1.8,0.8,2.9,1.8c0.7,0.5,1.4,1.1,2.2,1.6
			c0.5,0.4,1,0.7,1.5,1.1c0.2,0.1,0.7,0.5,0.8,1.2c0,0.1,0.1,0.4,0,0.7C748.4,639.7,748,640,747.9,640.1z"/>
		<path class="st14" d="M438.2,658.2c6.7-0.5,18.5-0.4,31.3,5.2c27.2,11.7,36.3,37.8,37.6,41.9c4.6,13.8,3.7,26.1,2.6,33.4
			c0.1-6,0.1-31.1-19-53.3C470.6,661.8,443.8,658.7,438.2,658.2z"/>
		<path class="st14" d="M427.1,565.3c8.8-1.8,16.1-1.5,21.4-0.9c3.7,0.5,33.7,4.6,47.6,29.6c3.7,6.7,5.2,12.9,5.9,17.1
			c-3.1-6.9-8.7-16.6-18.4-25.4C461.6,565.8,434.8,565.2,427.1,565.3z"/>
		<path class="st14" d="M823.5,595.2c4.5-1.3,13.9-3.2,23.4,1.1c3.5,1.5,8.5,3.8,9.8,8.5c1.6,5.5-2.4,12.7-10.3,17.5
			c6.2-7.2,8.9-14.5,6.2-18.8c-0.9-1.5-2.2-2.2-4.5-3.5c-1.8-1.1-5.2-2.7-14.8-3.9C830.9,595.7,827.5,595.3,823.5,595.2z"/>
		<path class="st14" d="M751.9,558.7c-1.5-7.3-3.5-13.2-5.3-17.3c-2.6-6.3-4.7-9.4-6.8-11.8c-2.9-3.3-5.4-6.2-9-6.3
			c-4-0.1-7.9,3.5-10.1,8.5c1.4-1.7,5.2-5.8,9.8-5.5c5.4,0.4,8.7,6.4,12.5,13.3c2.1,3.8,4.8,9.8,6.5,17.9c0.3,0.3,0.7,0.6,1.3,0.8
			C751.2,558.6,751.6,558.6,751.9,558.7z"/>
		<path class="st14" d="M739.6,632c0.2-1.2,1.1-1.3,1.9-3.6c0.8-2.2,0.2-3.1,0.9-3.7c1.3-1,4.5,1.1,7.4,3.1c3,2,6.4,4.3,6,5.9
			c-0.3,1-1.7,0.7-3.8,2.4c-1.7,1.5-1.5,2.4-2.5,2.9C746.5,640.6,739,635.4,739.6,632z"/>
	</g>
	<g id="sHADOWS" class="st15">
		<path d="M412.3,620.7c16.9-4.7,14.8-5,31.2-9.3c10-2.7,19.7-5,28.9-6.9c1.3-0.1,4.6-0.2,7.4,2c1.8,1.4,3.1,3.5,3.2,4.7
			c0.5,5.8-24.4,12-44.4,18c-25.6,7.6-71.5,23.3-76.4,18.2c-1.1-1.2-1.2-2.4-1.2-2.4c-0.3-2.9,3.5-5.6,5.3-6.8
			c1.1-0.8,2.8-1.8,5.2-2.6c0,0,0,0,0,0c9.2-3.9,19-7.6,29.5-11.1C404.7,623.1,408.6,621.9,412.3,620.7z"/>
		<path d="M342,570.7c0.1,1,0.2,2.6,1.4,3.9c5,5.2,21-4.2,53.2-21.9c39.9-22,58.8-31.7,57.2-40.8c-0.1-0.4-0.4-2.3-1.9-3.6
			c-4.7-4.3-15.8,1-33.1,10c-23.3,12.1-36.9,20.1-43.4,24C351.4,556.5,341.4,562.9,342,570.7z"/>
		<path d="M362.6,639.7c-1.1,2-2.8,5.6-2.5,10.1c0.5,8.9,8.1,14.3,11.2,16.4c8,5.7,16.6,5.8,20,5.6c-0.9,5.6-1.6,15.4,2.3,26.3
			c1.5,4.3,3.5,7.9,5.4,10.8c-2.8-2.8-7.9-8.9-10.5-18c-1.8-6.3-1.6-11.8-1.3-15.4c-15.4,1.5-28-7.2-30.1-17.9
			C355.3,648.9,361.3,641.2,362.6,639.7z"/>
		<path d="M384.8,608.2c-1.7-1.8-4-4.8-5.5-9.1c-0.6-1.9-1-3.6-1.1-5.1c-4.5,1.5-11.1,4.2-18.1,9.1c-2.9,2-13.5,9.3-12.4,11.9
			C348.5,616.8,355.5,616.9,384.8,608.2z"/>
		<path d="M534,639.7c-5,3-7.8,8.5-7.3,14c0.7,7.3,6.7,11,7.3,11.3c3.3,1.9,6.6,2,8.6,2c5.2,0,7.8-1.9,13.2-3.8
			c2.5-0.9,9.4-3.3,17.6-3.3c8.4,0,14.9,2.4,17.8,3.5c3.7,1.4,6.7,3.1,8.7,4.3c-11.4-3.4-20.9-3.6-28.1-2.7
			c-17.4,2.1-25.3,10.5-36,6c-0.5-0.2-10.3-4.5-11.4-13.8C523.6,650.8,527.4,643.9,534,639.7z"/>
		<path d="M568.1,736.5c-1.9,0.2-12.7,1.5-16.8,9.6c-2.6,5-1.4,10.1,0.5,18c1.3,5.3,3.6,12.4,8.2,20.3c-2.7,0.6-5.3,1.2-8,1.7
			c-0.9-2.6-2.1-6.2-3.1-10.8c-2.8-12.5-5.2-23.7,0.8-31.1c3.9-4.8,10.3-6.7,11.1-6.9C563.8,736.5,566.4,736.4,568.1,736.5z"/>
		<path d="M752.2,735.4c-3.8,3.7-7.5,7.5-11.3,11.2c-18.4,8.1-39.2,16.2-62.5,23.3c-17.1,5.2-33.4,9.3-48.6,12.4
			c-2.2,1.7-4.4,3.4-6.7,5c-0.2,0-0.4-0.1-0.7-0.2c-0.5-0.1-0.9-0.3-1.3-0.4c-1.1-0.4-2.2-0.8-3.2-1.2c-1.8-0.7-3.3-1.5-4.6-2.1
			c-1.1-0.4-2.1-0.9-3.1-1.3c-1.2-0.5-2.4-1-3.5-1.4c-0.8-0.3-1.6-0.7-2.3-0.9c0,0-0.1,0-0.1,0c-1.1-0.5-2.2-0.9-3-1.3
			c-0.2-0.1-0.4-0.2-0.5-0.2c-0.5-0.2-1-0.4-1.5-0.6c0,0,0,0,0,0c-1.5-0.6-2.5-1.1-3.3-1.4c-1.2-0.5-2-0.6-3-0.7
			c-2.6-0.2-4.2,0.3-7.3,0.3c-0.7,0-1.4-0.1-2.2-0.1c-0.1,0-0.2,0-0.2,0h-0.4c-1.6-0.2-2.9-0.4-3.8-0.6c-1.7-0.4-3.3-0.9-4.6-1.4
			c-2.7-1-4.7-2.1-6.4-2.8c0,0-0.6,0-0.6,0c-0.1,0-0.2-0.1-0.3-0.1c-1.8-0.7-3.2-0.9-4.6,0c-0.6,0.4-1.1,0.9-1.5,1.4
			c-1.3,1.8-1.7,4.4-1.3,6.4c1.1,4.8,7.2,6.9,10.6,8.1c1.4,0.5,2.6,0.8,3.8,1c1.1,0.2,2.2,0.3,3.2,0.4c1,0.1,2.1,0.2,3.2,0.4
			c0.4,0.1,0.8,0.2,1.2,0.3c0.8,0.2,1.7,0.5,2.7,0.8c2.1,0.8,3.9,1.8,5.4,2.7h0c0,0,0.3-0.2,0.4-0.1c0.8,0.5,1.4,1,2,1.4
			c-3.3,0-9.5-0.2-9.5-0.2h-0.1c-1.9,0-3.7-0.1-5.4-0.2c-1.4-0.1-2.7-0.1-4-0.2c-0.1,0-0.2,0-0.4,0c-2-0.1-3.9-0.3-5.7-0.4
			c-0.3,0-0.7-0.1-1-0.1c-0.1,0-0.2,0-0.3,0c0-0.1,0.1-0.2,0.1-0.4c0.7-2,0.1-4.4-1.2-5.8c-0.8-0.8-1.8-1.2-3.3-1.2
			c-1.8,0-4.4,0.5-8.2,1.3c-1.8,0.4-3.9,0.8-6.4,1.3c0,0-2.6,0.5-6.7,1.2c-0.1,0-0.2,0-0.4,0.1c-0.4,0.1-0.8,0.1-1.2,0.2
			c-1.8,0.3-3.8,0.6-5.9,1c-2.7,0.4-5.1,0.8-7.3,1c-0.4,0-0.7,0.1-1.1,0.1c-0.8,0.1-1.5,0.2-2.3,0.3c-2.4,0.3-4.3,0.5-5.9,0.6
			c-0.7,0.1-1.5,0.1-2.2,0.2c-4.6,0.4-10,0.8-16.1,1c-3.2,0.1-6.6,0.1-10.2,0.1c0.7-0.6,1.6-1.3,2.8-2c1.4-0.8,3-1.7,5-2.5
			c5.8-2.2,8-0.8,14-2.8c3.4-1.2,9.5-3.3,10.5-8.1c0.6-2.7-0.3-6.4-2.8-7.8c-3.6-2.2-7.2,2.5-16.6,4.6c-1,0.2-2.4,0.5-4.3,0.6
			c-1.7,0.1-3,0.1-4.2,0c-2-0.1-3.4-0.4-5.3-0.2c-0.8,0-1.4,0.2-2.1,0.4c-1.3,0.4-2.9,1.1-6.3,2.6c-2.7,1.1-6.8,2.8-12,4.9
			c-1,0.5-2.1,1-3.3,1.6c-1.7,0.7-3.7,1.5-5.9,2.1c-0.5,0.2-1,0.3-1.5,0.4c-1.6-1.4-3.1-2.8-4.7-4.3c-18.7-3.6-40.1-9.1-63.2-17.4
			c-18.7-6.7-35.3-14.1-49.7-21.4c-3.4-4.7-6.8-9.5-10.3-14.2c22.7,13.3,42.1,21.3,56.1,26.1c11.9,4.1,28.8,9,62.7,18.9
			c5.1,1.5,9.2,2.7,12.1,3.5c5-2.2,9.2-3.8,12.4-4.9c6.2-2.2,9.4-3.3,13.6-4c4.9-0.8,5.1,0,12.2-0.3c13-0.5,17.4-3.3,20.9-0.2
			c1.7,1.5,2.4,3.8,3.5,7.3c1,3.2,1.3,6,1.3,8c5.7,1.1,11.5,2.3,17.2,3.4c5.9-1.1,11.8-2.3,17.7-3.4c0.3-4.7,1.6-13.3,6.9-15.5
			c2.1-0.8,3.8-0.3,12.8,1.5c3.7,0.7,7.5,1.3,11.3,2.1l0,0c0,0,17.1,3.8,36.2,3c25.5-1,62.3-13.5,67.5-15.2
			C707.5,755.2,728.4,747.2,752.2,735.4z"/>
		<path d="M439.2,656.8c7.3-2.5,13.2-5.1,17.3-7c11.6-5.4,18.9-8.9,25.1-16.5c3-3.7,4.8-7.3,5.8-9.6c-0.3,3.3-1.1,7.4-3.2,11.6
			c-7.3,14.6-23.8,18.3-26.6,18.9c4.7,0.6,21.3,3.1,34.8,17.4c12,12.7,14.6,27.1,15.2,32.1c-2.2-6.2-8.2-20.6-23-32.1
			C465.8,656.9,445.3,656.7,439.2,656.8z"/>
		<path d="M715.9,639c0.1,0.4,1.7,7.1,8.4,9.4c4.6,1.6,9.8,0.3,13.3-3.3c-2.8,6.2-1.6,13,2.6,16.7c3.5,3,7.9,2.9,9.1,2.8
			c-0.6,0.2-6.4,1.6-11.2-2.2c-3.6-2.9-5.4-7.7-4.5-12.3c-4.1,2.2-9.1,1.8-12.8-0.8C715.8,645.6,715.9,639.5,715.9,639z"/>
		<path d="M744.6,557c-1.1-5.1-2.6-9.1-3.9-11.9c0-0.1-0.9-1.8-2.6-5.2c-2.9-6-4.1-8-6.3-8.7c-0.9-0.3-1.7-0.2-2.2-0.2
			c2.3,3,4.9,7,7.1,12c2.4,5.4,3.7,10.3,4.4,14.1C742.3,557.1,743.4,557,744.6,557z"/>
		<path d="M817.5,603.8c1.5-0.3,3.7-0.7,6.4-1.1c1.2-0.2,6.7-0.8,14.2-0.4c5.6,0.4,8,1.1,9,2.9c0.2,0.5,0.3,0.9,0.4,1.2
			c-3.7-0.8-8.4-1.4-13.9-1.4c-5.9,0.1-10.8,0.9-14.7,1.8C818.4,605.9,817.9,604.9,817.5,603.8z"/>
		<path d="M545.9,801c6.8-2.4,13.5-4.8,20.3-7.2c0.6,0.1,1.3,0.1,1.9,0.2c-0.4,0.9-1.2,2.2-2.6,3.4c-0.6,0.5-1.7,1.3-7.2,2.8
			c-3.2,0.9-4.9,1.3-6.7,1.4C549.3,801.7,547.3,801.4,545.9,801z"/>
		<path d="M669.8,648.6c0.7,3.6,1.9,8.6,3.9,14.5c2,5.6,4.7,13,10.5,21.3c5.3,7.6,10.7,12.4,12.7,14.1c9.4,8.1,18.5,11.7,22.1,13
			c2.2,0.8,11.9,4.2,25.1,4.2c6.4,0,14.7-0.1,24-4.3c3-1.4,5.4-2.8,6.9-3.9c-2.4,0.7-5.3,1.5-8.8,2.1c-0.4,0.1-6.6,1-13.1,1.5
			c-21.2,1.6-37.2-5.9-37.2-5.9c-11.2-4.7-18.7-11.1-21.8-14c-8.4-7.7-12.8-15.4-15.2-19.6C673.8,662.8,671.2,654.6,669.8,648.6z"/>
		<path d="M742.9,624.5c-0.2,0.1-0.4,0.3-0.7,0.5c-0.5,0.6-0.3,1.4-0.4,2.2c-0.1,0.7-0.3,1.2-0.8,2.2c-0.9,2-2.6,3.4-3.5,4
			c0-0.7-0.3-4.5,2.5-7.2C741.1,625.3,742.1,624.8,742.9,624.5z"/>
		<path d="M755.9,633.1c0,0.2,0,0.5-0.2,0.8c-0.2,0.3-0.5,0.4-0.8,0.5c0,0-0.3,0.1-1.6,0.7c-0.9,0.4-1.5,1.1-2,1.7
			c-0.3,0.4-0.7,0.9-1.1,1.6c-0.1,0.1-0.2,0.2-0.3,0.3c-0.2,0.2-0.3,0.4-0.5,0.6c0.3,0,4-0.1,5.7-3.1
			C755.9,635,755.9,633.8,755.9,633.1z"/>
	</g>
	<g id="Outline">
		<g id="Body_00000118398809037124383950000011861195905569205908_">
			<g>
				<path d="M672.5,656.7c-1.7-4.2-2.7-8.7-3.5-13.2c-0.7-4.5-0.7-9.1-0.5-13.7c0.3-4.6,0.8-9.1,1.9-13.5l0.4-1.7l0.5-1.6l1-3.3
					l1.2-3.2l0.6-1.6l0.7-1.6c3.6-8.4,8.7-16.2,15-22.8c6.3-6.6,13.7-12.2,21.8-16.3l-0.5,0.9c0-7.8,0.9-15.7,3.1-23.2
					c1.1-3.8,2.5-7.5,4.5-10.9c1-1.7,2.1-3.4,3.4-4.9c1.3-1.5,2.8-2.9,4.7-3.9c0.9-0.5,2-0.8,3.1-0.9c1.1-0.1,2.2,0.1,3.3,0.4
					c2,0.7,3.7,2,5.2,3.4c2.9,2.8,5.1,6.2,6.9,9.6c3.6,7,5.9,14.6,7.3,22.2l-0.9-0.8c6.5,0.4,12.9,1.6,19,3.6
					c6.2,2,12.1,4.7,17.6,8.1c5.5,3.4,10.6,7.5,15,12.2c4.5,4.7,8.4,9.9,11.6,15.5l-1.1-0.5c7.8-2,16-2.9,24.1-2.1
					c4,0.4,8.1,1.2,11.9,2.9c1.9,0.8,3.7,1.9,5.3,3.3c0.8,0.7,1.5,1.6,2.1,2.5c0.6,1,1,2.1,1.1,3.2c0.2,2.2-0.3,4.4-1,6.4
					c-0.8,2-1.8,3.8-3,5.5c-2.4,3.4-5.3,6.3-8.5,8.9c-6.3,5.1-13.6,8.9-21.3,11.7l0.8-1c-0.2,8.7-1.8,17.4-4.8,25.6
					c-3,8.2-7.5,15.9-13,22.6c-5.6,6.7-12.2,12.6-19.7,17c-7.5,4.5-15.8,7.5-24.3,8.8c0,0-0.1,0-0.1-0.1c0,0,0-0.1,0.1-0.1
					c8.2-2.5,16.1-5.9,23.3-10.4c3.6-2.3,7-4.8,10.2-7.6c3.2-2.8,6.1-5.9,8.8-9.2c2.7-3.3,5.1-6.8,7.2-10.5
					c2.1-3.7,3.9-7.5,5.4-11.5c3-7.9,4.6-16.4,4.8-24.8c0-0.5,0.3-0.9,0.8-1c7.4-2.6,14.5-6.3,20.7-11.2c3-2.5,5.9-5.2,8.1-8.4
					c1.1-1.6,2.1-3.3,2.8-5c0.7-1.8,1.1-3.6,0.9-5.4c-0.2-1.7-1.1-3.3-2.5-4.5c-1.4-1.3-3-2.2-4.8-3c-3.5-1.5-7.4-2.3-11.3-2.7
					c-7.8-0.8-15.8,0.1-23.4,2.1c-0.4,0.1-0.9-0.1-1.1-0.5c-3.2-5.5-7-10.6-11.4-15.1c-4.4-4.6-9.3-8.6-14.7-11.9
					c-5.3-3.4-11.1-6-17.1-7.9c-6-1.9-12.3-3.1-18.6-3.5c-0.5,0-0.8-0.4-0.9-0.8c-1.4-7.5-3.6-14.9-7.1-21.7
					c-1.8-3.3-3.9-6.6-6.5-9.1c-1.3-1.3-2.8-2.4-4.5-2.9c-1.6-0.6-3.3-0.4-4.8,0.4c-1.5,0.8-2.9,2-4.1,3.4c-1.2,1.4-2.2,3-3.2,4.6
					c-1.8,3.3-3.2,6.9-4.3,10.5c-2.1,7.3-3,15-3,22.7c0,0.4-0.2,0.7-0.5,0.9c-7.9,4-15.2,9.5-21.3,15.9c-6.2,6.4-11.1,14-14.6,22.2
					l-0.7,1.5l-0.6,1.6l-1.1,3.1l-0.9,3.2l-0.5,1.6l-0.4,1.6c-1.1,4.3-1.6,8.8-1.9,13.2c-0.2,4.5-0.1,8.9,0.3,13.4
					C671.1,647.8,671.8,652.2,672.5,656.7C672.6,656.7,672.6,656.7,672.5,656.7C672.5,656.7,672.5,656.7,672.5,656.7z"/>
			</g>
			<g>
				<path d="M339.7,748c-1.1-0.9-2.1-1.9-3.2-2.9l-2.9-3.2c-2-2.1-3.7-4.3-5.5-6.5c-1.8-2.2-3.5-4.5-5.2-6.8l-2.5-3.5l-1.2-1.8
					l-0.6-0.9l-0.3-0.4l-0.1-0.2l-0.1-0.1c0,0,0,0,0.1,0.1l-0.1-0.2c-7-10.7-13.2-22-17.9-34c-2.4-6-4.4-12.1-6.1-18.3
					c-0.4-1.5-0.8-3.1-1.2-4.6l-1.3-4.6c-0.4-1.5-0.9-3.1-1.3-4.6c-0.4-1.5-0.9-3-1.4-4.5c-1.9-6-4.1-12-7.1-17.5
					c-3-5.5-6.8-10.5-11-15.3c-4.2-4.7-8.6-9.3-13.1-13.8l-3.4-3.4c-1.1-1.2-2.1-2.4-3.2-3.6l-6.4-7.2c-4.2-4.8-8.4-9.7-12.1-15
					c-1.8-2.7-3.5-5.5-4.9-8.4c-0.4-0.7-0.7-1.5-1-2.2l-0.9-2.2c-0.6-1.5-1.2-3-1.7-4.6c-1-3.1-1.7-6.3-2.2-9.5
					c-0.1-1.6-0.4-3.2-0.4-4.9l-0.1-2.4l0.1-2.4c0.2-6.5,1.6-12.9,3.8-19c2.2-6.1,5.5-11.8,9.5-16.9c4-5.1,8.9-9.5,14.4-13
					c5.5-3.5,11.6-6,17.9-7.5c6.3-1.5,12.8-2,19.3-1.6c6.5,0.4,12.9,1.8,19,3.8c6.1,2.1,12,4.8,17.4,8.4c2.7,1.8,5.3,3.8,7.6,6.1
					c2.3,2.3,4.4,4.9,6,7.9c1.5,3,2.4,6.4,1.9,9.8c-0.4,3.3-1.6,6.6-3.8,9.3c-1.1,1.3-2.5,2.4-4.1,3.1c-1.6,0.7-3.3,1.1-5,1.1
					c-3.4,0.1-6.7-0.9-9.7-2c-6.1-2.3-11.6-5.4-17.5-7.9c-2.9-1.2-5.8-2.3-8.9-3.1c-3-0.7-6.1-1.1-9.1-0.8c-6.1,0.6-11.4,4.5-15,9.4
					c-3.7,4.9-5.9,11.1-5.5,17.1c0.2,3,1.2,6,2.6,8.7c0.7,1.4,1.6,2.6,2.5,3.9c0.5,0.6,0.9,1.2,1.5,1.8c0.5,0.6,1,1.2,1.5,1.8
					c4.2,4.7,8.8,9.1,13.3,13.6c4.5,4.5,9.1,9,13.5,13.6c4.4,4.7,8.7,9.5,12.5,14.6c3.9,5.1,7.1,10.8,9.6,16.7
					c2.6,5.9,4.3,12.3,5,18.7c0.2,1.6,0.2,3.2,0.5,4.7c0.3,1.5,0.7,3,1.3,4.4c1.1,2.9,2.8,5.6,4.8,7.9c0.3,0.4,0.3,1-0.1,1.3
					s-1,0.3-1.3-0.1c0,0,0,0,0,0c-2.1-2.5-3.8-5.4-5-8.4c-0.6-1.5-1.1-3.1-1.4-4.8c-0.3-1.6-0.6-3.2-0.8-4.8
					c-0.7-6.3-2.3-12.3-4.9-18.1c-2.5-5.8-5.6-11.3-9.4-16.3c-3.8-5.1-8-9.8-12.4-14.4c-4.4-4.6-8.9-9.1-13.4-13.6
					c-4.5-4.5-9.1-8.9-13.4-13.7c-0.5-0.6-1.1-1.2-1.6-1.8c-0.5-0.6-1-1.2-1.5-1.9c-1-1.3-1.9-2.7-2.7-4.1c-1.6-2.9-2.6-6.2-2.9-9.5
					c-0.1-1.7-0.1-3.3,0.2-5c0.2-1.7,0.6-3.3,1.2-4.8c1.1-3.1,2.6-6.1,4.6-8.7c2-2.7,4.4-5,7.1-6.8c2.8-1.8,6-3.1,9.4-3.4
					c3.3-0.4,6.7,0,9.8,0.8c3.2,0.8,6.2,1.9,9.2,3.2c5.9,2.5,11.5,5.6,17.4,7.9c2.9,1.1,5.9,1.9,8.9,1.9c1.5,0,2.9-0.3,4.2-1
					c1.3-0.6,2.5-1.5,3.4-2.6c1.9-2.2,3-5.2,3.3-8.1c0.4-2.9-0.4-5.9-1.7-8.6c-2.8-5.4-7.7-9.7-12.9-13.1c-5.2-3.5-11-6.1-16.9-8.2
					c-6-2-12.1-3.4-18.4-3.7c-12.5-0.9-25.3,2-35.9,8.8c-5.2,3.4-9.9,7.7-13.8,12.6c-3.8,4.9-7,10.4-9.1,16.3
					c-2.1,5.9-3.5,12.1-3.6,18.3l-0.1,2.3l0.1,2.3c0,1.6,0.3,3.1,0.4,4.7c0.5,3.1,1.1,6.2,2.1,9.1c0.4,1.5,1,3,1.6,4.4l0.9,2.2
					c0.3,0.7,0.6,1.4,0.9,2.1c1.3,2.8,2.9,5.5,4.7,8.1c3.6,5.2,7.7,10,11.9,14.8l6.3,7.1c1.1,1.2,2.1,2.4,3.2,3.6l3.4,3.4
					c4.5,4.5,9,9.1,13.2,13.9c4.2,4.8,8.2,10,11.3,15.7c3.1,5.7,5.3,11.8,7.2,17.9c0.5,1.5,1,3.1,1.4,4.6c0.4,1.5,0.9,3.1,1.3,4.6
					l1.3,4.6c0.4,1.6,0.8,3.1,1.2,4.6c1.7,6.1,3.7,12.1,6,18c4.6,11.8,10.7,23,17.7,33.6l-0.1-0.2l2.5,3.7l2.4,3.5
					c1.6,2.3,3.3,4.5,5,6.8c1.7,2.2,3.4,4.5,5.3,6.6l2.8,3.2c1,1,1.9,2,2.8,3.1l0,0c0.2,0.3,0.2,0.7-0.1,1
					C340.3,748.2,339.9,748.2,339.7,748z"/>
			</g>
			<g>
				<path d="M740.1,746.3c0,0-0.1,0-0.1,0l-0.1,0.3l0,0L740.1,746.3c0.4-1.1,1.1-1.9,1.9-2.7l2.4-2.3c1.6-1.5,3.1-3.1,4.7-4.7
					c3.1-3.1,6.3-6.2,9.2-9.5c3-3.2,5.9-6.6,8.7-9.9c2.8-3.3,5.6-6.8,7.9-10.5c0.1-0.2,0.3-0.2,0.5-0.1c0.1,0.1,0.2,0.3,0.1,0.4
					c-2,4-4.4,7.8-7,11.4c-2.7,3.5-5.6,6.9-8.5,10.2c-1.5,1.7-2.9,3.3-4.5,4.9l-4.7,4.7l-2.4,2.3c-0.8,0.8-1.6,1.6-2.4,2.3l-2.5,2.2
					c-0.8,0.8-1.7,1.5-2.9,1.8l0.2-0.4l0,0l-0.1,0.3c-0.1,0-0.1,0.1-0.2,0.1c-0.2,0.1-0.5,0-0.6-0.2
					C739.8,746.7,739.9,746.5,740.1,746.3z"/>
			</g>
			<g>
				<path d="M322.1,644.5c5.7-11.6,13.7-22.1,23.2-30.8c4.8-4.4,10-8.3,15.4-11.7c5.5-3.4,11.3-6.3,17.3-8.6c0.3-0.1,0.6,0,0.7,0.3
					c0.1,0.3,0,0.6-0.3,0.7c-5.9,2.4-11.6,5.3-17,8.7c-5.4,3.4-10.4,7.3-15.1,11.7c-9.3,8.7-16.9,19.1-22.4,30.6
					c-0.2,0.5-0.8,0.7-1.3,0.5S321.8,645,322.1,644.5C322,644.5,322,644.5,322.1,644.5z"/>
			</g>
			<g>
				<path d="M639,649.5c10.1-2.8,20.6-3.9,31.1-3.3c0.6,0,1,0.5,0.9,1.1c0,0.6-0.5,1-1.1,0.9l0,0c-10.2-0.6-20.5,0.5-30.4,3.2
					c-0.5,0.1-1.1-0.2-1.2-0.7C638.1,650.2,638.4,649.7,639,649.5z"/>
			</g>
			<g>
				<path d="M500.7,599.5c16.4,9.1,31.7,20.1,45.7,32.6c0.4,0.4,0.4,1,0.1,1.4c-0.4,0.4-1,0.4-1.4,0.1l0,0
					c-13.8-12.5-28.9-23.5-45.2-32.7c-0.4-0.2-0.5-0.7-0.3-1.1C499.8,599.4,500.3,599.3,500.7,599.5z"/>
			</g>
			<g>
				<path d="M398.6,708.7c-2.1-2.6-3.5-5.7-4.6-8.8c-1.2-3.1-2-6.3-2.6-9.6c-0.6-3.2-1.1-6.5-1.3-9.9c-0.1-3.3-0.2-6.7,0.8-10.1
					l1.3,1.2c-1.9,0.7-3.9,0.9-5.9,0.8c-2-0.1-3.9-0.5-5.7-1c-3.7-1.1-7.2-2.7-10.3-4.9c-3.1-2.1-6-4.7-8.2-7.9
					c-2.2-3.2-3.6-7.1-3.3-11.1c0.1-1,0.3-2,0.5-2.9c0.2-0.5,0.3-1,0.6-1.4c0.2-0.5,0.5-0.9,0.7-1.3c1.1-1.7,2.6-3.1,4.2-4.1
					c3.2-2.2,6.8-3.5,10.2-4.9c7-2.7,13.9-5.2,20.9-7.7c7-2.5,14-4.9,21.1-7.1c7.1-2.3,14.2-4.5,21.3-6.5c7.1-2,14.3-4.1,21.5-5.9
					c3.6-0.9,7.3-1.8,11.1-2.1c1-0.1,1.9-0.1,2.9-0.1c1,0,2,0.1,2.9,0.3c1,0.2,2,0.5,2.9,1c0.9,0.5,1.7,1,2.5,1.7c0,0,0.1,0,0.1,0.1
					l0,0c2.3,2.5,4.4,5.3,5.6,8.7c0.4,0.8,0.5,1.7,0.7,2.5c0.1,0.4,0.1,0.9,0.2,1.3l0.1,1.3c-0.1,0.9-0.1,1.8-0.2,2.7
					c-0.2,0.9-0.3,1.8-0.6,2.6c-1.1,3.3-3.2,6.2-5.5,8.7c-2.3,2.5-5,4.6-7.7,6.6c-5.5,3.9-11.4,7-17.5,9.8
					c-6.1,2.8-12.3,5.2-18.5,7.5l-0.4-1.8c6.7-0.7,13.5-0.2,20.1,1.4c6.6,1.5,12.9,4.2,18.6,7.6c11.6,6.9,21,17.2,27.2,29.1
					c6.2,11.9,9,25.7,7.5,39c-1.4,13.4-7.1,26.1-15.4,36.5c0,0.1-0.1,0.1-0.2,0c-0.1,0-0.1-0.1,0-0.2c3.9-5.4,7.1-11.2,9.5-17.4
					c2.4-6.1,4-12.6,4.7-19.1c1.3-13.1-1.5-26.5-7.6-38.2c-6.1-11.7-15.4-21.7-26.7-28.4c-5.6-3.3-11.8-5.9-18.2-7.3
					c-6.4-1.5-13-1.9-19.5-1.3c-0.5,0.1-1-0.3-1-0.8c0-0.4,0.2-0.8,0.6-1c6.2-2.3,12.3-4.7,18.3-7.5c6-2.8,11.8-5.9,17.1-9.6
					c2.7-1.9,5.2-4,7.4-6.3c2.2-2.3,4-5,5-8c0.3-0.7,0.4-1.5,0.6-2.2c0.1-0.8,0.1-1.5,0.2-2.3l-0.1-1.1c0-0.4,0-0.8-0.2-1.1
					c-0.2-0.7-0.3-1.5-0.6-2.2c-1.1-2.9-3-5.6-5.1-7.9l0.1,0.1c-0.6-0.5-1.3-1-2.1-1.4c-0.7-0.4-1.5-0.6-2.4-0.8
					c-0.8-0.2-1.7-0.2-2.6-0.3c-0.8,0-1.8,0-2.7,0.1c-3.6,0.3-7.2,1.2-10.8,2.1c-7.2,1.8-14.3,3.9-21.4,5.9
					c-7.1,2-14.2,4.1-21.3,6.4c-7.1,2.3-14.1,4.6-21.1,7.1c-7,2.5-14,5-20.9,7.6c-3.4,1.4-6.9,2.7-9.8,4.7c-1.5,1-2.8,2.1-3.7,3.6
					c-0.2,0.3-0.4,0.7-0.6,1.1c-0.2,0.4-0.3,0.8-0.5,1.2c-0.2,0.8-0.4,1.7-0.5,2.5c-0.3,3.4,0.9,6.9,3,9.8c2,2.9,4.7,5.4,7.7,7.4
					c3,2,6.3,3.6,9.7,4.6c1.7,0.5,3.5,0.8,5.2,0.9c1.7,0.1,3.5-0.1,5.1-0.6c0.5-0.2,1.1,0.1,1.3,0.6c0.1,0.2,0.1,0.4,0,0.6l0,0
					c-0.4,1.4-0.7,3-0.8,4.6c-0.1,1.6-0.1,3.2-0.1,4.8c0.1,3.2,0.4,6.5,0.9,9.7c0.5,3.2,1.2,6.4,2.1,9.5c0.9,3.1,2.1,6.2,3.9,8.9
					l0,0c0,0.1,0,0.2,0,0.2C398.7,708.7,398.6,708.7,398.6,708.7z"/>
			</g>
			<g>
				<path d="M502.5,614.8c-0.4-4.5-1.3-9-2.7-13.2c-1.5-4.2-3.6-8.2-6.1-11.9c-5.1-7.3-12.2-13.2-20.1-17.4
					c-7.9-4.2-16.7-6.9-25.6-8.1c-8.9-1.1-18.1-0.7-26.6,1.9l0,0c-0.5,0.2-1.1-0.1-1.3-0.7c-0.1-0.5,0.1-0.9,0.4-1.2
					c5.6-3.5,11.1-7.1,16.4-11c5.3-3.9,10.4-8.1,14.8-12.9c2.2-2.4,4.3-4.9,6-7.7c1.7-2.7,2.9-5.7,3.3-8.8c0.2-0.8,0.1-1.5,0.1-2.3
					c0-0.8-0.2-1.5-0.3-2.3l-0.3-1.1c-0.1-0.4-0.2-0.7-0.4-1.1c-0.4-0.7-0.6-1.4-1.1-2.1c-1.6-2.7-4-4.8-6.6-6.7l0.1,0.1
					c-1.3-0.7-2.7-1.1-4.2-1.2l-1.1,0c-0.4,0-0.7,0.1-1.1,0.1c-0.7,0-1.5,0.3-2.2,0.4c-3,0.7-5.9,2-8.8,3.3
					c-5.8,2.7-11.5,5.7-17.2,8.6l-8.6,4.4l-8.5,4.5c-2.8,1.5-5.6,3.1-8.4,4.7l-8.4,4.8l0.5-0.8l0,0c0,0.3-0.2,0.6-0.4,0.8l0,0
					l-21.5,13.2c-3.6,2.2-7.2,4.4-10.6,6.8c-3.4,2.4-6.8,5-8.3,8.5c-0.7,1.7-0.9,3.6-0.6,5.6c0.3,1.9,1,3.7,2.1,5.4
					c1.1,1.7,2.5,3.1,4,4.4c1.6,1.3,3.2,2.4,5.1,3.3c3.6,1.9,7.6,3.1,11.6,3.6c2,0.3,4.1,0.3,6,0.1c2-0.2,3.9-0.7,5.6-1.7l0.1,0
					c0.4-0.2,0.9-0.1,1.2,0.3c0.1,0.2,0.1,0.3,0.1,0.5c-0.1,2.1-0.3,4.1-0.3,6.2c0.1,2,0.5,4.1,1.1,6.1c-1.1-1.8-1.9-3.8-2.2-6
					c-0.4-2.1-0.4-4.3-0.4-6.4l1.4,0.8c-1.9,1.3-4.1,2-6.3,2.2c-2.2,0.3-4.4,0.2-6.5,0c-4.3-0.5-8.5-1.8-12.4-3.7
					c-3.9-2-7.5-4.7-10-8.5c-1.2-1.9-2.1-4-2.4-6.3c-0.2-1.1-0.2-2.3-0.1-3.4c0.1-1.2,0.5-2.3,0.9-3.4c1-2.1,2.5-3.9,4.1-5.3
					c1.6-1.5,3.4-2.8,5.1-4c3.5-2.4,7.1-4.6,10.7-6.7l21.6-13.1l-0.5,0.8l0,0v0c0-0.3,0.2-0.6,0.5-0.8l8.4-4.8
					c2.8-1.6,5.6-3.2,8.4-4.7l8.5-4.6l8.5-4.4c5.7-2.9,11.4-6,17.2-8.7c2.9-1.3,5.9-2.7,9.2-3.5c0.8-0.2,1.6-0.4,2.5-0.5
					c0.4,0,0.8-0.1,1.3-0.1l1.3,0c1.7,0.1,3.5,0.6,5,1.4c0,0,0.1,0,0.1,0.1c2.8,2,5.4,4.3,7.2,7.3c0.5,0.7,0.8,1.6,1.2,2.3
					c0.2,0.4,0.3,0.8,0.4,1.2l0.4,1.3c0.1,0.9,0.3,1.8,0.3,2.6c0,0.9,0.1,1.8-0.1,2.6c-0.4,3.5-1.8,6.8-3.6,9.7
					c-1.8,2.9-3.9,5.6-6.2,8c-4.6,4.9-9.8,9.2-15.1,13.1c-5.4,4-10.9,7.6-16.6,11.1l-0.9-1.9c8.9-2.8,18.4-3.1,27.5-2
					c9.1,1.2,18.1,4,26.3,8.3c8.1,4.4,15.5,10.4,20.7,18.1c2.6,3.9,4.5,8.1,5.9,12.5c1.3,4.4,1.9,9.1,1.8,13.6
					c0,0.1-0.1,0.1-0.2,0.1C502.6,614.9,502.5,614.9,502.5,614.8z"/>
			</g>
			<g id="Right-Paw_00000128459675979190744630000004120823098329580176_">
				<path d="M638.6,651.3c-7.2-5-14.9-9.3-22.9-12.8c-4-1.8-8.1-3.3-12.3-4.7c-4.2-1.4-8.4-2.7-12.6-3.8
					c-16.8-4.9-35.2-1.6-50.4,6.9c-3.7,2.2-7.3,4.8-9.9,8.1c-1.3,1.7-2.3,3.5-2.8,5.5c-0.2,1-0.3,2-0.2,3c0.1,1,0.3,2,0.7,3
					c0.7,1.9,1.9,3.7,3.4,5.2c1.5,1.5,3.2,2.8,5.1,3.6c1.9,0.8,4,1.1,6.1,0.9c2.1-0.2,4.2-0.8,6.3-1.5c4.1-1.4,8.3-3,12.6-4.1
					c4.3-1.1,8.8-1.7,13.3-1.5c9,0.4,17.6,3.7,25,8.5c0,0,0,0,0,0.1c0,0,0,0-0.1,0c-3.9-2-8-3.8-12.2-5c-4.2-1.2-8.5-2.1-12.8-2.2
					c-4.3-0.1-8.7,0.4-12.9,1.5c-4.2,1.1-8.3,2.7-12.5,4.1c-2.1,0.7-4.3,1.3-6.6,1.6c-2.3,0.2-4.7-0.1-6.9-1
					c-2.2-0.8-4.1-2.3-5.7-3.9c-1.6-1.7-2.9-3.6-3.7-5.8c-0.4-1.1-0.7-2.3-0.8-3.4c-0.1-1.2,0-2.4,0.2-3.5c0.6-2.3,1.7-4.4,3.1-6.2
					c2.8-3.6,6.5-6.3,10.4-8.6c3.9-2.3,8-4.1,12.2-5.5c4.2-1.5,8.6-2.6,13-3.3c4.4-0.7,8.9-1,13.4-0.7c4.5,0.3,8.9,1.1,13.2,2.2
					c4.3,1.1,8.5,2.5,12.7,3.8c4.2,1.4,8.4,3,12.4,4.8c8.1,3.6,15.9,8,23.2,13c0.5,0.3,0.6,0.9,0.3,1.4
					C639.7,651.5,639.1,651.6,638.6,651.3z"/>
			</g>
			<g>
				<path d="M630.6,774.8c-5.7,1.8-11.7,2.6-17.8,2.3c-3-0.2-6.1-0.7-9-1.7c-2.9-1-5.7-2.6-8-4.6c-2.3-2.1-4.2-4.4-6-6.8
					c-1.8-2.4-3.5-4.8-5.2-7.3c-1.7-2.5-3.3-5-4.9-7.4c-1.6-2.5-3.2-5-4.9-7.4c-0.9-1.2-1.8-2.2-2.9-3c-1.1-0.8-2.4-1.2-3.7-1.4
					c-2.7-0.4-5.6,0.2-8.1,1.4c-2.5,1.2-4.9,3-6.6,5.2c-0.9,1.1-1.5,2.3-2,3.7c-0.5,1.3-0.7,2.7-0.7,4.1c0,2.8,0.5,5.7,1.1,8.6
					c0.6,2.9,1.5,5.7,2.4,8.5c1.9,5.6,4.3,11,7.2,16.1c0.3,0.5,0.1,1-0.4,1.3c-0.5,0.3-1,0.1-1.3-0.4c0,0,0,0,0,0
					c-2.9-5.3-5.3-10.8-7.2-16.5c-0.9-2.8-1.8-5.7-2.4-8.7c-0.7-2.9-1.2-5.9-1.2-9c0-1.5,0.3-3.2,0.8-4.7c0.3-0.7,0.6-1.5,0.9-2.2
					c0.2-0.4,0.4-0.7,0.6-1c0.2-0.3,0.4-0.7,0.7-1c0.9-1.3,2-2.4,3.3-3.3c1.2-1,2.5-1.8,4-2.5c2.8-1.3,6-2,9.2-1.6
					c1.6,0.2,3.2,0.7,4.5,1.7c1.4,0.9,2.4,2.2,3.3,3.4c1.8,2.5,3.3,5,5,7.5c1.6,2.5,3.3,5,4.9,7.4c1.7,2.4,3.4,4.9,5.2,7.2
					c1.8,2.3,3.7,4.6,5.8,6.5c2.1,1.9,4.6,3.3,7.3,4.2c2.7,0.9,5.6,1.5,8.5,1.8C618.7,775.9,624.6,775.3,630.6,774.8z"/>
			</g>
		</g>
		<g id="Face">
			<g>
				<path d="M733,614.9c-0.8-1.3-1.7-2.5-2.7-3.5c-1-1-2.1-1.9-3.3-2.5c-1.2-0.6-2.5-1.2-3.9-1.5c-1.4-0.3-2.8-0.5-4.4-0.6
					c1.4-0.8,3-1.1,4.6-1c1.6,0,3.2,0.5,4.7,1.3c1.4,0.8,2.6,2,3.5,3.3C732.4,611.8,733,613.4,733,614.9z"/>
			</g>
			<g>
				<path d="M769,636.4c1.5-0.5,3.1-0.6,4.7-0.4c1.6,0.2,3.1,0.9,4.5,1.8c1.3,0.9,2.4,2.2,3.2,3.7c0.7,1.4,1.1,3,1,4.6
					c-0.7-1.4-1.5-2.6-2.4-3.8c-0.9-1.1-1.9-2.1-3-2.9C774.8,637.8,772.1,636.9,769,636.4z"/>
			</g>
			<g>
				<path d="M715.8,638.4c0.5,2.3,1.6,4.5,3.2,6.3c1.6,1.7,3.7,3,5.9,3.6c2.2,0.6,4.6,0.4,6.7-0.4c2.1-0.8,3.9-2.4,5.2-4.2l0.4-0.6
					l1.3,0.9l-0.5,0.6c-1.5,2-3.6,3.6-6,4.4c-2.4,0.8-5,0.9-7.4,0.1c-2.4-0.7-4.5-2.2-6-4C717.1,643.1,716.1,640.8,715.8,638.4
					L715.8,638.4L715.8,638.4L715.8,638.4z"/>
			</g>
			<g>
				<path d="M749.3,664.6c-2.4,0.2-4.9-0.2-7.1-1.2c-2.2-1.1-4.1-2.8-5.4-4.9c-1.3-2.1-1.9-4.7-1.7-7.2c0.2-2.5,1.2-4.9,2.8-6.9
					l0.5-0.6l1.2,1l-0.5,0.6c-1.5,1.7-2.5,3.8-2.8,6.1c-0.3,2.2,0.1,4.6,1.2,6.6c1.1,2,2.8,3.8,4.9,4.9
					C744.6,664.1,747,664.7,749.3,664.6L749.3,664.6L749.3,664.6L749.3,664.6z"/>
			</g>
			<path class="st23" d="M737.9,634.2c0.1,2.6-2.9,11.9,2.9,10.1c2.2-1.4,11.7-3.4,7.3-7.5C745.7,635.5,739.2,628.3,737.9,634.2z"/>
		</g>
		<g>
			<path d="M527.6,657.9c2.4-6,7.1-11,12.8-13.5c0,0,0.1,0,0.1,0c0,0,0,0.1,0,0.1c-5.4,3.1-9.4,8.3-11,14c-0.1,0.5-0.7,0.8-1.2,0.7
				c-0.5-0.1-0.8-0.7-0.7-1.2C527.6,658,527.6,658,527.6,657.9L527.6,657.9z"/>
		</g>
		<g>
			<path d="M534.7,664.4c2.4-6,7.1-11,12.8-13.5c0,0,0.1,0,0.1,0c0,0,0,0.1,0,0.1c-5.4,3.1-9.4,8.3-11,14c-0.1,0.5-0.7,0.8-1.2,0.7
				c-0.5-0.1-0.8-0.7-0.7-1.2C534.7,664.5,534.7,664.4,534.7,664.4L534.7,664.4z"/>
		</g>
		<g>
			<path d="M556.5,741.4c-0.1,5.9,1,11.8,3.3,17.4c0,0,0,0.1,0,0.1c0,0-0.1,0-0.1,0c-2.9-5.3-4.7-11.2-5.2-17.4c0-0.6,0.4-1,0.9-1.1
				c0.6,0,1,0.4,1.1,0.9C556.5,741.3,556.5,741.3,556.5,741.4z"/>
		</g>
		<g>
			<path d="M565.1,737.2c0.1,5.9,1.7,11.8,4.9,17c0,0,0,0.1,0,0.1c0,0-0.1,0-0.1,0c-3.7-4.8-6-10.7-6.7-16.9l0,0
				c-0.1-0.5,0.3-1,0.9-1.1c0.5-0.1,1,0.3,1.1,0.9C565.1,737.1,565.1,737.1,565.1,737.2z"/>
		</g>
		<g>
			<path d="M453.9,514.7c1.9,0,3.7,0.9,5,2.4c1.3,1.5,2,3.3,2.2,5.2c0.1,0.9,0.1,1.9,0,2.8c0,0.9-0.2,1.9-0.4,2.8
				c-0.4,1.8-1.1,3.5-2,5.1c0.7-1.7,1.2-3.4,1.4-5.2c0.1-0.9,0.2-1.8,0.1-2.7c0-0.9-0.1-1.8-0.2-2.6c-0.2-0.8-0.4-1.7-0.8-2.4
				c-0.4-0.8-0.8-1.5-1.3-2.2C457,516.5,455.6,515.4,453.9,514.7L453.9,514.7z"/>
		</g>
		<g>
			<path d="M481.2,614.4c1.8,0.4,3.4,1.8,4.3,3.5c0.9,1.7,1.1,3.7,0.9,5.6c-0.1,0.9-0.4,1.9-0.6,2.7c-0.3,0.9-0.6,1.8-1,2.6
				c-0.8,1.7-1.9,3.2-3.2,4.5c1.1-1.5,2-3,2.6-4.7c0.3-0.8,0.6-1.7,0.8-2.6c0.2-0.9,0.4-1.7,0.4-2.6c0-0.9,0-1.7-0.2-2.6
				c-0.2-0.9-0.4-1.7-0.7-2.4C483.8,616.9,482.7,615.6,481.2,614.4L481.2,614.4z"/>
		</g>
		<g>
			<path d="M452.9,510.5c1.8-0.5,3.9,0,5.5,1.1c1.6,1.1,2.7,2.8,3.4,4.5c0.3,0.9,0.6,1.8,0.7,2.7c0.2,0.9,0.3,1.8,0.3,2.8
				c0.1,1.8-0.2,3.7-0.7,5.4c0.3-1.8,0.3-3.6,0.1-5.4c-0.1-0.9-0.3-1.8-0.5-2.6c-0.2-0.9-0.5-1.7-0.9-2.5c-0.4-0.8-0.8-1.5-1.4-2.2
				c-0.6-0.7-1.1-1.3-1.8-1.8C456.4,511.5,454.7,510.8,452.9,510.5L452.9,510.5z"/>
		</g>
	</g>
</g>
</svg>
